<svg width="141" height="135" viewBox="0 0 141 135" fill="none" xmlns="http://www.w3.org/2000/svg">
<path d="M125.926 23.985C139.453 39.3661 143.206 60.79 139.309 80.9339C135.367 101.31 124.063 120.249 105.526 129.435C87.2713 138.481 65.6333 135.804 47.559 126.401C30.6748 117.616 20.613 100.92 15.415 82.5526C9.97917 63.3453 7.24272 41.7864 19.0695 25.7339C31.0234 9.50887 52.4431 5.34565 72.54 5.01672C92.3972 4.69171 112.78 9.03765 125.926 23.985Z" fill="#F9D201"/>
<path d="M115.175 19.6454C128.452 34.7413 132.18 55.8276 128.327 75.7439C124.426 95.9089 113.262 114.53 95.0816 123.539C77.1909 132.405 55.8986 129.815 38.0206 120.514C21.4686 111.902 11.5322 95.4955 6.37718 77.2803C0.946348 58.0906 -1.64708 36.9655 9.87461 21.327C21.5283 5.50941 42.505 1.34477 62.5563 1.01658C82.3016 0.69341 102.316 5.02523 115.175 19.6454Z" stroke="white" stroke-width="2"/>
<g clip-path="url(#clip0)">
<path d="M50.7999 44.7998C48.4976 44.7998 46.5999 46.6975 46.5999 48.9998V79.7998C46.5999 80.8498 46.9992 81.8178 47.6499 82.5561L41.5687 90.6936C41.1749 91.224 40.9999 91.8529 40.9999 92.3998C40.9999 92.4107 40.9999 92.4326 40.9999 92.4436V93.7998C40.9781 96.1021 42.8976 97.9998 45.1999 97.9998H106.8C109.102 97.9998 111.022 96.1021 111 93.7998V92.4436C111 92.4326 111 92.4107 111 92.3998C111 91.8529 110.83 91.224 110.431 90.6936L104.35 82.5561C105.001 81.8178 105.4 80.8498 105.4 79.7998V48.9998C105.4 46.6975 103.502 44.7998 101.2 44.7998H50.7999ZM50.7999 47.5998H101.2C101.993 47.5998 102.6 48.2068 102.6 48.9998V79.7998C102.6 80.5928 101.993 81.1998 101.2 81.1998H50.7999C50.007 81.1998 49.3999 80.5928 49.3999 79.7998V48.9998C49.3999 48.2068 50.007 47.5998 50.7999 47.5998ZM74.5999 50.3998V78.3998H77.3999V50.3998H74.5999ZM54.6062 51.7998C53.8351 51.9092 53.2937 52.6256 53.4031 53.3967C53.5124 54.1678 54.2288 54.7092 54.9999 54.5998H68.9999C69.5031 54.6053 69.9734 54.3428 70.2304 53.9053C70.482 53.4678 70.482 52.9318 70.2304 52.4943C69.9734 52.0568 69.5031 51.7943 68.9999 51.7998H54.9999C54.9562 51.7998 54.9124 51.7998 54.8687 51.7998C54.8249 51.7998 54.7812 51.7998 54.7374 51.7998C54.6937 51.7998 54.6499 51.7998 54.6062 51.7998ZM82.6062 51.7998C81.8351 51.9092 81.2937 52.6256 81.4031 53.3967C81.5124 54.1678 82.2288 54.7092 82.9999 54.5998H96.9999C97.5031 54.6053 97.9734 54.3428 98.2304 53.9053C98.482 53.4678 98.482 52.9318 98.2304 52.4943C97.9734 52.0568 97.5031 51.7943 96.9999 51.7998H82.9999C82.9562 51.7998 82.9124 51.7998 82.8687 51.7998C82.8249 51.7998 82.7812 51.7998 82.7374 51.7998C82.6937 51.7998 82.6499 51.7998 82.6062 51.7998ZM54.6062 57.3998C53.8351 57.5092 53.2937 58.2256 53.4031 58.9967C53.5124 59.7678 54.2288 60.3092 54.9999 60.1998H64.7999C65.3031 60.2053 65.7734 59.9428 66.0304 59.5053C66.282 59.0678 66.282 58.5318 66.0304 58.0943C65.7734 57.6568 65.3031 57.3943 64.7999 57.3998H54.9999C54.9562 57.3998 54.9124 57.3998 54.8687 57.3998C54.8249 57.3998 54.7812 57.3998 54.7374 57.3998C54.6937 57.3998 54.6499 57.3998 54.6062 57.3998ZM82.6062 57.3998C81.8351 57.5092 81.2937 58.2256 81.4031 58.9967C81.5124 59.7678 82.2288 60.3092 82.9999 60.1998H92.7999C93.3031 60.2053 93.7734 59.9428 94.0304 59.5053C94.282 59.0678 94.282 58.5318 94.0304 58.0943C93.7734 57.6568 93.3031 57.3943 92.7999 57.3998H82.9999C82.9562 57.3998 82.9124 57.3998 82.8687 57.3998C82.8249 57.3998 82.7812 57.3998 82.7374 57.3998C82.6937 57.3998 82.6499 57.3998 82.6062 57.3998ZM54.6062 62.9998C53.8351 63.1092 53.2937 63.8256 53.4031 64.5967C53.5124 65.3678 54.2288 65.9092 54.9999 65.7998H68.9999C69.5031 65.8053 69.9734 65.5428 70.2304 65.1053C70.482 64.6678 70.482 64.1318 70.2304 63.6943C69.9734 63.2568 69.5031 62.9943 68.9999 62.9998H54.9999C54.9562 62.9998 54.9124 62.9998 54.8687 62.9998C54.8249 62.9998 54.7812 62.9998 54.7374 62.9998C54.6937 62.9998 54.6499 62.9998 54.6062 62.9998ZM82.6062 62.9998C81.8351 63.1092 81.2937 63.8256 81.4031 64.5967C81.5124 65.3678 82.2288 65.9092 82.9999 65.7998H96.9999C97.5031 65.8053 97.9734 65.5428 98.2304 65.1053C98.482 64.6678 98.482 64.1318 98.2304 63.6943C97.9734 63.2568 97.5031 62.9943 96.9999 62.9998H82.9999C82.9562 62.9998 82.9124 62.9998 82.8687 62.9998C82.8249 62.9998 82.7812 62.9998 82.7374 62.9998C82.6937 62.9998 82.6499 62.9998 82.6062 62.9998ZM54.6062 68.5998C53.8351 68.7092 53.2937 69.4256 53.4031 70.1967C53.5124 70.9678 54.2288 71.5092 54.9999 71.3998H64.7999C65.3031 71.4053 65.7734 71.1428 66.0304 70.7053C66.282 70.2678 66.282 69.7318 66.0304 69.2943C65.7734 68.8568 65.3031 68.5943 64.7999 68.5998H54.9999C54.9562 68.5998 54.9124 68.5998 54.8687 68.5998C54.8249 68.5998 54.7812 68.5998 54.7374 68.5998C54.6937 68.5998 54.6499 68.5998 54.6062 68.5998ZM82.6062 68.5998C81.8351 68.7092 81.2937 69.4256 81.4031 70.1967C81.5124 70.9678 82.2288 71.5092 82.9999 71.3998H92.7999C93.3031 71.4053 93.7734 71.1428 94.0304 70.7053C94.282 70.2678 94.282 69.7318 94.0304 69.2943C93.7734 68.8568 93.3031 68.5943 92.7999 68.5998H82.9999C82.9562 68.5998 82.9124 68.5998 82.8687 68.5998C82.8249 68.5998 82.7812 68.5998 82.7374 68.5998C82.6937 68.5998 82.6499 68.5998 82.6062 68.5998ZM54.6062 74.1998C53.8351 74.3092 53.2937 75.0256 53.4031 75.7967C53.5124 76.5678 54.2288 77.1092 54.9999 76.9998H68.9999C69.5031 77.0053 69.9734 76.7428 70.2304 76.3053C70.482 75.8678 70.482 75.3318 70.2304 74.8943C69.9734 74.4568 69.5031 74.1943 68.9999 74.1998H54.9999C54.9562 74.1998 54.9124 74.1998 54.8687 74.1998C54.8249 74.1998 54.7812 74.1998 54.7374 74.1998C54.6937 74.1998 54.6499 74.1998 54.6062 74.1998ZM82.6062 74.1998C81.8351 74.3092 81.2937 75.0256 81.4031 75.7967C81.5124 76.5678 82.2288 77.1092 82.9999 76.9998H96.9999C97.5031 77.0053 97.9734 76.7428 98.2304 76.3053C98.482 75.8678 98.482 75.3318 98.2304 74.8943C97.9734 74.4568 97.5031 74.1943 96.9999 74.1998H82.9999C82.9562 74.1998 82.9124 74.1998 82.8687 74.1998C82.8249 74.1998 82.7812 74.1998 82.7374 74.1998C82.6937 74.1998 82.6499 74.1998 82.6062 74.1998ZM50.4499 83.9998H101.9C101.911 83.9998 101.938 83.9889 101.944 83.9998L108.2 92.3561V93.7998C108.205 94.5818 107.582 95.1998 106.8 95.1998H45.1999C44.4179 95.1998 43.7945 94.5818 43.7999 93.7998V92.3561L49.8374 84.3061C50.0398 84.2021 50.2421 84.1037 50.4499 83.9998ZM68.2999 88.1998C67.8242 88.1998 67.3757 88.4568 67.1187 88.8561L64.7999 92.3998H87.1999L84.8812 88.8561C84.6242 88.4568 84.1757 88.1998 83.6999 88.1998H68.2999Z" fill="white"/>
</g>
<defs>
<clipPath id="clip0">
<rect width="70" height="70" fill="white" transform="translate(41 35)"/>
</clipPath>
</defs>
</svg>
