<svg width="80" height="80" viewBox="0 0 80 80" fill="none" xmlns="http://www.w3.org/2000/svg">
<g clip-path="url(#clip0)">
<path d="M70.215 35H75C77.9238 35 80.2613 32.49 79.9763 29.5088C79.7275 26.9088 77.3963 25 74.785 25H66.385C65.14 25 63.985 24.1488 63.785 22.92C63.5288 21.3538 64.7313 20 66.25 20H68.125C71.4138 20 74.0438 17.1775 73.7238 13.8225C73.445 10.8975 70.8213 8.75 67.8825 8.75H56.875C55.84 8.75 55 7.91 55 6.875C55 5.84 55.84 5 56.875 5H61.1163C62.3613 5 63.5163 4.14875 63.7163 2.92C63.9713 1.35375 62.7688 0 61.25 0H18.8838C17.6388 0 16.4838 0.85125 16.2838 2.08C16.0288 3.64625 17.2313 5 18.75 5H21.875C22.91 5 23.75 5.84 23.75 6.875C23.75 7.91 22.91 8.75 21.875 8.75H13.3675C10.43 8.75 7.80629 10.8975 7.52754 13.8225C7.20629 17.1775 9.83629 20 13.125 20H13.6163C14.8613 20 16.0163 20.8512 16.2163 22.08C16.4713 23.6462 15.2688 25 13.75 25H5.86629C2.92879 25 0.305039 27.1475 0.0262895 30.0725C-0.293711 33.4275 2.33629 36.25 5.62504 36.25H10.3838C13.3213 36.25 15.945 38.3975 16.2238 41.3225C16.5438 44.6775 13.9138 47.5 10.625 47.5H10.2688C7.00504 47.5 4.08879 49.8862 3.78004 53.1362C3.42379 56.8638 6.34629 60 10 60H16.875C18.6013 60 20 61.3988 20 63.125C20 64.8512 18.6013 66.25 16.875 66.25H15.8725C13.5038 66.25 11.38 68.0238 11.2563 70.39C11.1238 72.9125 13.1313 75 15.625 75H63.565C66.1613 75 68.48 73.1012 68.7275 70.5175C69.01 67.5525 66.6863 65.0575 63.7788 65.0575H63.1538C60.7213 65.0575 58.75 63.0863 58.75 60.6537C58.75 58.2212 60.7213 56.25 63.1538 56.25H70.3838C73.3213 56.25 75.945 54.1013 76.2238 51.1775C76.5438 47.8225 73.9138 45 70.625 45H70C67.0763 45 64.7388 42.49 65.0238 39.5088C65.2713 36.9088 67.6038 35 70.215 35Z" fill="#B179FC"/>
<path d="M34 56.25H46L50 66.25H30L34 56.25Z" fill="url(#paint0_linear)"/>
<path d="M58.235 46.25H21.765C14.5888 46.25 8.75 40.4112 8.75 33.235V31.8062C8.75 26.675 12.925 22.5 18.0562 22.5H61.9425C67.075 22.5 71.25 26.675 71.25 31.8062V33.235C71.25 40.4112 65.4113 46.25 58.235 46.25ZM18.0562 28.75C16.3712 28.75 15 30.1212 15 31.8062V33.235C15 36.965 18.035 40 21.765 40H58.235C61.965 40 65 36.965 65 33.235V31.8062C65 30.1212 63.6287 28.75 61.9437 28.75H18.0562Z" fill="url(#paint1_linear)"/>
<path d="M28.75 70H51.25C52.6313 70 53.75 68.8812 53.75 67.5C53.75 66.1187 52.6313 65 51.25 65H28.75C27.3687 65 26.25 66.1187 26.25 67.5C26.25 68.8812 27.3687 70 28.75 70Z" fill="url(#paint2_linear)"/>
<path d="M21.25 16.25H58.75V40C58.75 46.9037 53.1537 52.5 46.25 52.5L40 53.75L33.75 52.5C26.8463 52.5 21.25 46.9037 21.25 40V16.25Z" fill="url(#paint3_linear)"/>
<path d="M32.5 57.5H47.5C48.8813 57.5 50 56.3812 50 55C50 53.6187 48.8813 52.5 47.5 52.5H32.5C31.1187 52.5 30 53.6187 30 55C30 56.3812 31.1187 57.5 32.5 57.5Z" fill="url(#paint4_linear)"/>
<path d="M20.5825 17.5H59.4175C61.12 17.5 62.5 16.12 62.5 14.4175V14.3325C62.5 12.63 61.12 11.25 59.4175 11.25H20.5825C18.88 11.25 17.5 12.63 17.5 14.3325V14.4175C17.5 16.12 18.88 17.5 20.5825 17.5Z" fill="url(#paint5_linear)"/>
<path d="M31.875 17.5H21.25V40C21.25 42.8125 22.1875 45.4125 23.7625 47.5H44.375C46.7913 47.5 48.75 45.5413 48.75 43.125C48.75 40.7087 46.7913 38.75 44.375 38.75H31.875C30.8375 38.75 30 37.9125 30 36.875C30 35.8375 30.8375 35 31.875 35H42.5V28.75H28.75C27.3763 28.75 26.25 27.625 26.25 26.25C26.25 25.5625 26.525 24.9375 26.9875 24.4875C27.4375 24.0238 28.0625 23.75 28.75 23.75H31.7C33.2775 23.75 34.7388 22.6637 34.9675 21.1025C34.99 20.9475 35.0013 20.795 35.0025 20.645C35.0138 18.9063 33.6112 17.5 31.875 17.5Z" fill="url(#paint6_linear)"/>
<path d="M34.9237 28.5538L39.9825 25.3638C40.32 25.155 40.7612 25 41.2012 25C42.4725 25 43.485 26.0375 43.485 27.2825V42.64C43.485 43.9375 42.4212 45 41.1237 45C39.8262 45 38.7637 43.9362 38.7637 42.64V30.7075L36.9737 31.8225C36.6887 32.0038 36.325 32.1075 35.9625 32.1075C34.8987 32.1075 34.0175 31.2512 34.0175 30.1875C34.015 29.5137 34.405 28.8913 34.9237 28.5538Z" fill="url(#paint7_linear)"/>
</g>
<defs>
<linearGradient id="paint0_linear" x1="40" y1="67.145" x2="40" y2="57.0837" gradientUnits="userSpaceOnUse">
<stop stop-color="#FD9557"/>
<stop offset="1" stop-color="#FDB45B"/>
</linearGradient>
<linearGradient id="paint1_linear" x1="40" y1="66.8462" x2="40" y2="18.1787" gradientUnits="userSpaceOnUse">
<stop stop-color="#FD9557"/>
<stop offset="1" stop-color="#FDB45B"/>
</linearGradient>
<linearGradient id="paint2_linear" x1="40" y1="69.655" x2="40" y2="61.88" gradientUnits="userSpaceOnUse">
<stop stop-color="#FCA853"/>
<stop offset="0.612" stop-color="#FDCB49"/>
<stop offset="1" stop-color="#FDDC44"/>
</linearGradient>
<linearGradient id="paint3_linear" x1="40" y1="62.575" x2="40" y2="-12.6925" gradientUnits="userSpaceOnUse">
<stop stop-color="#FCA853"/>
<stop offset="0.612" stop-color="#FDCB49"/>
<stop offset="1" stop-color="#FDDC44"/>
</linearGradient>
<linearGradient id="paint4_linear" x1="40" y1="57.155" x2="40" y2="49.38" gradientUnits="userSpaceOnUse">
<stop stop-color="#FCA853"/>
<stop offset="0.612" stop-color="#FDCB49"/>
<stop offset="1" stop-color="#FDDC44"/>
</linearGradient>
<linearGradient id="paint5_linear" x1="40" y1="17.0688" x2="40" y2="7.35" gradientUnits="userSpaceOnUse">
<stop stop-color="#FCA853"/>
<stop offset="0.612" stop-color="#FDCB49"/>
<stop offset="1" stop-color="#FDDC44"/>
</linearGradient>
<linearGradient id="paint6_linear" x1="35" y1="56.5512" x2="35" y2="-5.2525" gradientUnits="userSpaceOnUse">
<stop stop-color="#FDB265"/>
<stop offset="0.612" stop-color="#FFD15D"/>
<stop offset="1" stop-color="#FDE058"/>
</linearGradient>
<linearGradient id="paint7_linear" x1="38.7512" y1="78.3687" x2="38.7512" y2="26.0125" gradientUnits="userSpaceOnUse">
<stop stop-color="#FCA853"/>
<stop offset="0.612" stop-color="#FDCB49"/>
<stop offset="1" stop-color="#FDDC44"/>
</linearGradient>
<clipPath id="clip0">
<rect width="80" height="80" fill="white"/>
</clipPath>
</defs>
</svg>
