<svg width="1440" height="831" viewBox="0 0 1440 831" fill="none" xmlns="http://www.w3.org/2000/svg">
<path d="M0 0L1440 0V831H0L0 0Z" fill="#A166F0"/>
<g clip-path="url(#clip0)">
<g opacity="0.6">
<path opacity="0.6" fill-rule="evenodd" clip-rule="evenodd" d="M730.624 657.839C729.905 657.839 729.323 658.422 729.323 659.141L729.323 684.306C729.323 685.024 729.905 685.607 730.624 685.607C731.342 685.607 731.925 685.024 731.925 684.306L731.925 659.141C731.925 658.422 731.342 657.839 730.624 657.839Z" fill="#FFC75A"/>
<path opacity="0.6" fill-rule="evenodd" clip-rule="evenodd" d="M716.662 671.636C716.662 672.355 717.244 672.938 717.963 672.938L743.111 672.938C743.829 672.938 744.412 672.355 744.412 671.636C744.412 670.917 743.829 670.334 743.111 670.334L717.963 670.334C717.244 670.334 716.662 670.917 716.662 671.636Z" fill="#FFC75A"/>
<path opacity="0.6" fill-rule="evenodd" clip-rule="evenodd" d="M723.67 664.833C723.161 665.342 723.161 666.166 723.67 666.674L735.705 678.718C736.213 679.226 737.037 679.226 737.545 678.718C738.053 678.209 738.053 677.385 737.545 676.877L725.509 664.833C725.001 664.325 724.177 664.325 723.67 664.833Z" fill="#FFC75A"/>
<path opacity="0.6" fill-rule="evenodd" clip-rule="evenodd" d="M723.528 678.718C724.035 679.226 724.859 679.226 725.367 678.718L737.402 666.675C737.91 666.166 737.91 665.342 737.402 664.834C736.895 664.326 736.071 664.326 735.563 664.834L723.528 676.877C723.019 677.386 723.019 678.21 723.528 678.718Z" fill="#FFC75A"/>
<path opacity="0.6" fill-rule="evenodd" clip-rule="evenodd" d="M834.708 728.806C833.989 728.806 833.407 729.389 833.407 730.107L833.407 755.273C833.407 755.991 833.989 756.574 834.708 756.574C835.427 756.574 836.009 755.991 836.009 755.273L836.009 730.107C836.009 729.389 835.427 728.806 834.708 728.806Z" fill="#F08A4F"/>
<path opacity="0.6" fill-rule="evenodd" clip-rule="evenodd" d="M820.746 742.604C820.746 743.322 821.328 743.904 822.047 743.904L847.196 743.904C847.914 743.904 848.497 743.322 848.497 742.604C848.497 741.884 847.914 741.302 847.196 741.302L822.047 741.302C821.328 741.302 820.746 741.884 820.746 742.604Z" fill="#F08A4F"/>
<path opacity="0.6" fill-rule="evenodd" clip-rule="evenodd" d="M827.755 735.801C827.247 736.309 827.247 737.133 827.755 737.641L839.791 749.684C840.298 750.193 841.122 750.193 841.63 749.684C842.138 749.176 842.138 748.352 841.63 747.844L829.594 735.801C829.087 735.292 828.263 735.292 827.755 735.801Z" fill="#F08A4F"/>
<path opacity="0.6" fill-rule="evenodd" clip-rule="evenodd" d="M827.612 749.685C828.12 750.193 828.944 750.193 829.452 749.685L841.488 737.641C841.995 737.133 841.995 736.309 841.488 735.801C840.98 735.292 840.156 735.292 839.648 735.801L827.612 747.844C827.104 748.353 827.104 749.177 827.612 749.685Z" fill="#F08A4F"/>
<g opacity="0.5">
<path opacity="0.5" fill-rule="evenodd" clip-rule="evenodd" d="M552.869 772.193C552.151 772.193 551.568 772.775 551.568 773.495L551.568 798.659C551.568 799.378 552.151 799.961 552.869 799.961C553.587 799.961 554.169 799.378 554.169 798.659L554.169 773.495C554.169 772.775 553.587 772.193 552.869 772.193Z" fill="#F08A4F"/>
<path opacity="0.5" fill-rule="evenodd" clip-rule="evenodd" d="M538.907 785.99C538.907 786.709 539.489 787.292 540.207 787.292L565.357 787.292C566.075 787.292 566.657 786.709 566.657 785.99C566.657 785.272 566.075 784.688 565.357 784.688L540.207 784.688C539.489 784.688 538.907 785.272 538.907 785.99Z" fill="#F08A4F"/>
<path opacity="0.5" fill-rule="evenodd" clip-rule="evenodd" d="M545.916 779.188C545.408 779.696 545.408 780.52 545.916 781.029L557.952 793.072C558.459 793.58 559.283 793.58 559.791 793.072C560.299 792.563 560.299 791.739 559.791 791.231L547.756 779.188C547.247 778.679 546.424 778.679 545.916 779.188Z" fill="#F08A4F"/>
<path opacity="0.5" fill-rule="evenodd" clip-rule="evenodd" d="M545.773 793.072C546.281 793.581 547.105 793.581 547.612 793.072L559.649 781.029C560.157 780.52 560.157 779.696 559.649 779.188C559.14 778.68 558.317 778.68 557.809 779.188L545.773 791.232C545.265 791.74 545.265 792.564 545.773 793.072Z" fill="#F08A4F"/>
</g>
<path opacity="0.6" fill-rule="evenodd" clip-rule="evenodd" d="M975.797 817.425C975.289 817.933 975.289 818.757 975.797 819.265L980.702 824.174C981.21 824.682 982.034 824.682 982.542 824.174C983.05 823.666 983.05 822.842 982.542 822.333L977.636 817.425C977.128 816.916 976.305 816.916 975.797 817.425Z" fill="#F08A4F"/>
<path opacity="0.6" fill-rule="evenodd" clip-rule="evenodd" d="M975.796 824.174C976.304 824.682 977.128 824.682 977.636 824.174L982.542 819.265C983.05 818.757 983.05 817.933 982.542 817.425C982.034 816.916 981.21 816.916 980.702 817.425L975.796 822.333C975.289 822.842 975.289 823.666 975.796 824.174Z" fill="#F08A4F"/>
<path opacity="0.6" fill-rule="evenodd" clip-rule="evenodd" d="M655.545 819.919C654.827 819.919 654.245 820.502 654.245 821.221L654.245 829.899C654.245 830.618 654.827 831.2 655.545 831.2C656.263 831.2 656.846 830.618 656.846 829.899L656.846 821.221C656.846 820.502 656.263 819.919 655.545 819.919Z" fill="#FFC75A"/>
<path opacity="0.6" fill-rule="evenodd" clip-rule="evenodd" d="M649.909 825.561C649.909 826.28 650.491 826.862 651.209 826.862L659.882 826.862C660.6 826.862 661.182 826.28 661.182 825.561C661.182 824.841 660.6 824.259 659.882 824.259L651.209 824.259C650.491 824.259 649.909 824.841 649.909 825.561Z" fill="#FFC75A"/>
<path opacity="0.6" fill-rule="evenodd" clip-rule="evenodd" d="M943.995 650.624C943.277 650.624 942.694 651.207 942.694 651.926L942.694 660.603C942.694 661.322 943.277 661.905 943.995 661.905C944.714 661.905 945.296 661.322 945.296 660.603L945.296 651.926C945.296 651.207 944.714 650.624 943.995 650.624Z" fill="#FFC75A"/>
<path opacity="0.6" fill-rule="evenodd" clip-rule="evenodd" d="M938.359 656.265C938.359 656.983 938.941 657.566 939.659 657.566L948.331 657.566C949.05 657.566 949.632 656.983 949.632 656.265C949.632 655.546 949.05 654.963 948.331 654.963L939.659 654.963C938.941 654.963 938.359 655.546 938.359 656.265Z" fill="#FFC75A"/>
<path opacity="0.6" fill-rule="evenodd" clip-rule="evenodd" d="M458.071 807.641C457.563 808.15 457.563 808.974 458.071 809.483L464.203 815.618C464.711 816.127 465.535 816.127 466.043 815.618C466.551 815.11 466.551 814.286 466.043 813.778L459.911 807.641C459.402 807.133 458.579 807.133 458.071 807.641Z" fill="#FFC75A"/>
<path opacity="0.6" fill-rule="evenodd" clip-rule="evenodd" d="M458.072 815.619C458.579 816.128 459.403 816.128 459.911 815.619L466.043 809.483C466.551 808.975 466.551 808.151 466.043 807.642C465.535 807.134 464.711 807.134 464.203 807.642L458.072 813.778C457.563 814.286 457.563 815.11 458.072 815.619Z" fill="#FFC75A"/>
<path opacity="0.6" fill-rule="evenodd" clip-rule="evenodd" d="M539.223 685.795C538.506 685.795 537.923 686.378 537.923 687.097L537.923 695.774C537.923 696.493 538.506 697.076 539.223 697.076C539.942 697.076 540.524 696.493 540.524 695.774L540.524 687.097C540.524 686.378 539.942 685.795 539.223 685.795Z" fill="#FFC75A" fill-opacity="0.5"/>
<path opacity="0.6" fill-rule="evenodd" clip-rule="evenodd" d="M533.587 691.435C533.587 692.154 534.169 692.737 534.887 692.737L543.559 692.737C544.278 692.737 544.86 692.154 544.86 691.435C544.86 690.717 544.278 690.134 543.559 690.134L534.887 690.134C534.169 690.134 533.587 690.717 533.587 691.435Z" fill="#FFC75A" fill-opacity="0.5"/>
<path opacity="0.6" d="M622.587 752.252L630.972 760.641L632.648 762.319L636.001 765.675C636.928 766.601 636.928 768.103 636.001 769.03C635.075 769.957 633.574 769.957 632.648 769.03L629.295 765.675L627.618 763.997L619.234 755.608C618.308 754.68 618.308 753.179 619.234 752.252C620.16 751.325 621.662 751.325 622.587 752.252Z" fill="white" fill-opacity="0.3"/>
<path opacity="0.6" d="M631.017 757.24C629.772 755.994 629.772 753.974 631.017 752.729C632.262 751.483 634.28 751.483 635.525 752.729C636.77 753.974 636.77 755.994 635.525 757.24C634.28 758.486 632.262 758.486 631.017 757.24Z" fill="white" fill-opacity="0.3"/>
<path opacity="0.6" d="M619.699 768.565C618.453 767.319 618.453 765.3 619.699 764.054C620.944 762.808 622.963 762.808 624.208 764.054C625.453 765.3 625.453 767.319 624.208 768.565C622.963 769.811 620.944 769.811 619.699 768.565Z" fill="white" fill-opacity="0.3"/>
<g opacity="0.3">
<path opacity="0.3" d="M799.806 792.184L804.118 795.637C804.497 795.939 804.717 796.399 804.717 796.884L804.717 796.887C804.717 797.697 804.061 798.353 803.252 798.353C802.959 798.353 802.673 798.265 802.429 798.1L800.763 796.979L800.763 816.396C800.763 817.189 800.12 817.833 799.328 817.833C798.535 817.833 797.893 817.189 797.893 816.396L797.893 796.98L796.225 798.101C795.556 798.556 794.645 798.382 794.19 797.711C794.026 797.468 793.937 797.181 793.937 796.888L793.937 796.884C793.937 796.399 794.158 795.939 794.537 795.637L798.849 792.184C799.129 791.959 799.526 791.961 799.806 792.184Z" fill="white"/>
<path opacity="0.3" d="M812.527 793.452L812.527 812.869L814.193 811.747C814.863 811.292 815.774 811.467 816.229 812.137C816.394 812.38 816.482 812.667 816.482 812.96L816.482 812.963C816.482 813.449 816.26 813.909 815.882 814.212L811.569 817.664C811.29 817.887 810.893 817.887 810.614 817.664L806.301 814.212C805.923 813.909 805.701 813.449 805.701 812.963L805.701 812.961C805.701 812.151 806.359 811.495 807.167 811.495C807.461 811.495 807.748 811.583 807.99 811.747L809.657 812.869L809.657 793.452C809.657 792.658 810.299 792.015 811.092 792.015C811.884 792.015 812.527 792.658 812.527 793.452Z" fill="white"/>
</g>
</g>
</g>
<defs>
<clipPath id="clip0">
<rect width="181" height="532" fill="white" transform="translate(986 650) rotate(90)"/>
</clipPath>
</defs>
</svg>
