<svg width="320" height="291" viewBox="0 0 320 291" fill="none" xmlns="http://www.w3.org/2000/svg">
<path d="M282.133 164.887C273.165 215.574 238.713 241.32 199.949 249.979C160.999 258.681 118.002 250.037 92.7385 232.115C67.1415 213.957 42.068 185.777 25.7493 158.33C17.5914 144.61 11.6877 131.182 8.96538 119.378C6.22933 107.514 6.79273 97.6876 10.9956 90.7801C15.4064 83.5305 19.5429 81.213 24.1338 80.7883C26.5788 80.5624 29.3113 80.8597 32.5293 81.5048C34.9413 81.9882 37.5045 82.6393 40.3488 83.3619C41.3233 83.6092 42.3308 83.8653 43.3765 84.1256C59.7855 88.212 82.9295 92.6666 118.851 78.446C153.688 64.6544 199.298 61.1287 233.742 73.6998C250.915 79.9675 265.183 90.183 274.073 104.985C282.953 119.769 286.64 139.416 282.133 164.887Z" stroke="#D1B5F8" stroke-width="2"/>
<path opacity="0.3" d="M45.9355 272.243C-10.9212 227.284 -16.0457 133.751 36.4315 67.4715C93.915 -17.9601 179.115 -12.7352 235.972 32.2234C292.828 77.182 352.175 139.301 299.698 205.581C247.221 271.861 102.792 317.202 45.9355 272.243Z" fill="#D1B5F8"/>
<path d="M3.19583 102.602C4.92055 102.551 6.34093 103.869 6.39165 105.593C6.39165 105.643 6.39165 105.694 6.39165 105.744V105.846C6.39165 107.62 4.97128 109.04 3.19583 109.04C1.42037 109.04 0 107.62 0 105.846V105.744C0 104.021 1.36964 102.652 3.09438 102.602C3.09438 102.602 3.1451 102.602 3.19583 102.602Z" fill="#05DCC7"/>
<path d="M285.595 150.763C287.32 150.712 288.74 152.03 288.79 153.754C288.79 153.805 288.79 153.855 288.79 153.906V153.957C288.79 155.731 287.37 157.151 285.595 157.151C283.82 157.151 282.397 155.731 282.397 153.957V153.906C282.397 152.182 283.767 150.814 285.442 150.763C285.492 150.763 285.545 150.763 285.595 150.763Z" fill="#FF9D00"/>
<path d="M258.355 63.5665L260.688 60.7783L258.508 58.2941C258.253 58.0408 258.1 57.6858 258.05 57.2803C258 56.6212 258.558 56.1143 259.165 56.0636C259.218 56.0636 259.218 56.0636 259.268 56.0636C259.775 56.0636 260.233 56.3171 260.485 56.7226L262.21 59.0039L263.935 56.7226C264.187 56.3679 264.595 56.0636 265.1 56.0636C265.76 56.0128 266.268 56.5198 266.318 57.1281C266.318 57.1788 266.318 57.1788 266.318 57.1788C266.318 57.5336 266.218 57.8379 265.963 58.0913L263.732 60.7276L266.065 63.3636C266.318 63.6172 266.47 63.972 266.523 64.3775C266.573 65.0365 266.015 65.5435 265.405 65.5942C265.355 65.5942 265.355 65.5942 265.305 65.5942C264.798 65.5942 264.34 65.3406 264.088 64.9351L262.21 62.5019L260.333 64.9351C260.08 65.2901 259.673 65.5435 259.165 65.5942C258.508 65.6449 258 65.138 257.948 64.5296V64.4789C258 64.1241 258.153 63.8198 258.355 63.5665Z" fill="#F9BC33"/>
<path d="M21.5082 133.678H18.3632C17.3486 133.729 16.4862 132.969 16.4355 131.955C16.3848 130.941 17.1457 130.079 18.1602 130.028C18.211 130.028 18.3124 130.028 18.3632 130.028H21.5082V126.987C21.4575 125.922 22.2692 125.06 23.2837 125.01C24.349 124.959 25.2113 125.77 25.262 126.784C25.262 126.835 25.262 126.936 25.262 126.987V130.028H28.4073C29.4218 130.079 30.1825 130.941 30.132 131.955C30.0813 132.918 29.3203 133.628 28.4073 133.678H25.3128V136.72C25.3635 137.785 24.5519 138.647 23.5373 138.697C22.4721 138.748 21.6097 137.937 21.559 136.923C21.559 136.872 21.559 136.771 21.559 136.72L21.5082 133.678Z" fill="#5E40AD"/>
<path d="M150.304 45.7223C151.42 44.4041 153.398 44.3029 154.667 45.4182C154.717 45.4687 154.717 45.4687 154.768 45.5194L154.819 45.5701C156.138 46.7868 156.188 48.7641 154.971 50.082C153.754 51.4001 151.775 51.4508 150.456 50.2341L150.406 50.1834C149.137 49.0174 149.087 47.0911 150.203 45.773C150.253 45.773 150.253 45.773 150.304 45.7223Z" fill="#05DCC7"/>
<path d="M92.4761 71.3741L92.0704 67.7747L88.7731 67.6735C88.4179 67.6735 88.0629 67.5214 87.7586 67.3185C87.2511 66.913 87.2511 66.1525 87.6571 65.6963L87.7079 65.6456C88.0629 65.2908 88.5194 65.1386 89.0266 65.1894L91.8166 65.4937L91.3601 62.7055C91.2586 62.249 91.3601 61.7421 91.6646 61.3873C92.0704 60.8804 92.7806 60.8297 93.2879 61.2352C93.2879 61.2352 93.2879 61.2352 93.3386 61.2859C93.5921 61.5395 93.7444 61.8435 93.7444 62.1478L94.1501 65.5441L97.7011 65.6456C98.0561 65.6456 98.4114 65.7977 98.7156 66.0006C99.2229 66.4061 99.2229 67.1666 98.8171 67.6228L98.7664 67.6735C98.4114 68.0283 97.9546 68.1804 97.4474 68.1297L94.4039 67.8254L94.9111 70.8672C95.0126 71.3234 94.9111 71.7796 94.6066 72.1854C94.2009 72.6923 93.4399 72.743 92.9834 72.3373C92.6284 71.9825 92.5269 71.6782 92.4761 71.3741Z" fill="#F9BC33"/>
<path d="M193.475 74.7711L191.344 77.0524C190.685 77.8126 189.518 77.9141 188.757 77.3057C187.996 76.6469 187.895 75.4809 188.503 74.7204C188.554 74.6696 188.605 74.6189 188.656 74.5682L190.786 72.2869L188.554 70.2085C187.742 69.4987 187.641 68.3327 188.3 67.5725C189.011 66.7612 190.177 66.6598 190.938 67.3189C190.989 67.3696 191.04 67.4203 191.09 67.471L193.322 69.5494L195.504 67.2174C196.214 66.5079 197.381 66.5586 198.091 67.2682C198.75 67.9779 198.75 68.9918 198.192 69.7016L196.062 71.9829L198.294 74.0613C199.105 74.7711 199.207 75.9371 198.547 76.6973C197.837 77.5086 196.67 77.61 195.91 76.9509C195.859 76.9002 195.808 76.8495 195.757 76.7988L193.475 74.7711Z" fill="#5E40AD"/>
<path d="M271.95 234.712H33.3788C30.0308 234.712 27.2915 231.975 27.2915 228.629V227.108C27.2915 223.762 30.0308 221.025 33.3788 221.025H271.95C275.298 221.025 278.038 223.762 278.038 227.108V228.629C278.038 231.975 275.298 234.712 271.95 234.712Z" fill="#F9BC33"/>
<path d="M43.6261 96.7724V221.025H261.653V96.7724C261.653 93.4265 258.963 90.7397 255.615 90.7397H49.6121C46.3149 90.7397 43.6261 93.4265 43.6261 96.7724Z" fill="#F9BC33"/>
<path d="M52.8596 105.137V221.025H252.473V105.137C252.473 101.588 249.58 98.6987 246.029 98.6987H59.3019C55.7511 98.6987 52.8596 101.588 52.8596 105.137Z" fill="#572598"/>
<path d="M133.313 225.739H171.967C172.931 225.739 173.743 224.928 173.743 223.965V221.025H131.537V223.965C131.537 224.979 132.349 225.739 133.313 225.739Z" fill="white"/>
<path d="M217.014 146.962L216.507 147.114C216.406 147.114 216.304 147.165 216.253 147.165C215.898 147.165 215.594 146.861 215.594 146.506C215.594 146.202 215.797 145.898 216.101 145.847L217.116 145.543C217.369 145.492 217.572 145.441 217.826 145.391C218.232 145.391 218.587 145.746 218.587 146.151V151.88C218.587 152.285 218.232 152.64 217.826 152.64C217.42 152.64 217.065 152.285 217.065 151.88L217.014 146.962Z" fill="#FCFDFD"/>
<path d="M220.413 152.031C220.21 151.879 220.108 151.676 220.108 151.423C220.108 151.017 220.463 150.662 220.869 150.662C221.021 150.662 221.173 150.713 221.275 150.814C221.681 151.119 222.137 151.271 222.594 151.271C223.253 151.271 223.761 150.916 223.761 150.307C223.761 149.699 223.253 149.344 222.492 149.344C222.137 149.395 221.782 149.446 221.427 149.547C221.173 149.547 220.92 149.395 220.717 149.243C220.514 149.091 220.413 148.837 220.413 148.635L220.565 146.252C220.565 145.897 220.869 145.593 221.275 145.593H224.369C224.724 145.593 225.079 145.897 225.079 146.303C225.079 146.658 224.775 146.962 224.369 146.962H221.985L221.884 148.178C222.188 148.077 222.492 148.077 222.797 148.077C224.166 148.077 225.282 148.736 225.282 150.358C225.282 151.879 224.217 152.792 222.645 152.792C221.833 152.741 221.021 152.487 220.413 152.031Z" fill="#FCFDFD"/>
<path d="M225.74 153.095L229.697 144.832C229.798 144.629 230.001 144.477 230.204 144.477C230.509 144.477 230.813 144.73 230.813 145.035C230.813 145.136 230.762 145.237 230.762 145.339L226.806 153.602C226.704 153.805 226.501 153.957 226.298 153.957C225.994 153.957 225.69 153.703 225.69 153.399C225.69 153.247 225.74 153.146 225.74 153.095Z" fill="#FCFDFD"/>
<path d="M231.978 152.183C231.775 152.031 231.623 151.828 231.623 151.524C231.623 151.119 231.978 150.814 232.333 150.814C232.486 150.814 232.638 150.865 232.739 150.916C233.094 151.119 233.449 151.22 233.855 151.22C234.718 151.22 235.174 150.561 235.276 149.648C234.87 149.953 234.362 150.155 233.855 150.155C232.333 150.155 231.319 149.294 231.319 147.874C231.319 146.455 232.435 145.39 234.007 145.39C234.768 145.339 235.529 145.593 236.036 146.151C236.544 146.658 236.899 147.418 236.899 148.787C236.899 151.068 235.834 152.639 233.804 152.639C233.196 152.741 232.536 152.538 231.978 152.183ZM235.377 147.824C235.377 147.215 234.87 146.759 234.261 146.759C234.21 146.759 234.21 146.759 234.16 146.759C233.602 146.658 233.044 147.063 232.942 147.671C232.942 147.722 232.942 147.773 232.942 147.824C232.942 148.432 233.399 148.888 234.007 148.888C234.058 148.888 234.109 148.888 234.21 148.888C234.768 148.99 235.326 148.584 235.428 147.975C235.377 147.925 235.377 147.874 235.377 147.824Z" fill="#FCFDFD"/>
<path d="M217.012 170.67L216.505 170.822C216.403 170.822 216.302 170.873 216.251 170.873C215.896 170.873 215.592 170.569 215.592 170.214C215.592 169.91 215.794 169.606 216.099 169.555L217.113 169.251C217.367 169.149 217.57 169.149 217.824 169.099C218.229 169.099 218.584 169.454 218.584 169.859V175.588C218.534 175.993 218.179 176.348 217.773 176.298C217.418 176.247 217.113 175.993 217.063 175.588L217.012 170.67Z" fill="#FCFDFD"/>
<path d="M217.012 124.07L216.505 124.222C216.403 124.222 216.302 124.273 216.251 124.273C215.896 124.273 215.592 123.969 215.592 123.614C215.592 123.31 215.794 123.006 216.099 122.955L217.113 122.651C217.367 122.549 217.57 122.549 217.824 122.499C218.229 122.499 218.584 122.854 218.584 123.259V128.988C218.534 129.393 218.179 129.748 217.773 129.697C217.418 129.647 217.113 129.393 217.063 128.988L217.012 124.07Z" fill="#FCFDFD"/>
<path d="M220.41 175.74C220.207 175.587 220.106 175.385 220.106 175.131C220.106 174.726 220.461 174.371 220.867 174.371C221.019 174.371 221.171 174.421 221.272 174.523C221.678 174.827 222.135 174.979 222.591 174.979C223.251 174.979 223.758 174.624 223.758 174.016C223.758 173.408 223.251 173.053 222.49 173.053C222.135 173.103 221.78 173.154 221.425 173.255C221.171 173.255 220.917 173.103 220.714 172.951C220.512 172.799 220.41 172.546 220.41 172.343L220.562 169.96C220.562 169.605 220.867 169.301 221.272 169.301H224.367C224.722 169.301 225.026 169.605 225.077 170.011C225.077 170.366 224.773 170.67 224.367 170.67H221.983L221.881 171.887C222.186 171.785 222.49 171.785 222.794 171.785C224.215 171.785 225.28 172.444 225.28 174.066C225.28 175.587 224.215 176.5 222.642 176.5C221.83 176.398 221.019 176.196 220.41 175.74Z" fill="#FCFDFD"/>
<path d="M220.41 129.14C220.207 128.987 220.106 128.785 220.106 128.531C220.106 128.125 220.461 127.771 220.867 127.771C221.019 127.771 221.171 127.821 221.272 127.923C221.678 128.227 222.135 128.379 222.591 128.379C223.251 128.379 223.758 128.024 223.758 127.416C223.758 126.808 223.251 126.453 222.49 126.453C222.135 126.503 221.78 126.554 221.425 126.655C221.171 126.655 220.917 126.503 220.714 126.351C220.512 126.199 220.41 125.946 220.41 125.743L220.562 123.36C220.562 123.005 220.867 122.701 221.272 122.701H224.367C224.722 122.701 225.026 123.005 225.077 123.411C225.077 123.766 224.773 124.07 224.367 124.07H221.983L221.881 125.287C222.186 125.185 222.49 125.185 222.794 125.185C224.215 125.185 225.28 125.844 225.28 127.466C225.28 128.987 224.215 129.9 222.642 129.9C221.83 129.798 221.019 129.596 220.41 129.14Z" fill="#FCFDFD"/>
<path d="M225.737 176.754L229.694 168.491C229.795 168.288 229.998 168.136 230.201 168.136C230.506 168.136 230.81 168.389 230.81 168.693C230.81 168.795 230.759 168.896 230.759 168.998L226.802 177.261C226.701 177.464 226.498 177.616 226.295 177.616C225.991 177.616 225.686 177.362 225.686 177.058C225.686 176.957 225.686 176.855 225.737 176.754Z" fill="#FCFDFD"/>
<path d="M225.737 130.154L229.694 121.891C229.795 121.688 229.998 121.536 230.201 121.536C230.506 121.536 230.81 121.789 230.81 122.093C230.81 122.195 230.759 122.296 230.759 122.398L226.802 130.661C226.701 130.864 226.498 131.016 226.295 131.016C225.991 131.016 225.686 130.762 225.686 130.458C225.686 130.357 225.686 130.255 225.737 130.154Z" fill="#FCFDFD"/>
<path d="M232.027 175.638C231.519 175.131 231.164 174.371 231.164 172.952C231.164 170.772 232.128 169.099 234.259 169.099C234.867 169.099 235.425 169.251 235.983 169.504C236.237 169.656 236.389 169.91 236.389 170.163C236.389 170.569 236.085 170.873 235.679 170.873C235.527 170.873 235.425 170.822 235.273 170.772C234.969 170.569 234.563 170.468 234.208 170.468C233.346 170.468 232.889 171.177 232.788 172.09C233.193 171.786 233.751 171.634 234.259 171.634C235.679 171.634 236.744 172.394 236.744 173.864C236.744 175.283 235.578 176.298 234.056 176.298C233.295 176.449 232.585 176.145 232.027 175.638ZM235.223 174.016C235.223 173.408 234.766 173.002 234.005 173.002C233.244 173.002 232.788 173.408 232.788 174.016C232.788 174.625 233.295 175.081 233.904 175.081C233.954 175.081 234.005 175.081 234.005 175.081C234.766 175.081 235.223 174.625 235.223 174.016Z" fill="#FCFDFD"/>
<path d="M232.027 129.038C231.519 128.531 231.164 127.771 231.164 126.352C231.164 124.171 232.128 122.499 234.259 122.499C234.867 122.499 235.425 122.651 235.983 122.904C236.237 123.056 236.389 123.31 236.389 123.563C236.389 123.969 236.085 124.273 235.679 124.273C235.527 124.273 235.425 124.222 235.273 124.171C234.969 123.969 234.563 123.867 234.208 123.867C233.346 123.867 232.889 124.577 232.788 125.49C233.193 125.186 233.751 125.033 234.259 125.033C235.679 125.033 236.744 125.794 236.744 127.264C236.744 128.683 235.578 129.697 234.056 129.697C233.295 129.849 232.585 129.545 232.027 129.038ZM235.223 127.416C235.223 126.808 234.766 126.402 234.005 126.402C233.244 126.402 232.788 126.808 232.788 127.416C232.788 128.024 233.295 128.481 233.904 128.481C233.954 128.481 234.005 128.481 234.005 128.481C234.766 128.481 235.223 128.024 235.223 127.416Z" fill="#FCFDFD"/>
<path d="M217.014 194.458L216.507 194.61C216.406 194.61 216.304 194.661 216.253 194.661C215.898 194.661 215.594 194.357 215.594 194.002C215.594 193.697 215.797 193.393 216.101 193.342L217.116 193.038C217.369 192.937 217.572 192.937 217.826 192.886C218.232 192.886 218.587 193.241 218.587 193.647V199.325C218.587 199.73 218.232 200.085 217.826 200.085C217.42 200.085 217.065 199.73 217.065 199.325L217.014 194.458Z" fill="#FCFDFD"/>
<path d="M220.363 199.479C220.16 199.326 220.058 199.124 220.058 198.87C220.058 198.465 220.414 198.11 220.819 198.11C220.972 198.11 221.124 198.16 221.225 198.262C221.631 198.566 222.088 198.718 222.544 198.718C223.204 198.718 223.711 198.363 223.711 197.755C223.711 197.147 223.204 196.792 222.443 196.792C222.088 196.843 221.732 196.893 221.377 196.994C221.124 196.994 220.87 196.843 220.667 196.69C220.464 196.538 220.363 196.285 220.363 196.082L220.515 193.699C220.515 193.345 220.819 193.041 221.225 193.041H224.32C224.675 193.041 224.979 193.345 225.03 193.75C225.03 194.105 224.725 194.409 224.32 194.409H221.935L221.834 195.626C222.138 195.524 222.443 195.524 222.747 195.524C224.167 195.524 225.233 196.184 225.233 197.806C225.233 199.327 224.167 200.239 222.595 200.239C221.834 200.188 221.022 199.935 220.363 199.479Z" fill="#FCFDFD"/>
<path d="M225.74 200.544L229.696 192.281C229.798 192.078 230.001 191.926 230.204 191.926C230.508 191.926 230.812 192.179 230.812 192.483C230.812 192.585 230.762 192.686 230.762 192.787L226.805 201.051C226.703 201.254 226.501 201.406 226.298 201.406C225.993 201.406 225.74 201.152 225.689 200.848C225.689 200.747 225.689 200.645 225.74 200.544Z" fill="#FCFDFD"/>
<path d="M232.282 198.92L234.92 194.307H232.232C231.876 194.307 231.572 194.002 231.572 193.647C231.572 193.292 231.876 192.988 232.232 192.988H236.087C236.442 192.938 236.746 193.191 236.797 193.546C236.797 193.597 236.797 193.647 236.797 193.647C236.797 193.901 236.696 194.154 236.594 194.408L233.753 199.579C233.652 199.883 233.348 200.086 232.992 200.086C232.587 200.136 232.232 199.832 232.181 199.426V199.376C232.13 199.224 232.181 199.072 232.282 198.92Z" fill="#FCFDFD"/>
<path opacity="0.3" d="M105.92 147.213H206.968C208.44 147.213 209.606 148.379 209.606 149.85C209.606 151.32 208.44 152.486 206.968 152.486H105.92C104.448 152.486 103.281 151.32 103.281 149.85C103.281 148.379 104.448 147.213 105.92 147.213Z" fill="white"/>
<path opacity="0.3" d="M105.92 170.214H206.968C208.44 170.214 209.606 171.38 209.606 172.85C209.606 174.32 208.44 175.486 206.968 175.486H105.92C104.448 175.486 103.281 174.32 103.281 172.85C103.281 171.431 104.448 170.214 105.92 170.214Z" fill="white"/>
<path opacity="0.3" d="M105.92 123.614H206.968C208.44 123.614 209.606 124.78 209.606 126.25C209.606 127.72 208.44 128.886 206.968 128.886H105.92C104.448 128.886 103.281 127.72 103.281 126.25C103.281 124.83 104.448 123.614 105.92 123.614Z" fill="white"/>
<path d="M137.928 175.537H105.92C104.448 175.537 103.281 174.371 103.281 172.901C103.281 171.431 104.448 170.265 105.92 170.265H137.928" fill="#05DCC7"/>
<path d="M137.928 128.937H105.92C104.448 128.937 103.281 127.771 103.281 126.301C103.281 124.831 104.448 123.665 105.92 123.665H137.928" fill="#F54AE4"/>
<path d="M185.714 152.486H105.92C104.448 152.486 103.281 151.32 103.281 149.85C103.281 148.379 104.448 147.213 105.92 147.213H185.764" fill="#F54AE4"/>
<path d="M67.1719 154.824H65.5879V151.416H66.5719C67.4599 149.824 67.9039 147.552 67.9039 144.6H73.6159V151.416H74.6839V154.824H73.0999V153H67.1719V154.824ZM69.5839 146.22C69.4319 148.564 69.0639 150.296 68.4799 151.416H71.8159V146.22H69.5839Z" fill="white"/>
<path d="M77.1287 153H75.6767V147.24H77.3447V150.48L79.9127 147.24H81.3527V153H79.6967V149.76L77.1287 153Z" fill="white"/>
<path d="M84.3865 153H82.7665V147.24H84.3625L86.1505 150.096L87.9505 147.24H89.5345V153H87.9265V149.604L86.5705 151.752H85.7425L84.3865 149.604V153Z" fill="white"/>
<path d="M96.0942 151.512C96.0942 151.768 96.2302 151.896 96.5022 151.896C96.6142 151.896 96.7182 151.88 96.8142 151.848V152.94C96.5102 153.052 96.2022 153.108 95.8902 153.108C95.2822 153.108 94.8582 152.892 94.6182 152.46C94.0182 152.932 93.3262 153.168 92.5422 153.168C91.9742 153.168 91.4942 153.012 91.1022 152.7C90.7182 152.38 90.5262 151.948 90.5262 151.404C90.5262 150.948 90.6622 150.568 90.9342 150.264C91.2062 149.96 91.5222 149.756 91.8822 149.652C92.2422 149.54 92.6342 149.484 93.0582 149.484C93.5302 149.484 93.9862 149.536 94.4262 149.64V149.436C94.4262 149.14 94.3102 148.904 94.0782 148.728C93.8462 148.552 93.5102 148.464 93.0702 148.464C92.4302 148.464 91.7502 148.608 91.0302 148.896V147.456C91.7982 147.2 92.5422 147.072 93.2622 147.072C95.1502 147.072 96.0942 147.94 96.0942 149.676V151.512ZM93.4422 150.48C93.0982 150.48 92.8102 150.544 92.5782 150.672C92.3462 150.8 92.2302 151 92.2302 151.272C92.2302 151.48 92.3142 151.652 92.4822 151.788C92.6582 151.916 92.8742 151.98 93.1302 151.98C93.6342 151.98 94.0662 151.824 94.4262 151.512V150.612C94.0582 150.524 93.7302 150.48 93.4422 150.48Z" fill="white"/>
<path d="M70.6419 167.6H76.4019V176H74.6019V169.22H72.2979C72.2499 169.828 72.2059 170.336 72.1659 170.744C72.1259 171.144 72.0659 171.608 71.9859 172.136C71.9059 172.664 71.8179 173.1 71.7219 173.444C71.6339 173.788 71.5139 174.144 71.3619 174.512C71.2179 174.872 71.0499 175.16 70.8579 175.376C70.6739 175.584 70.4499 175.76 70.1859 175.904C69.9219 176.04 69.6259 176.108 69.2979 176.108C68.9619 176.108 68.6499 176.056 68.3619 175.952V174.368C68.5299 174.416 68.7219 174.436 68.9379 174.428C69.0899 174.42 69.2299 174.372 69.3579 174.284C69.4859 174.188 69.5979 174.048 69.6939 173.864C69.7979 173.672 69.8859 173.48 69.9579 173.288C70.0379 173.088 70.1059 172.828 70.1619 172.508C70.2179 172.18 70.2659 171.892 70.3059 171.644C70.3459 171.388 70.3819 171.056 70.4139 170.648C70.4539 170.24 70.4819 169.908 70.4979 169.652C70.5219 169.396 70.5459 169.044 70.5699 168.596C70.6019 168.148 70.6259 167.816 70.6419 167.6Z" fill="white"/>
<path d="M79.4608 176H78.0088V170.24H79.6768V173.48L82.2448 170.24H83.6848V176H82.0288V172.76L79.4608 176Z" fill="white"/>
<path d="M89.8267 174.404C89.8267 174.892 89.5867 175.308 89.1067 175.652C88.6267 175.988 87.9227 176.156 86.9947 176.156C86.1307 176.156 85.3987 176 84.7987 175.688V174.356C85.0307 174.484 85.3347 174.6 85.7107 174.704C86.0867 174.8 86.4427 174.848 86.7787 174.848C87.6747 174.848 88.1227 174.632 88.1227 174.2C88.1227 173.976 88.0227 173.828 87.8227 173.756C87.6307 173.676 87.3627 173.636 87.0187 173.636H85.9507V172.532H87.0187C87.6747 172.532 88.0027 172.352 88.0027 171.992C88.0027 171.584 87.6267 171.38 86.8747 171.38C86.5547 171.38 86.2067 171.428 85.8307 171.524C85.4547 171.62 85.1467 171.732 84.9067 171.86V170.54C85.5067 170.22 86.2307 170.06 87.0787 170.06C87.9987 170.06 88.6667 170.228 89.0827 170.564C89.4987 170.892 89.7067 171.296 89.7067 171.776C89.7067 172.104 89.6147 172.376 89.4307 172.592C89.2547 172.808 89.0227 172.956 88.7347 173.036C89.4627 173.26 89.8267 173.716 89.8267 174.404Z" fill="white"/>
<path d="M96.0943 174.512C96.0943 174.768 96.2303 174.896 96.5023 174.896C96.6143 174.896 96.7183 174.88 96.8143 174.848V175.94C96.5103 176.052 96.2023 176.108 95.8903 176.108C95.2823 176.108 94.8583 175.892 94.6183 175.46C94.0183 175.932 93.3263 176.168 92.5423 176.168C91.9743 176.168 91.4943 176.012 91.1023 175.7C90.7183 175.38 90.5263 174.948 90.5263 174.404C90.5263 173.948 90.6623 173.568 90.9343 173.264C91.2063 172.96 91.5223 172.756 91.8823 172.652C92.2423 172.54 92.6343 172.484 93.0583 172.484C93.5303 172.484 93.9863 172.536 94.4263 172.64V172.436C94.4263 172.14 94.3103 171.904 94.0783 171.728C93.8463 171.552 93.5103 171.464 93.0703 171.464C92.4303 171.464 91.7503 171.608 91.0303 171.896V170.456C91.7983 170.2 92.5423 170.072 93.2623 170.072C95.1503 170.072 96.0943 170.94 96.0943 172.676V174.512ZM93.4423 173.48C93.0983 173.48 92.8103 173.544 92.5783 173.672C92.3463 173.8 92.2303 174 92.2303 174.272C92.2303 174.48 92.3143 174.652 92.4823 174.788C92.6583 174.916 92.8743 174.98 93.1303 174.98C93.6343 174.98 94.0663 174.824 94.4263 174.512V173.612C94.0583 173.524 93.7303 173.48 93.4423 173.48Z" fill="white"/>
<path d="M66.2836 124.896C66.2836 124.16 66.4116 123.5 66.6676 122.916C66.9316 122.324 67.2756 121.852 67.6996 121.5C68.1316 121.148 68.6116 120.884 69.1396 120.708C69.6676 120.524 70.2196 120.432 70.7956 120.432C71.6756 120.432 72.4756 120.612 73.1956 120.972V122.688C72.6276 122.248 71.9276 122.028 71.0956 122.028C70.2796 122.028 69.5796 122.272 68.9956 122.76C68.4196 123.24 68.1316 123.952 68.1316 124.896C68.1316 125.344 68.2156 125.744 68.3836 126.096C68.5516 126.44 68.7756 126.716 69.0556 126.924C69.3436 127.132 69.6596 127.292 70.0036 127.404C70.3556 127.508 70.7196 127.56 71.0956 127.56C72.0236 127.56 72.7436 127.328 73.2556 126.864V128.628C72.5116 128.988 71.6996 129.168 70.8196 129.168C70.2436 129.168 69.6916 129.08 69.1636 128.904C68.6356 128.728 68.1516 128.472 67.7116 128.136C67.2796 127.8 66.9316 127.352 66.6676 126.792C66.4116 126.232 66.2836 125.6 66.2836 124.896Z" fill="white"/>
<path d="M79.5591 127.512C79.5591 127.768 79.6951 127.896 79.9671 127.896C80.0791 127.896 80.1831 127.88 80.2791 127.848V128.94C79.9751 129.052 79.6671 129.108 79.3551 129.108C78.7471 129.108 78.3231 128.892 78.0831 128.46C77.4831 128.932 76.7911 129.168 76.0071 129.168C75.4391 129.168 74.9591 129.012 74.5671 128.7C74.1831 128.38 73.9911 127.948 73.9911 127.404C73.9911 126.948 74.1271 126.568 74.3991 126.264C74.6711 125.96 74.9871 125.756 75.3471 125.652C75.7071 125.54 76.0991 125.484 76.5231 125.484C76.9951 125.484 77.4511 125.536 77.8911 125.64V125.436C77.8911 125.14 77.7751 124.904 77.5431 124.728C77.3111 124.552 76.9751 124.464 76.5351 124.464C75.8951 124.464 75.2151 124.608 74.4951 124.896V123.456C75.2631 123.2 76.0071 123.072 76.7271 123.072C78.6151 123.072 79.5591 123.94 79.5591 125.676V127.512ZM76.9071 126.48C76.5631 126.48 76.2751 126.544 76.0431 126.672C75.8111 126.8 75.6951 127 75.6951 127.272C75.6951 127.48 75.7791 127.652 75.9471 127.788C76.1231 127.916 76.3391 127.98 76.5951 127.98C77.0991 127.98 77.5311 127.824 77.8911 127.512V126.612C77.5231 126.524 77.1951 126.48 76.9071 126.48Z" fill="white"/>
<path d="M89.5249 129H81.1729V123.24H82.8409V127.596H84.5209V123.24H86.1769V127.596H87.8689V123.24H89.5249V129Z" fill="white"/>
<path d="M96.0943 127.512C96.0943 127.768 96.2303 127.896 96.5023 127.896C96.6143 127.896 96.7183 127.88 96.8143 127.848V128.94C96.5103 129.052 96.2023 129.108 95.8903 129.108C95.2823 129.108 94.8583 128.892 94.6183 128.46C94.0183 128.932 93.3263 129.168 92.5423 129.168C91.9743 129.168 91.4943 129.012 91.1023 128.7C90.7183 128.38 90.5263 127.948 90.5263 127.404C90.5263 126.948 90.6623 126.568 90.9343 126.264C91.2063 125.96 91.5223 125.756 91.8823 125.652C92.2423 125.54 92.6343 125.484 93.0583 125.484C93.5303 125.484 93.9863 125.536 94.4263 125.64V125.436C94.4263 125.14 94.3103 124.904 94.0783 124.728C93.8463 124.552 93.5103 124.464 93.0703 124.464C92.4303 124.464 91.7503 124.608 91.0303 124.896V123.456C91.7983 123.2 92.5423 123.072 93.2623 123.072C95.1503 123.072 96.0943 123.94 96.0943 125.676V127.512ZM93.4423 126.48C93.0983 126.48 92.8103 126.544 92.5783 126.672C92.3463 126.8 92.2303 127 92.2303 127.272C92.2303 127.48 92.3143 127.652 92.4823 127.788C92.6583 127.916 92.8743 127.98 93.1303 127.98C93.6343 127.98 94.0663 127.824 94.4263 127.512V126.612C94.0583 126.524 93.7303 126.48 93.4423 126.48Z" fill="white"/>
<path d="M69.3721 197.444C69.1881 196.924 69.0961 196.376 69.0961 195.8C69.0961 195.224 69.1881 194.676 69.3721 194.156C69.5641 193.636 69.8401 193.172 70.2001 192.764C70.5681 192.356 71.0401 192.032 71.6161 191.792C72.1921 191.552 72.8401 191.432 73.5601 191.432C74.2801 191.432 74.9281 191.552 75.5041 191.792C76.0801 192.032 76.5481 192.356 76.9081 192.764C77.2761 193.172 77.5521 193.636 77.7361 194.156C77.9281 194.676 78.0241 195.224 78.0241 195.8C78.0241 196.376 77.9281 196.924 77.7361 197.444C77.5521 197.964 77.2761 198.428 76.9081 198.836C76.5481 199.244 76.0801 199.568 75.5041 199.808C74.9281 200.048 74.2801 200.168 73.5601 200.168C72.8401 200.168 72.1921 200.048 71.6161 199.808C71.0401 199.568 70.5681 199.244 70.2001 198.836C69.8401 198.428 69.5641 197.964 69.3721 197.444ZM75.4921 197.732C75.9481 197.22 76.1761 196.576 76.1761 195.8C76.1761 195.024 75.9481 194.38 75.4921 193.868C75.0361 193.356 74.3921 193.1 73.5601 193.1C72.7201 193.1 72.0721 193.356 71.6161 193.868C71.1601 194.38 70.9321 195.024 70.9321 195.8C70.9321 196.576 71.1601 197.22 71.6161 197.732C72.0721 198.244 72.7201 198.5 73.5601 198.5C74.3921 198.5 75.0361 198.244 75.4921 197.732Z" fill="white"/>
<path d="M81.3265 195.56C81.2785 196.264 81.2105 196.872 81.1225 197.384C81.0425 197.888 80.9225 198.36 80.7625 198.8C80.6025 199.232 80.3865 199.56 80.1145 199.784C79.8425 200.008 79.5145 200.12 79.1305 200.12C78.8345 200.12 78.5305 200.064 78.2185 199.952V198.632C78.3385 198.68 78.4545 198.704 78.5665 198.704C78.9825 198.704 79.2745 198.332 79.4425 197.588C79.6105 196.844 79.7265 195.728 79.7905 194.24H84.4705V200H82.8025V195.56H81.3265Z" fill="white"/>
<path d="M85.5598 197.12C85.5598 196.6 85.6518 196.14 85.8358 195.74C86.0198 195.332 86.2598 195.012 86.5558 194.78C86.8598 194.548 87.1758 194.372 87.5038 194.252C87.8398 194.132 88.1798 194.072 88.5238 194.072C89.0998 194.072 89.5958 194.18 90.0118 194.396C90.4358 194.612 90.7478 194.892 90.9478 195.236C91.1478 195.572 91.2838 195.956 91.3558 196.388C91.4358 196.812 91.4158 197.236 91.2958 197.66H87.2398C87.3278 198.06 87.5598 198.36 87.9358 198.56C88.3118 198.752 88.7558 198.848 89.2678 198.848C89.8998 198.848 90.4798 198.732 91.0078 198.5V199.808C90.4398 200.048 89.7358 200.168 88.8958 200.168C87.9358 200.168 87.1398 199.9 86.5078 199.364C85.8758 198.828 85.5598 198.08 85.5598 197.12ZM89.7958 196.58C89.8358 196.316 89.7598 196.044 89.5678 195.764C89.3758 195.484 89.0478 195.344 88.5838 195.344C88.2158 195.344 87.8998 195.456 87.6358 195.68C87.3718 195.896 87.2358 196.196 87.2278 196.58H89.7958Z" fill="white"/>
<path d="M94.0909 200H92.4229V194.24H96.8149V195.644H94.0909V200Z" fill="white"/>
<path opacity="0.3" d="M105.92 194.005H206.968C208.44 194.005 209.606 195.171 209.606 196.641C209.606 198.111 208.44 199.277 206.968 199.277H105.92C104.448 199.277 103.281 198.111 103.281 196.641C103.281 195.222 104.448 194.005 105.92 194.005Z" fill="white"/>
<path d="M132.603 199.328H105.87C104.399 199.328 103.232 198.162 103.232 196.691C103.232 195.221 104.399 194.055 105.87 194.055H132.603" fill="#05DCC7"/>
</svg>
