<svg width="80" height="80" viewBox="0 0 80 80" fill="none" xmlns="http://www.w3.org/2000/svg">
<path d="M75 55H56.25L53 53.75H60.515C61.9375 53.75 63.2675 52.8488 63.6362 51.4738C64.1937 49.395 62.62 47.5 60.625 47.5C59.59 47.5 58.75 46.66 58.75 45.625C58.75 44.59 59.59 43.75 60.625 43.75H64.265C65.6888 43.75 67.0175 42.8488 67.3863 41.4738C67.9437 39.395 66.37 36.25 64.375 36.25H63.75C62.3688 36.25 61.25 35.1312 61.25 33.75C61.25 32.3687 62.3688 31.25 63.75 31.25H75.515C76.9388 31.25 78.2675 30.3488 78.6363 28.9738C79.1937 26.895 77.62 25 75.625 25H73.75C72.3688 25 71.25 23.8813 71.25 22.5C71.25 21.1187 72.3688 20 73.75 20H76.25C78.56 20 80.3988 17.8838 79.925 15.4938C79.5713 13.715 77.9 12.5 76.0863 12.5H63.125C62.09 12.5 61.25 11.66 61.25 10.625C61.25 9.59 62.09 8.75 63.125 8.75H70.515C71.9388 8.75 73.2675 7.84875 73.6363 6.47375C74.1937 4.395 72.62 2.5 70.625 2.5H6.985C5.56125 2.5 4.2325 3.40125 3.86375 4.77625C3.30625 6.855 4.88 8.75 6.875 8.75C8.60125 8.75 10 10.1487 10 11.875C10 13.6012 8.60125 15 6.875 15H5.735H3.75C1.6875 15 0 16.6875 0 18.75C0 20.8125 1.6875 22.5 3.75 22.5H32.5C32.94 22.5 33.3563 22.4088 33.75 22.2688V36.25H24.485C23.0612 36.25 21.7325 38.4012 21.3638 39.7762C21.09 40.7975 21.3338 41.77 21.8863 42.5H4.375C2.64875 42.5 1.25 43.8988 1.25 45.625C1.25 47.3512 2.64875 48.75 4.375 48.75H5.625C7.35125 48.75 8.75 50.1488 8.75 51.875C8.75 53.6012 7.35125 55 5.625 55H5C2.92875 55 1.25 56.6787 1.25 58.75C1.25 60.8213 2.92875 62.5 5 62.5H11.875C13.6012 62.5 15 63.8988 15 65.625C15 67.3512 13.6012 68.75 11.875 68.75H10C7.92875 68.75 6.25 70.4287 6.25 72.5C6.25 74.5713 7.92875 76.25 10 76.25H70C72.0713 76.25 73.75 74.5713 73.75 72.5C73.75 70.4287 72.0713 68.75 70 68.75H69.375C67.6488 68.75 66.25 67.3512 66.25 65.625C66.25 63.8988 67.6488 62.5 69.375 62.5H75C77.0713 62.5 78.75 60.8213 78.75 58.75C78.75 56.6787 77.0713 55 75 55Z" fill="#B179FC"/>
<path d="M71.25 38.75C71.25 56.0062 57.2562 70 40 70C22.7437 70 8.75 56.0062 8.75 38.75C8.75 21.4937 22.7437 7.5 40 7.5C57.2562 7.5 71.25 21.4937 71.25 38.75Z" fill="url(#paint0_linear)"/>
<path d="M38.75 36.25C38.75 39.705 35.955 42.5 32.5 42.5C29.045 42.5 26.25 39.705 26.25 36.25C26.25 32.795 29.045 30 32.5 30C35.955 30 38.75 32.795 38.75 36.25Z" fill="#717171"/>
<path d="M32.5 34.375C32.5 35.41 31.66 36.25 30.625 36.25C29.59 36.25 28.75 35.41 28.75 34.375C28.75 33.34 29.59 32.5 30.625 32.5C31.66 32.5 32.5 33.34 32.5 34.375Z" fill="url(#paint1_linear)"/>
<path d="M63.75 36.25C63.75 39.705 60.955 42.5 57.5 42.5C54.045 42.5 51.25 39.705 51.25 36.25C51.25 32.795 54.045 30 57.5 30C60.955 30 63.75 32.795 63.75 36.25Z" fill="#717171"/>
<path d="M57.5 34.375C57.5 35.41 56.66 36.25 55.625 36.25C54.59 36.25 53.75 35.41 53.75 34.375C53.75 33.34 54.59 32.5 55.625 32.5C56.66 32.5 57.5 33.34 57.5 34.375Z" fill="url(#paint2_linear)"/>
<path d="M13.75 36.25C13.75 34.1775 15.4275 32.5 17.5 32.5C19.5725 32.5 21.25 34.1775 21.25 36.25C21.25 38.3225 19.5725 40 17.5 40C15.4275 40 13.75 38.3225 13.75 36.25ZM21.25 27.5C21.25 23.75 28.75 21.4963 28.75 14.48C28.74 11.4662 27.7688 9.135 25.8225 7.48C23.8713 5.825 21.135 5 17.6075 5C14.1125 5 11.35 5.875 9.33125 7.61375C7.4175 9.2625 6.40125 11.5263 6.27625 14.3763H6.25V14.8275C6.25 16.3038 7.44625 17.5 8.9225 17.5H11.0913C12.5625 17.5 13.7562 16.3112 13.7637 14.8413C13.795 13.5525 15 11.25 17.5 11.25C19.94 11.25 21.25 12.6475 21.25 15C21.25 15.9025 21.0063 16.7638 20.5025 17.575C20.0063 18.3875 19.0025 19.4425 17.4963 20.7425C15.99 22.0362 14.955 23.355 14.3888 24.6912C14.055 25.4725 13.8275 26.3 13.7513 27.3512C13.6475 28.7838 14.8125 30 16.25 30H18.75C20.1313 30 21.25 28.8813 21.25 27.5Z" fill="url(#paint3_linear)"/>
<path d="M50.625 57.5C49.59 57.5 48.75 56.6613 48.75 55.625C48.75 53.9025 47.0675 52.5 45 52.5C42.9325 52.5 41.25 53.9025 41.25 55.625C41.25 56.6613 40.41 57.5 39.375 57.5C38.34 57.5 37.5 56.6613 37.5 55.625C37.5 51.8338 40.8637 48.75 45 48.75C49.1362 48.75 52.5 51.8338 52.5 55.625C52.5 56.6613 51.66 57.5 50.625 57.5Z" fill="#717171"/>
<defs>
<linearGradient id="paint0_linear" x1="40" y1="70" x2="40" y2="7.5" gradientUnits="userSpaceOnUse">
<stop stop-color="#FEAA53"/>
<stop offset="0.612" stop-color="#FFCD49"/>
<stop offset="1" stop-color="#FFDE44"/>
</linearGradient>
<linearGradient id="paint1_linear" x1="28.75" y1="34.375" x2="32.5" y2="34.375" gradientUnits="userSpaceOnUse">
<stop stop-color="#FFE79F"/>
<stop offset="0.258" stop-color="#FFE9A7"/>
<stop offset="0.66" stop-color="#FFEFBD"/>
<stop offset="1" stop-color="#FFF5D5"/>
</linearGradient>
<linearGradient id="paint2_linear" x1="53.75" y1="34.375" x2="57.5" y2="34.375" gradientUnits="userSpaceOnUse">
<stop stop-color="#FFE79F"/>
<stop offset="0.258" stop-color="#FFE9A7"/>
<stop offset="0.66" stop-color="#FFEFBD"/>
<stop offset="1" stop-color="#FFF5D5"/>
</linearGradient>
<linearGradient id="paint3_linear" x1="17.5" y1="63.9338" x2="17.5" y2="2.02375" gradientUnits="userSpaceOnUse">
<stop stop-color="#0D47A1"/>
<stop offset="0.365" stop-color="#135FBA"/>
<stop offset="0.734" stop-color="#1770CC"/>
<stop offset="1" stop-color="#1976D2"/>
</linearGradient>
</defs>
</svg>
