<svg width="141" height="140" viewBox="0 0 141 140" fill="none" xmlns="http://www.w3.org/2000/svg">
<path d="M107.572 14.9232C123.927 25.6732 130.687 45.3537 132.531 64.8381C134.26 83.1144 129.488 101.357 117.024 114.835C104.345 128.547 86.3676 135.771 67.7111 134.935C47.9721 134.051 27.7809 126.923 17.0141 110.355C6.35245 93.9495 9.51839 73.216 15.4942 54.5851C21.4752 35.9382 31.2002 17.8022 49.1853 10.0553C68.0563 1.92673 90.4018 3.63729 107.572 14.9232Z" fill="#3DBCB8"/>
<path d="M97.0227 10.7589C113 21.2607 119.703 40.5622 121.535 59.9323C123.242 77.9817 118.525 95.925 106.29 109.156C93.8144 122.647 76.1244 129.759 57.7558 128.936C38.1768 128.059 18.3705 120.995 7.85257 104.81C-2.54174 88.816 0.481726 68.4867 6.44647 49.8905C12.4063 31.3097 22.0119 13.5414 39.5809 5.97368C58.1515 -2.02547 80.1412 -0.337335 97.0227 10.7589Z" stroke="white" stroke-width="2"/>
<path d="M52.775 40C52.2031 40.1078 51.7906 40.6141 51.8 41.2V43.6C51.7953 44.0312 52.0203 44.4344 52.3953 44.6547C52.7703 44.8703 53.2297 44.8703 53.6047 44.6547C53.9797 44.4344 54.2047 44.0312 54.2 43.6V42.4H96.2V70H91.2875L92.6 67.6L91.2875 65.2H80.6V70H67.4C67.3625 70 67.325 70 67.2875 70C66.6266 70.0328 66.1109 70.5953 66.1438 71.2563C66.1766 71.9172 66.7391 72.4328 67.4 72.4H98.6V73.6H67.4C66.9688 73.5953 66.5656 73.8203 66.3453 74.1953C66.1297 74.5703 66.1297 75.0297 66.3453 75.4047C66.5656 75.7797 66.9688 76.0047 67.4 76H99.8C100.461 76 101 75.4609 101 74.8V71.2C101 70.5391 100.461 70 99.8 70H98.6V41.2C98.6 40.5391 98.0609 40 97.4 40H53C52.9625 40 52.925 40 52.8875 40C52.85 40 52.8125 40 52.775 40ZM55.4 46C51.4391 46 48.2 49.2391 48.2 53.2C48.2 57.1609 51.4391 60.4 55.4 60.4C59.3609 60.4 62.6 57.1609 62.6 53.2C62.6 49.2391 59.3609 46 55.4 46ZM55.4 60.4H52.625C51.7203 60.4 50.4031 60.5125 49.175 61.3375C47.9469 62.1625 47 63.7516 47 66.025V78.925C44.8906 79.8578 43.4 81.9578 43.4 84.4C43.4 86.2188 44.2484 87.8359 45.5375 88.9375C42.8516 90.3438 41 93.1797 41 96.4V98.8C41 99.4609 41.5391 100 42.2 100H56.6C56.6375 100 56.675 100 56.7125 100H85.4C85.4375 100 85.475 100 85.5125 100H99.8C100.461 100 101 99.4609 101 98.8V96.4C101 93.1797 99.1484 90.3438 96.4625 88.9375C97.7516 87.8359 98.6 86.2188 98.6 84.4C98.6 81.1 95.9 78.4 92.6 78.4C89.3 78.4 86.6 81.1 86.6 84.4C86.6 86.2188 87.4484 87.8359 88.7375 88.9375C87.3688 89.6547 86.1969 90.7703 85.4 92.0875C84.5984 90.7516 83.4453 89.6641 82.0625 88.9375C83.3516 87.8359 84.2 86.2188 84.2 84.4C84.2 81.1 81.5 78.4 78.2 78.4C74.9 78.4 72.2 81.1 72.2 84.4C72.2 86.2188 73.0484 87.8359 74.3375 88.9375C72.9688 89.6547 71.7969 90.7703 71 92.0875C70.1984 90.7609 69.0453 89.6594 67.6625 88.9375C68.9516 87.8359 69.8 86.2188 69.8 84.4C69.8 81.5125 67.7281 79.075 65 78.5125V67.6L70.1375 65.7625L70.175 65.725C70.1844 65.7203 70.2031 65.7297 70.2125 65.725C71.2344 65.4156 72.0734 64.8672 72.65 64.1125H72.6875L78.6875 56.35C78.6875 56.3359 78.6875 56.3266 78.6875 56.3125C79.7938 54.8406 79.625 52.6656 78.0875 51.5125C77.3516 50.9594 76.4469 50.7438 75.575 50.8375C74.7031 50.9313 73.8641 51.3438 73.2875 52.1125L68.15 58.75L60.2 60.4H55.4ZM55.4 48.4C58.0672 48.4 60.2 50.5328 60.2 53.2C60.2 55.8672 58.0672 58 55.4 58C52.7328 58 50.6 55.8672 50.6 53.2C50.6 50.5328 52.7328 48.4 55.4 48.4ZM75.8375 53.2375C76.1 53.2047 76.4 53.2563 76.625 53.425C77 53.7063 77.0797 54.4 76.775 54.85C76.7656 54.8594 76.7844 54.8781 76.775 54.8875L70.775 62.65C70.775 62.6641 70.775 62.6734 70.775 62.6875C70.6438 62.8609 70.0719 63.2641 69.4625 63.4375C69.4391 63.4469 69.4109 63.4609 69.3875 63.475L63.3875 65.6125C62.9 65.7906 62.5859 66.2594 62.6 66.775V78.5125C59.8719 79.075 57.8 81.5125 57.8 84.4C57.8 86.2188 58.6484 87.8359 59.9375 88.9375C58.5688 89.6547 57.3969 90.7703 56.6 92.0875C55.7984 90.7516 54.6453 89.6641 53.2625 88.9375C54.5516 87.8359 55.4 86.2188 55.4 84.4C55.4 81.1 52.7 78.4 49.4 78.4V66.025C49.4 64.3375 49.8875 63.7281 50.4875 63.325C51.0875 62.9219 51.9688 62.8 52.625 62.8H60.2C60.2891 62.7953 60.3781 62.7859 60.4625 62.7625L69.0875 60.9625C69.3641 60.9109 69.6172 60.7656 69.8 60.55L75.2 53.575C75.3453 53.3828 75.575 53.2703 75.8375 53.2375ZM49.4 80.8C51.4016 80.8 53 82.3984 53 84.4C53 86.4016 51.4016 88 49.4 88C47.3984 88 45.8 86.4016 45.8 84.4C45.8 82.7781 46.85 81.4047 48.3125 80.95C48.3828 80.9266 48.4672 80.9313 48.5375 80.9125C48.5891 80.9031 48.6406 80.8891 48.6875 80.875C48.9219 80.8281 49.1516 80.8 49.4 80.8ZM78.2 80.8C80.2016 80.8 81.8 82.3984 81.8 84.4C81.8 86.4016 80.2016 88 78.2 88C76.1984 88 74.6 86.4016 74.6 84.4C74.6 82.3984 76.1984 80.8 78.2 80.8ZM92.6 80.8C94.6016 80.8 96.2 82.3984 96.2 84.4C96.2 86.4016 94.6016 88 92.6 88C90.5984 88 89 86.4016 89 84.4C89 82.3984 90.5984 80.8 92.6 80.8ZM63.5 80.8375C63.5141 80.8375 63.5234 80.8375 63.5375 80.8375C63.6969 80.8703 63.8656 80.8703 64.025 80.8375C64.0391 80.8375 64.0484 80.8375 64.0625 80.8375C65.9328 80.9781 67.4 82.4922 67.4 84.4C67.4 86.4016 65.8016 88 63.8 88C61.7984 88 60.2 86.4016 60.2 84.4C60.2 82.5016 61.6484 80.9922 63.5 80.8375ZM49.4 90.4C52.7047 90.4 55.4 93.0953 55.4 96.4V97.6H43.4V96.4C43.4 93.0953 46.0953 90.4 49.4 90.4ZM63.8 90.4C67.1047 90.4 69.8 93.0953 69.8 96.4V97.6H57.8V96.4C57.8 93.0953 60.4953 90.4 63.8 90.4ZM78.2 90.4C81.5047 90.4 84.2 93.0953 84.2 96.4V97.6H72.2V96.4C72.2 93.0953 74.8953 90.4 78.2 90.4ZM92.6 90.4C95.9047 90.4 98.6 93.0953 98.6 96.4V97.6H86.6V96.4C86.6 93.0953 89.2953 90.4 92.6 90.4Z" fill="white"/>
</svg>
