<svg width="224" height="650" viewBox="0 0 224 650" fill="none" xmlns="http://www.w3.org/2000/svg">
<g opacity="0.6">
<path opacity="0.6" fill-rule="evenodd" clip-rule="evenodd" d="M9.70068 312.063C9.70068 312.952 10.4219 313.672 11.3116 313.672H42.455C43.3447 313.672 44.0659 312.952 44.0659 312.063C44.0659 311.175 43.3447 310.454 42.455 310.454H11.3116C10.4219 310.454 9.70068 311.175 9.70068 312.063Z" fill="#FFC75A"/>
<path opacity="0.6" fill-rule="evenodd" clip-rule="evenodd" d="M26.7759 329.332C27.6655 329.332 28.3867 328.612 28.3867 327.723V296.618C28.3867 295.73 27.6655 295.009 26.7759 295.009C25.8862 295.009 25.165 295.73 25.165 296.618V327.723C25.165 328.612 25.8862 329.332 26.7759 329.332Z" fill="#FFC75A"/>
<path opacity="0.6" fill-rule="evenodd" clip-rule="evenodd" d="M18.357 320.664C18.9861 321.293 20.0061 321.293 20.6352 320.664L35.5397 305.778C36.1688 305.15 36.1688 304.131 35.5397 303.503C34.9106 302.874 33.8906 302.874 33.2616 303.503L18.357 318.389C17.728 319.017 17.728 320.036 18.357 320.664Z" fill="#FFC75A"/>
<path opacity="0.6" fill-rule="evenodd" clip-rule="evenodd" d="M35.5401 320.84C36.1692 320.212 36.1692 319.193 35.5401 318.565L20.6356 303.679C20.0066 303.051 18.9866 303.051 18.3575 303.679C17.7284 304.307 17.7285 305.326 18.3575 305.954L33.262 320.84C33.8911 321.469 34.9111 321.469 35.5401 320.84Z" fill="#FFC75A"/>
<path opacity="0.6" fill-rule="evenodd" clip-rule="evenodd" d="M97.5273 183.327C97.5273 184.216 98.2486 184.936 99.1382 184.936H130.282C131.171 184.936 131.893 184.216 131.893 183.327C131.893 182.438 131.171 181.718 130.282 181.718H99.1382C98.2486 181.718 97.5273 182.438 97.5273 183.327Z" fill="#F08A4F"/>
<path opacity="0.6" fill-rule="evenodd" clip-rule="evenodd" d="M114.603 200.596C115.492 200.596 116.213 199.876 116.213 198.987V167.882C116.213 166.993 115.492 166.273 114.603 166.273C113.713 166.273 112.992 166.993 112.992 167.882V198.987C112.992 199.876 113.713 200.596 114.603 200.596Z" fill="#F08A4F"/>
<path opacity="0.6" fill-rule="evenodd" clip-rule="evenodd" d="M106.184 191.927C106.813 192.556 107.833 192.556 108.462 191.927L123.366 177.041C123.995 176.413 123.995 175.394 123.366 174.766C122.737 174.138 121.717 174.138 121.088 174.766L106.184 189.652C105.555 190.28 105.555 191.299 106.184 191.927Z" fill="#F08A4F"/>
<path opacity="0.6" fill-rule="evenodd" clip-rule="evenodd" d="M123.367 192.104C123.996 191.475 123.996 190.457 123.367 189.828L108.462 174.942C107.833 174.314 106.813 174.314 106.184 174.942C105.555 175.57 105.555 176.589 106.184 177.217L121.089 192.104C121.718 192.732 122.738 192.732 123.367 192.104Z" fill="#F08A4F"/>
<g opacity="0.5">
<path opacity="0.5" fill-rule="evenodd" clip-rule="evenodd" d="M151.222 531.918C151.222 532.806 151.943 533.527 152.833 533.527H183.976C184.866 533.527 185.587 532.806 185.587 531.918C185.587 531.029 184.866 530.309 183.976 530.309H152.833C151.943 530.309 151.222 531.029 151.222 531.918Z" fill="#F08A4F"/>
<path opacity="0.5" fill-rule="evenodd" clip-rule="evenodd" d="M168.297 549.186C169.187 549.186 169.908 548.466 169.908 547.578V516.472C169.908 515.584 169.187 514.864 168.297 514.864C167.408 514.864 166.686 515.584 166.686 516.472V547.578C166.686 548.466 167.408 549.186 168.297 549.186Z" fill="#F08A4F"/>
<path opacity="0.5" fill-rule="evenodd" clip-rule="evenodd" d="M159.879 540.517C160.508 541.146 161.528 541.146 162.157 540.517L177.061 525.631C177.69 525.003 177.69 523.984 177.061 523.356C176.432 522.728 175.412 522.728 174.783 523.356L159.879 538.242C159.249 538.871 159.249 539.889 159.879 540.517Z" fill="#F08A4F"/>
<path opacity="0.5" fill-rule="evenodd" clip-rule="evenodd" d="M177.062 540.694C177.691 540.066 177.691 539.047 177.062 538.419L162.157 523.532C161.528 522.904 160.508 522.904 159.879 523.532C159.25 524.161 159.25 525.179 159.879 525.808L174.784 540.694C175.413 541.322 176.433 541.322 177.062 540.694Z" fill="#F08A4F"/>
</g>
<path opacity="0.6" fill-rule="evenodd" clip-rule="evenodd" d="M207.199 8.82327C207.828 9.45157 208.848 9.45157 209.477 8.82327L215.552 2.75581C216.181 2.12751 216.181 1.10882 215.552 0.48051C214.923 -0.1478 213.903 -0.1478 213.274 0.48051L207.199 6.54797C206.57 7.17627 206.57 8.19497 207.199 8.82327Z" fill="#F08A4F"/>
<path opacity="0.6" fill-rule="evenodd" clip-rule="evenodd" d="M215.552 8.82342C216.181 8.19512 216.181 7.17642 215.552 6.54812L209.477 0.480624C208.848 -0.147676 207.828 -0.147676 207.199 0.480624C206.57 1.10893 206.57 2.12762 207.199 2.75592L213.274 8.82342C213.903 9.45172 214.923 9.45172 215.552 8.82342Z" fill="#F08A4F"/>
<path opacity="0.6" fill-rule="evenodd" clip-rule="evenodd" d="M210.287 404.923C210.287 405.812 211.008 406.532 211.898 406.532H222.637C223.527 406.532 224.248 405.812 224.248 404.923C224.248 404.035 223.527 403.315 222.637 403.315H211.898C211.008 403.315 210.287 404.035 210.287 404.923Z" fill="#FFC75A"/>
<path opacity="0.6" fill-rule="evenodd" clip-rule="evenodd" d="M217.268 411.895C218.158 411.895 218.879 411.175 218.879 410.286V399.56C218.879 398.672 218.158 397.952 217.268 397.952C216.378 397.952 215.657 398.672 215.657 399.56V410.286C215.657 411.175 216.378 411.895 217.268 411.895Z" fill="#FFC75A"/>
<path opacity="0.6" fill-rule="evenodd" clip-rule="evenodd" d="M0.771973 48.1564C0.771973 49.045 1.49318 49.7653 2.38284 49.7653H13.122C14.0116 49.7653 14.7328 49.045 14.7328 48.1564C14.7328 47.2679 14.0116 46.5476 13.122 46.5476H2.38284C1.49318 46.5476 0.771973 47.2679 0.771973 48.1564Z" fill="#FFC75A"/>
<path opacity="0.6" fill-rule="evenodd" clip-rule="evenodd" d="M7.75241 55.1282C8.64207 55.1282 9.36328 54.4079 9.36328 53.5193V42.7935C9.36328 41.9049 8.64207 41.1846 7.75241 41.1846C6.86275 41.1846 6.14154 41.9049 6.14154 42.7935V53.5193C6.14154 54.4079 6.86275 55.1282 7.75241 55.1282Z" fill="#FFC75A"/>
<path opacity="0.6" fill-rule="evenodd" clip-rule="evenodd" d="M195.092 649.168C195.721 649.796 196.741 649.796 197.371 649.168L204.964 641.583C205.593 640.955 205.593 639.936 204.964 639.308C204.335 638.68 203.315 638.68 202.686 639.308L195.092 646.892C194.463 647.521 194.463 648.539 195.092 649.168Z" fill="#FFC75A"/>
<path opacity="0.6" fill-rule="evenodd" clip-rule="evenodd" d="M204.964 649.167C205.594 648.539 205.594 647.52 204.964 646.892L197.371 639.308C196.742 638.679 195.722 638.679 195.093 639.308C194.464 639.936 194.464 640.955 195.093 641.583L202.686 649.167C203.315 649.796 204.335 649.796 204.964 649.167Z" fill="#FFC75A"/>
<path opacity="0.6" fill-rule="evenodd" clip-rule="evenodd" d="M44.2983 548.795C44.2983 549.683 45.0196 550.404 45.9092 550.404H56.6483C57.538 550.404 58.2592 549.683 58.2592 548.795C58.2592 547.906 57.538 547.186 56.6483 547.186H45.9092C45.0196 547.186 44.2983 547.906 44.2983 548.795Z" fill="#FFC75A" fill-opacity="0.5"/>
<path opacity="0.6" fill-rule="evenodd" clip-rule="evenodd" d="M51.2788 555.766C52.1684 555.766 52.8896 555.046 52.8896 554.158V543.432C52.8896 542.543 52.1684 541.823 51.2788 541.823C50.3891 541.823 49.6679 542.543 49.6679 543.432V554.158C49.6679 555.046 50.3891 555.766 51.2788 555.766Z" fill="#FFC75A" fill-opacity="0.5"/>
<path opacity="0.6" d="M126.544 365.687L136.926 355.317L139.002 353.244L143.155 349.096C144.302 347.95 146.161 347.95 147.308 349.096C148.455 350.242 148.455 352.098 147.308 353.244L143.155 357.391L141.079 359.465L130.697 369.834C129.549 370.98 127.691 370.98 126.544 369.834C125.397 368.689 125.397 366.832 126.544 365.687Z" fill="white" fill-opacity="0.3"/>
<path opacity="0.6" d="M132.717 355.261C131.175 356.801 128.675 356.801 127.134 355.261C125.592 353.721 125.592 351.225 127.134 349.685C128.675 348.145 131.175 348.145 132.717 349.685C134.259 351.225 134.259 353.721 132.717 355.261Z" fill="white" fill-opacity="0.3"/>
<path opacity="0.6" d="M146.732 369.26C145.19 370.8 142.691 370.8 141.149 369.26C139.607 367.72 139.607 365.223 141.149 363.683C142.691 362.143 145.19 362.143 146.732 363.683C148.274 365.223 148.274 367.72 146.732 369.26Z" fill="white" fill-opacity="0.3"/>
<g opacity="0.3">
<path opacity="0.3" d="M175.962 226.496L180.235 221.162C180.609 220.694 181.178 220.421 181.779 220.421H181.782C182.785 220.421 183.597 221.233 183.597 222.233C183.597 222.596 183.488 222.95 183.284 223.251L181.896 225.312H205.926C206.908 225.312 207.704 226.107 207.704 227.087C207.704 228.067 206.908 228.862 205.926 228.862H181.897L183.285 230.924C183.848 231.752 183.633 232.879 182.802 233.442C182.501 233.645 182.146 233.754 181.783 233.754H181.779C181.178 233.754 180.609 233.481 180.235 233.012L175.962 227.679C175.684 227.333 175.686 226.842 175.962 226.496Z" fill="white"/>
<path opacity="0.3" d="M177.531 210.762H201.561L200.172 208.701C199.609 207.872 199.826 206.745 200.655 206.183C200.956 205.979 201.311 205.87 201.674 205.87H201.678C202.279 205.87 202.848 206.144 203.223 206.612L207.495 211.946C207.771 212.291 207.771 212.783 207.495 213.128L203.223 218.462C202.848 218.93 202.279 219.204 201.678 219.204H201.675C200.672 219.204 199.861 218.391 199.861 217.391C199.861 217.028 199.969 216.673 200.173 216.373L201.561 214.312H177.531C176.549 214.312 175.753 213.517 175.753 212.537C175.753 211.557 176.549 210.762 177.531 210.762Z" fill="white"/>
</g>
</g>
</svg>
