<svg width="24" height="24" viewBox="0 0 24 24" fill="none" xmlns="http://www.w3.org/2000/svg">
<path d="M4 3C2.9 3 2 3.9 2 5V17L5 14H14C15.1 14 16 13.1 16 12V5C16 3.9 15.1 3 14 3H4ZM18 8V12C18 14.206 16.206 16 14 16H8V17C8 18.1 8.9 19 10 19H19L22 22V10C22 8.9 21.1 8 20 8H18Z" fill="url(#paint0_linear)"/>
<defs>
<linearGradient id="paint0_linear" x1="19.5" y1="-0.5" x2="12" y2="22" gradientUnits="userSpaceOnUse">
<stop stop-color="#65E04D"/>
<stop offset="1" stop-color="#40BD18"/>
</linearGradient>
</defs>
</svg>
