<svg width="24" height="25" viewBox="0 0 24 25" fill="none" xmlns="http://www.w3.org/2000/svg">
<g clip-path="url(#clip0)">
<path d="M24 12.851C24 6.26167 18.633 0.928711 12 0.928711C5.36774 0.928711 0 6.26094 0 12.851C0 19.3818 5.32214 24.7732 12 24.7732C18.6504 24.7732 24 19.4119 24 12.851ZM12 2.32585C17.8414 2.32585 22.5938 7.04738 22.5938 12.851C22.5938 14.974 21.9582 17.0145 20.7795 18.7429C16.0466 13.6849 7.96198 13.6758 3.22046 18.7429C2.04181 17.0145 1.40625 14.974 1.40625 12.851C1.40625 7.04738 6.15857 2.32585 12 2.32585ZM4.09753 19.8599C8.30566 15.1704 15.6954 15.1715 19.9023 19.8599C15.6801 24.5531 8.32159 24.5545 4.09753 19.8599Z" fill="white"/>
<path d="M12 13.5495C14.3262 13.5495 16.2188 11.6692 16.2188 9.35808V7.96095C16.2188 5.64985 14.3262 3.76953 12 3.76953C9.67383 3.76953 7.78125 5.64985 7.78125 7.96095V9.35808C7.78125 11.6692 9.67383 13.5495 12 13.5495ZM9.1875 7.96095C9.1875 6.42009 10.4491 5.16667 12 5.16667C13.5509 5.16667 14.8125 6.42009 14.8125 7.96095V9.35808C14.8125 10.8989 13.5509 12.1524 12 12.1524C10.4491 12.1524 9.1875 10.8989 9.1875 9.35808V7.96095Z" fill="white"/>
</g>
<defs>
<clipPath id="clip0">
<rect width="24" height="23.8445" fill="white" transform="translate(0 0.928711)"/>
</clipPath>
</defs>
</svg>
