<svg width="1440" height="441" viewBox="0 0 1440 441" fill="none" xmlns="http://www.w3.org/2000/svg">
<mask id="mask0" mask-type="alpha" maskUnits="userSpaceOnUse" x="0" y="0" width="1440" height="441">
<rect width="1440" height="441" fill="#644BEC"/>
</mask>
<g mask="url(#mask0)">
<rect width="1440" height="441" fill="#F0EDFE"/>
<path d="M102.794 100.255L186.724 71.0833L201.688 114.135L136.117 136.925L141.919 153.618L128.098 139.712L117.758 143.307L102.794 100.255Z" fill="#48C95F"/>
<path d="M124.596 109.418L175.304 91.7935L173.777 87.4005L123.069 105.025L124.596 109.418Z" fill="#F2F2F2"/>
<path d="M127.65 118.204L178.358 100.58L176.831 96.1866L126.123 113.811L127.65 118.204Z" fill="#F2F2F2"/>
<path d="M130.704 126.99L181.412 109.365L179.885 104.972L129.177 122.597L130.704 126.99Z" fill="#F2F2F2"/>
<g opacity="0.4" clip-path="url(#clip0)">
<path d="M36.291 91.0207L35.1244 89C32.2933 90.6345 31.0394 94.0534 32.1413 97.1308L34.6357 104.101L31.9426 105.656L33.1092 107.676L35.4351 106.334L37.7867 112.905C38.5083 114.919 37.6868 117.158 35.8333 118.228L37 120.249C39.831 118.614 41.0849 115.195 39.9831 112.118L37.4886 105.148L39.6766 103.885L38.5099 101.864L36.6893 102.915L34.3377 96.3442C33.6161 94.3293 34.4375 92.0908 36.291 91.0207Z" fill="#B0C1FF"/>
<path d="M39.6348 94.479L38.4764 94.3394C38.4603 94.4733 38.1099 97.6712 40.6088 102C43.1078 106.328 46.0524 107.623 46.1765 107.676L47.0925 105.531C47.0701 105.521 44.7103 104.437 42.6296 100.833C40.5495 97.23 40.7915 94.6357 40.7937 94.6094L39.6348 94.479Z" fill="#B0C1FF"/>
<path d="M47.7645 90.5934C47.7874 90.6028 50.1473 91.687 52.228 95.2909C54.3081 98.8937 54.0661 101.488 54.0638 101.514L55.2228 101.645L56.3812 101.784C56.3977 101.649 56.7477 98.4525 54.2487 94.1242C51.7497 89.7959 48.8051 88.5004 48.6811 88.4473L47.7645 90.5934Z" fill="#B0C1FF"/>
<path d="M46.5784 94.3923L46.3304 96.7426L44.1709 95.7822L43.2234 97.9145L46.0726 99.1815L45.7453 102.283L48.0657 102.528L48.3137 100.178L50.4732 101.138L51.4207 99.0059L48.5714 97.7389L48.8988 94.6378L46.5784 94.3923Z" fill="#B0C1FF"/>
</g>
<g opacity="0.4" clip-path="url(#clip1)">
<path d="M214.868 379.057C213.351 378.947 211.991 379.827 211.412 381.146L201.696 380.442C201.314 379.053 200.094 377.986 198.577 377.876C197.061 377.766 195.7 378.646 195.122 379.965L192.591 379.781L192.422 382.109L194.953 382.292C195.335 383.681 196.554 384.748 198.071 384.858C199.588 384.968 200.948 384.088 201.527 382.769L211.243 383.473C211.625 384.862 212.845 385.929 214.362 386.039C215.878 386.149 217.239 385.269 217.818 383.95L220.348 384.134L220.517 381.807L217.986 381.623C217.604 380.234 216.385 379.167 214.868 379.057ZM198.24 382.53C197.598 382.484 197.114 381.924 197.161 381.282C197.207 380.641 197.767 380.157 198.409 380.203C199.05 380.25 199.534 380.809 199.488 381.451C199.441 382.093 198.882 382.577 198.24 382.53ZM214.53 383.712C213.889 383.665 213.405 383.106 213.451 382.464C213.498 381.822 214.057 381.338 214.699 381.385C215.341 381.431 215.825 381.991 215.778 382.633C215.732 383.274 215.172 383.758 214.53 383.712Z" fill="#B0C1FF"/>
<path d="M215.881 365.094L212.39 364.841L211.546 376.477L215.037 376.73C216.962 376.87 218.641 375.418 218.781 373.492C218.846 372.598 218.564 371.759 218.053 371.1C218.653 370.522 219.053 369.733 219.118 368.838C219.258 366.913 217.806 365.234 215.881 365.094ZM214.548 367.337L215.712 367.421C216.354 367.468 216.838 368.027 216.791 368.669C216.744 369.311 216.185 369.795 215.543 369.748L214.379 369.664L214.548 367.337ZM215.206 374.403L214.042 374.318L214.211 371.991L215.374 372.076C216.016 372.122 216.5 372.682 216.453 373.324C216.407 373.965 215.847 374.449 215.206 374.403Z" fill="#B0C1FF"/>
<path d="M202.237 375.802L202.828 367.657C202.967 365.732 201.515 364.052 199.59 363.913C197.665 363.773 195.986 365.225 195.846 367.151L195.255 375.296L197.583 375.465L197.836 371.974L200.163 372.142L199.91 375.633L202.237 375.802ZM198.004 369.646L198.173 367.319C198.22 366.678 198.78 366.194 199.421 366.24C200.063 366.287 200.547 366.846 200.5 367.488L200.332 369.815L198.004 369.646Z" fill="#B0C1FF"/>
</g>
<g opacity="0.3" clip-path="url(#clip2)">
<path d="M1204.27 35.6057L1201.94 35.5125L1201.43 48.3356L1188.61 47.8231L1188.51 50.1546L1201.34 50.6671L1200.82 63.4902L1203.15 63.5834L1203.67 50.7603L1216.49 51.2728L1216.58 48.9413L1203.76 48.4288L1204.27 35.6057Z" fill="#B0C1FF"/>
<path d="M1199.61 35.4193L1197.28 35.3262C1197.1 39.826 1193.29 43.34 1188.79 43.1602L1188.7 45.4916C1194.48 45.7228 1199.38 41.2042 1199.61 35.4193Z" fill="#B0C1FF"/>
<path d="M1205.49 63.6767L1207.82 63.7699C1208 59.27 1211.8 55.756 1216.3 55.9359L1216.4 53.6044C1210.61 53.3732 1205.72 57.8918 1205.49 63.6767Z" fill="#B0C1FF"/>
</g>
<g opacity="0.4" clip-path="url(#clip3)">
<path d="M392.803 67.3117L397.321 56.8434C398.756 57.3153 400.267 57.5186 401.782 57.4416L403.687 70.8486L405.912 70.5325L404.641 61.5867C407.422 60.981 409.753 59.7039 411.06 58.8684L415.379 64.105L417.114 62.6749L409.892 53.9187L409.894 53.9173L402.623 45.1055L400.861 42.9689L399.764 45.5116L395.234 55.9998L395.237 56.0006L390.739 66.4212L392.803 67.3117ZM402.838 48.899L406.692 53.5714C405.775 54.1721 404.753 54.6113 403.688 54.8817L402.838 48.899ZM398.213 54.7759L400.613 49.2151L401.463 55.1984C400.365 55.2347 399.261 55.097 398.213 54.7759ZM404.324 59.3546L404.007 57.1255C405.483 56.7767 406.878 56.1616 408.125 55.3086L409.617 57.1185C408.479 57.8194 406.555 58.8383 404.324 59.3546Z" fill="#B0C1FF"/>
</g>
<g opacity="0.4" clip-path="url(#clip4)">
<path d="M1107.43 412.469L1090.75 393.713L1082.46 417.407L1096.18 421.181L1107.43 412.469ZM1093.06 399.676L1100.85 408.428L1095.6 412.495L1093.06 399.676ZM1096.68 417.97L1096.08 414.944L1102.34 410.1L1104.17 412.168L1096.68 417.97ZM1090.87 400.109L1094.49 418.402L1085.35 415.889L1090.87 400.109Z" fill="#B0C1FF"/>
</g>
<g clip-path="url(#clip5)">
<path d="M1407.1 88.0751L1396.72 75.4694C1394.64 72.9452 1389.84 73.5743 1385.8 76.9024C1381.77 80.2305 1380.23 84.8152 1382.31 87.3394L1392.7 99.9451C1394.78 102.469 1399.57 101.84 1403.61 98.5122C1407.65 95.184 1409.18 90.5994 1407.1 88.0751ZM1402.83 86.5582C1400.76 86.7136 1398.37 87.7153 1396.19 89.5081C1394.02 91.3008 1392.57 93.4571 1392.03 95.4608L1386.58 88.8563C1388.66 88.701 1391.05 87.6992 1393.22 85.9065C1395.4 84.1137 1396.84 81.9574 1397.39 79.9538L1402.83 86.5582ZM1387.29 78.7032C1390.47 76.08 1393.86 75.6756 1394.92 76.9532C1395.97 78.2308 1394.92 81.4825 1391.74 84.1057C1388.56 86.7288 1385.16 87.1333 1384.11 85.8557C1383.06 84.5781 1384.1 81.3264 1387.29 78.7032ZM1402.13 96.7113C1398.94 99.3345 1395.55 99.739 1394.5 98.4614C1393.45 97.1837 1394.49 93.9321 1397.67 91.3089C1400.86 88.6857 1404.25 88.2812 1405.3 89.5589C1406.36 90.8365 1405.31 94.0882 1402.13 96.7113Z" fill="#CBD3F2"/>
</g>
<g opacity="0.4" clip-path="url(#clip6)">
<path d="M619.124 390C612.439 393.86 610.14 402.439 614 409.124C617.86 415.809 626.439 418.109 633.124 414.249C639.81 410.389 642.108 401.809 638.249 395.124C634.389 388.439 625.81 386.14 619.124 390ZM620.291 392.021C624.448 389.621 629.481 390.081 633.106 392.781C630.174 392.758 626.429 393.865 622.624 396.062C618.819 398.259 615.988 400.948 614.542 403.499C614.016 399.009 616.134 394.421 620.291 392.021ZM628.458 406.166C622.675 409.504 617.122 409.865 616.021 407.958C614.919 406.05 618.008 401.422 623.791 398.083C629.574 394.744 635.127 394.384 636.228 396.291C637.329 398.199 634.24 402.827 628.458 406.166ZM631.958 412.228C627.801 414.628 622.768 414.168 619.143 411.468C622.075 411.49 625.819 410.383 629.624 408.187C633.429 405.99 636.26 403.3 637.707 400.75C638.233 405.239 636.114 409.828 631.958 412.228Z" fill="#B0C1FF"/>
</g>
</g>
<defs>
<clipPath id="clip0">
<rect width="28" height="28" fill="white" transform="translate(23 96) rotate(-30)"/>
</clipPath>
<clipPath id="clip1">
<rect width="28" height="28" fill="white" transform="translate(194.025 360) rotate(4.14778)"/>
</clipPath>
<clipPath id="clip2">
<rect width="28" height="28" fill="white" transform="translate(1189.12 35) rotate(2.28885)"/>
</clipPath>
<clipPath id="clip3">
<rect width="28" height="28" fill="white" transform="translate(387 44.938) rotate(-8.08541)"/>
</clipPath>
<clipPath id="clip4">
<rect width="28" height="28" fill="white" transform="translate(1077 396.432) rotate(-11.1852)"/>
</clipPath>
<clipPath id="clip5">
<rect width="28" height="28" fill="white" transform="translate(1375 85.8047) rotate(-39.4863)"/>
</clipPath>
<clipPath id="clip6">
<rect width="28" height="28" fill="white" transform="translate(607 397) rotate(-30)"/>
</clipPath>
</defs>
</svg>
