<svg width="64" height="64" viewBox="0 0 64 64" fill="none" xmlns="http://www.w3.org/2000/svg">
<g clip-path="url(#clip0)">
<path d="M57.1394 13.839L45.1567 0.616C44.8014 0.22375 44.2967 0 43.7674 0H11.765C8.793 0 6.375 2.418 6.375 5.39V58.61C6.375 61.582 8.793 64 11.765 64H52.235C55.207 64 57.625 61.582 57.625 58.61V15.098C57.625 14.6326 57.4519 14.1839 57.1394 13.839ZM45.6424 6.73637L51.5205 13.223H45.6424V6.73637ZM52.235 60.25H11.765C10.8608 60.25 10.125 59.5143 10.125 58.61V5.39C10.125 4.48575 10.8608 3.75 11.765 3.75H41.8924V15.098C41.8924 16.1335 42.7319 16.973 43.7674 16.973H53.875V58.61C53.875 59.5143 53.1393 60.25 52.235 60.25Z" fill="url(#paint0_linear)"/>
<path d="M42.6245 30.1753C42.9906 30.5414 43.4705 30.7245 43.9503 30.7245C44.43 30.7245 44.91 30.5414 45.276 30.1753L50.5348 24.9165C51.267 24.1844 51.267 22.9972 50.5348 22.2649C49.8026 21.5328 48.6154 21.5328 47.8831 22.2649L43.9501 26.1979L42.8531 25.1009C42.121 24.3688 40.9338 24.3688 40.2015 25.1009C39.4693 25.833 39.4693 27.0203 40.2015 27.7525L42.6245 30.1753Z" fill="url(#paint1_linear)"/>
<path d="M42.6245 42.9272C42.9906 43.2934 43.4705 43.4765 43.9503 43.4765C44.43 43.4765 44.91 43.2934 45.276 42.9272L50.5348 37.6685C51.267 36.9364 51.267 35.7491 50.5348 35.0169C49.8026 34.2847 48.6154 34.2847 47.8831 35.0169L43.9501 38.9499L42.8531 37.8529C42.121 37.1207 40.9338 37.1207 40.2015 37.8529C39.4693 38.585 39.4693 39.7722 40.2015 40.5045L42.6245 42.9272Z" fill="url(#paint2_linear)"/>
<path d="M47.8833 47.326L43.9503 51.2589L42.8533 50.1619C42.1211 49.4298 40.9339 49.4298 40.2017 50.1619C39.4694 50.894 39.4694 52.0813 40.2017 52.8135L42.6245 55.2364C42.9906 55.6027 43.4704 55.7857 43.9503 55.7857C44.43 55.7857 44.91 55.6025 45.276 55.2364L50.5348 49.9778C51.267 49.2457 51.267 48.0584 50.5348 47.3262C49.8025 46.5938 48.6155 46.5938 47.8833 47.326Z" fill="url(#paint3_linear)"/>
<path d="M34.9351 24.3452H15.5701C14.5346 24.3452 13.6951 25.1847 13.6951 26.2202C13.6951 27.2557 14.5346 28.0952 15.5701 28.0952H34.9351C35.9706 28.0952 36.8101 27.2557 36.8101 26.2202C36.8101 25.1847 35.9706 24.3452 34.9351 24.3452Z" fill="#644BEC"/>
<path d="M34.9351 37.0967H15.5701C14.5346 37.0967 13.6951 37.9362 13.6951 38.9717C13.6951 40.0072 14.5346 40.8467 15.5701 40.8467H34.9351C35.9706 40.8467 36.8101 40.0072 36.8101 38.9717C36.8101 37.9362 35.9706 37.0967 34.9351 37.0967Z" fill="#644BEC"/>
<path d="M34.9351 49.4058H15.5701C14.5346 49.4058 13.6951 50.2453 13.6951 51.2808C13.6951 52.3163 14.5346 53.1558 15.5701 53.1558H34.9351C35.9706 53.1558 36.8101 52.3163 36.8101 51.2808C36.8101 50.2453 35.9706 49.4058 34.9351 49.4058Z" fill="#644BEC"/>
<path d="M15.5701 17.8911H28.3268C29.3624 17.8911 30.2019 17.0516 30.2019 16.0161C30.2019 14.9806 29.3624 14.1411 28.3268 14.1411H15.5701C14.5346 14.1411 13.6951 14.9806 13.6951 16.0161C13.6951 17.0516 14.5345 17.8911 15.5701 17.8911Z" fill="#644BEC"/>
</g>
<defs>
<linearGradient id="paint0_linear" x1="32" y1="0" x2="32" y2="64" gradientUnits="userSpaceOnUse">
<stop stop-color="#65E04D"/>
<stop offset="1" stop-color="#644BEC"/>
</linearGradient>
<linearGradient id="paint1_linear" x1="45.3681" y1="21.7158" x2="45.3681" y2="30.7245" gradientUnits="userSpaceOnUse">
<stop stop-color="#65E04D"/>
<stop offset="1" stop-color="#644BEC"/>
</linearGradient>
<linearGradient id="paint2_linear" x1="45.3681" y1="34.4678" x2="45.3681" y2="43.4765" gradientUnits="userSpaceOnUse">
<stop stop-color="#65E04D"/>
<stop offset="1" stop-color="#644BEC"/>
</linearGradient>
<linearGradient id="paint3_linear" x1="45.3682" y1="46.7769" x2="45.3682" y2="55.7857" gradientUnits="userSpaceOnUse">
<stop stop-color="#65E04D"/>
<stop offset="1" stop-color="#644BEC"/>
</linearGradient>
<clipPath id="clip0">
<rect width="64" height="64" fill="white"/>
</clipPath>
</defs>
</svg>
