<svg width="64" height="64" viewBox="0 0 64 64" fill="none" xmlns="http://www.w3.org/2000/svg">
<g clip-path="url(#clip0)">
<path d="M57.2656 16.8398C55.9401 17.4811 55.3854 19.0762 56.0267 20.401C57.7786 24.0202 58.6667 27.9212 58.6667 32C58.6667 46.7038 46.7038 58.6667 32 58.6667C17.2962 58.6667 5.33333 46.7038 5.33333 32C5.33333 17.2962 17.2962 5.33333 32 5.33333C38.0931 5.33333 43.8171 7.32292 48.5547 11.0866C49.7038 12.0039 51.3841 11.8118 52.3014 10.6589C53.2188 9.50651 53.0267 7.82813 51.873 6.91211C46.2643 2.45443 39.2064 0 32 0C14.3561 0 0 14.3561 0 32C0 49.6439 14.3561 64 32 64C49.6439 64 64 49.6439 64 32C64 27.1107 62.9323 22.4251 60.8268 18.0788C60.1869 16.7507 58.5866 16.1973 57.2656 16.8398Z" fill="url(#paint0_linear)"/>
<path d="M32 10.6665C30.528 10.6665 29.3333 11.8612 29.3333 13.3332V31.9998C29.3333 33.4718 30.528 34.6665 32 34.6665H45.3333C46.8053 34.6665 48 33.4718 48 31.9998C48 30.5278 46.8053 29.3332 45.3333 29.3332H34.6666V13.3332C34.6666 11.8612 33.472 10.6665 32 10.6665Z" fill="url(#paint1_linear)"/>
</g>
<defs>
<linearGradient id="paint0_linear" x1="32" y1="0" x2="32" y2="64" gradientUnits="userSpaceOnUse">
<stop stop-color="#65E04D"/>
<stop offset="1" stop-color="#644BEC"/>
</linearGradient>
<linearGradient id="paint1_linear" x1="38.6666" y1="10.6665" x2="38.6666" y2="34.6665" gradientUnits="userSpaceOnUse">
<stop stop-color="#65E04D"/>
<stop offset="1" stop-color="#644BEC"/>
</linearGradient>
<clipPath id="clip0">
<rect width="64" height="64" fill="white"/>
</clipPath>
</defs>
</svg>
