<svg width="64" height="64" viewBox="0 0 64 64" fill="none" xmlns="http://www.w3.org/2000/svg">
<g clip-path="url(#clip0)">
<path d="M57.104 0H6.89551C3.09326 0 0 3.09326 0 6.89551V43.5542C0 47.3564 3.09326 50.4502 6.89551 50.4502H27.1123V54.2251H16.9375C14.2427 54.2251 12.0498 56.4175 12.0498 59.1123C12.0498 61.8076 14.2427 64 16.9375 64H47.0625C49.7573 64 51.9502 61.8076 51.9502 59.1123C51.9502 56.4175 49.7573 54.2251 47.0625 54.2251H36.8877V50.4497H57.104C60.9067 50.4497 64 47.3564 64 43.5542V6.89551C64 3.09326 60.9067 0 57.104 0ZM48.2002 59.1123C48.2002 59.7397 47.6899 60.25 47.0625 60.25H16.9375C16.3101 60.25 15.7998 59.7397 15.7998 59.1123C15.7998 58.4854 16.3101 57.9751 16.9375 57.9751H47.0625C47.6899 57.9751 48.2002 58.4854 48.2002 59.1123ZM33.1377 54.2251H30.8623V50.4502H33.1377V54.2251ZM60.25 43.5542C60.25 45.2891 58.8389 46.7002 57.104 46.7002H6.89551C5.16113 46.7002 3.75 45.2886 3.75 43.5542V6.89551C3.75 5.16113 5.16113 3.75 6.89551 3.75H57.104C58.8389 3.75 60.25 5.16113 60.25 6.89551V43.5542Z" fill="url(#paint0_linear)"/>
<path d="M23.9951 30.4019C24.2939 30.584 24.6318 30.6758 24.9707 30.6758C25.2651 30.6758 25.5596 30.6065 25.8301 30.4673L43.9048 21.1485C44.5288 20.8267 44.9209 20.1836 44.9209 19.482C44.9209 18.7798 44.5288 18.1368 43.9048 17.8155L25.8301 8.49613C25.2485 8.19632 24.5532 8.22123 23.9951 8.56156C23.4365 8.90189 23.0957 9.50834 23.0957 10.1626V28.8008C23.0957 29.4551 23.4365 30.0616 23.9951 30.4019ZM26.8457 13.2388L38.9541 19.482L26.8457 25.7246V13.2388Z" fill="url(#paint1_linear)"/>
<path d="M54.0913 35.3999H42.5381C41.8008 33.6328 40.0557 32.3872 38.0249 32.3872C35.9937 32.3872 34.2485 33.6328 33.5117 35.3999H9.9082C8.87256 35.3999 8.0332 36.2393 8.0332 37.2749C8.0332 38.3105 8.87256 39.1499 9.9082 39.1499H33.5122C34.249 40.917 35.9941 42.1626 38.0249 42.1626C40.0562 42.1626 41.8013 40.917 42.5381 39.1499H54.0918C55.1274 39.1499 55.9668 38.3105 55.9668 37.2749C55.9668 36.2393 55.127 35.3999 54.0913 35.3999ZM38.0249 38.4126C37.3984 38.4126 36.8887 37.9038 36.8877 37.2773C36.8877 37.2769 36.8877 37.2759 36.8877 37.2749C36.8877 37.2739 36.8877 37.2734 36.8877 37.2725C36.8887 36.6465 37.3984 36.1372 38.0249 36.1372C38.6523 36.1372 39.1626 36.6475 39.1626 37.2749C39.1626 37.9023 38.6523 38.4126 38.0249 38.4126Z" fill="url(#paint2_linear)"/>
</g>
<defs>
<linearGradient id="paint0_linear" x1="32" y1="0" x2="32" y2="64" gradientUnits="userSpaceOnUse">
<stop stop-color="#65E04D"/>
<stop offset="1" stop-color="#644BEC"/>
</linearGradient>
<linearGradient id="paint1_linear" x1="34.0083" y1="8.2876" x2="34.0083" y2="30.6758" gradientUnits="userSpaceOnUse">
<stop stop-color="#65E04D"/>
<stop offset="1" stop-color="#644BEC"/>
</linearGradient>
<linearGradient id="paint2_linear" x1="32" y1="32.3872" x2="32" y2="42.1626" gradientUnits="userSpaceOnUse">
<stop stop-color="#65E04D"/>
<stop offset="1" stop-color="#644BEC"/>
</linearGradient>
<clipPath id="clip0">
<rect width="64" height="64" fill="white"/>
</clipPath>
</defs>
</svg>
