<svg width="593" height="577" viewBox="0 0 593 577" fill="none" xmlns="http://www.w3.org/2000/svg">
<path d="M485.776 327.103C485.353 381.722 469.636 431.62 433.84 466.713C395.653 504.15 345.004 535.954 285.871 523.081C228.469 510.585 188.877 453.336 149.429 404.798C112.971 359.94 76.1879 312.936 72.0316 259.969C67.6779 204.486 86.2418 151.093 127.213 121.677C166.209 93.6782 222.778 107.075 275.601 113.81C331.483 120.936 393.33 117.563 436.207 161.076C480.393 205.917 486.216 270.283 485.776 327.103Z" fill="#F7F6FE"/>
<g clip-path="url(#clip0)">
<path opacity="0.1" d="M390.303 91.4882C369.663 90.4902 348.666 90.6572 328.734 95.577C308.802 100.497 289.847 110.622 278.504 126.151C272.009 135.041 268.133 145.452 260.569 153.63C247.448 167.809 226.003 172.68 206.212 177.569C159.734 189 112.998 205.518 79.2849 236.462C74.4449 240.898 69.7281 245.958 68.6325 252.091C66.9517 261.522 74.3525 270.346 82.5629 276.383C90.7733 282.419 100.488 287.207 106.565 295.037C114.313 305.022 114.749 318.216 112.549 330.21C110.349 342.204 105.821 353.873 104.629 365.999C104.334 368.988 104.264 372.105 105.562 374.871C107.282 378.538 111.106 381.026 114.854 383.119C128.145 390.573 142.487 395.979 157.394 399.153C183.076 404.653 209.859 403.62 236.154 405.88C262.448 408.14 289.834 414.462 308.314 431.407C319.648 441.796 329.874 456.951 346.035 456.437C355.09 456.151 363.089 450.62 372.122 450.004C382.291 449.31 391.482 454.841 401.07 457.993C414.688 462.477 430.458 462.042 443.226 455.861C455.995 449.679 465.266 437.571 466.014 424.557C466.744 411.807 459.828 399.879 455.832 387.625C442.729 347.48 461.161 305.057 479.487 266.596C497.813 228.134 516.724 186.028 504.532 145.65C490.377 98.8173 435.548 93.6777 390.303 91.4882Z" fill="#48C95F"/>
<path d="M172.596 327.928C172.596 327.928 157.346 319.575 152.827 306.75C150.966 301.362 147.405 296.723 142.68 293.529C140.426 292.03 138.038 290.741 135.548 289.678" stroke="#535461" stroke-width="2" stroke-miterlimit="10"/>
<path d="M132.635 281.619C134.078 283.07 135.632 289.88 135.632 289.88C135.632 289.88 128.825 288.284 127.382 286.838C126.713 286.137 126.346 285.202 126.359 284.234C126.372 283.265 126.764 282.341 127.451 281.658C128.138 280.975 129.066 280.589 130.035 280.582C131.004 280.574 131.938 280.947 132.635 281.619Z" fill="#48C95F"/>
<path d="M144.982 285.334C145.422 287.334 143.002 293.894 143.002 293.894C143.002 293.894 138.162 288.86 137.722 286.86C137.604 286.378 137.584 285.877 137.664 285.388C137.744 284.898 137.921 284.429 138.186 284.01C138.45 283.59 138.796 283.228 139.204 282.944C139.611 282.661 140.071 282.462 140.557 282.36C141.043 282.258 141.544 282.254 142.031 282.349C142.518 282.444 142.981 282.636 143.393 282.913C143.804 283.191 144.156 283.548 144.427 283.964C144.697 284.38 144.881 284.846 144.968 285.334H144.982Z" fill="#48C95F"/>
<path d="M158.437 299.24C157.79 301.179 152.404 305.633 152.404 305.633C152.404 305.633 150.763 298.84 151.41 296.901C151.72 295.969 152.389 295.197 153.269 294.757C154.148 294.317 155.167 294.243 156.1 294.554C157.034 294.864 157.806 295.532 158.247 296.411C158.687 297.29 158.76 298.308 158.45 299.24H158.437Z" fill="#48C95F"/>
<path d="M166.251 312.052C165.943 314.07 161.385 319.372 161.385 319.372C161.385 319.372 158.622 312.958 158.93 310.935C159.103 309.988 159.639 309.146 160.424 308.587C161.208 308.028 162.18 307.796 163.133 307.942C164.086 308.087 164.944 308.597 165.526 309.365C166.109 310.132 166.369 311.096 166.251 312.052Z" fill="#48C95F"/>
<path d="M137.766 299.654C139.812 299.632 145.686 295.864 145.686 295.864C145.686 295.864 139.715 292.232 137.669 292.254C136.708 292.296 135.801 292.71 135.14 293.408C134.479 294.106 134.116 295.034 134.127 295.994C134.137 296.955 134.522 297.874 135.198 298.557C135.875 299.24 136.791 299.633 137.752 299.654H137.766Z" fill="#48C95F"/>
<path d="M147.094 314.523C149.038 313.89 153.526 308.535 153.526 308.535C153.526 308.535 146.742 306.855 144.797 307.489C143.894 307.818 143.155 308.484 142.735 309.347C142.315 310.21 142.247 311.202 142.544 312.114C142.842 313.027 143.483 313.788 144.332 314.237C145.181 314.687 146.171 314.789 147.094 314.523Z" fill="#48C95F"/>
<path d="M158.155 327.735C160.179 327.44 165.508 322.898 165.508 322.898C165.508 322.898 159.101 320.098 157.077 320.392C156.595 320.463 156.131 320.628 155.712 320.878C155.294 321.128 154.928 321.458 154.637 321.848C154.346 322.239 154.135 322.684 154.016 323.156C153.896 323.629 153.871 324.12 153.942 324.602C154.013 325.084 154.178 325.548 154.428 325.966C154.678 326.384 155.008 326.749 155.399 327.04C155.791 327.331 156.235 327.542 156.708 327.661C157.181 327.78 157.673 327.805 158.155 327.735Z" fill="#48C95F"/>
<path d="M184.586 291.995C184.586 291.995 174.026 278.176 175.095 264.63C175.578 258.952 174.204 253.27 171.179 248.438C169.725 246.156 168.066 244.011 166.22 242.032" stroke="#535461" stroke-width="2" stroke-miterlimit="10"/>
<path d="M166.836 233.485C167.567 235.393 166.229 242.252 166.229 242.252C166.229 242.252 160.65 238.04 159.92 236.132C159.723 235.673 159.621 235.18 159.62 234.681C159.618 234.182 159.718 233.688 159.913 233.229C160.107 232.77 160.393 232.355 160.752 232.008C161.111 231.662 161.537 231.392 162.003 231.214C162.47 231.036 162.967 230.954 163.466 230.973C163.965 230.992 164.455 231.112 164.906 231.325C165.357 231.538 165.761 231.84 166.093 232.212C166.424 232.585 166.677 233.021 166.836 233.494V233.485Z" fill="#48C95F"/>
<path d="M176.604 241.874C176.164 243.874 171.324 248.908 171.324 248.908C171.324 248.908 168.935 242.344 169.358 240.344C169.452 239.862 169.641 239.403 169.915 238.995C170.188 238.587 170.54 238.237 170.95 237.966C171.36 237.695 171.82 237.509 172.303 237.417C172.786 237.326 173.283 237.331 173.764 237.433C174.244 237.535 174.7 237.732 175.104 238.012C175.508 238.292 175.852 238.649 176.117 239.063C176.381 239.477 176.56 239.94 176.644 240.424C176.728 240.908 176.714 241.404 176.604 241.882V241.874Z" fill="#48C95F"/>
<path d="M183.27 260.036C181.893 261.548 175.161 263.439 175.161 263.439C175.161 263.439 176.415 256.567 177.801 255.055C178.124 254.68 178.519 254.373 178.963 254.154C179.406 253.934 179.889 253.805 180.384 253.775C180.878 253.745 181.373 253.814 181.84 253.978C182.307 254.143 182.736 254.399 183.102 254.732C183.468 255.065 183.764 255.468 183.972 255.917C184.179 256.366 184.295 256.852 184.311 257.347C184.328 257.841 184.245 258.334 184.068 258.796C183.89 259.258 183.622 259.679 183.279 260.036H183.27Z" fill="#48C95F"/>
<path d="M185.22 274.914C184.12 276.637 177.806 279.636 177.806 279.636C177.806 279.636 177.88 272.65 178.98 270.926C179.527 270.141 180.357 269.597 181.296 269.409C182.235 269.222 183.21 269.405 184.017 269.92C184.824 270.435 185.4 271.242 185.624 272.173C185.848 273.103 185.703 274.084 185.22 274.91V274.914Z" fill="#48C95F"/>
<path d="M164.205 252.047C166.084 252.852 173.005 251.792 173.005 251.792C173.005 251.792 169.014 246.055 167.136 245.25C166.238 244.891 165.236 244.897 164.343 245.267C163.449 245.636 162.736 246.34 162.355 247.227C161.974 248.115 161.955 249.116 162.302 250.017C162.649 250.919 163.335 251.649 164.214 252.052L164.205 252.047Z" fill="#48C95F"/>
<path d="M166.704 269.405C168.737 269.612 175.016 266.534 175.016 266.534C175.016 266.534 169.49 262.252 167.457 262.045C166.501 261.985 165.559 262.297 164.829 262.916C164.099 263.535 163.636 264.412 163.539 265.364C163.442 266.315 163.717 267.268 164.307 268.021C164.897 268.775 165.756 269.271 166.704 269.405Z" fill="#48C95F"/>
<path d="M171.452 285.967C173.423 286.517 180.129 284.538 180.129 284.538C180.129 284.538 175.408 279.385 173.436 278.823C172.964 278.679 172.467 278.632 171.976 278.683C171.485 278.734 171.009 278.883 170.576 279.121C170.143 279.358 169.762 279.68 169.456 280.067C169.149 280.454 168.923 280.898 168.791 281.373C168.658 281.849 168.623 282.346 168.685 282.835C168.748 283.325 168.908 283.797 169.156 284.224C169.404 284.65 169.735 285.023 170.129 285.32C170.523 285.618 170.973 285.833 171.452 285.954V285.967Z" fill="#48C95F"/>
<path d="M379.378 310.078C379.378 310.078 377.244 292.826 385.002 281.667C388.284 277.007 389.966 271.408 389.793 265.712C389.69 263.008 389.34 260.319 388.746 257.679" stroke="#535461" stroke-width="2" stroke-miterlimit="10"/>
<path d="M393.59 250.614C393.256 252.632 388.64 257.877 388.64 257.877C388.64 257.877 385.952 251.427 386.286 249.414C386.468 248.466 387.013 247.626 387.805 247.073C388.598 246.521 389.575 246.3 390.528 246.457C391.481 246.614 392.335 247.137 392.908 247.915C393.481 248.692 393.728 249.662 393.595 250.618L393.59 250.614Z" fill="#48C95F"/>
<path d="M397.788 262.775C396.411 264.288 389.683 266.182 389.683 266.182C389.683 266.182 390.933 259.311 392.323 257.798C392.995 257.116 393.904 256.721 394.861 256.694C395.818 256.667 396.748 257.012 397.456 257.656C398.164 258.299 398.596 259.192 398.66 260.146C398.725 261.1 398.417 262.043 397.801 262.775H397.788Z" fill="#48C95F"/>
<path d="M394.374 281.821C392.42 282.432 385.657 280.674 385.657 280.674C385.657 280.674 390.211 275.371 392.16 274.76C393.082 274.522 394.059 274.647 394.891 275.109C395.722 275.571 396.344 276.335 396.627 277.243C396.91 278.151 396.832 279.133 396.41 279.985C395.988 280.838 395.254 281.495 394.36 281.821H394.374Z" fill="#48C95F"/>
<path d="M388.544 295.648C386.722 296.581 379.744 295.987 379.744 295.987C379.744 295.987 383.334 289.99 385.156 289.058C385.589 288.837 386.062 288.703 386.547 288.664C387.032 288.625 387.52 288.682 387.983 288.831C388.446 288.981 388.875 289.22 389.246 289.536C389.617 289.851 389.921 290.236 390.143 290.669C390.364 291.102 390.499 291.575 390.537 292.06C390.576 292.544 390.519 293.032 390.37 293.495C390.22 293.958 389.98 294.386 389.665 294.757C389.349 295.127 388.964 295.431 388.53 295.653L388.544 295.648Z" fill="#48C95F"/>
<path d="M381.948 265.312C383.162 266.956 389.666 269.524 389.666 269.524C389.666 269.524 389.12 262.56 387.906 260.915C387.31 260.158 386.443 259.663 385.489 259.534C384.534 259.405 383.567 259.653 382.792 260.225C382.017 260.797 381.495 261.648 381.338 262.597C381.18 263.547 381.399 264.521 381.948 265.312Z" fill="#48C95F"/>
<path d="M375.335 281.566C376.985 282.771 383.959 283.276 383.959 283.276C383.959 283.276 381.35 276.796 379.7 275.591C378.905 275.045 377.928 274.83 376.977 274.992C376.026 275.155 375.176 275.681 374.607 276.46C374.039 277.239 373.797 278.208 373.932 279.163C374.068 280.117 374.571 280.981 375.335 281.57V281.566Z" fill="#48C95F"/>
<path d="M371.076 298.251C372.501 299.72 379.286 301.39 379.286 301.39C379.286 301.39 377.812 294.562 376.386 293.094C376.052 292.727 375.648 292.43 375.197 292.222C374.746 292.014 374.258 291.899 373.761 291.884C373.265 291.868 372.77 291.952 372.307 292.132C371.844 292.311 371.421 292.581 371.065 292.927C370.708 293.272 370.425 293.686 370.232 294.143C370.039 294.6 369.939 295.092 369.94 295.588C369.94 296.084 370.041 296.575 370.235 297.032C370.43 297.489 370.714 297.902 371.071 298.247L371.076 298.251Z" fill="#48C95F"/>
<path d="M276.005 169.699L155.361 282.019V447.41H396.644V282.019L276.005 169.699Z" fill="url(#paint0_linear)"/>
<path d="M394.061 444.438H157.944V282.586L276.005 172.671L394.061 282.586V444.438Z" fill="#F5F7FE"/>
<path opacity="0.1" d="M393.155 282.687H158.107V444.205H393.155V282.687Z" fill="black"/>
<path d="M322.742 153.718H347.162C350.041 153.718 352.376 151.385 352.376 148.508V124.106C352.376 121.229 350.041 118.896 347.162 118.896H322.742C319.862 118.896 317.528 121.229 317.528 124.106V148.508C317.528 151.385 319.862 153.718 322.742 153.718Z" fill="#48C95F"/>
<path d="M285.782 196.804H310.202C313.081 196.804 315.416 194.472 315.416 191.594V167.193C315.416 164.316 313.081 161.983 310.202 161.983H285.782C282.902 161.983 280.568 164.316 280.568 167.193V191.594C280.568 194.472 282.902 196.804 285.782 196.804Z" fill="#48C95F"/>
<path d="M380.822 136.131H405.242C408.121 136.131 410.456 133.799 410.456 130.921V106.52C410.456 103.643 408.121 101.31 405.242 101.31H380.822C377.942 101.31 375.608 103.643 375.608 106.52V130.921C375.608 133.799 377.942 136.131 380.822 136.131Z" fill="#48C95F"/>
<path opacity="0.5" d="M242.613 323.809H234.482V316.422C234.482 315.041 233.933 313.715 232.955 312.738C231.977 311.761 230.651 311.212 229.268 311.212H204.848C203.465 311.212 202.139 311.761 201.161 312.738C200.183 313.715 199.634 315.041 199.634 316.422V340.823C199.634 342.205 200.183 343.53 201.161 344.507C202.139 345.485 203.465 346.033 204.848 346.033H212.979V353.42C212.979 354.801 213.528 356.127 214.506 357.104C215.484 358.081 216.81 358.63 218.193 358.63H242.613C243.996 358.63 245.322 358.081 246.3 357.104C247.278 356.127 247.827 354.801 247.827 353.42V329.019C247.827 328.334 247.692 327.657 247.43 327.025C247.168 326.393 246.784 325.818 246.3 325.335C245.816 324.851 245.241 324.467 244.608 324.205C243.976 323.943 243.298 323.809 242.613 323.809Z" fill="#48C95F"/>
<path opacity="0.5" d="M347.162 307.506H322.742C322.057 307.506 321.379 307.641 320.746 307.903C320.114 308.165 319.539 308.548 319.055 309.032C318.571 309.516 318.186 310.09 317.924 310.722C317.662 311.354 317.528 312.032 317.528 312.716V324.174H305.318C303.935 324.174 302.609 324.723 301.631 325.7C300.653 326.677 300.104 328.002 300.104 329.384V341.215H288.633C287.25 341.215 285.924 341.764 284.946 342.741C283.968 343.718 283.419 345.043 283.419 346.425V370.826C283.419 372.208 283.968 373.533 284.946 374.51C285.924 375.487 287.25 376.036 288.633 376.036H313.035C314.418 376.036 315.744 375.487 316.722 374.51C317.7 373.533 318.249 372.208 318.249 370.826V358.999H329.755C331.138 358.999 332.464 358.45 333.442 357.473C334.42 356.496 334.969 355.171 334.969 353.789V342.332H347.179C348.56 342.327 349.883 341.775 350.858 340.796C351.832 339.818 352.378 338.493 352.376 337.113V312.712C352.374 311.331 351.825 310.007 350.847 309.031C349.869 308.054 348.544 307.506 347.162 307.506Z" fill="#48C95F"/>
<path d="M224.261 272.017C224.538 272.661 224.946 273.241 225.459 273.72C225.973 274.198 226.581 274.565 227.244 274.795C227.834 274.984 228.458 275.05 229.061 275.204C231.934 275.916 233.967 278.396 236.581 279.768C236.79 279.898 237.03 279.972 237.276 279.983H237.364C237.418 279.988 237.473 279.988 237.527 279.983C237.796 279.954 238.052 279.848 238.262 279.675L238.38 279.588C238.664 280.751 238.708 281.96 238.508 283.14C237.47 283.14 230.724 283.553 231.648 291.494C232.647 300.111 242.648 312.158 242.648 312.158C242.648 312.158 249.644 319.298 247.396 343.668L247.145 355.486C247.145 355.486 249.834 355.082 253.261 354.677C253.34 354.835 253.421 354.991 253.503 355.143C254.482 356.85 255.728 358.39 257.195 359.702L262.875 373.235C262.875 373.235 263.364 374.114 264.085 375.504C264.151 378.366 262.374 380.868 262.374 380.868C251.374 384.068 246.881 395.636 246.881 395.636C246.881 395.636 240.677 399.351 239.335 403.501C236.695 405.62 236.893 411.415 236.893 411.415C236.893 411.415 246.133 416.339 252.887 419.048C253.67 419.362 254.487 419.586 255.32 419.716L253.82 422.794C252.254 423.356 252.139 431.09 252.139 431.09C252.139 431.09 268.63 442.908 273.629 443.647C278.627 444.385 282.869 440.938 277.628 438.476C273.4 436.493 268.688 428.922 267.016 426.051C269.11 423.185 275.71 413.895 276.128 410.166C276.63 405.735 282.873 402.042 282.873 402.042C291.871 392.439 285.874 381.118 285.122 375.222C285.122 375.108 285.091 374.985 285.069 374.857C284.517 372.295 283.811 369.768 282.952 367.291C283.934 361.096 284.712 351.419 285.192 345.031C287.176 345.668 289.121 346.425 289.121 346.425C292.769 339.025 280.378 308.552 276.801 300.111C278.882 299.425 282.468 298.352 287.612 297.192C296.359 295.222 296.852 290.79 296.852 290.79L303.597 272.575C303.021 272.83 302.141 272.821 301.111 272.641C301.111 272.487 301.111 272.324 301.111 272.149C301.164 270.421 301.327 267.66 301.837 267.158C301.837 267.158 300.178 267.158 298.163 266.978V266.732L299.07 255.587C299.07 255.587 297.82 243.276 293.574 245C290.164 246.384 290.617 257.442 290.934 261.751C291.014 262.853 291.337 263.923 291.88 264.885L292.166 265.391L292.364 265.738C292.178 265.649 291.998 265.546 291.827 265.431V269.242C291.356 269.018 291.079 268.877 291.079 268.877C291.33 273.063 286.081 287.093 286.081 287.093C286.081 287.093 276.841 286.108 273.836 288.077C271.636 289.524 268.767 286.728 267.39 285.136L273.875 271.076C273.097 270.938 272.328 270.75 271.574 270.513C271.605 270.342 271.636 270.161 271.671 269.977C271.996 268.218 272.586 265.725 273.378 265.413C272.234 264.789 271.047 264.245 269.827 263.786C269.858 263.646 269.884 263.496 269.92 263.347C270.386 260.884 271.121 255.565 269.629 251.893C267.632 246.969 266.879 237.385 263.13 239.583C260.156 241.342 260.015 251.937 260.081 256.233C260.099 257.397 260.391 258.54 260.935 259.57L262.378 262.305L262.576 262.683L262.378 262.718V266.081C261.744 265.681 261.379 265.426 261.379 265.426C261.252 270.157 258.119 276.466 255.056 281.544L253.499 280.397L253.116 280.124C253.112 280.074 253.112 280.024 253.116 279.974C253.116 279.974 252.474 279.794 251.462 279.588C250.203 277.2 249.499 274.312 249.108 271.929C249.068 271.678 249.028 271.436 248.993 271.199C249.572 269.918 249.872 268.529 249.873 267.123C249.856 264.722 248.986 262.405 247.419 260.584C245.852 258.764 243.689 257.558 241.315 257.183C241.623 256.844 241.755 256.743 241.852 256.743H241.918C242.072 256.743 242.283 256.813 243.049 256.439C243.814 256.066 244.734 255.481 244.73 254.611C244.73 253.973 244.224 253.45 243.687 253.089C242.398 252.21 242.367 250.737 241.161 250.847C240.93 250.828 240.697 250.859 240.479 250.939C239.379 251.3 238.424 251.986 237.355 252.425C236.607 252.731 235.813 252.912 235.006 252.962C234.49 252.962 233.975 253.003 233.466 253.085C233.058 253.187 232.667 253.345 232.304 253.555C230.047 254.786 227.442 256.659 226.716 259.099C226.038 261.386 226.976 264.349 225.229 265.993C224.91 266.245 224.615 266.526 224.349 266.833C224.126 267.172 223.976 267.554 223.909 267.954C223.602 269.312 223.725 270.732 224.261 272.017ZM269.946 390.395C270.043 391.573 269.818 392.409 269.128 392.681C265.379 394.158 261.133 407.696 261.133 407.696L258.29 413.556C256.037 411.857 253.88 410.032 251.831 408.091L252.139 405.968C252.139 405.968 260.134 400.059 260.636 398.335C261.036 396.95 267.5 392.167 269.946 390.395Z" fill="url(#paint1_linear)"/>
<path d="M275.53 298.55C275.53 298.55 292.522 337.851 288.395 346.346C288.395 346.346 281.597 343.677 280.625 344.147C279.652 344.618 269.942 293.446 269.942 293.446L275.53 298.55Z" fill="#575988"/>
<path opacity="0.05" d="M275.53 298.55C275.53 298.55 292.522 337.851 288.395 346.346C288.395 346.346 281.597 343.677 280.625 344.147C279.652 344.618 269.942 293.446 269.942 293.446L275.53 298.55Z" fill="black"/>
<path d="M266.303 423.726C266.303 423.726 272.128 434.642 277.228 437.069C282.328 439.496 278.2 442.89 273.343 442.165C268.485 441.44 252.465 429.793 252.465 429.793C252.465 429.793 252.575 422.169 254.097 421.615C255.62 421.061 266.303 423.726 266.303 423.726Z" fill="#575988"/>
<path d="M250.995 406.016C250.995 406.016 259.25 414.264 262.875 414.994C266.501 415.724 259.72 420.573 253.164 417.905C246.608 415.236 237.628 410.386 237.628 410.386C237.628 410.386 237.386 402.622 241.513 401.897C245.64 401.171 250.995 406.016 250.995 406.016Z" fill="#575988"/>
<path d="M284.998 338.577C284.998 338.577 283.3 368.175 281.113 372.299C278.926 376.423 270.672 389.037 270.672 389.037C270.672 389.037 261.203 395.829 260.719 397.527C260.235 399.224 252.465 405.045 252.465 405.045L251.981 408.439C251.981 408.439 239.115 407.709 239.841 403.343C240.567 398.977 247.365 394.853 247.365 394.853C247.365 394.853 251.734 383.453 262.418 380.296C262.418 380.296 265.814 375.46 262.902 371.565C262.902 371.565 255.62 353.372 251.492 351.186C247.365 349.001 253.195 336.396 253.195 336.396L284.998 338.577Z" fill="#67647E"/>
<path opacity="0.05" d="M284.998 338.577C284.998 338.577 283.3 368.175 281.113 372.299C278.926 376.423 270.672 389.037 270.672 389.037C270.672 389.037 261.203 395.829 260.719 397.527C260.235 399.224 252.465 405.045 252.465 405.045L251.981 408.439C251.981 408.439 239.115 407.709 239.841 403.343C240.567 398.977 247.365 394.853 247.365 394.853C247.365 394.853 251.734 383.453 262.418 380.296C262.418 380.296 265.814 375.46 262.902 371.565C262.902 371.565 255.62 353.372 251.492 351.186C247.365 349.001 253.195 336.396 253.195 336.396L284.998 338.577Z" fill="black"/>
<path d="M261.203 406.746L253.433 423.014C254.647 427.138 266.298 425.682 266.298 425.682C266.298 425.682 275.283 413.552 275.767 409.186C276.251 404.82 282.323 401.18 282.323 401.18C291.062 391.719 285.236 380.56 284.523 374.739C284.523 374.629 284.492 374.506 284.47 374.378C283.824 370.474 279.894 359.241 276.841 350.83C274.782 345.163 273.114 340.775 273.114 340.775C273.114 340.775 256.834 341.505 253.45 347.326C251.893 349.99 252.57 352.769 253.802 354.994C254.751 356.673 255.964 358.19 257.393 359.487L262.919 372.8C262.919 372.8 272.63 390.509 268.987 391.965C265.344 393.42 261.203 406.746 261.203 406.746Z" fill="#67647E"/>
<path d="M290.199 262.903C290.278 263.983 290.592 265.033 291.119 265.98L291.396 266.481L292.764 268.948H297.134L297.226 267.8L298.106 256.809C298.106 256.809 296.892 244.679 292.764 246.376C289.451 247.756 289.896 258.655 290.199 262.903Z" fill="#F7C4A7"/>
<path opacity="0.1" d="M291.396 266.49L292.764 268.957H297.134L297.226 267.809C295.193 267.647 292.773 267.255 291.396 266.49Z" fill="black"/>
<path d="M291.066 266.53V272.109L300.051 274.536C300.051 274.536 300.051 273.956 300.077 273.147C300.13 271.445 300.288 268.724 300.781 268.231C300.777 268.227 293.495 268.227 291.066 266.53Z" fill="#E6E6F0"/>
<path opacity="0.1" d="M291.066 269.801V272.109L300.051 274.536C300.051 274.536 300.051 273.956 300.077 273.147C297.081 272.623 292.764 270.627 291.066 269.801Z" fill="black"/>
<path d="M238.675 279.007C240.435 284.121 238.143 286.424 238.143 286.424C238.143 286.424 259.993 287.88 254.652 283.998C251.532 281.729 250.15 276.73 249.543 272.966C249.285 271.4 249.126 269.818 249.068 268.231C249.068 268.231 231.609 267.976 235.23 272.839C236.685 274.709 237.846 276.789 238.675 279.007Z" fill="#F7C4A7"/>
<path opacity="0.1" d="M235.23 272.839C236.99 275.231 237.588 275.582 238.191 277.31C238.738 277.403 239.291 277.448 239.846 277.447C244.008 277.447 248.06 276.589 249.526 272.962C249.267 271.395 249.109 269.814 249.05 268.227C249.05 268.227 231.604 267.972 235.23 272.839Z" fill="black"/>
<path d="M240.325 278.176C245.822 278.176 250.278 273.724 250.278 268.231C250.278 262.739 245.822 258.286 240.325 258.286C234.828 258.286 230.372 262.739 230.372 268.231C230.372 273.724 234.828 278.176 240.325 278.176Z" fill="#F7C4A7"/>
<path d="M290.34 269.928C290.34 269.928 299.809 274.764 302.48 273.569L295.924 291.52C295.924 291.52 295.44 295.886 286.939 297.829C278.438 299.772 274.315 301.461 274.315 301.461L258.537 282.779L266.549 284.978C266.549 284.978 270.676 290.799 273.589 288.86C276.502 286.921 285.469 287.888 285.469 287.888C285.469 287.888 290.595 274.052 290.34 269.928Z" fill="#575988"/>
<path opacity="0.05" d="M290.34 269.928C290.34 269.928 299.809 274.764 302.48 273.569L295.924 291.52C295.924 291.52 295.44 295.886 286.939 297.829C278.438 299.772 274.315 301.461 274.315 301.461L258.537 282.779L266.549 284.978C266.549 284.978 270.676 290.799 273.589 288.86C276.502 286.921 285.469 287.888 285.469 287.888C285.469 287.888 290.595 274.052 290.34 269.928Z" fill="black"/>
<path opacity="0.1" d="M253.437 281.377C253.437 281.377 240.602 277.71 239.252 284.521C239.252 284.521 245.183 281.632 253.679 286.719C254.317 287.101 254.942 287.51 255.549 287.937C263.029 293.173 268.248 301.289 270.346 310.474L275.772 334.215L276.256 340.599C276.256 340.599 284.026 342.134 285.496 339.834C286.965 337.535 285.98 329.876 283.797 327.322C281.615 324.767 278.2 313.811 278.2 313.811L276.075 307.44C274.297 302.081 271.47 297.128 267.759 292.87L267.249 292.267C264.049 288.424 259.988 285.388 255.395 283.404C254.168 282.863 253.266 282.182 253.437 281.377Z" fill="black"/>
<path d="M253.437 280.893C253.437 280.893 240.602 277.227 239.252 284.037C239.252 284.037 245.183 281.148 253.679 286.235C254.317 286.618 254.942 287.027 255.549 287.453C263.029 292.69 268.248 300.806 270.346 309.99L275.772 333.732L276.256 340.116C276.256 340.116 284.026 341.65 285.496 339.351C286.965 337.051 285.98 329.392 283.797 326.838C281.615 324.284 278.214 313.301 278.214 313.301L276.075 306.957C274.297 301.597 271.47 296.644 267.759 292.386L267.244 291.766C264.043 287.93 259.984 284.9 255.395 282.92C254.168 282.375 253.266 281.716 253.437 280.893Z" fill="#E6E6F0"/>
<path opacity="0.1" d="M285.711 329.792L285.601 333.969L282.204 331.771C282.204 331.771 276.15 309.753 271.886 303.751C271.385 303.043 271.143 301.993 270.672 301.812L253.314 285.075V281.192C253.314 281.192 262.176 287.743 262.902 288.957C263.21 289.471 267.869 292.034 270.672 295.991C273.185 299.658 275.416 303.511 277.347 307.515L283.172 320.617L285.711 329.792Z" fill="black"/>
<path opacity="0.1" d="M243.638 257.671C244.408 257.292 245.275 256.725 245.271 255.868C245.233 255.556 245.122 255.257 244.946 254.996C244.77 254.735 244.535 254.52 244.259 254.369C242.873 253.423 242.978 251.731 241.386 252.25C240.321 252.606 239.388 253.283 238.35 253.714C237.623 254.015 236.851 254.193 236.066 254.241C235.565 254.24 235.065 254.28 234.57 254.36C234.173 254.461 233.792 254.618 233.439 254.826C231.225 256.063 229.58 258.113 228.854 260.542C228.194 262.793 228.26 265.461 226.562 267.079C226.255 267.328 225.972 267.604 225.717 267.906C225.496 268.239 225.346 268.615 225.277 269.009C224.971 270.354 225.088 271.761 225.612 273.037C225.877 273.669 226.272 274.24 226.77 274.711C227.269 275.183 227.86 275.545 228.507 275.776C229.079 275.965 229.686 276.031 230.267 276.176C233.056 276.879 235.032 279.324 237.571 280.674C237.773 280.801 238.005 280.873 238.244 280.885C238.507 280.857 238.755 280.751 238.957 280.581C239.938 279.878 240.748 278.792 240.717 277.583C240.637 276.829 240.416 276.097 240.066 275.424C239.534 274.164 239.127 272.855 238.851 271.515C238.763 271.208 238.754 270.882 238.825 270.57C239.01 269.981 239.661 269.691 240.114 269.291C240.994 268.495 241.078 267.136 240.761 266.006C240.444 264.877 239.775 263.883 239.278 262.819C239.106 262.5 239.006 262.147 238.983 261.786C238.983 260.366 240.902 259.587 241.711 258.66C242.833 257.398 242.138 258.414 243.638 257.671Z" fill="black"/>
<path d="M243.396 257.671C244.166 257.293 245.033 256.725 245.029 255.868C244.991 255.556 244.88 255.257 244.704 254.996C244.528 254.735 243.672 253.652 243.396 253.5C242.01 252.555 242.736 251.731 241.144 252.25C240.079 252.606 239.434 252.069 238.395 252.5C237.668 252.801 236.68 253.452 235.895 253.5C235.394 253.531 233.703 253.507 233.215 253.621C232.818 253.723 232.437 253.88 232.084 254.087C229.87 255.324 228.225 257.374 227.499 259.803C226.839 262.054 227.301 264.872 225.603 266.49C225.317 266.763 225.704 267.589 225.475 267.91C225.254 268.244 225.104 268.62 225.035 269.014C224.729 270.359 224.846 271.765 225.37 273.041C225.635 273.674 226.03 274.244 226.528 274.716C227.027 275.187 227.618 275.55 228.265 275.78C228.837 275.969 229.444 276.035 230.025 276.18C232.814 276.884 234.79 279.328 237.329 280.678C237.531 280.805 237.763 280.878 238.002 280.889C238.265 280.861 238.513 280.756 238.715 280.586C239.696 279.882 240.506 278.796 240.475 277.587C240.395 276.833 240.174 276.101 239.824 275.429C239.292 274.168 238.885 272.859 238.609 271.52C238.521 271.212 238.512 270.887 238.583 270.575C238.768 269.986 239.419 269.695 239.872 269.295C240.752 268.499 240.836 267.141 240.519 266.011C240.202 264.881 239.533 263.887 239.036 262.823C238.864 262.504 238.764 262.152 238.741 261.79C238.741 260.37 240.66 259.592 241.469 258.664C242.591 257.398 241.896 258.414 243.396 257.671Z" fill="#B96B6B"/>
<path opacity="0.1" d="M253.789 354.976C258.229 354.449 263.843 353.934 266.303 354.347C270.263 355.007 275.829 351.476 276.828 350.83C274.768 345.163 273.101 340.775 273.101 340.775C273.101 340.775 256.821 341.505 253.437 347.326C251.875 349.977 252.575 352.751 253.789 354.976Z" fill="black"/>
<path d="M232.559 292.245C233.532 300.735 243.242 312.624 243.242 312.624C243.242 312.624 250.04 319.658 247.854 343.677L247.612 355.319C247.612 355.319 261.934 353.121 266.307 353.864C270.681 354.607 276.99 350.223 276.99 350.223C276.99 350.223 279.419 308.253 268.978 299.522C267.691 297.538 266.291 295.63 264.785 293.806C261.982 290.417 258.185 286.596 254.603 285.655C254.145 285.531 253.674 285.459 253.2 285.44C253.2 285.44 242.274 279.377 239.362 283.984C239.357 283.997 231.587 283.756 232.559 292.245Z" fill="#575988"/>
<path opacity="0.1" d="M276.863 337.486C276.863 337.486 272.995 335.794 266.426 336.273C259.857 336.752 248.197 330.958 248.197 330.958" fill="black"/>
<path opacity="0.05" d="M269.823 391.582C269.823 391.582 269.581 392.312 272.736 393.279C275.89 394.247 276.863 395.218 276.863 395.218" fill="black"/>
<path d="M291.572 226.107H267.152C264.272 226.107 261.938 228.44 261.938 231.317V255.718C261.938 258.596 264.272 260.928 267.152 260.928H291.572C294.452 260.928 296.786 258.596 296.786 255.718V231.317C296.786 228.44 294.452 226.107 291.572 226.107Z" fill="#48C95F"/>
<path d="M260.187 257.468C260.204 258.614 260.489 259.74 261.018 260.757L262.422 263.452L263.394 265.316L269.462 265.8C269.462 265.8 269.59 265.299 269.744 264.481C270.184 262.054 270.91 256.813 269.462 253.195C267.522 248.358 266.791 238.884 263.148 241.065C260.257 242.792 260.121 253.23 260.187 257.468Z" fill="#F7C4A7"/>
<path opacity="0.1" d="M262.435 263.377V263.452L263.408 265.316L269.475 265.8C269.475 265.8 269.603 265.299 269.757 264.481C267.57 263.632 264.723 262.863 262.435 263.377Z" fill="black"/>
<path d="M262.435 263.861V268.227L271.174 272.835C271.174 272.835 271.275 272.043 271.46 271.023C271.776 269.265 272.34 266.833 273.118 266.53C273.101 266.53 266.787 262.89 262.435 263.861Z" fill="#E6E6F0"/>
<path opacity="0.05" d="M238.781 303.514C239.845 304.451 241.092 305.157 242.443 305.589C243.794 306.021 245.219 306.17 246.63 306.024C261.995 304.464 262.435 299.038 262.435 299.038L264.794 293.82C261.991 290.43 258.194 286.609 254.612 285.668C252.064 289.77 249.807 292.729 249.807 292.729C249.807 292.729 238.398 283.998 234.997 292.246C233.008 297.047 235.965 301.026 238.781 303.514Z" fill="black"/>
<path opacity="0.1" d="M262.435 266.534V268.227L271.174 272.835C271.174 272.835 271.275 272.043 271.46 271.023C267.676 269.818 263.949 267.532 262.435 266.534Z" fill="black"/>
<path d="M261.45 266.53C261.45 266.53 268.006 271.137 273.589 272.109L262.18 297.337C262.18 297.337 261.762 302.762 246.393 304.323C244.982 304.468 243.556 304.319 242.205 303.887C240.855 303.455 239.608 302.749 238.543 301.812C235.727 299.324 232.766 295.345 234.746 290.544C238.143 282.296 249.556 291.028 249.556 291.028C249.556 291.028 261.203 275.749 261.45 266.53Z" fill="#575988"/>
<path d="M157.944 282.586L276.005 363.514L157.944 444.438V282.586Z" fill="#F5F7FE"/>
<path d="M394.061 282.586L276.005 363.514L394.061 444.438V282.586Z" fill="#F5F7FE"/>
<path d="M157.944 444.438L271.372 356.255C272.691 355.216 274.322 354.651 276.003 354.651C277.683 354.651 279.314 355.216 280.634 356.255L394.061 444.438H157.944Z" fill="url(#paint2_linear)"/>
<path d="M157.944 444.438L271.372 360.111C272.71 359.116 274.334 358.579 276.003 358.579C277.671 358.579 279.295 359.116 280.634 360.111L394.061 444.438H157.944Z" fill="#F5F7FE"/>
</g>
<defs>
<linearGradient id="paint0_linear" x1="276.005" y1="447.41" x2="276.005" y2="169.699" gradientUnits="userSpaceOnUse">
<stop stop-color="#808080" stop-opacity="0.25"/>
<stop offset="0.54" stop-color="#808080" stop-opacity="0.12"/>
<stop offset="1" stop-color="#808080" stop-opacity="0.1"/>
</linearGradient>
<linearGradient id="paint1_linear" x1="-72294.2" y1="170275" x2="-72294.2" y2="75161.5" gradientUnits="userSpaceOnUse">
<stop stop-color="#808080" stop-opacity="0.25"/>
<stop offset="0.54" stop-color="#808080" stop-opacity="0.12"/>
<stop offset="1" stop-color="#808080" stop-opacity="0.1"/>
</linearGradient>
<linearGradient id="paint2_linear" x1="135179" y1="75157.3" x2="135179" y2="56821.9" gradientUnits="userSpaceOnUse">
<stop stop-color="#808080" stop-opacity="0.25"/>
<stop offset="0.54" stop-color="#808080" stop-opacity="0.12"/>
<stop offset="1" stop-color="#808080" stop-opacity="0.1"/>
</linearGradient>
<clipPath id="clip0">
<rect width="440" height="370" fill="white" transform="translate(68.3951 91)"/>
</clipPath>
</defs>
</svg>
