<svg width="36" height="36" viewBox="0 0 36 36" fill="none" xmlns="http://www.w3.org/2000/svg">
<circle cx="18" cy="18" r="18" fill="#FFD54E"/>
<path d="M23.9227 10.8H12.9773C11.7415 10.8 10.8 11.7416 10.8 12.9774V23.9227C10.8 25.1585 11.7415 26.1 12.9773 26.1H23.9227C25.1585 26.1 26.1 25.1585 26.1 23.9227V12.9774C26.1 11.7416 25.1585 10.8 23.9227 10.8ZM18.45 23.04C20.9804 23.04 23.04 21.0393 23.04 18.6266C23.04 18.2147 22.9811 17.7439 22.8634 17.3908H24.1581V23.6285C24.1581 23.9227 23.9227 24.217 23.5696 24.217H13.3304C13.0361 24.217 12.7419 23.9816 12.7419 23.6285V17.332H14.0954C13.9777 17.7439 13.9188 18.1558 13.9188 18.5677C13.86 21.0393 15.9196 23.04 18.45 23.04ZM18.45 21.2747C16.8023 21.2747 15.5077 19.98 15.5077 18.3912C15.5077 16.8024 16.8023 15.5077 18.45 15.5077C20.0977 15.5077 21.3923 16.8024 21.3923 18.3912C21.3923 20.0389 20.0977 21.2747 18.45 21.2747ZM24.0992 14.9781C24.0992 15.3312 23.805 15.6254 23.4519 15.6254H21.8042C21.4511 15.6254 21.1569 15.3312 21.1569 14.9781V13.3893C21.1569 13.0362 21.4511 12.742 21.8042 12.742H23.4519C23.805 12.742 24.0992 13.0362 24.0992 13.3893V14.9781Z" fill="#323232"/>
</svg>
