<svg width="130" height="150" viewBox="0 0 130 150" fill="none" xmlns="http://www.w3.org/2000/svg">
<path d="M96.2557 18.3049C109.899 26.2577 118.313 39.2885 124.558 53.5763C130.172 66.4223 130.896 79.7705 129.181 93.6407C126.906 112.027 128.925 134.353 113.277 144.773C97.1477 155.513 75.7158 147.264 57.0654 141.661C38.3219 136.03 18.6599 129.684 8.47729 113.288C-2.20509 96.0882 -1.4901 74.9363 3.49761 55.4099C8.83931 34.4977 16.4055 10.5775 36.7967 2.42064C56.5664 -5.48764 77.9067 7.60936 96.2557 18.3049Z" fill="#FFF6E5"/>
<g clip-path="url(#clip0)">
<path d="M86.5431 116.836C80.7716 116.851 75.0057 116.475 69.2855 115.711C69.0988 115.688 68.9095 115.661 68.7214 115.633C67.3174 115.435 65.9125 115.208 64.5469 114.959C58.4012 113.841 52.6056 112.209 47.3214 110.108C29.7366 103.114 18.6803 104.602 12.5018 107.082C5.81542 109.766 3.24513 114.158 3.21993 114.202L3 114.078C3.0255 114.033 5.62896 109.576 12.3884 106.857C16.3516 105.262 20.9493 104.566 26.0547 104.785C32.4276 105.059 39.6144 106.772 47.4153 109.874C52.6839 111.969 58.4632 113.597 64.5924 114.711C65.9548 114.96 67.3563 115.186 68.7579 115.384C68.9451 115.412 69.1326 115.438 69.3189 115.462C84.8245 117.583 99.7827 116.304 109.601 114.858C117.694 113.666 122.902 112.272 122.954 112.258L123.02 112.501C122.968 112.515 117.747 113.912 109.638 115.107C101.992 116.239 94.2734 116.817 86.5431 116.836Z" fill="#3F3D56"/>
<path d="M86.5602 44.6727C82.1023 44.6727 77.7623 44.4653 73.575 44.0507C63.9531 43.0979 55.1201 41.0422 47.3214 37.9407C29.7366 30.947 18.6803 32.4354 12.5018 34.9156C5.81542 37.5995 3.24513 41.9909 3.21993 42.0349L3 41.9108C3.0255 41.8661 5.62896 37.4095 12.3884 34.69C16.3517 33.0954 20.9493 32.3983 26.0547 32.6182C32.4276 32.8925 39.6144 34.6047 47.4153 37.7071C65.0278 44.7117 84.6263 44.987 97.9659 43.9853C112.425 42.8991 122.85 40.1193 122.954 40.0914L123.02 40.334C122.916 40.3621 112.472 43.1472 97.9905 44.2356C94.1131 44.527 90.2952 44.6727 86.5602 44.6727Z" fill="#3F3D56"/>
<path d="M85.9053 26.2157C85.9053 26.2157 80.9336 24.4503 77.7376 31.5119C74.5415 38.5735 69.5698 46.3412 69.5698 46.3412L72.4108 47.0473C72.4108 47.0473 73.121 42.1042 74.8966 41.3981L74.1864 47.7535C74.1864 47.7535 95.4935 55.1681 105.082 47.0473L104.727 44.5758C104.727 44.5758 106.147 44.9289 106.147 47.0473L107.212 45.9881C107.212 45.9881 106.147 43.8696 102.951 41.045C100.853 39.191 100.132 35.6639 99.8846 33.4587C99.699 31.6173 98.958 29.8747 97.7588 28.4593C95.6349 26.0119 91.7647 23.4107 85.9053 26.2157Z" fill="#2F2E41"/>
<path d="M116.08 66.1743C116.08 66.1743 125.436 74.1083 126.811 78.7592C128.187 83.4101 121.583 83.9573 121.583 83.9573L107.275 85.3252C107.275 85.3252 106.999 91.8912 104.523 92.712C102.046 93.5327 104.02 81.8541 104.02 81.8541L118.006 77.9384L111.677 71.3724L116.08 66.1743Z" fill="#FBBEBE"/>
<path d="M72.3288 74.3818L71.2281 88.8818L65.1745 113.504C65.1745 113.504 59.6712 124.721 64.349 124.995C69.0268 125.268 68.7517 114.325 68.7517 114.325L77.5569 91.0705L78.3824 75.2026L72.3288 74.3818Z" fill="#FBBEBE"/>
<path d="M87.7382 48.9384C92.7531 48.9384 96.8186 44.8963 96.8186 39.9101C96.8186 34.9239 92.7531 30.8818 87.7382 30.8818C82.7232 30.8818 78.6577 34.9239 78.6577 39.9101C78.6577 44.8963 82.7232 48.9384 87.7382 48.9384Z" fill="#FBBEBE"/>
<path d="M83.6107 44.2876C83.6107 44.2876 86.9127 56.0517 81.6846 59.0611C76.4564 62.0705 94.8925 64.2592 99.8455 55.231C99.8455 55.231 91.0402 52.2215 93.5167 44.2876H83.6107Z" fill="#FBBEBE"/>
<path d="M77.2816 60.429L75.6306 59.8818C75.6306 59.8818 72.3287 61.2498 72.3287 63.712C72.3287 66.1743 71.7783 76.0233 71.7783 76.0233L79.2078 76.8441L77.2816 60.429Z" fill="#6C63FF"/>
<path d="M109.619 114.982C99.4615 116.478 84.6564 117.686 69.3025 115.587C69.3013 115.436 69.3013 115.289 69.3013 115.145C69.3013 114.292 69.3341 113.448 69.3999 112.613C70.1864 102.339 75.5101 93.7733 77.57 90.8049C77.6737 90.654 77.7698 90.5182 77.8558 90.3975C78.1883 89.9336 78.3818 89.6884 78.3818 89.6884C78.3818 89.6884 94.3414 89.4294 102.596 92.7121C102.994 92.8782 103.358 93.1151 103.671 93.4112C106.749 96.235 108.557 105.403 109.619 114.982Z" fill="#2F2E41"/>
<path d="M103.697 56.5987C103.697 56.5987 107.275 54.6836 110.852 58.7873L118.006 66.9949L112.503 73.0137L102.046 66.7213L103.697 56.5987Z" fill="#6C63FF"/>
<path d="M77.9259 39.9675C81.1404 37.6545 83.7425 34.9903 85.4638 31.8212C85.4638 31.8212 91.3631 38.3383 94.9682 38.6641C98.5733 38.99 95.2959 30.8436 95.2959 30.8436L88.7412 29.2144L82.5142 29.8661L77.5981 33.1246L77.9259 39.9675Z" fill="#2F2E41"/>
<path d="M98.4696 54.6841C98.4696 54.6841 94.6188 60.7375 83.0611 57.8476L76.5026 59.6435L75.6309 59.8822C75.6309 59.8822 76.4564 76.2972 78.6577 79.3066C80.859 82.3161 80.3087 83.9576 79.7583 84.2311C79.208 84.5047 77.8322 83.9576 78.6577 85.3255C79.4832 86.6934 80.5838 85.8726 79.4832 86.6934C78.3825 87.5142 77.8322 90.5236 77.8322 90.5236L103.698 93.8066C103.698 93.8066 102.872 83.1368 105.074 77.6651C107.275 72.1935 107.825 70.0048 107.825 70.0048L106.174 56.3256L98.4696 54.6841Z" fill="#6C63FF"/>
<path d="M44.7129 49.3281H9.30615V93.3322H44.7129V49.3281Z" fill="#E6E6E6"/>
<path d="M19.3591 53.0371H11.772V58.0661H19.3591V53.0371Z" fill="white"/>
<path d="M41.1724 62.8433H11.8354V64.6034H41.1724V62.8433Z" fill="white"/>
<path d="M41.1724 67.4956H11.8354V69.2558H41.1724V67.4956Z" fill="white"/>
<path d="M41.1724 72.1475H11.8354V73.9076H41.1724V72.1475Z" fill="white"/>
<path d="M41.1724 76.7988H11.8354V78.559H41.1724V76.7988Z" fill="white"/>
<path d="M41.1724 81.4512H11.8354V83.2113H41.1724V81.4512Z" fill="white"/>
<path d="M51.6676 93.2693C51.666 94.9298 51.0618 96.5341 49.9659 97.7872C48.87 99.0403 47.3561 99.8582 45.7023 100.09C44.0486 100.323 42.3661 99.9538 40.9639 99.0515C39.5618 98.1493 38.5343 96.7742 38.0701 95.1791C37.6059 93.5839 37.7363 91.8758 38.4373 90.3686C39.1383 88.8613 40.3628 87.6562 41.8859 86.9747C43.4089 86.2932 45.1281 86.181 46.7277 86.6588C48.3272 87.1366 49.6996 88.1722 50.5927 89.5754C51.2951 90.6809 51.6678 91.9617 51.6676 93.2693Z" fill="#6C63FF"/>
<path d="M50.593 89.5756L43.7469 96.3811C43.3166 95.7188 40.9194 92.6408 40.9194 92.6408C41.2267 92.3321 41.5545 92.0444 41.9007 91.7796L43.8885 94.4148L49.7913 88.5459C50.0907 88.8632 50.3591 89.208 50.593 89.5756Z" fill="white"/>
</g>
<defs>
<clipPath id="clip0">
<rect width="124" height="100" fill="white" transform="translate(3 25)"/>
</clipPath>
</defs>
</svg>
