<svg width="1440" height="632" viewBox="0 0 1440 632" fill="none" xmlns="http://www.w3.org/2000/svg">
<mask id="mask0" mask-type="alpha" maskUnits="userSpaceOnUse" x="0" y="0" width="1440" height="632">
<rect width="1440" height="632" fill="#644BEC"/>
</mask>
<g mask="url(#mask0)">
<rect width="1440" height="632" fill="#E4F6FE"/>
</g>
<circle cx="52" cy="230" r="8" fill="#B0C1FF"/>
<circle cx="715" cy="70" r="8" fill="#B0C1FF"/>
<circle cx="484" cy="464" r="8" fill="#B0C1FF"/>
<path d="M685.812 396.75C678.058 396.75 671.179 400.436 666.779 406.132C666.754 406.157 666.738 406.188 666.715 406.214C663.612 410.265 661.75 415.316 661.75 420.812V495.188C661.75 508.477 672.523 519.25 685.812 519.25H760.188C773.477 519.25 784.25 508.477 784.25 495.188V420.812C784.25 407.523 773.477 396.75 760.188 396.75H685.812ZM685.812 401.125H760.188C766.369 401.125 771.888 403.994 775.5 408.465V412.062C775.5 413.272 776.48 414.25 777.688 414.25C778.033 414.25 778.349 414.153 778.64 414.011C779.426 416.135 779.875 418.419 779.875 420.812V495.188C779.875 506.062 771.062 514.875 760.188 514.875H685.812C674.938 514.875 666.125 506.062 666.125 495.188V420.812C666.125 418.416 666.572 416.13 667.355 414.006C667.648 414.151 667.964 414.25 668.312 414.25C669.52 414.25 670.5 413.272 670.5 412.062V408.452C674.109 403.987 679.623 401.125 685.812 401.125ZM679.25 405.5C678.042 405.5 677.062 406.478 677.062 407.688V412.062C677.062 413.272 678.042 414.25 679.25 414.25C680.458 414.25 681.438 413.272 681.438 412.062V407.688C681.438 406.478 680.458 405.5 679.25 405.5ZM690.188 405.5C688.98 405.5 688 406.478 688 407.688V412.062C688 413.272 688.98 414.25 690.188 414.25C691.395 414.25 692.375 413.272 692.375 412.062V407.688C692.375 406.478 691.395 405.5 690.188 405.5ZM701.125 405.5C699.917 405.5 698.938 406.478 698.938 407.688V412.062C698.938 413.272 699.917 414.25 701.125 414.25C702.333 414.25 703.312 413.272 703.312 412.062V407.688C703.312 406.478 702.333 405.5 701.125 405.5ZM712.062 405.5C710.855 405.5 709.875 406.478 709.875 407.688V412.062C709.875 413.272 710.855 414.25 712.062 414.25C713.27 414.25 714.25 413.272 714.25 412.062V407.688C714.25 406.478 713.27 405.5 712.062 405.5ZM723 405.5C721.792 405.5 720.812 406.478 720.812 407.688V412.062C720.812 413.272 721.792 414.25 723 414.25C724.208 414.25 725.188 413.272 725.188 412.062V407.688C725.188 406.478 724.208 405.5 723 405.5ZM733.938 405.5C732.73 405.5 731.75 406.478 731.75 407.688V412.062C731.75 413.272 732.73 414.25 733.938 414.25C735.145 414.25 736.125 413.272 736.125 412.062V407.688C736.125 406.478 735.145 405.5 733.938 405.5ZM744.875 405.5C743.668 405.5 742.688 406.478 742.688 407.688V412.062C742.688 413.272 743.668 414.25 744.875 414.25C746.082 414.25 747.062 413.272 747.062 412.062V407.688C747.062 406.478 746.082 405.5 744.875 405.5ZM755.812 405.5C754.605 405.5 753.625 406.478 753.625 407.688V412.062C753.625 413.272 754.605 414.25 755.812 414.25C757.02 414.25 758 413.272 758 412.062V407.688C758 406.478 757.02 405.5 755.812 405.5ZM766.75 405.5C765.543 405.5 764.562 406.478 764.562 407.688V412.062C764.562 413.272 765.543 414.25 766.75 414.25C767.957 414.25 768.938 413.272 768.938 412.062V407.688C768.938 406.478 767.957 405.5 766.75 405.5ZM683.702 433.938C682.448 433.938 681.438 434.917 681.438 436.125V470.501C681.438 476.878 686.859 482.062 693.52 482.062H742.611C743.864 482.062 744.875 481.082 744.875 479.875V471.356L761.204 481.721C761.561 481.948 761.966 482.062 762.375 482.062C762.738 482.062 763.098 481.975 763.426 481.793C764.128 481.411 764.562 480.673 764.562 479.875V436.125C764.562 435.327 764.13 434.592 763.43 434.211C762.73 433.826 761.878 433.853 761.204 434.279L744.832 444.678C744.389 438.685 739.164 433.938 732.792 433.938H683.702ZM685.966 438.312H732.792C736.955 438.312 740.342 441.535 740.342 445.499V477.688H693.52C689.357 477.688 685.966 474.465 685.966 470.501V438.312ZM760.188 440.103V475.897L744.875 466.173V449.827L760.188 440.103Z" fill="#C5EAF9"/>
<path d="M1311.72 354.738C1349.22 423.709 1435.93 488.312 1497.39 454.904C1558.84 421.496 1536.76 342.967 1499.27 273.997C1461.78 205.026 1412.24 160.152 1350.78 193.561C1289.32 226.969 1274.23 285.768 1311.72 354.738Z" fill="#FFF6E5"/>
<circle r="8" transform="matrix(-1 0 0 1 1392 403)" fill="#B0C1FF"/>
<circle r="8" transform="matrix(-1 0 0 1 1356 267)" fill="#B0C1FF"/>
<path d="M1254.33 44.6403C1255.79 42.3642 1259.16 42.5281 1260.39 44.9345L1279.63 82.5777C1280.16 83.5974 1280.14 84.8077 1279.61 85.8181L1260.37 121.872C1259.13 124.205 1255.84 124.368 1254.37 122.169L1230.28 86.1079C1229.5 84.9516 1229.49 83.4476 1230.24 82.2763L1254.33 44.6403Z" stroke="#C5EAF9"/>
<path d="M1225.99 44.3708C1227.66 41.7695 1231.52 41.9567 1232.92 44.7069L1252.16 82.3501C1252.76 83.5156 1252.75 84.8987 1252.13 86.0534L1232.89 122.107C1231.47 124.774 1227.72 124.96 1226.04 122.447L1201.94 86.3857C1201.06 85.0642 1201.04 83.3453 1201.9 82.0067L1225.99 44.3708Z" fill="#C5EAF9"/>
<path d="M129.8 522C128.269 522 127 523.269 127 524.8V527.6H118.6C117.867 527.6 117.123 527.868 116.598 528.398C116.068 528.923 115.8 529.667 115.8 530.4V586.4C115.8 587.133 116.068 587.877 116.598 588.407C117.123 588.932 117.867 589.2 118.6 589.2H177.4C178.133 589.2 178.876 588.932 179.407 588.407C179.932 587.877 180.2 587.133 180.2 586.4V530.4C180.2 529.667 179.932 528.923 179.407 528.398C178.876 527.868 178.133 527.6 177.4 527.6H169V524.8C169 523.269 167.731 522 166.2 522H163.4C161.869 522 160.6 523.269 160.6 524.8V527.6H135.4V524.8C135.4 523.269 134.131 522 132.6 522H129.8ZM129.8 524.8H132.6V533.2H129.8V524.8ZM163.4 524.8H166.2V533.2H163.4V524.8ZM118.6 530.4H127V533.2C127 534.731 128.269 536 129.8 536H132.6C134.131 536 135.4 534.731 135.4 533.2V530.4H160.6V533.2C160.6 534.731 161.869 536 163.4 536H166.2C167.731 536 169 534.731 169 533.2V530.4H177.4V540.2H118.6V530.4ZM118.6 543H177.4V586.4H118.6V543ZM127 548.6V580.8H169V548.6H127ZM129.8 551.4H136.8V558.4H129.8V551.4ZM139.6 551.4H146.6V558.4H139.6V551.4ZM149.4 551.4H156.4V558.4H149.4V551.4ZM159.2 551.4H166.2V558.4H159.2V551.4ZM129.8 561.2H136.8V568.2H129.8V561.2ZM139.6 561.2H146.6V568.2H139.6V561.2ZM149.4 561.2H156.4V568.2H149.4V561.2ZM159.2 561.2H166.2V568.2H159.2V561.2ZM129.8 571H136.8V578H129.8V571ZM139.6 571H146.6V578H139.6V571ZM149.4 571H156.4V578H149.4V571ZM159.2 571H166.2V578H159.2V571Z" fill="#C5EAF9"/>
</svg>
