<svg width="130" height="150" viewBox="0 0 130 150" fill="none" xmlns="http://www.w3.org/2000/svg">
<path d="M74.7461 1.85198e-05C89.7074 -0.0193395 100.629 15.1406 110.23 28.3792C120.236 42.1759 132.935 57.8308 129.394 75.3505C125.943 92.4242 105.706 94.1597 94.5342 106.043C81.3002 120.12 77.2154 149.552 59.2196 149.994C41.3197 150.434 33.2739 124.49 22.7151 107.807C12.758 92.0752 -3.72514 76.4057 0.756093 57.6244C5.17707 39.0956 27.8397 39.2201 41.6455 28.468C53.503 19.2332 60.44 0.0185288 74.7461 1.85198e-05Z" fill="#E4F6FE"/>
<g clip-path="url(#clip0)">
<path d="M47.384 123.956C49.2622 122.372 50.4031 119.869 50.1039 117.432C49.8047 114.995 47.9516 112.755 45.5479 112.237C43.1442 111.72 40.4042 113.152 39.6741 115.496C39.2723 110.977 38.8093 106.267 36.4024 102.418C34.2231 98.9327 30.4485 96.4388 26.3576 95.9926C22.2667 95.5465 17.9596 97.2315 15.4083 100.455C12.857 103.679 12.2323 108.366 14.0192 112.067C15.3355 114.794 17.7606 116.823 20.3016 118.474C28.5123 123.763 38.36 125.914 48.0327 124.531" fill="#F2F2F2"/>
<path d="M19.4536 97.3253C22.8291 100.07 25.9257 103.141 28.6987 106.491C33.0385 111.718 36.5502 117.577 39.1117 123.866C39.2992 124.324 38.5531 124.524 38.3677 124.07C36.7388 120.094 34.7235 116.287 32.3508 112.704C28.6508 107.106 24.1178 102.104 18.908 97.87C18.5228 97.5569 19.0716 97.0147 19.4536 97.3253V97.3253Z" fill="white"/>
<path d="M48.6814 123.956C46.8032 122.372 45.6623 119.869 45.9615 117.432C46.2607 114.995 48.1138 112.755 50.5175 112.237C52.9212 111.72 55.6613 113.152 56.3914 115.496C56.7932 110.977 57.2562 106.267 59.663 102.418C61.8423 98.9327 65.617 96.4388 69.7078 95.9926C73.7987 95.5465 78.1058 97.2315 80.6571 100.455C83.2085 103.679 83.8331 108.366 82.0463 112.067C80.7299 114.794 78.3048 116.823 75.7638 118.474C67.5531 123.763 57.7055 125.914 48.0327 124.531" fill="#F2F2F2"/>
<path d="M76.6119 97.3253C73.2364 100.07 70.1398 103.141 67.3668 106.491C63.027 111.718 59.5153 117.577 56.9538 123.866C56.7663 124.324 57.5124 124.524 57.6978 124.07C61.8888 113.85 68.5793 104.842 77.1575 97.87C77.5427 97.5569 76.9939 97.0147 76.6119 97.3253V97.3253Z" fill="white"/>
<path d="M54.2548 69.9847C57.7295 69.9847 60.5462 67.1723 60.5462 63.703C60.5462 60.2338 57.7295 57.4214 54.2548 57.4214C50.7801 57.4214 47.9634 60.2338 47.9634 63.703C47.9634 67.1723 50.7801 69.9847 54.2548 69.9847Z" fill="#F2F2F2"/>
<path d="M34.8565 42.0493H78.2026V44.4172H40.39C38.1668 44.4172 35.9653 44.8544 33.9113 45.7038C31.8573 46.5533 29.991 47.7984 28.4189 49.368C26.8468 50.9377 25.5998 52.8011 24.749 54.8519C23.8982 56.9027 23.4603 59.1008 23.4603 61.3206V88.222H18.7173C18.5076 88.222 18.3065 88.1389 18.1583 87.9908C18.01 87.8428 17.9268 87.6421 17.9268 87.4327V58.9527C17.9268 56.7329 18.3647 54.5349 19.2155 52.4841C20.0663 50.4333 21.3133 48.5698 22.8854 47.0002C24.4574 45.4306 26.3237 44.1855 28.3778 43.336C30.4318 42.4865 32.6332 42.0493 34.8565 42.0493Z" fill="#F2F2F2"/>
<path d="M43.1938 124.088V88.1206H53.7472V124.088C53.7469 124.33 53.6506 124.562 53.4794 124.733C53.3082 124.904 53.0761 125 52.8339 125H44.1071C43.865 125 43.6329 124.904 43.4616 124.733C43.2904 124.562 43.1941 124.33 43.1938 124.088Z" fill="#3F3D56"/>
<path d="M15.6943 87.4115V58.1644C15.6996 53.5085 17.5544 49.0447 20.8517 45.7525C24.1491 42.4602 28.6198 40.6083 33.283 40.603H77.9997V88.4247H16.7091C16.44 88.4244 16.1821 88.3176 15.9919 88.1276C15.8017 87.9377 15.6946 87.6802 15.6943 87.4115ZM77.5938 41.0083H33.283C28.7274 41.0135 24.3599 42.8226 21.1386 46.0389C17.9174 49.2552 16.1054 53.6159 16.1002 58.1644V87.4115C16.1004 87.5727 16.1646 87.7272 16.2788 87.8412C16.3929 87.9552 16.5477 88.0193 16.7091 88.0194H77.5938V41.0083Z" fill="#3F3D56"/>
<path d="M54.2546 66.9453C53.2861 66.9442 52.3575 66.5596 51.6727 65.8758C50.9878 65.192 50.6026 64.2649 50.6015 63.2979V37.1581C50.6013 36.9969 50.5371 36.8424 50.423 36.7284C50.3089 36.6144 50.1541 36.5503 49.9927 36.5502H35.7862C35.5172 36.5498 35.2593 36.443 35.069 36.2531C34.8788 36.0631 34.7718 35.8056 34.7715 35.537V26.0132C34.7718 25.7446 34.8788 25.487 35.069 25.2971C35.2593 25.1072 35.5172 25.0003 35.7862 25H56.893C57.162 25.0003 57.4199 25.1072 57.6101 25.2971C57.8004 25.487 57.9074 25.7446 57.9077 26.0132V63.2979C57.9066 64.2649 57.5214 65.192 56.8365 65.8758C56.1517 66.5596 55.2231 66.9442 54.2546 66.9453Z" fill="#6C63FF"/>
<path d="M79.6233 40.1973C82.6849 40.1909 85.6237 41.3991 87.7931 43.5561C89.9625 45.7131 91.1849 48.6422 91.1914 51.6991V84.9939H113.922C114.835 84.992 115.711 85.3523 116.358 85.9956C117.005 86.6389 117.37 87.5125 117.372 88.4242H68.0552V51.6991C68.0616 48.6422 69.284 45.7131 71.4534 43.5561C73.6229 41.3991 76.5616 40.1909 79.6233 40.1973Z" fill="#3F3D56"/>
<path d="M76.8475 59.1573L79.2429 69.0369L126.1 57.7114L123.705 47.8317C123.676 47.7109 123.617 47.5994 123.533 47.5074C123.449 47.4155 123.344 47.3462 123.226 47.3059C123.139 47.2754 123.047 47.2616 122.955 47.2652L95.87 33.2628C95.7113 33.1818 95.5289 33.1602 95.3556 33.2018C95.1823 33.2434 95.0296 33.3455 94.925 33.4896L81.8714 51.6646L76.9503 58.5182C76.9414 58.5302 76.9351 58.544 76.932 58.5587C76.9289 58.5733 76.929 58.5884 76.9322 58.603C76.8321 58.7694 76.8016 58.9686 76.8475 59.1573Z" fill="white"/>
<path d="M76.9322 58.603C76.9345 58.6158 76.9394 58.6281 76.9464 58.6391C76.9535 58.6501 76.9627 58.6596 76.9734 58.667C76.9861 58.6757 77.0005 58.6817 77.0156 58.6847C77.0307 58.6877 77.0463 58.6875 77.0614 58.6843C77.0859 58.6778 77.1073 58.663 77.122 58.6423L77.1389 58.6189L77.3951 58.2612L82.0485 51.7841L95.0983 33.6133C95.1728 33.5103 95.2818 33.4374 95.4055 33.4078C95.5292 33.3782 95.6594 33.3939 95.7725 33.4519L122.648 47.3459L122.889 47.4709C122.899 47.4749 122.909 47.4784 122.919 47.4813C122.937 47.478 122.956 47.4763 122.974 47.4761C123 47.4676 123.021 47.4499 123.033 47.4265C123.04 47.4141 123.044 47.4006 123.045 47.3867C123.046 47.3728 123.045 47.3588 123.041 47.3455C123.037 47.3321 123.03 47.3197 123.021 47.309C123.012 47.2982 123.001 47.2894 122.989 47.2829L122.955 47.2652L95.87 33.2628C95.7113 33.1818 95.5288 33.1602 95.3555 33.2018C95.1823 33.2434 95.0296 33.3455 94.925 33.4896L81.8713 51.6646L76.9503 58.5182C76.9413 58.5302 76.9351 58.544 76.932 58.5587C76.9289 58.5733 76.9289 58.5884 76.9322 58.603Z" fill="#3F3D56"/>
<path d="M91.0049 59.611L92.048 59.7265L99.789 60.5827L104.921 61.15L105.224 61.1836L111.627 56.1897L111.873 55.9984L113.385 54.8191L118.766 50.6233L118.798 50.3286L120.712 33.0815C120.738 32.844 120.669 32.6059 120.519 32.4193C120.37 32.2328 120.153 32.113 119.915 32.0863L94.3724 29.2612C94.1346 29.2353 93.8961 29.3045 93.7093 29.4537C93.5225 29.6029 93.4025 29.82 93.3756 30.0574L92.0259 42.2231L91.2772 48.9679L90.6075 55.002L90.2971 57.8043L90.2065 58.616C90.1806 58.8536 90.2502 59.0917 90.3998 59.2782C90.5495 59.4647 90.7671 59.5844 91.0049 59.611Z" fill="#E6E6E6"/>
<path d="M98.024 44.4931L109.088 45.7167L113.012 46.1504C113.185 46.1696 113.36 46.1545 113.528 46.106C113.695 46.0575 113.851 45.9766 113.987 45.8678C114.123 45.759 114.237 45.6246 114.321 45.4721C114.405 45.3197 114.458 45.1522 114.477 44.9792C114.496 44.8062 114.481 44.6312 114.433 44.4641C114.384 44.2969 114.303 44.141 114.194 44.0051C114.085 43.8693 113.95 43.7562 113.798 43.6723C113.645 43.5884 113.477 43.5354 113.304 43.5162L108.424 42.9766L98.317 41.8576C97.9671 41.819 97.6161 41.9208 97.3413 42.1404C97.0664 42.3601 96.8902 42.6798 96.8514 43.0292C96.8125 43.3786 96.9142 43.729 97.1341 44.0036C97.354 44.2781 97.6741 44.4542 98.024 44.4931Z" fill="white"/>
<path d="M97.3941 49.3797C97.4227 49.3848 97.4512 49.3899 97.4803 49.3927L110.324 50.8133L112.468 51.051C112.818 51.0896 113.169 50.9879 113.444 50.7681C113.719 50.5483 113.895 50.2286 113.934 49.8791C113.973 49.5296 113.871 49.1791 113.651 48.9047C113.431 48.6303 113.11 48.4544 112.76 48.4157L109.66 48.0732L99.4857 46.9476L97.7736 46.7582C97.4312 46.72 97.0873 46.8163 96.8148 47.0267C96.5422 47.2371 96.3622 47.5451 96.313 47.8855C96.2637 48.226 96.3489 48.5722 96.5507 48.8511C96.7525 49.1299 97.0549 49.3194 97.3941 49.3797V49.3797Z" fill="white"/>
<path d="M95.9404 53.7126C96.0457 53.8871 96.1898 54.035 96.3615 54.1448C96.5333 54.2547 96.7282 54.3235 96.9309 54.3459L102.195 54.9281L111.571 55.9651L111.573 55.9646L111.873 55.998L113.385 54.8186C113.394 54.729 113.395 54.6387 113.385 54.5491C113.353 54.2483 113.22 53.9673 113.006 53.7527C112.793 53.5381 112.512 53.4028 112.211 53.369L110.909 53.2245L105.742 52.6537L102.025 52.242L97.2228 51.7107C96.9767 51.6835 96.7279 51.7256 96.5045 51.8321C96.2811 51.9387 96.0921 52.1056 95.9587 52.3138C95.8253 52.5221 95.7528 52.7634 95.7496 53.0106C95.7464 53.2578 95.8125 53.501 95.9404 53.7126L95.9404 53.7126Z" fill="white"/>
<path d="M103.335 38.5195L106.087 38.824L107.303 38.9588L109.14 39.1618C109.49 39.2004 109.841 39.0987 110.116 38.8789C110.391 38.6591 110.567 38.3393 110.606 37.9899C110.644 37.6404 110.543 37.2899 110.322 37.0155C110.102 36.741 109.782 36.5651 109.432 36.5265L103.628 35.8851C103.278 35.8462 102.927 35.9478 102.652 36.1674C102.377 36.3869 102.201 36.7065 102.162 37.0559C102.123 37.4053 102.225 37.7557 102.445 38.0302C102.665 38.3047 102.985 38.4807 103.335 38.5195V38.5195Z" fill="white"/>
<path d="M80.8241 45.8576L84.1803 59.7003L89.7819 60.7638L94.9636 61.7488L100.523 62.805L102.3 63.1425C102.404 63.1621 102.511 63.1594 102.613 63.1346C102.716 63.1097 102.813 63.0632 102.896 62.9983L104.321 61.887L105.224 61.1834L111.627 56.1895L107.555 39.3965C107.515 39.2294 107.428 39.0775 107.303 38.959C107.194 38.8541 107.06 38.7784 106.913 38.7389C106.767 38.6993 106.613 38.6972 106.466 38.7326L81.489 44.7696C81.2564 44.826 81.0557 44.9722 80.931 45.1762C80.8064 45.3802 80.7679 45.6253 80.8241 45.8576Z" fill="#6C63FF"/>
<path d="M88.5204 56.8698C88.6035 57.2113 88.8189 57.5059 89.1194 57.6889C89.4198 57.8719 89.7807 57.9285 90.1229 57.8461L104.779 54.3037C105.121 54.2206 105.416 54.0054 105.599 53.7055C105.782 53.4056 105.839 53.0453 105.757 52.7037C105.753 52.6868 105.748 52.6701 105.742 52.6538C105.649 52.3244 105.431 52.044 105.135 51.8713C104.839 51.6987 104.487 51.6471 104.154 51.7274L89.4982 55.2698C89.1562 55.3528 88.8612 55.5679 88.6779 55.8679C88.4945 56.1678 88.4379 56.5282 88.5204 56.8698Z" fill="white"/>
<path d="M89.7822 60.7639L94.9639 61.7489L105.94 59.0959C106.283 59.0132 106.578 58.7982 106.761 58.4981C106.944 58.1981 107.001 57.8376 106.918 57.4959C106.835 57.1543 106.62 56.8595 106.319 56.6764C106.019 56.4933 105.658 56.4369 105.316 56.5196L90.6599 60.062C90.3536 60.1355 90.0838 60.316 89.8993 60.5709C89.8549 60.6318 89.8157 60.6964 89.7822 60.7639Z" fill="white"/>
<path d="M100.523 62.8047L102.3 63.1423C102.404 63.1619 102.511 63.1592 102.614 63.1343C102.717 63.1095 102.813 63.063 102.896 62.9981L104.322 61.8867L100.523 62.8047Z" fill="white"/>
<path d="M91.4733 49.4474C91.5564 49.7889 91.7718 50.0835 92.0722 50.2665C92.3727 50.4496 92.7336 50.5061 93.0757 50.4237L98.7523 49.0517C99.0942 48.9685 99.3891 48.7534 99.5724 48.4535C99.7557 48.1536 99.8124 47.7933 99.7301 47.4517C99.6859 47.2682 99.6024 47.0963 99.4855 46.9479C99.3285 46.7474 99.1169 46.5961 98.8762 46.5124C98.6354 46.4286 98.3755 46.4158 98.1276 46.4754L92.4511 47.8475C92.1089 47.9302 91.8137 48.1453 91.6304 48.4453C91.447 48.7453 91.3905 49.1058 91.4733 49.4474V49.4474Z" fill="white"/>
<path d="M94.9634 61.7488L100.524 62.8053L102.3 63.143C102.404 63.1623 102.511 63.1595 102.613 63.1347C102.716 63.1098 102.812 63.0635 102.896 62.9988L104.322 61.8872L103.822 62.0082L102.765 62.8311C102.706 62.8773 102.637 62.9104 102.563 62.9281C102.49 62.9459 102.413 62.9479 102.339 62.934L101.024 62.6843L95.4639 61.6279L94.9634 61.7488ZM111.572 55.9659L111.626 56.1891L111.873 55.9977L111.572 55.9659ZM94.9634 61.7488L100.524 62.8053L102.3 63.143C102.404 63.1623 102.511 63.1595 102.613 63.1347C102.716 63.1098 102.812 63.0635 102.896 62.9988L104.322 61.8872L103.822 62.0082L102.765 62.8311C102.706 62.8773 102.637 62.9104 102.563 62.9281C102.49 62.9459 102.413 62.9479 102.339 62.934L101.024 62.6843L95.4639 61.6279L94.9634 61.7488ZM94.9634 61.7488L100.524 62.8053L102.3 63.143C102.404 63.1623 102.511 63.1595 102.613 63.1347C102.716 63.1098 102.812 63.0635 102.896 62.9988L104.322 61.8872L103.822 62.0082L102.765 62.8311C102.706 62.8773 102.637 62.9104 102.563 62.9281C102.49 62.9459 102.413 62.9479 102.339 62.934L101.024 62.6843L95.4639 61.6279L94.9634 61.7488ZM76.8475 59.1578L83.1219 85.0362C83.1685 85.2275 83.2891 85.3924 83.4574 85.4949C83.6256 85.5975 83.8278 85.6291 84.0194 85.583L129.431 74.6067C129.623 74.5603 129.788 74.4398 129.891 74.2718C129.994 74.1038 130.025 73.902 129.979 73.7107L123.705 47.8322C123.676 47.7114 123.617 47.5999 123.533 47.508C123.449 47.416 123.344 47.3467 123.226 47.3064C123.139 47.2759 123.047 47.2621 122.955 47.2657C122.848 47.2688 122.743 47.2964 122.648 47.3464C122.604 47.3672 122.563 47.3928 122.525 47.4228L118.798 50.3285L113.385 54.5501L111.572 55.9643L111.572 55.9658L111.571 55.9662L104.921 61.1492L103.822 62.0082L102.765 62.8311C102.706 62.8773 102.637 62.9104 102.563 62.9281C102.49 62.9459 102.413 62.9479 102.339 62.934L101.024 62.6843L95.4639 61.6279L89.8986 60.571L77.7092 58.2549C77.6053 58.2344 77.4981 58.2367 77.3952 58.2617C77.2566 58.2955 77.1306 58.3684 77.0323 58.4716C76.9946 58.5122 76.9611 58.5564 76.9322 58.6035C76.8321 58.77 76.8016 58.9691 76.8475 59.1578ZM94.9634 61.7488L100.524 62.8053L102.3 63.143C102.404 63.1623 102.511 63.1595 102.613 63.1347C102.716 63.1098 102.812 63.0635 102.896 62.9988L104.322 61.8872L103.822 62.0082L102.765 62.8311C102.706 62.8773 102.637 62.9104 102.563 62.9281C102.49 62.9459 102.413 62.9479 102.339 62.934L101.024 62.6843L95.4639 61.6279L94.9634 61.7488ZM94.9634 61.7488L100.524 62.8053L102.3 63.143C102.404 63.1623 102.511 63.1595 102.613 63.1347C102.716 63.1098 102.812 63.0635 102.896 62.9988L104.322 61.8872L103.822 62.0082L102.765 62.8311C102.706 62.8773 102.637 62.9104 102.563 62.9281C102.49 62.9459 102.413 62.9479 102.339 62.934L101.024 62.6843L95.4639 61.6279L94.9634 61.7488ZM94.9634 61.7488L100.524 62.8053L102.3 63.143C102.404 63.1623 102.511 63.1595 102.613 63.1347C102.716 63.1098 102.812 63.0635 102.896 62.9988L104.322 61.8872L103.822 62.0082L102.765 62.8311C102.706 62.8773 102.637 62.9104 102.563 62.9281C102.49 62.9459 102.413 62.9479 102.339 62.934L101.024 62.6843L95.4639 61.6279L94.9634 61.7488Z" fill="white"/>
<path d="M94.9634 61.7488L100.524 62.8053L102.3 63.1429C102.404 63.1623 102.511 63.1595 102.613 63.1347C102.716 63.1098 102.812 63.0635 102.896 62.9988L104.322 61.8872L103.822 62.0082L102.765 62.8311C102.706 62.8773 102.637 62.9104 102.563 62.9281C102.49 62.9459 102.413 62.9479 102.339 62.934L101.024 62.6843L95.4639 61.6279L94.9634 61.7488ZM111.572 55.9658L111.626 56.1891L111.873 55.9977L111.572 55.9658ZM94.9634 61.7488L100.524 62.8053L102.3 63.1429C102.404 63.1623 102.511 63.1595 102.613 63.1347C102.716 63.1098 102.812 63.0635 102.896 62.9988L104.322 61.8872L103.822 62.0082L102.765 62.8311C102.706 62.8773 102.637 62.9104 102.563 62.9281C102.49 62.9459 102.413 62.9479 102.339 62.934L101.024 62.6843L95.4639 61.6279L94.9634 61.7488ZM94.9634 61.7488L100.524 62.8053L102.3 63.1429C102.404 63.1623 102.511 63.1595 102.613 63.1347C102.716 63.1098 102.812 63.0635 102.896 62.9988L104.322 61.8872L103.822 62.0082L102.765 62.8311C102.706 62.8773 102.637 62.9104 102.563 62.9281C102.49 62.9459 102.413 62.9479 102.339 62.934L101.024 62.6843L95.4639 61.6279L94.9634 61.7488ZM77.139 58.6195L77.1665 58.6401C77.1711 58.6326 77.1792 58.6258 77.1853 58.6179C77.2468 58.554 77.3232 58.5064 77.4077 58.4792C77.4921 58.4521 77.5821 58.4463 77.6693 58.4623L89.7825 60.763L94.9634 61.7488L100.524 62.8053L102.3 63.1429C102.404 63.1623 102.511 63.1595 102.613 63.1347C102.716 63.1098 102.812 63.0635 102.896 62.9988L104.322 61.8872L103.822 62.0082L102.765 62.8311C102.706 62.8773 102.637 62.9104 102.563 62.9281C102.49 62.9458 102.413 62.9479 102.339 62.934L101.024 62.6843L95.4639 61.6279L89.8986 60.571L77.7092 58.2549C77.6053 58.2344 77.4981 58.2367 77.3952 58.2617L77.139 58.6195ZM76.8475 59.1578L83.1219 85.0362C83.1685 85.2275 83.2891 85.3924 83.4574 85.4949C83.6256 85.5975 83.8278 85.6291 84.0194 85.583L129.431 74.6067C129.623 74.5603 129.788 74.4398 129.891 74.2718C129.994 74.1038 130.025 73.902 129.979 73.7107L123.705 47.8322C123.676 47.7114 123.617 47.5999 123.533 47.508C123.449 47.416 123.344 47.3467 123.226 47.3064C123.139 47.2759 123.047 47.2621 122.955 47.2657C122.848 47.2688 122.743 47.2964 122.648 47.3464C122.604 47.3672 122.563 47.3928 122.525 47.4228L118.798 50.3285L113.385 54.5501L111.572 55.9643L111.572 55.9658L111.571 55.9662L104.921 61.1492L103.822 62.0082L102.765 62.8311C102.706 62.8773 102.637 62.9104 102.563 62.9281C102.49 62.9459 102.413 62.9479 102.339 62.934L101.024 62.6843L95.4639 61.6279L89.8986 60.571L77.7092 58.2549C77.6053 58.2344 77.4981 58.2367 77.3952 58.2617C77.2566 58.2955 77.1306 58.3684 77.0323 58.4716C76.9946 58.5122 76.9611 58.5563 76.9322 58.6035C76.8321 58.77 76.8016 58.9691 76.8475 59.1578ZM77.0545 59.1078C77.036 59.0315 77.0348 58.952 77.051 58.8752C77.0672 58.7984 77.1004 58.7262 77.1481 58.6639C77.1525 58.6547 77.1587 58.6466 77.1665 58.6402C77.1711 58.6326 77.1792 58.6258 77.1853 58.6179C77.2468 58.554 77.3232 58.5064 77.4077 58.4792C77.4921 58.4521 77.5821 58.4463 77.6693 58.4623L89.7825 60.7631L94.9634 61.7488L100.524 62.8053L102.3 63.1429C102.404 63.1623 102.511 63.1595 102.613 63.1347C102.716 63.1098 102.812 63.0635 102.896 62.9988L104.322 61.8872L105.224 61.1837L111.626 56.1891L111.873 55.9977L113.384 54.8188L118.766 50.6224L122.657 47.5887C122.716 47.5426 122.784 47.5097 122.857 47.492C122.878 47.487 122.898 47.4836 122.919 47.4819C122.937 47.4786 122.956 47.4768 122.974 47.4766C123.037 47.476 123.098 47.4861 123.157 47.5064C123.241 47.5355 123.316 47.5851 123.376 47.6507C123.436 47.7163 123.478 47.7958 123.499 47.8819L129.774 73.7603C129.79 73.8281 129.793 73.8985 129.782 73.9675C129.772 74.0364 129.747 74.1026 129.711 74.1622C129.675 74.2217 129.627 74.2736 129.57 74.3147C129.514 74.3558 129.45 74.3853 129.382 74.4017L83.9697 85.378C83.8327 85.4109 83.6882 85.3881 83.568 85.3146C83.4478 85.2411 83.3618 85.123 83.3289 84.9862L77.0545 59.1078ZM94.9634 61.7488L100.524 62.8053L102.3 63.143C102.404 63.1623 102.511 63.1595 102.613 63.1347C102.716 63.1098 102.812 63.0635 102.896 62.9988L104.322 61.8872L103.822 62.0082L102.765 62.8311C102.706 62.8773 102.637 62.9104 102.563 62.9281C102.49 62.9459 102.413 62.9479 102.339 62.934L101.024 62.6843L95.4639 61.6279L94.9634 61.7488ZM94.9634 61.7488L100.524 62.8053L102.3 63.143C102.404 63.1623 102.511 63.1595 102.613 63.1347C102.716 63.1098 102.812 63.0635 102.896 62.9988L104.322 61.8872L103.822 62.0082L102.765 62.8311C102.706 62.8773 102.637 62.9104 102.563 62.9281C102.49 62.9459 102.413 62.9479 102.339 62.934L101.024 62.6843L95.4639 61.6279L94.9634 61.7488ZM94.9634 61.7488L100.524 62.8053L102.3 63.143C102.404 63.1623 102.511 63.1595 102.613 63.1347C102.716 63.1098 102.812 63.0635 102.896 62.9988L104.322 61.8872L103.822 62.0082L102.765 62.8311C102.706 62.8773 102.637 62.9104 102.563 62.9281C102.49 62.9459 102.413 62.9479 102.339 62.934L101.024 62.6843L95.4639 61.6279L94.9634 61.7488Z" fill="#3F3D56"/>
<path d="M117.596 69.5222C117.493 69.0982 117.564 68.6509 117.791 68.2786C118.019 67.9063 118.385 67.6393 118.809 67.5361L124.541 66.1508C124.965 66.0499 125.412 66.1209 125.784 66.3483C126.156 66.5757 126.422 66.941 126.525 67.3641C126.627 67.7872 126.558 68.2336 126.331 68.6056C126.105 68.9776 125.74 69.2449 125.316 69.3488L119.585 70.7341C119.16 70.8363 118.712 70.766 118.339 70.5389C117.966 70.3117 117.699 69.946 117.596 69.5222Z" fill="#6C63FF"/>
<path d="M54.2546 64.7163C55.0392 64.7163 55.6753 64.0812 55.6753 63.2978C55.6753 62.5145 55.0392 61.8794 54.2546 61.8794C53.47 61.8794 52.834 62.5145 52.834 63.2978C52.834 64.0812 53.47 64.7163 54.2546 64.7163Z" fill="white"/>
</g>
<defs>
<clipPath id="clip0">
<rect width="117" height="100" fill="white" transform="translate(13 25)"/>
</clipPath>
</defs>
</svg>
