<svg width="50" height="50" viewBox="0 0 50 50" fill="none" xmlns="http://www.w3.org/2000/svg">
<path d="M36 2C33.1836 2 30.8281 3.71484 29.7188 6.125C29.4766 6.08594 29.2617 6 29 6C27.6406 6 26.4023 6.55078 25.5 7.4375C24.0352 7.05469 22.9609 7.03516 22.4688 7.03125L20.7188 5.28125L20.4375 5.03125L20.0625 5C20.0625 5 15.8555 4.71875 11.5938 6.65625C7.33203 8.59375 3 12.9375 3 21.5312V26.6875C2.85938 26.8633 2.78125 26.9336 2.59375 27.3125C2.28516 27.9414 2 28.8711 2 30.0625C2 31.9102 3.12109 33.2188 4.125 33.9688C4.89453 34.543 5.33594 34.6602 5.65625 34.7812C5.83984 35.3398 6.73828 38.0586 8.6875 41.0938C10.8477 44.4531 14.2422 48 19 48C23.7578 48 27.1523 44.4531 29.3125 41.0938C31.2617 38.0586 32.1602 35.3398 32.3438 34.7812C32.6641 34.6602 33.1055 34.543 33.875 33.9688C34.8789 33.2188 36 31.9102 36 30.0625C36 28.8711 35.7148 27.9414 35.4062 27.3125C35.2188 26.9336 35.1406 26.8633 35 26.6875V21.5312C35 20.8477 34.9609 20.1875 34.9062 19.5625C35.5508 19.8359 36.25 20 37 20C38.7656 20 40.2812 19.1523 41.375 17.9375C41.582 17.9609 41.7812 18 42 18C45.3008 18 48 15.3008 48 12C48 8.78906 45.4297 6.20312 42.25 6.0625C41.1289 3.6875 38.7891 2 36 2ZM36 4C38.1953 4 40.0391 5.42188 40.7188 7.375L40.9688 8.09375L41.75 8.03125C41.9688 8.01562 42.0352 8 42 8C44.2188 8 46 9.78125 46 12C46 14.2188 44.2188 16 42 16C41.75 16 41.5039 15.9883 41.25 15.9375L40.625 15.8125L40.25 16.3125C39.5195 17.3281 38.3438 18 37 18C35.6445 18 34.4766 17.3398 33.75 16.3125L33.3438 15.75L32.6875 15.9062C32.4414 15.9648 32.2227 16 32 16C30.875 16 29.9258 15.3867 29.4062 14.4688L29.1562 14.0312L28.6562 13.9688C27.1602 13.7891 26 12.5469 26 11C26 9.33203 27.332 8 29 8C29.3125 8 29.6094 8.07812 29.9375 8.1875L30.9062 8.5L31.2188 7.53125C31.8477 5.49609 33.7461 4 36 4ZM18.6875 7C19.1133 6.98438 19.4297 6.99609 19.5625 7L21.5938 9.03125L22.0312 9C22.0312 9 22.9883 8.97656 24.3438 9.25C24.1367 9.79688 24 10.3828 24 11C24 13.4102 25.7539 15.3516 28.0312 15.8125C28.9336 17.0781 30.3281 18 32 18C32.2266 18 32.418 17.9375 32.625 17.9062C32.6445 17.9297 32.668 17.9453 32.6875 17.9688C32.8867 19.0273 33 20.1875 33 21.5312V27.4062L33.2812 27.7188C33.2812 27.7188 33.4023 27.8008 33.5938 28.1875C33.7852 28.5742 34 29.1953 34 30.0625C34 31.1211 33.4023 31.8125 32.6875 32.3438C31.9727 32.875 31.25 33.125 31.25 33.125L30.75 33.2812L30.5938 33.7812C30.5938 33.7812 29.6172 36.8984 27.625 40C25.6328 43.1016 22.7422 46 19 46C15.2578 46 12.3672 43.1016 10.375 40C8.38281 36.8984 7.40625 33.7812 7.40625 33.7812L7.25 33.2812L6.75 33.125C6.75 33.125 6.02734 32.875 5.3125 32.3438C4.59766 31.8125 4 31.1211 4 30.0625C4 29.1953 4.21484 28.5742 4.40625 28.1875C4.59766 27.8008 4.71875 27.7188 4.71875 27.7188L5 27.4062V21.5312C5 13.582 8.66797 10.168 12.4062 8.46875C14.9883 7.29688 17.4062 7.04297 18.6875 7ZM33 11C32.4492 11 32 11.4492 32 12C32 12.5508 32.4492 13 33 13C33.5508 13 34 12.5508 34 12C34 11.4492 33.5508 11 33 11ZM37 11C36.4492 11 36 11.4492 36 12C36 12.5508 36.4492 13 37 13C37.5508 13 38 12.5508 38 12C38 11.4492 37.5508 11 37 11ZM41 11C40.4492 11 40 11.4492 40 12C40 12.5508 40.4492 13 41 13C41.5508 13 42 12.5508 42 12C42 11.4492 41.5508 11 41 11ZM21.8125 14.0625C21.582 14.1016 21.3711 14.2266 21.2188 14.4062C17.1367 19.3008 7.9375 20.0625 7.9375 20.0625C7.46484 20.0859 7.07422 20.4375 7 20.9062L6 26.9062C5.91406 27.457 6.29297 27.9766 6.84375 28.0625C7.39453 28.1484 7.91406 27.7695 8 27.2188L8.875 21.9062C10.0742 21.8242 17.2305 21.1836 21.9375 16.5C24.668 20.082 28.25 21.4727 29.0938 21.75L30 27.2188C30.0859 27.7695 30.6055 28.1484 31.1562 28.0625C31.707 27.9766 32.0859 27.457 32 26.9062L31 20.9062C30.9414 20.5195 30.6602 20.1992 30.2812 20.0938C30.2812 20.0938 25.2969 18.5273 22.8438 14.5312C22.6289 14.1758 22.2188 13.9922 21.8125 14.0625ZM14.5 26C14.3945 26 14.2852 26.0117 14.1875 26.0312C12.418 26.1953 11 27.6875 11 29.5C10.9961 29.8594 11.1836 30.1953 11.4961 30.3789C11.8086 30.5586 12.1914 30.5586 12.5039 30.3789C12.8164 30.1953 13.0039 29.8594 13 29.5C13 29.1133 13.1406 28.7656 13.375 28.5C13.6484 28.8086 14.0547 29 14.5 29C14.9453 29 15.3516 28.8086 15.625 28.5C15.8594 28.7656 16 29.1133 16 29.5C15.9961 29.8594 16.1836 30.1953 16.4961 30.3789C16.8086 30.5586 17.1914 30.5586 17.5039 30.3789C17.8164 30.1953 18.0039 29.8594 18 29.5C18 27.6875 16.582 26.1953 14.8125 26.0312C14.7148 26.0117 14.6055 26 14.5 26ZM23.5 26C21.5781 26 20 27.5781 20 29.5C19.9961 29.8594 20.1836 30.1953 20.4961 30.3789C20.8086 30.5586 21.1914 30.5586 21.5039 30.3789C21.8164 30.1953 22.0039 29.8594 22 29.5C22 29.1133 22.1406 28.7656 22.375 28.5C22.6484 28.8086 23.0547 29 23.5 29C23.9453 29 24.3516 28.8086 24.625 28.5C24.8594 28.7656 25 29.1133 25 29.5C24.9961 29.8594 25.1836 30.1953 25.4961 30.3789C25.8086 30.5586 26.1914 30.5586 26.5039 30.3789C26.8164 30.1953 27.0039 29.8594 27 29.5C27 27.5781 25.4219 26 23.5 26Z" fill="#644BEC"/>
</svg>
