<svg width="1440" height="632" viewBox="0 0 1440 632" fill="none" xmlns="http://www.w3.org/2000/svg">
<mask id="mask0" mask-type="alpha" maskUnits="userSpaceOnUse" x="0" y="0" width="1440" height="632">
<rect width="1440" height="632" fill="#644BEC"/>
</mask>
<g mask="url(#mask0)">
<rect width="1440" height="632" fill="#E4F6FE"/>
</g>
<circle cx="52" cy="230" r="8" fill="#B0C1FF"/>
<circle cx="715" cy="70" r="8" fill="#B0C1FF"/>
<path d="M579.497 405.726C579.027 405.733 578.579 405.927 578.252 406.264C577.924 406.601 577.744 407.055 577.75 407.525V512.25H682.475C682.71 512.253 682.944 512.21 683.162 512.122C683.38 512.034 683.579 511.904 683.747 511.739C683.914 511.574 684.047 511.377 684.138 511.16C684.229 510.943 684.275 510.71 684.275 510.475C684.275 510.24 684.229 510.007 684.138 509.79C684.047 509.573 683.914 509.376 683.747 509.211C683.579 509.046 683.38 508.915 683.162 508.828C682.944 508.74 682.71 508.697 682.475 508.7H676.894C676.318 504.845 672.948 483.149 666.465 460.421C666.456 460.376 666.444 460.331 666.431 460.286C666.428 460.275 666.424 460.263 666.42 460.251C662.851 447.763 658.402 435.257 652.955 425.726C650.23 420.956 647.255 416.922 643.928 414.011C640.601 411.1 636.843 409.3 632.775 409.3C628.707 409.3 624.949 411.1 621.622 414.011C618.296 416.922 615.321 420.956 612.595 425.726C607.143 435.266 602.691 447.786 599.12 460.286C599.118 460.291 599.117 460.295 599.116 460.3C592.611 483.072 589.234 504.839 588.657 508.7H581.3V407.525C581.303 407.287 581.259 407.052 581.169 406.832C581.08 406.612 580.947 406.412 580.779 406.244C580.611 406.076 580.411 405.944 580.191 405.855C579.971 405.766 579.735 405.722 579.497 405.726ZM632.775 412.85C635.807 412.85 638.706 414.156 641.591 416.681C644.477 419.206 647.271 422.938 649.87 427.487C655.068 436.584 659.491 448.914 663.02 461.264C663.023 461.275 663.026 461.287 663.03 461.298C669.241 483.046 672.56 503.821 673.302 508.7H592.248C592.99 503.818 596.313 483.024 602.531 461.264C606.059 448.914 610.482 436.584 615.68 427.487C618.28 422.938 621.074 419.206 623.959 416.681C626.845 414.156 629.743 412.85 632.775 412.85ZM586.625 459C586.154 459 585.703 459.187 585.37 459.52C585.037 459.853 584.85 460.304 584.85 460.775C584.85 461.246 585.037 461.697 585.37 462.03C585.703 462.363 586.154 462.55 586.625 462.55C587.096 462.55 587.547 462.363 587.88 462.03C588.213 461.697 588.4 461.246 588.4 460.775C588.4 460.304 588.213 459.853 587.88 459.52C587.547 459.187 587.096 459 586.625 459ZM593.725 459C593.254 459 592.803 459.187 592.47 459.52C592.137 459.853 591.95 460.304 591.95 460.775C591.95 461.246 592.137 461.697 592.47 462.03C592.803 462.363 593.254 462.55 593.725 462.55C594.196 462.55 594.647 462.363 594.98 462.03C595.313 461.697 595.5 461.246 595.5 460.775C595.5 460.304 595.313 459.853 594.98 459.52C594.647 459.187 594.196 459 593.725 459ZM607.925 459C607.454 459 607.003 459.187 606.67 459.52C606.337 459.853 606.15 460.304 606.15 460.775C606.15 461.246 606.337 461.697 606.67 462.03C607.003 462.363 607.454 462.55 607.925 462.55C608.396 462.55 608.847 462.363 609.18 462.03C609.513 461.697 609.7 461.246 609.7 460.775C609.7 460.304 609.513 459.853 609.18 459.52C608.847 459.187 608.396 459 607.925 459ZM615.025 459C614.554 459 614.103 459.187 613.77 459.52C613.437 459.853 613.25 460.304 613.25 460.775C613.25 461.246 613.437 461.697 613.77 462.03C614.103 462.363 614.554 462.55 615.025 462.55C615.496 462.55 615.947 462.363 616.28 462.03C616.613 461.697 616.8 461.246 616.8 460.775C616.8 460.304 616.613 459.853 616.28 459.52C615.947 459.187 615.496 459 615.025 459ZM622.125 459C621.654 459 621.203 459.187 620.87 459.52C620.537 459.853 620.35 460.304 620.35 460.775C620.35 461.246 620.537 461.697 620.87 462.03C621.203 462.363 621.654 462.55 622.125 462.55C622.596 462.55 623.047 462.363 623.38 462.03C623.713 461.697 623.9 461.246 623.9 460.775C623.9 460.304 623.713 459.853 623.38 459.52C623.047 459.187 622.596 459 622.125 459ZM629.225 459C628.754 459 628.303 459.187 627.97 459.52C627.637 459.853 627.45 460.304 627.45 460.775C627.45 461.246 627.637 461.697 627.97 462.03C628.303 462.363 628.754 462.55 629.225 462.55C629.696 462.55 630.147 462.363 630.48 462.03C630.813 461.697 631 461.246 631 460.775C631 460.304 630.813 459.853 630.48 459.52C630.147 459.187 629.696 459 629.225 459ZM636.325 459C635.854 459 635.403 459.187 635.07 459.52C634.737 459.853 634.55 460.304 634.55 460.775C634.55 461.246 634.737 461.697 635.07 462.03C635.403 462.363 635.854 462.55 636.325 462.55C636.796 462.55 637.247 462.363 637.58 462.03C637.913 461.697 638.1 461.246 638.1 460.775C638.1 460.304 637.913 459.853 637.58 459.52C637.247 459.187 636.796 459 636.325 459ZM643.425 459C642.954 459 642.503 459.187 642.17 459.52C641.837 459.853 641.65 460.304 641.65 460.775C641.65 461.246 641.837 461.697 642.17 462.03C642.503 462.363 642.954 462.55 643.425 462.55C643.896 462.55 644.347 462.363 644.68 462.03C645.013 461.697 645.2 461.246 645.2 460.775C645.2 460.304 645.013 459.853 644.68 459.52C644.347 459.187 643.896 459 643.425 459ZM650.525 459C650.054 459 649.603 459.187 649.27 459.52C648.937 459.853 648.75 460.304 648.75 460.775C648.75 461.246 648.937 461.697 649.27 462.03C649.603 462.363 650.054 462.55 650.525 462.55C650.996 462.55 651.447 462.363 651.78 462.03C652.113 461.697 652.3 461.246 652.3 460.775C652.3 460.304 652.113 459.853 651.78 459.52C651.447 459.187 650.996 459 650.525 459ZM657.625 459C657.154 459 656.703 459.187 656.37 459.52C656.037 459.853 655.85 460.304 655.85 460.775C655.85 461.246 656.037 461.697 656.37 462.03C656.703 462.363 657.154 462.55 657.625 462.55C658.096 462.55 658.547 462.363 658.88 462.03C659.213 461.697 659.4 461.246 659.4 460.775C659.4 460.304 659.213 459.853 658.88 459.52C658.547 459.187 658.096 459 657.625 459ZM671.825 459C671.354 459 670.903 459.187 670.57 459.52C670.237 459.853 670.05 460.304 670.05 460.775C670.05 461.246 670.237 461.697 670.57 462.03C670.903 462.363 671.354 462.55 671.825 462.55C672.296 462.55 672.747 462.363 673.08 462.03C673.413 461.697 673.6 461.246 673.6 460.775C673.6 460.304 673.413 459.853 673.08 459.52C672.747 459.187 672.296 459 671.825 459ZM678.925 459C678.454 459 678.003 459.187 677.67 459.52C677.337 459.853 677.15 460.304 677.15 460.775C677.15 461.246 677.337 461.697 677.67 462.03C678.003 462.363 678.454 462.55 678.925 462.55C679.396 462.55 679.847 462.363 680.18 462.03C680.513 461.697 680.7 461.246 680.7 460.775C680.7 460.304 680.513 459.853 680.18 459.52C679.847 459.187 679.396 459 678.925 459Z" fill="#C5EAF9"/>
<path d="M1271.72 354.738C1309.22 423.709 1395.93 488.312 1457.39 454.904C1518.84 421.496 1496.76 342.967 1459.27 273.997C1421.78 205.026 1372.24 160.153 1310.78 193.561C1249.32 226.969 1234.23 285.768 1271.72 354.738Z" fill="#FFF6E5"/>
<circle r="8" transform="matrix(-1 0 0 1 1352 403)" fill="#B0C1FF"/>
<circle r="8" transform="matrix(-1 0 0 1 1316 267)" fill="#B0C1FF"/>
<path d="M129.237 496.4C126.536 496.4 124.523 497.302 123.331 498.719C122.139 500.135 121.8 501.896 121.8 503.4C121.8 506.977 123.736 509.88 126.394 511.756C127.214 512.336 128.083 512.795 129.019 513.2H113.4V528.6H116.2V563.6H177.8V528.6H180.6V513.2H164.981C165.916 512.795 166.786 512.336 167.606 511.756C170.264 509.88 172.2 506.977 172.2 503.4C172.2 501.896 171.861 500.135 170.669 498.719C169.476 497.302 167.464 496.4 164.762 496.4C161.968 496.4 159.709 497.581 158.025 499.2C156.341 500.819 155.132 502.859 154 504.8C152.868 506.741 151.801 508.606 150.675 509.875C149.548 511.144 148.52 511.8 147 511.8C145.48 511.8 144.451 511.144 143.325 509.875C142.198 508.606 141.132 506.741 140 504.8C138.868 502.859 137.659 500.819 135.975 499.2C134.291 497.581 132.032 496.4 129.237 496.4ZM129.237 499.2C131.288 499.2 132.688 499.944 134.006 501.213C135.324 502.481 136.483 504.291 137.594 506.2C138.704 508.109 139.792 510.094 141.225 511.713C141.252 511.745 141.285 511.767 141.312 511.8H135.8C132.978 511.8 130.063 510.958 127.969 509.481C125.874 508.005 124.6 506.009 124.6 503.4C124.6 502.345 124.851 501.3 125.475 500.556C126.098 499.813 127.121 499.2 129.237 499.2ZM164.762 499.2C166.879 499.2 167.901 499.813 168.525 500.556C169.148 501.3 169.4 502.345 169.4 503.4C169.4 506.009 168.126 508.005 166.031 509.481C163.937 510.958 161.022 511.8 158.2 511.8H152.687C152.715 511.767 152.748 511.745 152.775 511.713C154.208 510.094 155.296 508.109 156.406 506.2C157.516 504.291 158.676 502.481 159.994 501.213C161.312 499.944 162.712 499.2 164.762 499.2ZM116.2 516H138.6V525.8H116.2V516ZM141.4 516H152.6V526.938C152.6 526.981 152.6 527.025 152.6 527.069C152.6 527.113 152.6 527.156 152.6 527.2C152.589 527.304 152.589 527.402 152.6 527.506V560.8H141.4V527.463C141.411 527.375 141.411 527.288 141.4 527.2C141.405 527.14 141.405 527.085 141.4 527.025C141.4 526.981 141.4 526.938 141.4 526.894V516ZM155.4 516H177.8V525.8H155.4V516ZM119 528.6H138.6V560.8H119V528.6ZM155.4 528.6H175V560.8H155.4V528.6Z" fill="#C5EAF9"/>
</svg>
