<svg width="130" height="150" viewBox="0 0 130 150" fill="none" xmlns="http://www.w3.org/2000/svg">
<path d="M33.372 148.225C15.7251 140.155 19.3744 111.054 12.3668 91.1551C7.8378 78.2944 0.174866 67.5329 0.0854797 53.7032C-0.0301208 35.8207 -1.31226 13.9447 11.8021 3.80202C24.9398 -6.3587 41.7782 6.79002 57.5802 9.23648C75.2042 11.965 95.0713 5.27072 108.22 18.7293C123.552 34.4215 133.877 59.4054 128.609 81.9379C123.473 103.908 100.858 111.798 83.6662 123.764C67.5228 135 50.9616 156.27 33.372 148.225Z" fill="#F0EDFE"/>
<g clip-path="url(#clip0)">
<g opacity="0.5">
<path opacity="0.5" d="M86.8156 31.0176L40.5175 31.1284C40.2676 31.1289 40.0203 31.1778 39.7896 31.2723C39.559 31.3668 39.3495 31.505 39.1733 31.6791C38.997 31.8531 38.8574 32.0596 38.7624 32.2867C38.6674 32.5138 38.6189 32.757 38.6196 33.0025L38.8299 118.076C38.8304 118.322 38.8802 118.565 38.9764 118.792C39.0726 119.018 39.2133 119.224 39.3904 119.397C39.5676 119.57 39.7777 119.707 40.0089 119.801C40.24 119.894 40.4876 119.942 40.7375 119.941L87.0356 119.83C87.2856 119.83 87.533 119.781 87.7638 119.686C87.9945 119.592 88.204 119.453 88.3803 119.279C88.5565 119.105 88.6961 118.898 88.791 118.671C88.886 118.444 88.9343 118.2 88.9334 117.955L88.7232 32.8808C88.7224 32.6354 88.6725 32.3925 88.5763 32.1661C88.48 31.9396 88.3393 31.734 88.1621 31.561C87.985 31.388 87.7749 31.251 87.5439 31.1577C87.3128 31.0645 87.0653 31.0169 86.8156 31.0176Z" fill="url(#paint0_linear)"/>
</g>
<path d="M86.1451 32.179L41.1937 32.2869C40.1448 32.2895 39.2965 33.1269 39.2991 34.1574L39.5048 116.875C39.5074 117.906 40.3598 118.739 41.4087 118.737L86.3601 118.629C87.4091 118.626 88.2573 117.789 88.2548 116.758L88.049 34.0404C88.0465 33.0099 87.1941 32.1765 86.1451 32.179Z" fill="white"/>
<path opacity="0.4" d="M75.9216 34.3706C75.783 35.2876 75.3149 36.1255 74.6022 36.733C73.8894 37.3404 72.9789 37.6772 72.0353 37.6825L55.1968 37.7222C54.2539 37.7205 53.3428 37.3877 52.6278 36.7839C51.9128 36.1801 51.4411 35.345 51.298 34.4294L42.3795 34.4513C42.1363 34.4519 41.8956 34.4995 41.6711 34.5914C41.4466 34.6833 41.2428 34.8178 41.0712 34.9871C40.8996 35.1565 40.7637 35.3573 40.6711 35.5783C40.5786 35.7992 40.5312 36.0359 40.5317 36.2749L40.7253 114.752C40.7258 114.991 40.7743 115.228 40.868 115.449C40.9617 115.669 41.0987 115.869 41.2712 116.038C41.4437 116.207 41.6483 116.34 41.8733 116.431C42.0984 116.522 42.3395 116.568 42.5828 116.568L85.191 116.466C85.4342 116.466 85.6749 116.418 85.8993 116.326C86.1238 116.234 86.3277 116.1 86.4992 115.931C86.6708 115.761 86.8068 115.56 86.8993 115.339C86.9919 115.118 87.0392 114.882 87.0387 114.643L86.8452 36.1654C86.8446 35.9265 86.7962 35.69 86.7026 35.4695C86.609 35.2489 86.4721 35.0487 86.2998 34.8801C86.1274 34.7115 85.923 34.578 85.6981 34.487C85.4732 34.3961 85.2322 34.3496 84.989 34.3501L75.9216 34.3706Z" fill="#6C63FF"/>
<path d="M68.3848 35.3654L58.0792 35.5174C57.9254 35.5196 57.8027 35.644 57.805 35.7951L57.8068 35.9154C57.8091 36.0665 57.9356 36.1872 58.0894 36.1849L68.395 36.0329C68.5487 36.0306 68.6715 35.9063 68.6692 35.7552L68.6674 35.6349C68.6651 35.4838 68.5385 35.3631 68.3848 35.3654Z" fill="#DBDBDB"/>
<path d="M70.9798 35.9933C71.2051 35.99 71.385 35.8078 71.3816 35.5865C71.3782 35.3652 71.1928 35.1884 70.9675 35.1917C70.7422 35.1951 70.5623 35.3772 70.5657 35.5985C70.5691 35.8199 70.7545 35.9966 70.9798 35.9933Z" fill="#DBDBDB"/>
<g opacity="0.5">
<path opacity="0.5" d="M69.4662 94.0328C69.4671 91.698 68.8526 89.4028 67.6826 87.3705C66.5126 85.3383 64.827 83.6383 62.7898 82.436C60.7526 81.2338 58.4332 80.5702 56.0575 80.5099C53.6818 80.4496 51.3307 80.9946 49.2331 82.092C47.1354 83.1893 45.3627 84.8015 44.0874 86.7717C42.8122 88.7419 42.0779 91.0029 41.9561 93.3346C41.8342 95.6663 42.329 97.9893 43.3921 100.077C44.4553 102.166 46.0506 103.948 48.0229 105.25L48.0312 105.31C48.4808 105.734 49.0114 106.065 49.5921 106.286L49.6102 106.226C50.2549 106.773 52.9688 107.639 56.0864 107.631H56.1546C58.1291 107.631 60.2734 107.289 62.1588 106.286C62.1588 106.286 62.1755 106.25 62.2005 106.183C62.6781 105.963 63.1163 105.668 63.4983 105.31C63.5057 105.258 63.5131 105.207 63.5206 105.157C65.3549 103.915 66.8544 102.253 67.8901 100.316C68.9259 98.3777 69.4667 96.2215 69.4662 94.0328Z" fill="url(#paint1_linear)"/>
</g>
<path d="M55.7006 107.152C63.0746 107.152 69.0525 101.279 69.0525 94.0342C69.0525 86.7895 63.0746 80.9165 55.7006 80.9165C48.3265 80.9165 42.3486 86.7895 42.3486 94.0342C42.3486 101.279 48.3265 107.152 55.7006 107.152Z" fill="#F5F5F5"/>
<path d="M50.6004 99.4282C50.6004 99.4282 47.4187 99.684 48.2611 105.378C48.6968 105.789 49.2112 106.112 49.7747 106.327L51.5639 100.378L50.6004 99.4282Z" fill="#FDA57D"/>
<path d="M60.9235 99.4282C60.9235 99.4282 64.1052 99.684 63.2628 105.378C62.8271 105.789 62.3127 106.112 61.7492 106.327L59.96 100.375L60.9235 99.4282Z" fill="#FDA57D"/>
<path d="M50.7382 90.0969C50.7382 90.0969 49.2246 94.4252 48.3989 94.0148C48.3989 94.0148 56.3664 100.777 63.4023 94.0148C63.4023 94.0148 62.163 91.8506 60.3738 90.0928L50.7382 90.0969Z" fill="#333333"/>
<path d="M55.8455 95.5061C59.1145 95.5061 61.7646 92.9025 61.7646 89.6908C61.7646 86.4791 59.1145 83.8755 55.8455 83.8755C52.5764 83.8755 49.9263 86.4791 49.9263 89.6908C49.9263 92.9025 52.5764 95.5061 55.8455 95.5061Z" fill="#333333"/>
<path opacity="0.1" d="M60.8625 99.4282H50.5404L49.5769 103.486C49.5769 103.486 49.0116 105.364 49.7161 106.19C50.4207 107.016 56.9957 108.895 61.8302 106.327C62.2519 105.246 62.3008 104.058 61.9694 102.947C61.4125 101.053 61.8302 102.81 61.8302 102.81L60.8625 99.4282Z" fill="black"/>
<path opacity="0.1" d="M61.0001 99.4282H50.6767L49.7131 103.486C49.7131 103.486 49.1478 105.364 49.8524 106.19C50.5569 107.016 57.1319 108.895 61.9664 106.327C62.3881 105.246 62.437 104.058 62.1057 102.947C61.5487 101.053 61.9664 102.81 61.9664 102.81L61.0001 99.4282Z" fill="black"/>
<path d="M60.9239 99.4282H50.6005L49.6369 103.486C49.6369 103.486 49.0716 105.364 49.7762 106.19C50.4807 107.016 57.0558 108.895 61.8902 106.327C62.3119 105.246 62.3608 104.058 62.0295 102.947C61.4725 101.053 61.8902 102.81 61.8902 102.81L60.9239 99.4282Z" fill="#6C63FF"/>
<path opacity="0.1" d="M53.7665 96.0615H57.8992V99.9876C57.8992 100.165 57.8637 100.34 57.7948 100.503C57.7258 100.667 57.6248 100.815 57.4975 100.94C57.3701 101.066 57.2189 101.165 57.0525 101.233C56.8861 101.3 56.7077 101.335 56.5276 101.335H55.1352C54.7715 101.335 54.4226 101.193 54.1654 100.94C53.9082 100.688 53.7637 100.345 53.7637 99.9876V96.0615H53.7665Z" fill="black"/>
<path d="M53.7665 95.9121H57.8992V99.8382C57.8992 100.015 57.8637 100.19 57.7948 100.354C57.7258 100.517 57.6248 100.666 57.4975 100.791C57.3701 100.916 57.2189 101.015 57.0525 101.083C56.8861 101.151 56.7077 101.186 56.5276 101.186H55.1352C54.7715 101.186 54.4226 101.044 54.1654 100.791C53.9082 100.538 53.7637 100.196 53.7637 99.8382V95.9121H53.7665Z" fill="#FDA57D"/>
<path opacity="0.1" d="M53.7749 96.4968C55.1059 96.9854 56.5711 96.9892 57.9048 96.5077V96.0098H53.7749V96.4968Z" fill="black"/>
<path d="M55.8455 96.7688C59.1145 96.7688 61.7646 94.1652 61.7646 90.9535C61.7646 87.7418 59.1145 85.1382 55.8455 85.1382C52.5764 85.1382 49.9263 87.7418 49.9263 90.9535C49.9263 94.1652 52.5764 96.7688 55.8455 96.7688Z" fill="#FDA57D"/>
<path d="M50.188 88.7442H61.475C61.475 88.7442 60.5114 84.2668 56.245 84.5527C51.9786 84.8386 50.188 88.7442 50.188 88.7442Z" fill="#333333"/>
<path d="M50.0505 91.7197C50.3543 91.7197 50.6005 91.2659 50.6005 90.7061C50.6005 90.1462 50.3543 89.6924 50.0505 89.6924C49.7467 89.6924 49.5005 90.1462 49.5005 90.7061C49.5005 91.2659 49.7467 91.7197 50.0505 91.7197Z" fill="#FDA57D"/>
<path d="M61.6115 91.7197C61.9153 91.7197 62.1615 91.2659 62.1615 90.7061C62.1615 90.1462 61.9153 89.6924 61.6115 89.6924C61.3078 89.6924 61.0615 90.1462 61.0615 90.7061C61.0615 91.2659 61.3078 91.7197 61.6115 91.7197Z" fill="#FDA57D"/>
<path opacity="0.1" d="M50.188 88.8946H61.475C61.475 88.8946 60.5114 84.4172 56.245 84.7031C51.9786 84.989 50.188 88.8946 50.188 88.8946Z" fill="black"/>
<g opacity="0.5">
<path opacity="0.5" d="M58.3086 58.3585C58.3078 56.0237 58.9222 53.7284 60.0922 51.6962C61.2622 49.664 62.9479 47.964 64.985 46.7617C67.0222 45.5594 69.3416 44.8959 71.7173 44.8356C74.093 44.7753 76.4441 45.3203 78.5418 46.4177C80.6394 47.515 82.4121 49.1272 83.6874 51.0974C84.9626 53.0676 85.6969 55.3286 85.8187 57.6603C85.9406 59.992 85.4458 62.315 84.3827 64.4031C83.3195 66.4912 81.7242 68.2734 79.7519 69.576L79.7436 69.6362C79.295 70.0634 78.7644 70.3986 78.1827 70.6225L78.1646 70.5623C77.5199 71.1095 74.806 71.9754 71.6884 71.9672H71.6202C69.6457 71.9672 67.5014 71.6252 65.616 70.6225C65.616 70.6225 65.5993 70.5869 65.5743 70.5199C65.0967 70.2995 64.6585 70.0047 64.2765 69.6471C64.2691 69.5951 64.2617 69.5441 64.2543 69.4939C62.4184 68.2506 60.9179 66.5873 59.8821 64.6474C58.8463 62.7074 58.3063 60.5491 58.3086 58.3585Z" fill="url(#paint2_linear)"/>
</g>
<path d="M72.0727 71.4775C79.4467 71.4775 85.4246 65.6045 85.4246 58.3598C85.4246 51.1152 79.4467 45.2422 72.0727 45.2422C64.6986 45.2422 58.7207 51.1152 58.7207 58.3598C58.7207 65.6045 64.6986 71.4775 72.0727 71.4775Z" fill="#F5F5F5"/>
<path d="M66.8386 63.356C66.8386 63.356 63.657 63.6118 64.4994 69.3053C64.9353 69.7161 65.4497 70.0378 66.0129 70.252L67.8022 64.3026L66.8386 63.356Z" fill="#BE7C5E"/>
<path d="M77.1608 63.356C77.1608 63.356 80.3425 63.6118 79.5001 69.3053C79.0642 69.7161 78.5498 70.0378 77.9865 70.252L76.1973 64.3026L77.1608 63.356Z" fill="#BE7C5E"/>
<path d="M66.9752 54.0244C66.9752 54.0244 66.7302 54.7248 66.3835 55.5292C65.626 57.3076 66.4907 64.1079 68.3022 64.8315C70.3352 65.6523 73.0086 66.1667 75.7865 65.1722C78.1996 64.3076 78.9445 56.5538 77.2374 54.6728C77.0369 54.4512 76.8281 54.231 76.6094 54.0176L66.9752 54.0244Z" fill="#333333"/>
<path d="M72.0823 59.4349C75.3513 59.4349 78.0014 56.8312 78.0014 53.6195C78.0014 50.4078 75.3513 47.8042 72.0823 47.8042C68.8132 47.8042 66.1631 50.4078 66.1631 53.6195C66.1631 56.8312 68.8132 59.4349 72.0823 59.4349Z" fill="#333333"/>
<path opacity="0.1" d="M77.1007 63.356H66.7772L65.8137 67.4134C65.8137 67.4134 65.2484 69.2917 65.9529 70.1179C66.6575 70.9442 73.2325 72.8224 78.067 70.2547C78.4887 69.1733 78.5376 67.9858 78.2063 66.8744C77.6493 64.9811 78.067 66.7376 78.067 66.7376L77.1007 63.356Z" fill="black"/>
<path opacity="0.1" d="M77.2374 63.356H66.914L65.9504 67.4134C65.9504 67.4134 65.3851 69.2917 66.0897 70.1179C66.7942 70.9442 73.3692 72.8224 78.2037 70.2547C78.6254 69.1733 78.6743 67.9858 78.343 66.8744C77.786 64.9811 78.2037 66.7376 78.2037 66.7376L77.2374 63.356Z" fill="black"/>
<path d="M77.1608 63.356H66.8388L65.8752 67.4134C65.8752 67.4134 65.3099 69.2917 66.0145 70.1179C66.719 70.9442 73.294 72.8224 78.1285 70.2547C78.5502 69.1733 78.5991 67.9858 78.2678 66.8744C77.7108 64.9811 78.1285 66.7376 78.1285 66.7376L77.1608 63.356Z" fill="#F55F44"/>
<path opacity="0.1" d="M70.0036 59.9902H74.1335V63.9164C74.1335 64.2737 73.989 64.6165 73.7318 64.8692C73.4746 65.1219 73.1258 65.2638 72.762 65.2638H71.3696C71.0058 65.2638 70.657 65.1219 70.3998 64.8692C70.1425 64.6165 69.998 64.2737 69.998 63.9164V59.9902H70.0036Z" fill="black"/>
<path d="M70.0036 59.8398H74.1335V63.766C74.1335 64.1234 73.989 64.4661 73.7318 64.7188C73.4746 64.9715 73.1258 65.1135 72.762 65.1135H71.3696C71.0058 65.1135 70.657 64.9715 70.3998 64.7188C70.1425 64.4661 69.998 64.1234 69.998 63.766V59.8398H70.0036Z" fill="#BE7C5E"/>
<path opacity="0.1" d="M70.0137 60.424C71.3447 60.9126 72.8098 60.9165 74.1435 60.435V59.937H70.0137V60.424Z" fill="black"/>
<path d="M72.0823 60.6966C75.3513 60.6966 78.0014 58.093 78.0014 54.8812C78.0014 51.6695 75.3513 49.0659 72.0823 49.0659C68.8132 49.0659 66.1631 51.6695 66.1631 54.8812C66.1631 58.093 68.8132 60.6966 72.0823 60.6966Z" fill="#BE7C5E"/>
<path d="M66.4253 52.6729H77.7122C77.7122 52.6729 76.7487 48.1955 72.4823 48.4814C68.2159 48.7673 66.4253 52.6729 66.4253 52.6729Z" fill="#333333"/>
<path d="M66.2873 55.647C66.5911 55.647 66.8373 55.1932 66.8373 54.6333C66.8373 54.0735 66.5911 53.6196 66.2873 53.6196C65.9836 53.6196 65.7373 54.0735 65.7373 54.6333C65.7373 55.1932 65.9836 55.647 66.2873 55.647Z" fill="#BE7C5E"/>
<path d="M77.8483 55.647C78.1521 55.647 78.3984 55.1932 78.3984 54.6333C78.3984 54.0735 78.1521 53.6196 77.8483 53.6196C77.5446 53.6196 77.2983 54.0735 77.2983 54.6333C77.2983 55.1932 77.5446 55.647 77.8483 55.647Z" fill="#BE7C5E"/>
<path opacity="0.1" d="M66.4253 52.8233H77.7122C77.7122 52.8233 76.7487 48.3459 72.4823 48.6318C68.2159 48.9177 66.4253 52.8233 66.4253 52.8233Z" fill="black"/>
<g opacity="0.5">
<path opacity="0.5" d="M10.6963 46.6294V66.1533H42.0063C42.0063 66.1533 44.3177 70.6225 48.2917 71.9221C48.2917 71.9221 47.0232 68.7566 48.3474 66.1533H57.064V46.6294H10.6963Z" fill="url(#paint3_linear)"/>
</g>
<path d="M11.9492 47.2983V65.7662H43.2787C43.2787 65.7662 43.2787 69.4598 47.0383 70.691C47.0383 70.691 45.7851 68.2286 47.0383 65.7662H55.8105V47.2983H11.9492Z" fill="white"/>
<path d="M40.7726 50.9917H15.709V53.4541H40.7726V50.9917Z" fill="#6C63FF"/>
<path d="M49.5449 54.6855H15.709V57.1479H49.5449V54.6855Z" fill="#6C63FF"/>
<path d="M45.7853 58.3789H15.709V60.8413H45.7853V58.3789Z" fill="#6C63FF"/>
<g opacity="0.5">
<path opacity="0.5" d="M117.216 84.249V103.773H85.9077C85.9077 103.773 83.5963 108.242 79.6209 109.542C79.6209 109.542 80.8894 106.376 79.5652 103.773H70.8486V84.249H117.216Z" fill="url(#paint4_linear)"/>
</g>
<path d="M115.963 84.918V103.386H84.6339C84.6339 103.386 84.6339 107.079 80.8743 108.311C80.8743 108.311 82.1275 105.848 80.8743 103.386H72.1021V84.918H115.963Z" fill="white"/>
<path d="M102.317 88.6113H77.2539V91.0737H102.317V88.6113Z" fill="#6C63FF"/>
<path d="M111.09 92.3052H77.2539V94.7676H111.09V92.3052Z" fill="#6C63FF"/>
<path d="M107.33 95.9985H77.2539V98.4609H107.33V95.9985Z" fill="#6C63FF"/>
<g opacity="0.5">
<path opacity="0.5" d="M22.114 122.674H21.6963V125H22.114V122.674Z" fill="#47E6B1"/>
<path opacity="0.5" d="M23.0889 124.042V123.632H20.7217V124.042H23.0889Z" fill="#47E6B1"/>
</g>
<g opacity="0.5">
<path opacity="0.5" d="M98.5579 51.2656H98.1401V53.5912H98.5579V51.2656Z" fill="#47E6B1"/>
<path opacity="0.5" d="M99.5327 52.6335V52.2231H97.1656V52.6335H99.5327Z" fill="#47E6B1"/>
</g>
<g opacity="0.5">
<path opacity="0.5" d="M107.469 108.721H107.052V111.046H107.469V108.721Z" fill="#47E6B1"/>
<path opacity="0.5" d="M108.444 110.089V109.678H106.077V110.089H108.444Z" fill="#47E6B1"/>
</g>
<g opacity="0.5">
<path opacity="0.5" d="M81.1526 25H80.7349V27.3256H81.1526V25Z" fill="#47E6B1"/>
<path opacity="0.5" d="M82.1274 26.3679V25.9575H79.7603V26.3679H82.1274Z" fill="#47E6B1"/>
</g>
<path opacity="0.5" d="M46.022 122.443C45.908 122.393 45.8168 122.303 45.7654 122.191C45.7141 122.079 45.7063 121.953 45.7435 121.836C45.7495 121.818 45.7532 121.799 45.7546 121.78C45.7582 121.725 45.7439 121.672 45.7137 121.626C45.6836 121.581 45.6394 121.546 45.5876 121.527C45.5358 121.508 45.4792 121.507 45.4262 121.522C45.3733 121.537 45.3268 121.569 45.2937 121.613C45.2825 121.628 45.2732 121.645 45.2659 121.662C45.2147 121.774 45.1235 121.864 45.0096 121.914C44.8957 121.964 44.7669 121.972 44.6477 121.936C44.6291 121.93 44.61 121.926 44.5906 121.925C44.5355 121.921 44.4807 121.935 44.4344 121.965C44.3881 121.994 44.3528 122.038 44.3337 122.089C44.3146 122.14 44.3127 122.195 44.3284 122.247C44.3441 122.299 44.3765 122.345 44.4207 122.377C44.4363 122.388 44.4531 122.398 44.4708 122.405C44.5848 122.455 44.6761 122.545 44.7274 122.657C44.7787 122.768 44.7865 122.895 44.7493 123.012C44.7434 123.03 44.7396 123.049 44.7382 123.068C44.7346 123.122 44.749 123.176 44.7791 123.222C44.8092 123.267 44.8534 123.302 44.9052 123.321C44.957 123.339 45.0136 123.341 45.0666 123.326C45.1195 123.31 45.166 123.279 45.1991 123.235C45.2103 123.22 45.2196 123.203 45.2269 123.186C45.2781 123.074 45.3693 122.984 45.4832 122.934C45.5971 122.883 45.7259 122.876 45.8452 122.912C45.8637 122.918 45.8828 122.922 45.9022 122.923C45.9573 122.927 46.0121 122.913 46.0584 122.883C46.1047 122.854 46.14 122.81 46.1591 122.759C46.1782 122.708 46.1801 122.653 46.1644 122.601C46.1487 122.549 46.1163 122.503 46.0721 122.47C46.0565 122.459 46.0397 122.45 46.022 122.443Z" fill="#4D8AF0"/>
<path opacity="0.5" d="M18.062 79.03C17.948 78.9797 17.8568 78.8902 17.8055 78.7782C17.7542 78.6663 17.7464 78.5398 17.7835 78.4226C17.7895 78.4044 17.7932 78.3856 17.7947 78.3665C17.7982 78.3124 17.7839 78.2586 17.7538 78.2131C17.7237 78.1676 17.6794 78.1329 17.6276 78.1142C17.5758 78.0954 17.5192 78.0936 17.4663 78.109C17.4133 78.1244 17.3668 78.1562 17.3338 78.1997C17.3226 78.2149 17.3132 78.2315 17.3059 78.2489C17.2547 78.3609 17.1636 78.4505 17.0497 78.5009C16.9357 78.5514 16.807 78.559 16.6877 78.5225C16.6692 78.5166 16.65 78.513 16.6306 78.5116C16.5755 78.5081 16.5207 78.5222 16.4744 78.5517C16.4281 78.5813 16.3928 78.6248 16.3737 78.6757C16.3546 78.7266 16.3528 78.7822 16.3685 78.8342C16.3841 78.8862 16.4165 78.9319 16.4607 78.9644C16.4763 78.9754 16.4931 78.9845 16.5109 78.9917C16.6248 79.042 16.7161 79.1316 16.7674 79.2435C16.8187 79.3554 16.8265 79.4819 16.7893 79.5991C16.7834 79.6173 16.7796 79.6361 16.7782 79.6552C16.7724 79.7103 16.7852 79.7658 16.8147 79.813C16.8443 79.8602 16.8888 79.8965 16.9415 79.9163C16.9942 79.9361 17.052 79.9383 17.1061 79.9225C17.1601 79.9067 17.2074 79.8738 17.2405 79.8289C17.2517 79.8136 17.261 79.7971 17.2683 79.7797C17.3195 79.6677 17.4107 79.578 17.5246 79.5276C17.6385 79.4772 17.7673 79.4695 17.8866 79.5061C17.9051 79.5119 17.9243 79.5156 17.9437 79.517C17.9988 79.5205 18.0535 79.5064 18.0998 79.4768C18.1461 79.4473 18.1815 79.4038 18.2006 79.3529C18.2196 79.302 18.2215 79.2464 18.2058 79.1944C18.1901 79.1423 18.1578 79.0967 18.1135 79.0642C18.0979 79.0507 18.0806 79.0392 18.062 79.03Z" fill="#4D8AF0"/>
<path opacity="0.5" d="M33.2393 90.9314C33.1253 90.8811 33.034 90.7915 32.9827 90.6796C32.9314 90.5677 32.9236 90.4412 32.9608 90.324C32.9667 90.3058 32.9705 90.287 32.9719 90.2679C32.9755 90.2138 32.9611 90.16 32.931 90.1145C32.9009 90.069 32.8567 90.0343 32.8048 90.0155C32.753 89.9968 32.6964 89.995 32.6435 90.0104C32.5905 90.0258 32.5441 90.0576 32.511 90.101C32.4998 90.1163 32.4905 90.1328 32.4832 90.1503C32.432 90.2622 32.3408 90.3519 32.2269 90.4023C32.113 90.4527 31.9842 90.4604 31.8649 90.4238C31.8464 90.418 31.8273 90.4143 31.8079 90.4129C31.7527 90.4094 31.698 90.4235 31.6517 90.4531C31.6054 90.4827 31.5701 90.5261 31.551 90.577C31.5319 90.6279 31.53 90.6835 31.5457 90.7356C31.5614 90.7876 31.5937 90.8332 31.638 90.8657C31.6535 90.8767 31.6704 90.8859 31.6881 90.8931C31.8021 90.9433 31.8933 91.0329 31.9447 91.1448C31.996 91.2567 32.0038 91.3832 31.9666 91.5004C31.9606 91.5186 31.9569 91.5375 31.9554 91.5565C31.9496 91.6116 31.9625 91.6671 31.992 91.7143C32.0215 91.7615 32.0661 91.7978 32.1187 91.8176C32.1714 91.8374 32.2293 91.8396 32.2833 91.8238C32.3374 91.808 32.3846 91.7751 32.4177 91.7302C32.4289 91.7149 32.4383 91.6984 32.4456 91.681C32.4968 91.569 32.5879 91.4794 32.7019 91.429C32.8158 91.3785 32.9445 91.3709 33.0638 91.4074C33.0823 91.4133 33.1015 91.4169 33.1209 91.4184C33.176 91.4218 33.2308 91.4078 33.2771 91.3782C33.3234 91.3486 33.3587 91.3051 33.3778 91.2542C33.3969 91.2033 33.3987 91.1477 33.3831 91.0957C33.3674 91.0437 33.335 90.998 33.2908 90.9656C33.2751 90.9521 33.2578 90.9406 33.2393 90.9314Z" fill="#4D8AF0"/>
<path opacity="0.5" d="M119.848 123.216C119.734 123.166 119.643 123.076 119.592 122.964C119.54 122.852 119.533 122.726 119.57 122.609C119.576 122.59 119.579 122.572 119.581 122.553C119.584 122.498 119.57 122.445 119.54 122.399C119.51 122.354 119.466 122.319 119.414 122.3C119.362 122.281 119.305 122.28 119.252 122.295C119.199 122.31 119.153 122.342 119.12 122.386C119.109 122.401 119.099 122.418 119.092 122.435C119.041 122.547 118.95 122.637 118.836 122.687C118.722 122.737 118.593 122.745 118.474 122.709C118.455 122.703 118.436 122.699 118.417 122.698C118.362 122.694 118.307 122.708 118.261 122.738C118.214 122.767 118.179 122.811 118.16 122.862C118.141 122.913 118.139 122.968 118.155 123.02C118.17 123.072 118.203 123.118 118.247 123.15C118.262 123.161 118.279 123.171 118.297 123.178C118.411 123.228 118.502 123.318 118.554 123.43C118.605 123.541 118.613 123.668 118.575 123.785C118.57 123.803 118.566 123.822 118.564 123.841C118.559 123.896 118.571 123.952 118.601 123.999C118.63 124.046 118.675 124.083 118.728 124.102C118.78 124.122 118.838 124.124 118.892 124.109C118.946 124.093 118.994 124.06 119.027 124.015C119.038 124 119.047 123.983 119.054 123.966C119.106 123.854 119.197 123.764 119.311 123.714C119.425 123.663 119.553 123.656 119.673 123.692C119.691 123.698 119.71 123.702 119.73 123.703C119.785 123.707 119.84 123.692 119.886 123.663C119.932 123.633 119.968 123.59 119.987 123.539C120.006 123.488 120.008 123.432 119.992 123.38C119.976 123.328 119.944 123.283 119.9 123.25C119.884 123.237 119.867 123.225 119.848 123.216Z" fill="#4D8AF0"/>
<path opacity="0.5" d="M10.8355 115.971C11.2969 115.971 11.6709 115.604 11.6709 115.15C11.6709 114.697 11.2969 114.33 10.8355 114.33C10.374 114.33 10 114.697 10 115.15C10 115.604 10.374 115.971 10.8355 115.971Z" fill="#F55F44"/>
<path opacity="0.5" d="M105.103 34.5762C105.564 34.5762 105.938 34.2087 105.938 33.7554C105.938 33.3021 105.564 32.9346 105.103 32.9346C104.641 32.9346 104.267 33.3021 104.267 33.7554C104.267 34.2087 104.641 34.5762 105.103 34.5762Z" fill="#4D8AF0"/>
<path opacity="0.5" d="M24.481 36.2173C24.9424 36.2173 25.3164 35.8498 25.3164 35.3965C25.3164 34.9432 24.9424 34.5757 24.481 34.5757C24.0196 34.5757 23.6455 34.9432 23.6455 35.3965C23.6455 35.8498 24.0196 36.2173 24.481 36.2173Z" fill="#47E6B1"/>
<path opacity="0.5" d="M105.938 73.1533C106.399 73.1533 106.773 72.7858 106.773 72.3325C106.773 71.8792 106.399 71.5117 105.938 71.5117C105.477 71.5117 105.103 71.8792 105.103 72.3325C105.103 72.7858 105.477 73.1533 105.938 73.1533Z" fill="#F55F44"/>
</g>
<defs>
<linearGradient id="paint0_linear" x1="44.0816" y1="121.481" x2="82.3024" y2="28.9904" gradientUnits="userSpaceOnUse">
<stop stop-color="#808080" stop-opacity="0.25"/>
<stop offset="0.54" stop-color="#808080" stop-opacity="0.12"/>
<stop offset="1" stop-color="#808080" stop-opacity="0.1"/>
</linearGradient>
<linearGradient id="paint1_linear" x1="14720.3" y1="18758.4" x2="14720.3" y2="13379.5" gradientUnits="userSpaceOnUse">
<stop stop-color="#808080" stop-opacity="0.25"/>
<stop offset="0.54" stop-color="#808080" stop-opacity="0.12"/>
<stop offset="1" stop-color="#808080" stop-opacity="0.1"/>
</linearGradient>
<linearGradient id="paint2_linear" x1="16505" y1="11653.7" x2="16505" y2="6272.59" gradientUnits="userSpaceOnUse">
<stop stop-color="#808080" stop-opacity="0.25"/>
<stop offset="0.54" stop-color="#808080" stop-opacity="0.12"/>
<stop offset="1" stop-color="#808080" stop-opacity="0.1"/>
</linearGradient>
<linearGradient id="paint3_linear" x1="17468.1" y1="10859.3" x2="17468.1" y2="6182.9" gradientUnits="userSpaceOnUse">
<stop stop-color="#808080" stop-opacity="0.25"/>
<stop offset="0.54" stop-color="#808080" stop-opacity="0.12"/>
<stop offset="1" stop-color="#808080" stop-opacity="0.1"/>
</linearGradient>
<linearGradient id="paint4_linear" x1="-153173" y1="17852.4" x2="-153173" y2="13176" gradientUnits="userSpaceOnUse">
<stop stop-color="#808080" stop-opacity="0.25"/>
<stop offset="0.54" stop-color="#808080" stop-opacity="0.12"/>
<stop offset="1" stop-color="#808080" stop-opacity="0.1"/>
</linearGradient>
<clipPath id="clip0">
<rect width="110" height="100" fill="white" transform="translate(10 25)"/>
</clipPath>
</defs>
</svg>
