<svg width="1440" height="818" viewBox="0 0 1440 818" fill="none" xmlns="http://www.w3.org/2000/svg">
<mask id="mask0" mask-type="alpha" maskUnits="userSpaceOnUse" x="0" y="0" width="1440" height="818">
<rect width="1440" height="818" fill="#644BEC"/>
</mask>
<g mask="url(#mask0)">
<rect width="1440" height="818" fill="#FFF6E5"/>
<path opacity="0.1" d="M952.402 819.976L1199.89 1003.7M952.402 819.976L1044.19 816.689M952.402 819.976L1088.88 633.118M1199.89 1003.7L1228.99 909.581M1199.89 1003.7L1044.19 816.689M1228.99 909.581L1262.86 811.22M1228.99 909.581L1044.19 816.689M1262.86 811.22L1320.98 978.21L1480.73 740.266M1262.86 811.22L1044.19 816.689M1262.86 811.22L1480.73 740.266M1262.86 811.22L1395.5 613.546M1262.86 811.22L1088.88 633.118M1480.73 740.266L1441.68 464.333M1480.73 740.266L1718.64 687.033L1441.68 464.333M1480.73 740.266L1395.5 613.546M1441.68 464.333L1395.5 613.546M1441.68 464.333L1258.54 519.004L1088.88 633.118M1044.19 816.689L1088.88 633.118M1395.5 613.546L1088.88 633.118" stroke="#FC8E2D" stroke-width="5"/>
</g>
</svg>
