<svg width="674" height="517" viewBox="0 0 674 517" fill="none" xmlns="http://www.w3.org/2000/svg">
<path d="M471.916 88.3254C537.796 105.467 590.854 135.873 616.667 181.06C644.205 229.264 659.135 287.731 616.073 340.67C574.271 392.06 486.607 412.606 409.55 435.682C338.334 457.009 264.371 477.992 198.36 465.761C129.215 452.95 73.2527 418.734 56.7121 370.309C40.9689 324.218 83.4731 273.905 116.177 225.155C150.775 173.582 175.447 113.054 248.02 85.14C322.808 56.3738 403.381 70.4932 471.916 88.3254Z" fill="#8169FF"/>
<g clip-path="url(#clip0)" filter="url(#filter0_d)">
<path d="M349.477 383.02L187.178 382.217L171.052 343.861L228.076 339.663L218.137 297.609L330.923 282.784L222.921 244.711L232.462 242.413L406.126 271.143L396.562 336.773L382.892 372.841L349.477 383.02Z" fill="#48C95F"/>
<path d="M189.668 366.152C189.668 366.152 199.625 364.537 205.6 371.672C205.6 371.672 201.219 375.173 191.792 370.326L189.668 366.152Z" fill="#48C95F"/>
<path d="M188.625 365.994C188.625 365.994 182.271 373.923 185.4 382.751C185.4 382.751 190.578 380.65 191.142 369.946L188.625 365.994Z" fill="#48C95F"/>
<path d="M182.916 352.958C182.916 352.958 186.899 345.548 202.831 355.92C202.831 355.92 200.707 360.902 193.67 360.498C186.633 360.094 184.774 356.862 182.916 352.958Z" fill="#48C95F"/>
<path d="M181.887 352.424C181.887 352.424 173.622 351.463 172.821 370.648C172.821 370.648 178.06 371.749 181.782 365.681C185.505 359.613 183.978 356.209 181.887 352.424Z" fill="#48C95F"/>
<path d="M177.074 337.119C177.074 337.119 181.721 324.06 198.582 333.349C198.582 333.349 194.732 345.332 178.8 341.562L177.074 337.119Z" fill="#48C95F"/>
<path d="M171.896 317.597C171.896 317.597 180.659 304.403 196.192 316.635C196.192 316.635 190.749 329.022 173.224 322.29L171.896 317.597Z" fill="#48C95F"/>
<path d="M170.037 299.017C170.037 299.017 180.26 286.895 195.642 299.017C195.642 299.017 185.95 309.654 170.037 302.114V299.017Z" fill="#48C95F"/>
<path d="M168.444 280.971C168.444 280.971 178.8 268.316 193.537 280.298C193.537 280.298 181.854 291.473 168.444 283.933V280.971Z" fill="#48C95F"/>
<path d="M169.373 264.95C169.373 264.95 180.279 248.659 194.068 259.699C194.068 259.699 182.385 273.701 169.373 268.046V264.95Z" fill="#48C95F"/>
<path d="M171.896 246.236C171.896 246.236 183.447 230.079 196.856 242.466C196.856 242.466 183.181 256.468 171.896 249.198V246.236Z" fill="#48C95F"/>
<path d="M175.746 229.507C175.746 229.507 189.421 214.322 201.351 220.371C201.351 220.371 187.103 236.499 175.149 233.537L175.746 229.507Z" fill="#48C95F"/>
<path d="M180.526 213.649C180.526 213.649 196.306 195.05 205.486 201.263C205.486 201.263 193.859 215.688 179.407 217.13L180.526 213.649Z" fill="#48C95F"/>
<path d="M187.425 195.257C187.425 195.257 201.238 180.072 211.328 183.842C211.328 183.842 199.512 199.594 185.571 199.998L187.425 195.257Z" fill="#48C95F"/>
<path d="M193.67 178.052C193.67 178.052 208.938 163.512 215.576 166.07C215.576 166.07 204.557 182.226 193.006 181.284L193.67 178.052Z" fill="#48C95F"/>
<path d="M199.777 162.165C199.777 162.165 212.921 144.793 220.095 146.139C220.095 146.139 212.125 161.627 199.777 163.93V162.165Z" fill="#48C95F"/>
<path d="M206.406 140.744C206.406 140.744 218.023 127.43 224.301 127.458C224.301 127.458 215.131 145.249 205.927 145.086L206.406 140.744Z" fill="#48C95F"/>
<path d="M210.332 126.482L221.556 98.7474C221.556 98.7474 222.115 123.818 208.905 131.627L210.332 126.482Z" fill="#48C95F"/>
<path d="M214.889 95.896C214.889 95.896 216.748 72.734 215.553 70.8491C215.553 70.8491 223.576 90.1067 214.813 106.128L214.889 95.896Z" fill="#48C95F"/>
<path d="M176.638 336.811C176.638 336.811 165.002 329.498 157.467 347.39C157.467 347.39 167.823 354.362 178.008 341.375L176.638 336.811Z" fill="#48C95F"/>
<path d="M171.521 316.852C171.521 316.852 157.249 310.25 150.326 328.93C150.326 328.93 161.35 336.624 172.821 321.574L171.521 316.852Z" fill="#48C95F"/>
<path d="M169.373 300.128C169.373 300.128 159.15 288.006 143.768 300.128C143.768 300.128 153.46 310.764 169.373 303.225V300.128Z" fill="#48C95F"/>
<path d="M168.093 280.971C168.093 280.971 157.737 268.316 143 280.298C143 280.298 154.684 291.473 168.093 283.933V280.971Z" fill="#48C95F"/>
<path d="M169.373 265.411C169.373 265.411 162.109 247.164 146.319 255.011C146.319 255.011 154.854 271.191 168.728 268.441L169.373 265.411Z" fill="#48C95F"/>
<path d="M172.811 246.144C172.811 246.144 165.59 227.579 149.577 236.186C149.577 236.186 159.383 253.203 172.1 249.01L172.811 246.144Z" fill="#48C95F"/>
<path d="M177.287 229.598C177.287 229.598 174.442 209.245 161.165 207.422C161.165 207.422 163.982 228.887 175.5 233.267L177.287 229.598Z" fill="#48C95F"/>
<path d="M180.862 213.687C180.862 213.687 179.753 189.165 168.776 188.309C168.776 188.309 169.146 206.922 179.625 217.159L180.862 213.687Z" fill="#48C95F"/>
<path d="M188.563 194.569C188.563 194.569 185.291 174.177 174.812 171.686C174.812 171.686 176.111 191.434 187.525 199.575L188.563 194.569Z" fill="#48C95F"/>
<path d="M194.912 178.221C194.912 178.221 194.803 156.977 188.402 153.857C188.402 153.857 184.433 173.09 193.058 180.933L194.912 178.221Z" fill="#48C95F"/>
<path d="M200.266 161.925C200.266 161.925 199.369 140.052 192.74 136.969C192.74 136.969 190.474 154.28 199.275 163.358L200.266 161.925Z" fill="#48C95F"/>
<path d="M207.331 142.489C207.331 142.489 207.293 124.698 202.561 120.525C202.561 120.525 197.857 140.013 204.86 146.067L207.331 142.489Z" fill="#48C95F"/>
<path d="M209.777 125.607L205.173 95.997C205.173 95.997 198.919 120.26 209.995 130.954L209.777 125.607Z" fill="#48C95F"/>
<path d="M210.674 96.1749C210.674 96.1749 198.857 76.2682 199.099 74.0563C199.099 74.0563 200.356 94.9199 215.221 105.311L210.674 96.1749Z" fill="#48C95F"/>
<path d="M212.058 90.2943C212.058 90.2943 200.906 62.0209 195.861 59.7321C195.861 59.7321 211.793 67.9448 212.988 89.4864L212.058 90.2943Z" fill="#48C95F"/>
<path d="M205.87 145.254L205.107 145.019C214.519 113.894 216.866 94.0496 211.721 89.0729L212.267 88.4863C217.724 93.7371 215.51 113.365 205.87 145.254Z" fill="#444053"/>
<path d="M179.952 218.13L178.824 217.722C179.824 214.87 180.9 211.976 182.029 209.124C191.854 184.294 200.218 161.194 205.581 143.461L206.563 142.98C201.19 160.747 192.973 184.731 183.139 209.596C182.015 212.394 180.943 215.274 179.952 218.13Z" fill="#444053"/>
<path d="M203.699 389.444C203.547 389.276 188.293 371.855 177.657 342.115C171.425 324.704 167.957 306.4 167.382 287.886C166.652 264.743 171.441 238.903 179.644 215.428L180.535 216.486C162.119 269.172 169.435 314.318 179.141 341.504C189.663 370.975 204.746 388.204 204.893 388.377L203.699 389.444Z" fill="#444053"/>
<path d="M442.073 352.458C442.073 352.458 431.324 365.763 439.859 385.876L354.034 423.622L345.798 425.373L342.004 408.543L344.541 387.304V375.697L442.073 352.458Z" fill="#D5D6DB"/>
<path d="M171.052 343.861L289.841 321.901L447.242 347.327L349.477 383.02L171.052 343.861Z" fill="#48C95F"/>
<path d="M171.052 343.861L289.841 321.901L447.242 347.327L349.477 383.02L171.052 343.861Z" fill="#48C95F"/>
<path d="M171.052 343.856C171.052 343.856 159.942 365.2 172.745 384.915L348.899 423.622C348.899 423.622 337.964 406.62 349.463 383.02L171.052 343.856Z" fill="#48C95F"/>
<path opacity="0.1" d="M171.052 343.856C171.052 343.856 159.942 365.2 172.745 384.915L348.899 423.622C348.899 423.622 337.964 406.62 349.463 383.02L171.052 343.856Z" fill="black"/>
<path opacity="0.1" d="M176.301 351.256C176.301 351.256 169.952 366.874 176.301 376.981V351.256Z" fill="black"/>
<path d="M348.899 423.622L447.242 381.068C447.242 381.068 452.742 382.27 449.186 386.357C445.63 390.444 350.796 427.709 350.796 427.709L172.745 384.915L348.899 423.622Z" fill="#48C95F"/>
<path opacity="0.1" d="M348.899 423.622L447.242 381.068C447.242 381.068 452.742 382.27 449.186 386.357C445.63 390.444 350.796 427.709 350.796 427.709L172.745 384.915L348.899 423.622Z" fill="black"/>
<path opacity="0.1" d="M340.838 387.319C340.838 387.319 331.355 398.859 340.838 416.169V387.319Z" fill="black"/>
<path opacity="0.1" d="M386.751 387.124L344.213 401.515L344.363 401.971L386.901 387.58L386.751 387.124Z" fill="black"/>
<path opacity="0.1" d="M395.271 385.692L344.2 405.385L344.368 405.835L395.439 386.141L395.271 385.692Z" fill="black"/>
<path opacity="0.1" d="M403.095 385.623L344.485 409.95L344.664 410.395L403.275 386.068L403.095 385.623Z" fill="black"/>
<path opacity="0.1" d="M411.604 383.539L345.169 413.972L345.364 414.41L411.799 383.978L411.604 383.539Z" fill="black"/>
<path opacity="0.1" d="M418.752 383.549L345.695 415.932L345.885 416.372L418.942 383.99L418.752 383.549Z" fill="black"/>
<path opacity="0.1" d="M434.388 380.857L346.796 419.22L346.984 419.662L434.576 381.298L434.388 380.857Z" fill="black"/>
<path opacity="0.3" d="M215.183 346.207L298.637 328.416L349.477 338.273L281.093 360.632L215.183 346.207Z" fill="white"/>
<path d="M447.242 347.327C447.242 347.327 451.557 349.092 449.025 351.818C446.493 354.545 349.463 383.02 349.463 383.02L447.242 347.327Z" fill="#48C95F"/>
<path d="M489.154 306.211C489.154 306.211 478.409 319.511 486.944 339.629L401.119 377.375L392.883 379.135L389.089 362.306L391.664 341.072V329.45L489.154 306.211Z" fill="#D5D6DB"/>
<path d="M218.137 297.608L336.921 275.653L494.327 301.08L396.562 336.773L218.137 297.608Z" fill="#3A3768"/>
<path d="M218.118 297.609C218.118 297.609 207.003 318.953 219.806 338.667L395.96 377.375C395.96 377.375 385.031 360.358 396.543 336.768L218.118 297.609Z" fill="#3A3768"/>
<path opacity="0.1" d="M218.118 297.609C218.118 297.609 207.003 318.953 219.806 338.667L395.96 377.375C395.96 377.375 385.031 360.358 396.543 336.768L340.838 324.54L218.118 297.609Z" fill="black"/>
<path opacity="0.1" d="M223.381 305.009C223.381 305.009 217.037 320.622 223.381 330.734V305.009Z" fill="black"/>
<path d="M395.979 377.375L494.327 334.821C494.327 334.821 499.822 336.023 496.266 340.11C492.71 344.197 397.876 381.462 397.876 381.462L219.825 338.667L395.979 377.375Z" fill="#3A3768"/>
<path opacity="0.1" d="M395.979 377.375L494.327 334.821C494.327 334.821 499.822 336.023 496.266 340.11C492.71 344.197 397.876 381.462 397.876 381.462L219.825 338.667L395.979 377.375Z" fill="black"/>
<path opacity="0.1" d="M387.918 341.072C387.918 341.072 378.435 352.612 387.918 369.922V341.072Z" fill="black"/>
<path opacity="0.1" d="M433.835 340.882L391.297 355.273L391.447 355.729L433.985 341.338L433.835 340.882Z" fill="black"/>
<path opacity="0.1" d="M442.36 339.447L391.29 359.141L391.458 359.59L442.529 339.897L442.36 339.447Z" fill="black"/>
<path opacity="0.1" d="M450.178 339.372L391.568 363.699L391.747 364.144L450.358 339.817L450.178 339.372Z" fill="black"/>
<path opacity="0.1" d="M458.692 337.289L392.257 367.722L392.453 368.16L458.888 337.728L458.692 337.289Z" fill="black"/>
<path opacity="0.1" d="M465.834 337.293L392.776 369.676L392.966 370.116L466.024 337.734L465.834 337.293Z" fill="black"/>
<path opacity="0.1" d="M481.473 334.6L393.882 372.964L394.07 373.406L481.661 335.042L481.473 334.6Z" fill="black"/>
<path opacity="0.45" d="M262.268 299.96L345.722 282.169L396.562 292.026L328.178 314.385L262.268 299.96Z" fill="white"/>
<path d="M494.327 301.08C494.327 301.08 498.637 302.845 496.11 305.566C493.582 308.288 396.562 336.768 396.562 336.768L494.327 301.08Z" fill="#3A3768"/>
<path d="M493.611 253.304C493.611 253.304 482.861 277.187 491.396 297.301L405.572 324.468L397.354 326.233L393.561 309.404L396.098 288.165V276.543L493.611 253.304Z" fill="#D5D6DB"/>
<path d="M222.608 244.706L341.397 222.747L498.803 248.173L401.034 283.866L222.608 244.706Z" fill="#48C95F"/>
<path d="M222.608 244.702C222.608 244.702 211.48 266.046 224.282 285.761L400.436 324.468C400.436 324.468 389.502 307.451 401.015 283.866L222.608 244.702Z" fill="#48C95F"/>
<path opacity="0.1" d="M222.608 244.702C222.608 244.702 211.48 266.046 224.282 285.761L400.436 324.468C400.436 324.468 389.502 307.451 401.015 283.866L222.608 244.702Z" fill="black"/>
<path opacity="0.1" d="M227.857 252.102C227.857 252.102 221.508 267.719 227.857 277.827V252.102Z" fill="black"/>
<path d="M400.455 324.468L498.798 292.492C498.798 292.492 504.299 293.694 500.742 297.782C497.186 301.869 402.352 328.555 402.352 328.555L224.301 285.761L400.455 324.468Z" fill="#48C95F"/>
<path opacity="0.1" d="M400.455 324.468L498.798 292.492C498.798 292.492 504.299 293.694 500.742 297.782C497.186 301.869 402.352 328.555 402.352 328.555L224.301 285.761L400.455 324.468Z" fill="black"/>
<path opacity="0.1" d="M392.394 288.165C392.394 288.165 382.911 299.705 392.394 317.015V288.165Z" fill="black"/>
<path opacity="0.1" d="M438.312 287.974L395.775 302.365L395.925 302.821L438.462 288.43L438.312 287.974Z" fill="black"/>
<path opacity="0.1" d="M446.835 286.542L395.764 306.235L395.932 306.685L447.003 286.991L446.835 286.542Z" fill="black"/>
<path opacity="0.1" d="M454.648 286.469L396.038 310.796L396.217 311.241L454.828 286.914L454.648 286.469Z" fill="black"/>
<path opacity="0.1" d="M463.169 284.382L396.734 314.815L396.929 315.253L463.364 284.82L463.169 284.382Z" fill="black"/>
<path opacity="0.1" d="M470.313 284.39L397.255 316.773L397.445 317.214L470.503 284.831L470.313 284.39Z" fill="black"/>
<path opacity="0.1" d="M485.951 281.701L398.359 320.065L398.547 320.506L486.139 282.142L485.951 281.701Z" fill="black"/>
<path opacity="0.3" d="M266.739 247.053L350.193 229.262L401.034 239.119L332.649 261.478L266.739 247.053Z" fill="white"/>
<path d="M498.798 248.173C498.798 248.173 503.113 249.938 500.581 252.664C498.049 255.391 401.034 283.866 401.034 283.866L498.798 248.173Z" fill="#48C95F"/>
<path d="M290.192 102.209C290.192 102.209 272.173 101.108 274.279 113.928C274.279 113.928 273.857 116.192 275.881 117.221C275.881 117.221 275.915 116.26 277.731 116.591C278.379 116.704 279.038 116.737 279.694 116.688C280.578 116.626 281.418 116.275 282.088 115.687C282.088 115.687 287.157 113.562 289.13 105.157C289.13 105.157 290.59 103.325 290.552 102.854L287.499 104.171C287.499 104.171 288.537 106.398 287.721 108.249C287.721 108.249 287.622 104.253 287.034 104.344C286.915 104.344 285.455 105.119 285.455 105.119C285.455 105.119 287.243 108.999 285.891 111.817C285.891 111.817 286.403 107.037 284.895 105.397L282.752 106.667C282.752 106.667 284.843 110.672 283.425 113.942C283.425 113.942 283.791 108.927 282.302 106.975L280.358 108.513C280.358 108.513 282.325 112.461 281.126 115.173C281.126 115.173 280.969 109.336 279.94 108.893C279.94 108.893 278.238 110.413 277.982 111.038C277.982 111.038 279.329 113.923 278.489 115.418C278.489 115.418 277.982 111.528 277.541 111.509C277.541 111.509 275.848 114.086 275.673 115.836C275.755 114.205 276.257 112.623 277.129 111.249C276.153 111.436 275.253 111.91 274.54 112.61C274.54 112.61 274.8 110.788 277.551 110.629C277.551 110.629 278.949 108.672 279.324 108.557C279.324 108.557 276.588 108.321 274.933 109.066C274.933 109.066 276.394 107.35 279.822 108.105L281.718 106.518C281.718 106.518 278.124 106.037 276.597 106.571C276.597 106.571 278.357 105.051 282.235 106.157L284.326 104.893C284.326 104.893 281.259 104.224 279.433 104.465C279.433 104.465 281.358 103.412 284.938 104.551L286.427 103.873C286.427 103.873 284.184 103.426 283.525 103.354C282.866 103.282 282.833 103.099 282.833 103.099C284.256 102.862 285.717 103.028 287.053 103.58C287.053 103.58 290.254 102.411 290.192 102.209Z" fill="#48C95F"/>
<path opacity="0.1" d="M543.683 154.9C543.683 154.9 525.665 153.799 527.77 166.618C527.77 166.618 527.348 168.883 529.373 169.912C529.373 169.912 529.406 168.95 531.222 169.282C531.87 169.392 532.529 169.424 533.185 169.378C534.061 169.313 534.893 168.962 535.556 168.378C535.556 168.378 540.629 166.253 542.597 157.848C542.597 157.848 544.058 156.015 544.02 155.544L540.976 156.862C540.976 156.862 542.014 159.088 541.198 160.939C541.198 160.939 541.099 156.944 540.516 157.035C540.397 157.035 538.932 157.809 538.932 157.809C538.932 157.809 540.72 161.689 539.373 164.507C539.373 164.507 539.885 159.728 538.372 158.088L536.229 159.357C536.229 159.357 538.32 163.363 536.902 166.632C536.902 166.632 537.268 161.617 535.779 159.665L533.839 161.204C533.839 161.204 535.802 165.151 534.603 167.863C534.603 167.863 534.446 162.026 533.417 161.584C533.417 161.584 531.72 163.103 531.459 163.728C531.459 163.728 532.806 166.613 531.971 168.109C531.971 168.109 531.459 164.219 531.023 164.199C531.023 164.199 529.33 166.777 529.155 168.527C529.237 166.895 529.74 165.313 530.615 163.94C529.638 164.127 528.737 164.6 528.021 165.301C528.021 165.301 528.287 163.478 531.032 163.319C531.032 163.319 532.431 161.362 532.806 161.242C532.806 161.242 530.074 161.011 528.415 161.757C528.415 161.757 529.875 160.04 533.304 160.795L535.2 159.208C535.2 159.208 531.601 158.727 530.079 159.261C530.079 159.261 531.834 157.742 535.717 158.848L537.803 157.583C537.803 157.583 534.736 156.915 532.91 157.155C532.91 157.155 534.835 156.102 538.415 157.242L539.909 156.564C539.909 156.564 537.661 156.116 537.002 156.044C536.343 155.972 536.31 155.79 536.31 155.79C537.733 155.549 539.194 155.716 540.53 156.27C540.53 156.27 543.74 155.102 543.683 154.9Z" fill="#48C95F"/>
<path opacity="0.1" d="M320.539 181.404C320.539 181.404 312.686 164.897 302.691 173.032C302.691 173.032 300.534 173.763 300.638 176.057C300.638 176.057 301.468 175.619 302.06 177.389C302.282 178.014 302.575 178.611 302.933 179.168C303.418 179.922 304.132 180.496 304.967 180.803C304.967 180.803 309.268 184.255 317.466 181.899C317.466 181.899 319.756 182.298 320.131 182.019L317.514 179.966C317.514 179.966 316.091 181.971 314.109 182.149C314.109 182.149 317.504 180.115 317.139 179.644C317.063 179.548 315.716 178.62 315.716 178.62C315.716 178.62 313.246 182.096 310.164 182.274C310.164 182.274 314.526 180.399 315.2 178.259L313.066 176.98C313.066 176.98 310.633 180.788 307.129 181.125C307.129 181.125 311.624 179.004 312.577 176.735L310.311 175.773C310.311 175.773 307.869 179.437 304.948 179.702C304.948 179.702 309.898 176.716 309.775 175.586C309.775 175.586 307.637 174.826 306.973 174.898C306.973 174.898 305.161 177.49 303.454 177.49C303.454 177.49 306.551 175.139 306.361 174.759C306.361 174.759 303.317 174.518 301.714 175.239C303.158 174.512 304.765 174.18 306.375 174.278C305.737 173.506 304.89 172.939 303.938 172.648C303.938 172.648 305.636 171.994 307.11 174.345C307.11 174.345 309.481 174.629 309.761 174.903C309.761 174.903 308.628 172.374 307.181 171.273C307.181 171.273 309.372 171.72 310.373 175.119L312.672 176.043C312.672 176.043 311.349 172.619 310.131 171.537C310.131 171.537 312.293 172.35 313.237 176.345L315.342 177.576C315.342 177.576 314.427 174.533 313.327 173.037C313.327 173.037 315.171 174.23 315.935 177.951L317.248 178.942C317.248 178.942 316.537 176.735 316.3 176.119C316.063 175.504 316.181 175.379 316.181 175.379C317.083 176.521 317.654 177.894 317.831 179.346C317.831 179.346 320.368 181.548 320.539 181.404Z" fill="#48C95F"/>
<path opacity="0.1" d="M502.516 131.579C502.516 131.579 494.668 115.072 484.668 123.208C484.668 123.208 482.515 123.939 482.615 126.232C482.615 126.232 483.449 125.799 484.037 127.564C484.258 128.192 484.553 128.791 484.915 129.348C485.398 130.101 486.111 130.673 486.944 130.978C486.944 130.978 491.249 134.431 499.443 132.079C499.443 132.079 501.733 132.474 502.113 132.195L499.509 130.137C499.509 130.137 498.087 132.147 496.11 132.324C496.11 132.324 499.5 130.286 499.135 129.815C499.059 129.718 497.712 128.79 497.712 128.79C497.712 128.79 495.247 132.267 492.16 132.445C492.16 132.445 496.527 130.569 497.2 128.434L495.033 127.165C495.033 127.165 492.606 130.969 489.097 131.31C489.097 131.31 493.592 129.185 494.55 126.915L492.278 125.953C492.278 125.953 489.836 129.622 486.92 129.882C486.92 129.882 491.866 126.896 491.743 125.771C491.743 125.771 489.609 125.006 488.945 125.083C488.945 125.083 487.134 127.67 485.422 127.67C485.422 127.67 488.523 125.319 488.333 124.939C488.333 124.939 485.289 124.698 483.682 125.42C485.126 124.692 486.733 124.36 488.343 124.458C487.706 123.685 486.861 123.118 485.91 122.828C485.91 122.828 487.608 122.174 489.082 124.525C489.082 124.525 491.453 124.814 491.733 125.088C491.733 125.088 490.6 122.554 489.149 121.453C489.149 121.453 491.34 121.905 492.34 125.323L494.644 126.247C494.644 126.247 493.322 122.818 492.103 121.736C492.103 121.736 494.265 122.549 495.204 126.545L497.314 127.776C497.314 127.776 496.394 124.737 495.294 123.237C495.294 123.237 497.143 124.429 497.902 128.151L499.215 129.141C499.215 129.141 498.509 126.934 498.267 126.319C498.025 125.703 498.149 125.583 498.149 125.583C499.048 126.726 499.618 128.099 499.794 129.55C499.794 129.55 502.369 131.733 502.516 131.579Z" fill="#48C95F"/>
<path opacity="0.1" d="M527.595 213.231C527.595 213.231 519.747 196.719 509.733 204.854C509.733 204.854 507.58 205.585 507.679 207.879C507.679 207.879 508.514 207.446 509.102 209.211C509.321 209.839 509.614 210.438 509.974 210.995C510.458 211.748 511.17 212.32 512.004 212.625C512.004 212.625 516.309 216.082 524.508 213.726C524.508 213.726 526.793 214.125 527.173 213.841L524.555 211.788C524.555 211.788 523.133 213.798 521.151 213.976C521.151 213.976 524.541 211.937 524.176 211.466C524.1 211.37 522.753 210.442 522.753 210.442C522.753 210.442 520.288 213.918 517.201 214.101C517.201 214.101 521.568 212.221 522.241 210.086L520.103 208.807C520.103 208.807 517.675 212.615 514.166 212.952C514.166 212.952 518.661 210.826 519.619 208.557L517.348 207.595C517.348 207.595 514.906 211.259 511.99 211.524C511.99 211.524 516.94 208.538 516.817 207.408C516.817 207.408 514.678 206.643 514.014 206.72C514.014 206.72 512.203 209.307 510.491 209.307C510.491 209.307 513.592 206.956 513.403 206.576C513.403 206.576 510.358 206.335 508.751 207.057C510.197 206.329 511.805 205.997 513.417 206.095C512.78 205.321 511.932 204.754 510.98 204.465C510.98 204.465 512.677 203.806 514.152 206.162C514.152 206.162 516.523 206.446 516.802 206.72C516.802 206.72 515.669 204.191 514.223 203.085C514.223 203.085 516.414 203.537 517.414 206.956L519.714 207.879C519.714 207.879 518.391 204.451 517.172 203.373C517.172 203.373 519.334 204.181 520.273 208.182L522.383 209.408C522.383 209.408 521.464 206.369 520.363 204.869C520.363 204.869 522.213 206.061 522.976 209.788L524.29 210.75C524.29 210.75 523.578 208.542 523.341 207.927C523.104 207.312 523.223 207.191 523.223 207.191C524.124 208.333 524.694 209.706 524.868 211.158C524.868 211.158 527.448 213.375 527.595 213.231Z" fill="#48C95F"/>
<path opacity="0.1" d="M238.759 428.056C244.779 428.056 249.66 427.502 249.66 426.82C249.66 426.137 244.779 425.584 238.759 425.584C232.738 425.584 227.857 426.137 227.857 426.82C227.857 427.502 232.738 428.056 238.759 428.056Z" fill="#48C95F"/>
<path opacity="0.1" d="M167.296 407.053C173.317 407.053 178.198 406.499 178.198 405.817C178.198 405.134 173.317 404.581 167.296 404.581C161.276 404.581 156.395 405.134 156.395 405.817C156.395 406.499 161.276 407.053 167.296 407.053Z" fill="#48C95F"/>
<path opacity="0.1" d="M293.231 442.005C299.252 442.005 304.132 441.452 304.132 440.769C304.132 440.087 299.252 439.533 293.231 439.533C287.211 439.533 282.33 440.087 282.33 440.769C282.33 441.452 287.211 442.005 293.231 442.005Z" fill="#48C95F"/>
<path opacity="0.1" d="M572.375 411.621C578.396 411.621 583.276 411.067 583.276 410.385C583.276 409.702 578.396 409.149 572.375 409.149C566.355 409.149 561.474 409.702 561.474 410.385C561.474 411.067 566.355 411.621 572.375 411.621Z" fill="#48C95F"/>
<path opacity="0.1" d="M481.662 405.624C487.682 405.624 492.563 405.071 492.563 404.389C492.563 403.706 487.682 403.153 481.662 403.153C475.641 403.153 470.76 403.706 470.76 404.389C470.76 405.071 475.641 405.624 481.662 405.624Z" fill="#48C95F"/>
<path opacity="0.1" d="M422.978 434.869C430.099 434.869 435.871 433.864 435.871 432.624C435.871 431.383 430.099 430.378 422.978 430.378C415.858 430.378 410.086 431.383 410.086 432.624C410.086 433.864 415.858 434.869 422.978 434.869Z" fill="#48C95F"/>
<path d="M428.73 410.053C428.73 410.053 410.778 419.458 420.053 430.537C420.053 430.537 420.925 432.941 423.448 432.773C423.448 432.773 422.945 431.84 424.87 431.095C425.555 430.826 426.206 430.476 426.81 430.051C427.625 429.48 428.234 428.654 428.545 427.7C428.545 427.7 432.215 422.718 429.37 413.501C429.37 413.501 429.74 410.894 429.418 410.471L427.236 413.505C427.236 413.505 429.489 415.039 429.75 417.294C429.75 417.294 427.379 413.51 426.905 413.929C426.8 414.015 425.823 415.587 425.823 415.587C425.823 415.587 429.731 418.275 430.02 421.766C430.02 421.766 427.82 416.876 425.444 416.179L424.083 418.641C424.083 418.641 428.351 421.276 428.825 425.238C428.825 425.238 426.345 420.213 423.813 419.199L422.812 421.8C422.812 421.8 426.928 424.454 427.308 427.753C427.308 427.753 423.865 422.237 422.628 422.411C422.628 422.411 421.85 424.853 421.954 425.608C421.954 425.608 424.861 427.58 424.913 429.517C424.913 429.517 422.229 426.079 421.817 426.305C421.817 426.305 421.646 429.763 422.471 431.561C422.471 431.561 421.049 428.993 421.281 426.305C420.449 427.051 419.851 428.027 419.56 429.114C419.56 429.114 418.787 427.214 421.333 425.464C421.333 425.464 421.575 422.776 421.869 422.444C421.869 422.444 419.114 423.81 417.943 425.483C417.943 425.483 418.374 422.988 422.111 421.747L423.059 419.112C423.059 419.112 419.323 420.718 418.17 422.132C418.17 422.132 419 419.655 423.353 418.468L424.643 416.064C424.643 416.064 421.324 417.198 419.702 418.468C419.702 418.468 420.958 416.338 425.041 415.357L426.089 413.842C426.089 413.842 423.68 414.712 423.007 415.025C422.334 415.337 422.201 415.184 422.201 415.184C423.432 414.128 424.927 413.439 426.52 413.193C426.52 413.193 428.896 410.216 428.73 410.053Z" fill="#48C95F"/>
<path d="M482.013 232.416C478.912 223.872 461.841 223.069 454.435 225.247C449.172 226.8 438.076 228.55 432.149 229.43L431.765 229.06C432.533 228.829 432.552 228.262 432.457 227.42C432.402 226.311 432.418 225.2 432.505 224.093C436.137 225.237 439.37 222.53 439.37 222.53C443.638 220.607 442.491 212.375 443.306 210.124C443.918 208.441 444.577 198.527 444.871 193.584H444.933L444.966 191.925C445.008 191.208 445.027 190.79 445.027 190.79C445.027 190.79 445.445 178.702 446.26 176.254C447.019 174.004 447.635 162.666 447.73 160.867C447.73 160.713 447.73 160.632 447.73 160.632L447.668 159.583C447.711 158.819 447.73 157.968 447.725 157.073C447.725 152.962 447.303 147.784 447.251 146.947C447.251 146.827 447.251 146.682 447.251 146.509C447.284 144.754 447.066 135.964 439.693 132.642C436.976 131.411 433.709 129.944 430.546 128.516C429.731 121.376 427.867 114.274 428.028 107.08C428.028 105.999 428.123 104.917 428.227 103.84C428.227 104.152 428.194 104.469 428.19 104.801C428.19 105.498 428.19 106.2 428.19 106.898C428.469 97.9012 431.822 88.8566 431.509 80.0524C431.48 80.9131 431.419 81.7786 431.338 82.6441C431.502 79.6662 431.194 76.6809 430.428 73.8014C430.143 72.7869 429.759 71.7386 428.939 71.0607C428.163 70.5146 427.274 70.1575 426.34 70.0172C424.097 69.4348 421.817 69.0043 419.517 68.7286C419.167 67.6437 418.649 66.6226 417.981 65.7041C413.173 59.0108 406.051 52.7214 397.629 51.2789C393.404 50.5576 388.544 51.1587 385.671 54.2216C385.371 54.4907 385.089 54.7799 384.827 55.0871C383.281 56.9576 382.617 59.4147 381.033 61.2804C380.929 61.4054 380.81 61.5208 380.697 61.641C377.596 64.4539 372.764 65.0405 369.317 67.565C368.709 68.0181 368.14 68.5215 367.614 69.07C366.225 70.4658 364.98 72.0012 363.897 73.6524C362.346 75.8643 360.753 78.1675 360.26 80.8073C359.269 86.0965 362.82 91.1117 363.48 96.4346C364.95 108.345 351.953 118.914 354.413 130.666C355.07 133.553 356.52 136.192 358.596 138.277C353.527 142.932 349.212 147.447 349.212 147.447V147.716H348.41L348.491 148.678H348.41L348.851 153.895L348.41 161.492C348.41 161.492 348.41 161.574 348.41 161.728V161.766V161.973C348.41 161.973 348.41 162.055 348.41 162.209H348.439C348.586 164.993 349.169 175.004 349.861 177.115C350.677 179.562 351.09 191.651 351.09 191.651C351.09 191.651 351.99 208.735 352.816 210.995C353.641 213.255 352.469 221.463 356.751 223.4C358.004 224.375 359.487 224.998 361.052 225.208C360.834 227.007 360.971 228.31 361.678 228.719C361.98 228.899 362.323 228.998 362.673 229.007C362.383 229.444 362.125 229.902 361.901 230.377C360.201 230.197 358.531 229.798 356.931 229.19C352.332 227.266 337.068 222.939 332.635 225.983C328.201 229.026 317.533 231.786 322.459 244.038C327.386 256.29 329.681 256.598 329.681 256.598C331.197 257.714 332.528 259.07 333.621 260.613C335.101 262.868 348.885 268.027 352.332 268.027C353.797 268.004 355.262 268.078 356.718 268.248C356.718 268.248 352.977 271.576 353.475 273.509C353.972 275.442 352.337 290.915 352.337 290.915C352.337 290.915 356.13 294.791 357.752 289.708L357.808 289.785C358.112 290.204 359.753 292.093 362.839 289.708C364.103 288.736 365.445 287.874 366.851 287.131L381.797 284.986C383.355 284.888 384.917 284.876 386.477 284.953C388.848 285.15 391.176 283.727 392.641 282.626C395.737 283.818 399.218 285.121 400.873 285.597C404.23 286.559 419.659 290.757 423.268 289.444C424.018 289.141 424.685 288.66 425.212 288.04L428.654 288.15L427.042 288.477C427.042 288.477 430.181 288.53 434.449 288.588L434.268 288.694L439.622 288.646C447.455 288.718 456.256 288.742 457.413 288.477C459.224 288.069 468.636 288.357 471.41 288.477H472.183C472.183 288.477 482.525 286.386 478.257 275.745C474.976 267.57 464.89 265.195 460.414 264.541C461.675 264.286 462.761 264.089 463.482 263.974C466.607 263.493 472.676 260.608 473.169 259.622C473.662 258.636 478.75 255.775 480.064 254.145C481.377 252.515 485.128 240.961 482.013 232.416ZM396.354 256.328L395.846 256.497L395.505 256.612L394.851 257.266C394.329 256.91 393.77 256.535 393.186 256.15C394.215 256.213 395.273 256.275 396.354 256.328Z" fill="url(#paint0_linear)"/>
<path d="M426.587 205.629C426.587 205.629 433.842 224.862 437.967 222.939C442.092 221.015 440.973 212.841 441.76 210.6C442.547 208.36 443.42 191.367 443.42 191.367C443.42 191.367 443.818 179.346 444.605 176.913C445.336 174.677 445.928 163.401 446.028 161.627C446.028 161.473 446.028 161.391 446.028 161.391L445.245 147.447L440.817 146.327L430.546 150.173L429.124 158.41L428.569 161.627L428.332 162.997L426.587 205.629Z" fill="#FBBEBE"/>
<path opacity="0.1" d="M428.977 202.407C428.977 202.407 435.9 208.153 437.986 208.658C440.072 209.163 441.353 213.644 441.353 213.644" fill="black"/>
<path d="M369.852 206.47C369.852 206.47 362.598 225.704 358.472 223.78C354.347 221.857 355.466 213.683 354.679 211.442C353.892 209.201 353.019 192.208 353.019 192.208C353.019 192.208 352.621 180.187 351.834 177.754C351.104 175.518 350.511 164.243 350.411 162.468C350.411 162.314 350.411 162.233 350.411 162.233L351.199 148.288L355.627 147.168L365.898 151.015L367.32 159.252L367.875 162.468L368.112 163.839L369.852 206.47Z" fill="#FBBEBE"/>
<path d="M417.094 103.541H400.901V129.137H417.094V103.541Z" fill="#3E373A"/>
<path opacity="0.1" d="M417.094 103.541H400.901V129.137H417.094V103.541Z" fill="black"/>
<path d="M367.007 225.627C367.007 225.627 361.474 231.796 363.527 232.916C365.58 234.037 378.862 255.035 378.862 255.035C378.862 255.035 422.485 260.483 430.712 252.309C438.939 244.134 438.773 229.531 438.773 229.531C438.773 229.531 432.163 230.974 431.442 230.19C430.722 229.406 426.762 225.627 426.762 225.627C426.762 225.627 370.801 222.184 367.007 225.627Z" fill="#4B4B5B"/>
<path opacity="0.02" d="M367.007 225.627C367.007 225.627 361.474 231.796 363.527 232.916C365.58 234.037 378.862 255.035 378.862 255.035C378.862 255.035 385.905 255.915 394.865 256.437C408.204 257.214 425.791 257.198 430.712 252.309C438.939 244.134 438.773 229.531 438.773 229.531C438.773 229.531 432.163 230.974 431.442 230.19C430.722 229.406 426.762 225.627 426.762 225.627C426.762 225.627 370.801 222.184 367.007 225.627Z" fill="black"/>
<path d="M445.539 147.649L431.314 159.189L427.014 159.506L425.435 159.622L398.914 161.593L371.412 159.554L367.32 159.252L362.104 158.867L351.199 148.288C351.199 148.288 358.918 139.903 365.68 134.243C368.345 132.007 370.862 130.199 372.697 129.488L373.01 129.377C374.165 128.92 375.195 128.192 376.017 127.252C381.356 121.669 386.292 107.893 386.292 107.893C386.292 107.893 409.844 95.5547 406.999 111.74C404.154 127.925 417.587 123.924 417.587 123.924L422.016 125.973L423.766 126.785L428.227 128.858L438.294 133.541C446.194 137.229 445.539 147.649 445.539 147.649Z" fill="#FBBEBE"/>
<path opacity="0.1" d="M397.809 121.073C409.507 121.073 418.991 111.456 418.991 99.5937C418.991 87.7311 409.507 78.1146 397.809 78.1146C386.111 78.1146 376.628 87.7311 376.628 99.5937C376.628 111.456 386.111 121.073 397.809 121.073Z" fill="black"/>
<path opacity="0.1" d="M445.573 162.949H350.411C350.411 162.795 350.411 162.714 350.411 162.714L351.199 148.769C351.199 148.769 358.918 140.383 365.68 134.724L425.425 132.32L428.204 129.348L438.27 134.031C446.175 137.715 445.539 148.135 445.539 148.135C445.539 148.135 446.62 160.208 445.573 162.949Z" fill="black"/>
<path d="M445.573 162.468H350.411C350.411 162.314 350.411 162.233 350.411 162.233L351.199 148.288C351.199 148.288 358.918 139.903 365.68 134.243L425.425 131.839L428.204 128.867L438.27 133.551C446.175 137.234 445.539 147.654 445.539 147.654C445.539 147.654 446.62 159.728 445.573 162.468Z" fill="#E7C7CA"/>
<path opacity="0.1" d="M382.555 123.366C382.555 123.366 397.568 142.764 417.563 122.967C437.559 103.171 419.778 167.123 419.778 167.123L376.628 172.316L382.555 123.366Z" fill="black"/>
<path d="M382.555 124.328C382.555 124.328 397.568 143.725 417.563 123.929C437.559 104.133 419.778 168.085 419.778 168.085L376.628 173.278L382.555 124.328Z" fill="#E7C7CA"/>
<path opacity="0.1" d="M423.742 127.732L425.33 152.299L427.033 160.473L428.332 166.724C428.332 166.724 431.651 214.808 430.703 217.212C429.754 219.616 431.177 221.54 431.376 222.819C431.575 224.098 431.177 227.31 431.333 228.752C431.49 230.195 431.333 230.834 427.701 230.32C424.069 229.805 419.005 228.911 419.005 228.911C419.005 228.911 406.202 229.873 401.778 228.271C397.354 226.67 388.976 226.665 388.976 226.665C388.976 226.665 376.33 226.988 372.223 226.507C368.117 226.026 365.898 231.637 363.214 230.031C360.53 228.425 366.372 212.884 368.269 208.393C370.165 203.902 365.741 192.526 365.741 192.526L371.431 160.516L372.697 153.26V130.449L373.01 130.339C374.165 129.882 375.195 129.154 376.017 128.213L377.439 151.169L422.011 152.775V126.939" fill="black"/>
<path d="M423.742 126.771L425.33 151.337L427.033 159.511L428.332 165.762C428.332 165.762 431.651 213.846 430.703 216.25C429.754 218.655 431.177 220.578 431.376 221.857C431.575 223.136 431.177 226.348 431.333 227.791C431.49 229.233 431.333 229.873 427.701 229.358C424.069 228.844 419.005 227.949 419.005 227.949C419.005 227.949 406.202 228.911 401.778 227.31C397.354 225.708 388.976 225.704 388.976 225.704C388.976 225.704 376.33 226.026 372.223 225.545C368.117 225.064 365.898 230.676 363.214 229.07C360.53 227.464 366.372 211.923 368.269 207.432C370.165 202.941 365.741 191.564 365.741 191.564L371.431 159.554L372.697 152.299V129.488L373.01 129.377C374.165 128.921 375.195 128.192 376.017 127.252L377.439 150.207L422.011 151.813V125.977" fill="#E7C7CA"/>
<path opacity="0.1" d="M428.868 75.5036C428.597 74.4987 428.223 73.4552 427.445 72.7821C426.703 72.2414 425.845 71.8855 424.942 71.7434C422.779 71.1667 420.58 70.7394 418.36 70.4644C418.043 69.3967 417.563 68.3859 416.938 67.4688C412.291 60.8139 405.415 54.539 397.326 53.1205C393.091 52.3752 388.184 53.0436 385.472 56.4287C383.983 58.2895 383.343 60.7562 381.839 62.5834C378.942 66.132 373.712 66.5696 370.061 69.3152C368.112 70.7577 366.699 72.8494 365.319 74.8785C363.826 77.076 362.289 79.3648 361.815 81.9901C360.867 87.2361 364.286 92.2368 364.916 97.5309C366.339 109.374 353.821 119.88 356.187 131.565C357.567 138.378 363.774 143.177 370.194 145.61C372.456 146.471 375.04 147.327 376.097 149.529C376.571 150.491 376.652 151.601 377.098 152.573C378.596 155.814 383.523 155.939 386.169 153.578C388.814 151.217 389.649 147.399 389.962 143.836C391.233 128.276 385.087 112.903 385.803 97.3049C386.017 92.5879 387.326 87.2361 391.494 85.1012C397.103 82.2161 403.85 87.0245 410.024 86.1061C412.946 93.3146 413.566 101.27 411.798 108.855C410.816 113.004 409.118 117.029 408.995 121.308C408.81 127.824 412.276 133.777 415.273 139.537C415.916 140.614 416.346 141.808 416.539 143.052C416.586 144.314 416.355 145.571 415.861 146.73C414.168 151.351 411.247 155.64 410.916 160.559C410.818 161.134 410.946 161.724 411.271 162.204C411.605 162.524 412.036 162.721 412.495 162.762C417.616 163.651 422.044 159.05 424.543 154.429C427.329 149.325 428.953 143.653 429.294 137.83C429.811 128.04 426.35 118.409 426.563 108.609C426.81 97.4684 431.774 86.2504 428.868 75.5036Z" fill="black"/>
<path d="M429.342 75.0228C429.072 74.0178 428.697 72.9744 427.919 72.3012C427.177 71.7605 426.319 71.4047 425.416 71.2626C423.253 70.6859 421.054 70.2586 418.834 69.9836C418.517 68.9159 418.037 67.9051 417.412 66.9879C412.765 60.3331 405.889 54.0581 397.8 52.6397C393.566 51.8944 388.658 52.5627 385.946 55.9478C384.457 57.8087 383.817 60.2754 382.314 62.1026C379.416 65.6512 374.186 66.0888 370.535 68.8344C368.586 70.2769 367.173 72.3685 365.794 74.3977C364.3 76.5951 362.764 78.8839 362.289 81.5093C361.341 86.7553 364.76 91.756 365.39 97.0501C366.813 108.893 354.295 119.4 356.661 131.084C358.041 137.897 364.248 142.696 370.668 145.129C372.93 145.99 375.514 146.846 376.571 149.048C377.046 150.01 377.126 151.121 377.572 152.092C379.07 155.333 383.997 155.458 386.643 153.097C389.289 150.736 390.123 146.918 390.436 143.355C391.707 127.795 385.562 112.423 386.278 96.8241C386.491 92.107 387.8 86.7553 391.968 84.6203C397.577 81.7353 404.325 86.5437 410.498 85.6253C413.42 92.8338 414.04 100.789 412.272 108.374C411.29 112.523 409.593 116.548 409.469 120.828C409.284 127.343 412.751 133.296 415.747 139.056C416.39 140.133 416.82 141.327 417.013 142.571C417.061 143.833 416.829 145.09 416.335 146.25C414.643 150.87 411.722 155.16 411.39 160.079C411.292 160.653 411.42 161.243 411.745 161.723C412.079 162.044 412.511 162.24 412.969 162.281C418.09 163.17 422.518 158.569 425.017 153.948C427.803 148.844 429.427 143.172 429.769 137.349C430.285 127.559 426.824 117.928 427.037 108.129C427.284 96.9875 432.248 85.7696 429.342 75.0228Z" fill="#3E373A"/>
<path d="M418.867 287.924L437.678 288.535L434.98 274.389L420.57 275.778L418.867 287.924Z" fill="#C3C7D9"/>
<path d="M477.152 254.395C475.886 255.997 470.988 258.882 470.514 259.843C470.04 260.805 464.193 263.69 461.187 264.171C458.181 264.652 448.702 266.739 446.962 267.859C445.715 268.667 435.705 271.225 429.128 272.643C427.347 273.071 425.544 273.4 423.728 273.629C420.883 273.788 389.749 263.051 389.749 263.051L395.752 256.8L396.084 256.684C397.781 256.102 405.624 253.414 409.977 252.135C414.88 250.693 420.57 244.764 420.57 244.764C420.57 244.764 428.943 241.879 430.053 241.557C431.163 241.235 427.208 230.339 427.208 230.339C427.208 230.339 445.383 227.781 452.496 225.612C459.608 223.444 476.048 224.247 479.049 232.743C482.051 241.24 478.437 252.794 477.152 254.395Z" fill="#4B4B5B"/>
<path d="M394.329 281.481C394.329 281.481 390.697 285.328 387.06 285.011C383.423 284.693 370.706 285.972 370.706 285.972C368.401 286.904 366.243 288.173 364.3 289.737C361.327 292.113 359.748 290.218 359.454 289.814L359.402 289.737C357.818 294.791 354.186 290.939 354.186 290.939C354.186 290.939 355.765 275.552 355.281 273.629C354.798 271.706 358.406 268.402 358.406 268.402L362.673 267.301L373.485 264.493L388.976 269.941L394.329 281.481Z" fill="#B9777C"/>
<path opacity="0.1" d="M362.655 267.301L359.454 289.814L359.402 289.737C357.818 294.791 354.186 290.939 354.186 290.939C354.186 290.939 355.765 275.552 355.281 273.629C354.798 271.706 358.406 268.402 358.406 268.402L362.655 267.301Z" fill="black"/>
<path opacity="0.1" d="M385.026 203.263C385.026 203.263 393.4 206.148 400.673 203.263H385.026Z" fill="black"/>
<path opacity="0.1" d="M413.614 208.716C413.614 208.716 417.089 210.475 419.778 208.716H413.614Z" fill="black"/>
<path opacity="0.1" d="M413.614 212.889C413.614 212.889 419.46 213.683 420.57 212.081L413.614 212.889Z" fill="black"/>
<path opacity="0.1" d="M411.717 221.857C411.717 221.857 422.699 220.414 425.425 218.491L411.717 221.857Z" fill="black"/>
<path opacity="0.1" d="M378.207 218.491C378.207 218.491 384.371 222.016 388.957 221.857L378.207 218.491Z" fill="black"/>
<path opacity="0.1" d="M429.124 272.643C427.342 273.071 425.539 273.4 423.723 273.629C420.878 273.788 389.744 263.051 389.744 263.051L395.747 256.8L396.079 256.684C397.027 257.362 397.805 257.944 398.36 258.386C400.972 260.473 403.495 257.747 404.443 257.747C405.391 257.747 413.609 264.637 413.609 264.637C413.609 264.637 421.196 266.402 422.462 268.003C423.728 269.604 428.152 269.287 428.939 270.407C429.176 270.754 429.204 271.605 429.124 272.643Z" fill="black"/>
<path d="M370.706 230.993C370.706 230.993 363.034 231.44 358.61 229.55C354.186 227.661 339.487 223.299 335.219 226.362C330.952 229.425 320.676 232.132 325.418 244.317C330.16 256.501 332.374 256.819 332.374 256.819C333.841 257.935 335.122 259.282 336.167 260.81C337.59 263.055 350.867 268.181 354.186 268.181C357.505 268.181 363.352 268.181 371.569 273.951C379.786 279.721 387.217 280.366 387.217 280.366C387.217 280.366 397.648 284.693 400.896 285.655C404.144 286.617 418.986 290.781 422.466 289.502C425.947 288.223 428.156 280.202 428.156 280.202C428.156 280.202 429.735 272.989 428.944 271.869C428.152 270.749 423.728 271.066 422.466 269.465C421.205 267.864 413.614 266.099 413.614 266.099C413.614 266.099 405.415 259.204 404.467 259.204C403.519 259.204 398.956 258.082 396.343 256C391.139 252.091 387.711 252.399 382.02 249.265C376.017 246.058 370.706 230.993 370.706 230.993Z" fill="#4B4B5B"/>
<path opacity="0.1" d="M355.281 235.643C356.647 235.36 358.059 235.4 359.407 235.761C360.755 236.123 362.003 236.794 363.053 237.725C366.846 240.932 379.611 247.37 379.611 247.37" fill="black"/>
<path opacity="0.1" d="M450.125 235.441C450.125 235.441 433.211 238.037 430.053 241.562L450.125 235.441Z" fill="black"/>
<path d="M469.566 288.535H468.821C466.147 288.439 457.085 288.15 455.34 288.535C453.287 289.016 426.098 288.535 426.098 288.535L431.414 287.415C431.414 287.415 429.441 280.404 430.693 279.822C430.693 279.822 423.581 275.072 428.943 271.864C434.306 268.657 440.086 270.008 440.086 270.008L453.548 265.383L456.132 264.493C456.132 264.493 471.306 265.296 475.412 275.875C479.518 286.453 469.566 288.535 469.566 288.535Z" fill="#B9777C"/>
<path opacity="0.1" d="M469.566 288.535H468.821C473.236 284.842 483.222 273.6 453.548 265.407L456.132 264.517C456.132 264.517 471.306 265.32 475.412 275.899C479.518 286.477 469.566 288.535 469.566 288.535Z" fill="black"/>
<path d="M441.67 276.072C442.128 276.072 442.5 275.695 442.5 275.23C442.5 274.765 442.128 274.389 441.67 274.389C441.212 274.389 440.84 274.765 440.84 275.23C440.84 275.695 441.212 276.072 441.67 276.072Z" fill="#4B4B5B"/>
<path d="M436.848 277.461C437.306 277.461 437.678 277.085 437.678 276.62C437.678 276.155 437.306 275.778 436.848 275.778C436.39 275.778 436.018 276.155 436.018 276.62C436.018 277.085 436.39 277.461 436.848 277.461Z" fill="#4B4B5B"/>
<g opacity="0.1">
<path opacity="0.1" d="M413.353 98.8003C413.537 93.5115 412.609 88.2435 410.631 83.3461C404.467 84.2789 397.715 79.4561 392.1 82.3412C387.947 84.4761 386.643 89.8278 386.41 94.5449C386.354 95.7903 386.344 97.0356 386.368 98.281C386.368 97.8386 386.368 97.3915 386.41 96.9491C386.629 92.232 387.933 86.8803 392.1 84.7454C397.715 81.8603 404.457 86.6687 410.631 85.7503C412.306 89.8985 413.228 94.3196 413.353 98.8003Z" fill="black"/>
<path opacity="0.1" d="M365.585 97.9204C365.666 96.8726 365.645 95.8193 365.523 94.7757C365.021 90.5443 362.74 86.5004 362.327 82.3748C361.796 87.3515 364.921 92.1311 365.523 97.1799C365.585 97.4395 365.585 97.6703 365.585 97.9204Z" fill="black"/>
<path opacity="0.1" d="M390.569 141.071C390.275 144.639 389.445 148.452 386.776 150.818C384.106 153.183 379.189 153.054 377.705 149.813C377.231 148.851 377.159 147.731 376.699 146.769C375.647 144.567 373.058 143.711 370.796 142.85C364.371 140.412 358.174 135.637 356.794 128.805C356.671 128.186 356.587 127.559 356.542 126.929C356.426 128.361 356.511 129.802 356.794 131.209C358.174 138.022 364.381 142.816 370.796 145.254C373.058 146.115 375.647 146.971 376.699 149.173C377.174 150.135 377.254 151.246 377.705 152.217C379.198 155.458 384.125 155.583 386.776 153.222C389.426 150.861 390.251 147.043 390.569 143.475C390.713 141.597 390.762 139.713 390.716 137.83C390.716 138.922 390.654 139.999 390.569 141.071Z" fill="black"/>
<path opacity="0.1" d="M427.194 105.849C427.194 106.547 427.194 107.239 427.194 107.931C427.459 98.9879 430.693 89.9961 430.375 81.24C430.129 89.3374 427.374 97.6175 427.194 105.849Z" fill="black"/>
<path opacity="0.1" d="M417.018 142.028C417.135 141.457 417.171 140.873 417.127 140.292C416.936 139.048 416.506 137.853 415.861 136.777C413.12 131.488 409.996 126.074 409.626 120.203C409.626 120.453 409.593 120.683 409.588 120.953C409.398 127.463 412.864 133.421 415.861 139.181C416.37 140.073 416.76 141.031 417.018 142.028Z" fill="black"/>
<path opacity="0.1" d="M429.92 135.07C429.566 140.896 427.932 146.567 425.136 151.669C422.632 156.29 418.208 160.891 413.082 160.002C412.623 159.962 412.192 159.763 411.859 159.439C411.763 159.329 411.687 159.202 411.636 159.064C411.579 159.439 411.532 159.819 411.504 160.204C411.405 160.776 411.533 161.365 411.859 161.843C412.192 162.167 412.623 162.366 413.082 162.406C418.208 163.295 422.632 158.694 425.136 154.073C427.932 148.971 429.566 143.3 429.92 137.474C429.977 136.349 429.982 135.229 429.949 134.108C429.939 134.431 429.939 134.748 429.92 135.07Z" fill="black"/>
</g>
<path opacity="0.1" d="M430.693 279.822C430.693 279.822 442.694 284.929 450.608 273.629" stroke="black" stroke-miterlimit="10"/>
<path opacity="0.1" d="M433.055 288.747C433.055 288.747 442.856 282.284 455.34 288.535" stroke="black" stroke-miterlimit="10"/>
<path opacity="0.1" d="M367.448 287.28C367.448 287.28 371.564 277.865 382.555 285.044" stroke="black" stroke-miterlimit="10"/>
<path opacity="0.1" d="M354.105 148.048L362.498 140.355C362.498 140.355 395.04 138.191 396.387 149.409C396.387 149.409 407.924 136.109 432.187 139.071L442.453 147.36L414.078 159.987L386.505 169.686L366.197 160.468L354.105 148.048Z" fill="black"/>
<path d="M354.105 148.529L362.498 140.835C362.498 140.835 395.04 138.672 396.387 149.89C396.387 149.89 407.924 136.59 432.187 139.552L442.453 147.841L414.078 160.468L386.505 170.167L366.197 160.949L354.105 148.529Z" fill="#D5D6DB"/>
<path opacity="0.1" d="M350.393 149.491L354.105 194.531L393.461 196.536L391.754 151.688L391.721 150.933L350.393 149.491Z" fill="black"/>
<path d="M348.041 149L351.95 193.997L393.386 196L391.589 151.195L391.554 150.441L348.041 149Z" fill="#48C95F"/>
<path opacity="0.1" d="M444.254 148.529L403.656 154.703V199.945L443.33 194.132L444.254 148.529Z" fill="black"/>
<path d="M444.254 147.567L403.656 153.741V198.983L443.33 193.17L444.254 147.567Z" fill="#48C95F"/>
<path opacity="0.3" d="M434.681 158.607L412.751 161.079L413.23 168.657L434.667 166.281L434.681 158.607Z" fill="white"/>
<path d="M356.239 217.688L358.472 223.78C358.472 223.78 361.792 226.665 365.424 225.223C369.056 223.78 372.223 223.064 373.802 221.66C375.381 220.256 377.596 213.202 377.596 213.202C377.596 213.202 379.81 205.508 382.02 203.585C384.229 201.662 390.08 175.163 382.02 177.754C373.959 180.346 367.795 204.388 367.795 204.388C367.795 204.388 366.372 206.148 364.319 206.311C362.266 206.475 358.155 205.989 357.363 207.754C356.571 209.519 353.868 214.163 356.239 217.688Z" fill="#FBBEBE"/>
<path opacity="0.1" d="M403.656 154.698C401.577 155.173 399.418 155.148 397.351 154.625C395.283 154.103 393.365 153.097 391.75 151.688L393.461 196.531C393.461 196.531 397.492 200.955 403.656 199.945V154.698Z" fill="black"/>
<path d="M403.656 153.736C401.577 154.211 399.418 154.186 397.351 153.664C395.283 153.141 393.365 152.135 391.75 150.726L393.461 195.569C393.461 195.569 397.492 199.993 403.656 198.983V153.736Z" fill="#48C95F"/>
<path opacity="0.1" d="M403.656 153.736C401.577 154.211 399.418 154.186 397.351 153.664C395.283 153.141 393.365 152.135 391.75 150.726L393.461 195.569C393.461 195.569 397.492 199.993 403.656 198.983V153.736Z" fill="black"/>
<path opacity="0.1" d="M404.604 148.683C404.604 148.683 421.12 143.562 425.425 144.283L404.604 148.683Z" fill="black"/>
<path opacity="0.1" d="M386.131 146.447C386.131 146.447 370.123 142.6 367.448 143.692L386.131 146.447Z" fill="black"/>
<path opacity="0.1" d="M415.017 149.322C415.017 149.322 426.061 145.216 430.053 147.168L415.017 149.322Z" fill="black"/>
<path opacity="0.1" d="M409.455 252.333C411.166 251.029 412.988 249.882 414.899 248.904C417.744 247.515 422.959 243.908 422.959 243.908" fill="black"/>
<path opacity="0.1" d="M367.448 203.263C367.448 203.263 360.521 209.009 358.439 209.514C356.358 210.019 355.073 214.5 355.073 214.5" fill="black"/>
<path d="M440.181 216.832L437.972 222.939C437.972 222.939 434.652 225.824 431.016 224.381C427.379 222.939 424.221 222.222 422.637 220.818C421.053 219.414 418.844 212.36 418.844 212.36C418.844 212.36 416.634 204.667 414.42 202.744C412.205 200.82 406.359 174.321 414.42 176.913C422.481 179.505 428.645 203.547 428.645 203.547C428.645 203.547 430.067 205.306 432.12 205.47C434.174 205.633 438.285 205.148 439.076 206.912C439.868 208.677 442.552 213.322 440.181 216.832Z" fill="#FBBEBE"/>
<path opacity="0.1" d="M436.307 205.6C436.307 205.6 440.836 208.552 440.817 212.081L436.307 205.6Z" fill="black"/>
<path d="M397.885 120.02C409.583 120.02 419.067 110.403 419.067 98.5407C419.067 86.6781 409.583 77.0615 397.885 77.0615C386.187 77.0615 376.704 86.6781 376.704 98.5407C376.704 110.403 386.187 120.02 397.885 120.02Z" fill="#FBBEBE"/>
<path d="M384.585 92.7754C387.155 92.3667 389.407 90.852 391.863 89.9817C397.359 88.0247 403.438 89.3662 409 91.1309C411.134 91.8089 413.301 92.5734 415.539 92.5734C417.777 92.5734 420.152 91.6454 421.295 89.6884C422.348 87.8901 422.144 85.5532 421.257 83.6635C420.37 81.7738 418.886 80.2543 417.388 78.8214C412.457 74.0996 406.34 69.6854 399.573 70.1663C396.852 70.3634 394.248 71.3492 391.745 72.4407C388.592 73.8183 385.524 75.3854 382.555 77.1337C380.275 78.4752 376.05 80.2687 374.736 82.721C371.749 88.2459 379.938 93.5159 384.585 92.7754Z" fill="#3E373A"/>
<path opacity="0.1" d="M421.295 87.6689C420.152 89.6259 417.777 90.5539 415.539 90.5539C413.301 90.5539 411.134 89.8182 408.995 89.1403C403.433 87.3756 397.359 86.0292 391.859 87.991C389.407 88.8614 387.15 90.3952 384.58 90.7799C380.834 91.3762 374.803 88.068 374.148 83.8606C373.413 88.7219 380.407 92.886 384.58 92.2224C387.15 91.8137 389.407 90.2991 391.859 89.4336C397.359 87.4717 403.433 88.8181 408.995 90.5828C411.134 91.2608 413.296 92.0253 415.539 91.9964C417.782 91.9676 420.152 91.0732 421.295 89.1114C421.887 88.0441 422.121 86.8101 421.959 85.5965C421.885 86.3272 421.659 87.0336 421.295 87.6689Z" fill="black"/>
<path d="M593.186 348.26C593.186 348.26 595.998 351.987 591.887 357.617C587.776 363.248 584.391 367.999 585.756 371.509C585.756 371.509 591.958 361.055 597.004 360.906C602.049 360.757 598.729 354.545 593.186 348.26Z" fill="#48C95F"/>
<path opacity="0.1" d="M593.186 348.26C593.431 348.62 593.624 349.014 593.76 349.429C598.682 355.295 601.309 360.772 596.572 360.906C592.162 361.036 586.875 369.033 585.609 371.047C585.65 371.21 585.699 371.371 585.756 371.528C585.756 371.528 591.958 361.075 597.004 360.926C602.049 360.776 598.73 354.545 593.186 348.26Z" fill="black"/>
<path d="M598.402 353.011C598.402 354.324 598.255 355.386 598.08 355.386C597.904 355.386 597.753 354.324 597.753 353.011C597.753 351.698 597.933 352.318 598.113 352.318C598.293 352.318 598.402 351.698 598.402 353.011Z" fill="#FFD037"/>
<path d="M600.199 354.578C599.066 355.204 598.075 355.583 597.99 355.425C597.904 355.266 598.753 354.627 599.886 353.982C601.02 353.338 600.574 353.809 600.659 353.982C600.745 354.155 601.337 353.949 600.199 354.578Z" fill="#FFD037"/>
<path d="M578.326 348.26C578.326 348.26 575.514 351.987 579.625 357.617C583.736 363.248 587.122 367.999 585.751 371.509C585.751 371.509 579.554 361.055 574.504 360.906C569.454 360.757 572.797 354.545 578.326 348.26Z" fill="#48C95F"/>
<path opacity="0.1" d="M578.326 348.26C578.081 348.62 577.888 349.014 577.752 349.429C572.83 355.295 570.203 360.772 574.94 360.906C579.345 361.036 584.637 369.033 585.903 371.047C585.863 371.211 585.813 371.371 585.751 371.528C585.751 371.528 579.554 361.075 574.504 360.926C569.454 360.776 572.797 354.545 578.326 348.26Z" fill="black"/>
<path d="M573.101 353.011C573.101 354.324 573.243 355.386 573.423 355.386C573.603 355.386 573.75 354.324 573.75 353.011C573.75 351.698 573.565 352.318 573.39 352.318C573.214 352.318 573.101 351.698 573.101 353.011Z" fill="#FFD037"/>
<path d="M571.308 354.578C572.441 355.204 573.432 355.583 573.518 355.425C573.603 355.266 572.754 354.627 571.621 353.982C570.488 353.338 570.934 353.809 570.848 353.982C570.763 354.155 570.17 353.949 571.308 354.578Z" fill="#FFD037"/>
<path opacity="0.1" d="M585.756 400.032C601.993 400.032 615.155 397.985 615.155 395.459C615.155 392.934 601.993 390.887 585.756 390.887C569.52 390.887 556.358 392.934 556.358 395.459C556.358 397.985 569.52 400.032 585.756 400.032Z" fill="#48C95F"/>
<path d="M600.887 366.484L600.745 367.648L600.546 369.292L600.465 369.98L600.266 371.624L600.18 372.312L599.986 373.952L597.734 392.656C597.535 394.325 594.846 395.628 591.598 395.628H579.91C576.662 395.628 573.978 394.325 573.774 392.656L571.522 373.952L571.322 372.312L571.242 371.624L571.043 369.98L570.957 369.292L570.763 367.648L570.621 366.484C570.512 365.522 571.963 364.743 573.802 364.743H597.71C599.545 364.743 601.001 365.537 600.887 366.484Z" fill="#65617D"/>
<path d="M600.745 367.648L600.55 369.292H570.962L570.763 367.648H600.745Z" fill="#9D9CB5"/>
<path d="M600.465 369.98L600.271 371.624H571.242L571.043 369.98H600.465Z" fill="#9D9CB5"/>
<path d="M600.185 372.312L599.986 373.956H571.522L571.327 372.312H600.185Z" fill="#9D9CB5"/>
</g>
<defs>
<filter id="filter0_d" x="113" y="36" width="545" height="451" filterUnits="userSpaceOnUse" color-interpolation-filters="sRGB">
<feFlood flood-opacity="0" result="BackgroundImageFix"/>
<feColorMatrix in="SourceAlpha" type="matrix" values="0 0 0 0 0 0 0 0 0 0 0 0 0 0 0 0 0 0 127 0"/>
<feOffset dy="15"/>
<feGaussianBlur stdDeviation="15"/>
<feColorMatrix type="matrix" values="0 0 0 0 0 0 0 0 0 0 0 0 0 0 0 0 0 0 0.15 0"/>
<feBlend mode="normal" in2="BackgroundImageFix" result="effect1_dropShadow"/>
<feBlend mode="normal" in="SourceGraphic" in2="effect1_dropShadow" result="shape"/>
</filter>
<linearGradient id="paint0_linear" x1="402.2" y1="292.343" x2="402.2" y2="51" gradientUnits="userSpaceOnUse">
<stop stop-color="#808080" stop-opacity="0.25"/>
<stop offset="0.54" stop-color="#808080" stop-opacity="0.12"/>
<stop offset="1" stop-color="#808080" stop-opacity="0.1"/>
</linearGradient>
<clipPath id="clip0">
<rect width="485" height="391" fill="white" transform="translate(143 51)"/>
</clipPath>
</defs>
</svg>
