<svg width="25" height="25" viewBox="0 0 25 25" fill="none" xmlns="http://www.w3.org/2000/svg">
<path d="M19.1775 2.40138C19.0975 2.34111 19.0151 2.28231 18.9298 2.22488C18.7034 2.07134 18.3938 2.12933 18.2388 2.3543C18.0833 2.57876 18.1397 2.8869 18.3647 3.04285C18.4326 3.08991 18.4995 3.13747 18.5654 3.18553C21.2922 5.23306 20.4348 9.24289 20.0991 10.4455C19.0883 14.0664 16.6656 14.0162 16.5793 14.0179C16.5452 14.0147 16.5105 14.0187 16.4793 14.0228C16.4456 14.026 15.6832 14.1262 15.0409 13.5675C14.4068 13.0162 14.0782 11.9635 14.0902 10.5237C14.1203 6.92796 16.7413 5.58746 16.853 5.53219C16.9808 5.46929 17.0758 5.35432 17.113 5.21748C17.1502 5.08069 17.1276 4.93415 17.0496 4.81579L16.0636 3.31916C15.9259 3.11015 15.6515 3.03617 15.4263 3.14522C14.9001 3.40149 14.2631 3.8918 13.746 4.32984C13.8919 3.44295 14.1264 2.75258 14.1299 2.74243C14.1824 2.5888 14.1564 2.41852 14.0591 2.28786L12.578 0.29095C12.3919 0.0393702 11.9697 0.0358425 11.7794 0.284278L10.2651 2.25616C10.1656 2.38517 10.1368 2.55499 10.1867 2.70948C10.1901 2.71969 10.4129 3.41388 10.544 4.30308C10.0343 3.85647 9.40562 3.35558 8.88371 3.09055C8.65989 2.97771 8.38531 3.04715 8.24363 3.25382L7.23277 4.73377C7.15231 4.85132 7.1267 4.99792 7.1621 5.13578C7.19802 5.27369 7.29113 5.38977 7.41884 5.45429C7.44601 5.4681 10.1266 6.86986 10.0963 10.4903C10.0843 11.9301 9.73819 12.9771 9.09497 13.5178C8.44293 14.0661 7.68132 13.9522 7.65307 13.9495C7.6219 13.9444 7.58585 13.9398 7.5532 13.9424C7.46582 13.9538 5.03977 13.9505 4.0897 10.3117C3.77412 9.10369 2.98376 5.08153 5.74348 3.07938C5.81118 3.0315 5.87982 2.98461 5.94896 2.93818C6.17645 2.78602 6.23752 2.47936 6.08538 2.25229C5.93416 2.02671 5.62755 1.96357 5.39617 2.11185C5.31085 2.16734 5.22799 2.2243 5.14803 2.28225C2.01309 4.49541 0.131481 8.06692 0.0994948 11.8952C0.0446417 18.4602 5.37497 23.8464 11.9814 23.9016C18.5878 23.9568 24.0074 18.6604 24.0622 12.0954C24.0942 8.26858 22.2735 4.66711 19.1775 2.40138Z" fill="white"/>
</svg>
