<svg width="85" height="76" viewBox="0 0 85 76" fill="none" xmlns="http://www.w3.org/2000/svg">
<path d="M83.761 43.6066C84.823 39.5129 85 35.7752 85 32.0375C79.6902 35.9532 73.1415 39.1569 66.7697 40.7588C72.9645 37.555 79.8672 32.2155 84.292 25.9859C82.5221 15.4848 76.8583 6.40749 68.8937 0.177986C77.9203 20.1124 70.1326 33.9953 61.8139 36.6651C62.1679 50.548 58.4511 63.007 45.5306 67.8126L44.8226 51.9719L53.1413 58.5574L46.0616 49.3021L57.5661 47.8782L46.0616 46.2763L53.1413 37.0211L44.4687 43.7845L42.5217 0L40.5748 43.7845L31.9022 37.0211L38.9819 46.2763L27.4773 47.7002L38.9819 49.1241L31.9022 58.3794L40.2208 51.7939L39.5129 67.6347C26.5924 62.829 22.6985 50.548 23.2295 36.4871C14.5569 33.6393 7.12317 19.9344 16.1498 0C8.18513 6.40749 2.69835 15.4848 0.751432 25.808C5.17625 31.8595 11.902 37.1991 18.2737 40.5808C12.079 38.9789 5.35324 35.9532 0.0434611 31.8595C-0.133532 35.5972 0.220454 39.3349 1.28241 43.4286C5.35324 48.5902 11.725 53.3958 17.5657 56.4215C13.1409 55.1756 8.36212 53.2178 3.76031 50.548C6.06122 56.2436 9.77806 61.2272 14.2029 65.1429C18.9817 66.2108 23.9375 66.7447 28.1853 66.5667C24.8225 67.4567 21.4596 67.9906 17.9197 68.1686C24.8225 73.1522 33.3181 76 42.5217 76C51.7254 76 60.221 72.9742 67.1237 68.1686C63.5839 67.9906 60.221 67.4567 56.8581 66.5667C61.283 66.7447 66.0618 66.2108 70.8406 65.1429C75.2654 61.2272 78.8053 56.2436 81.2831 50.726C76.6813 53.3958 71.9025 55.3536 67.4777 56.5995C73.4955 53.3958 79.6902 48.7681 83.761 43.6066ZM42.5217 50.548C40.9288 50.548 39.6898 49.3021 39.6898 47.7002C39.6898 46.0984 40.9288 44.8525 42.5217 44.8525C44.1147 44.8525 45.3536 46.0984 45.3536 47.7002C45.3536 49.3021 44.1147 50.548 42.5217 50.548Z" fill="#FFD54E"/>
</svg>
