<svg width="32" height="32" viewBox="0 0 32 32" fill="none" xmlns="http://www.w3.org/2000/svg">
<path d="M25.3691 3.01515C25.2617 2.93502 25.151 2.8569 25.0364 2.78065C24.7324 2.57677 24.3196 2.65821 24.1152 2.9624C23.9101 3.2659 23.9889 3.67952 24.291 3.88664C24.3821 3.94914 24.472 4.01233 24.5606 4.07621C28.2246 6.7982 27.1244 12.1985 26.6895 13.819C25.3803 18.6982 22.1446 18.6579 22.0293 18.6611C21.9837 18.6572 21.9375 18.663 21.8959 18.6689C21.8509 18.6735 20.834 18.8168 19.9701 18.0729C19.1172 17.3389 18.6667 15.9274 18.6667 13.9916C18.6667 9.15732 22.1517 7.32576 22.3001 7.2502C22.4701 7.1642 22.5957 7.00857 22.6439 6.8242C22.6921 6.63989 22.6601 6.44314 22.5547 6.28489L21.2214 4.28396C21.0352 4.00452 20.668 3.90814 20.3685 4.05727C19.6686 4.40771 18.8236 5.07402 18.138 5.6687C18.3229 4.47477 18.6283 3.54402 18.6328 3.53033C18.7012 3.32321 18.6647 3.09458 18.5332 2.92002L16.5332 0.252093C16.2819 -0.084031 15.7181 -0.084031 15.4668 0.252093L13.4668 2.92002C13.3353 3.09458 13.2987 3.32321 13.3671 3.53033C13.3717 3.54402 13.677 4.47477 13.8619 5.6687C13.1764 5.07402 12.3313 4.40771 11.6314 4.05727C11.3313 3.90808 10.9654 4.00452 10.7786 4.28396L9.44525 6.28489C9.33912 6.44382 9.30656 6.6412 9.35538 6.82614C9.40488 7.01114 9.5305 7.16614 9.70175 7.25145C9.73819 7.2697 13.3333 9.12407 13.3333 13.9916C13.3333 15.9274 12.8827 17.3388 12.0299 18.0729C11.1653 18.8174 10.1471 18.6727 10.1093 18.6695C10.0676 18.663 10.0194 18.6571 9.97587 18.661C9.85931 18.6773 6.61975 18.7001 5.3105 13.8189C4.87563 12.1985 3.77538 6.80014 7.43813 4.07752C7.528 4.01239 7.61913 3.94858 7.71094 3.88539C8.013 3.67827 8.09112 3.26533 7.88544 2.96177C7.681 2.66021 7.27087 2.57877 6.96356 2.78071C6.85025 2.85627 6.74025 2.93377 6.63413 3.01258C2.47269 6.02308 0 10.8456 0 15.9925C0 24.819 7.17775 32 16 32C24.8223 32 32 24.819 32 15.9925C32 10.8476 29.5286 6.02633 25.3691 3.01515Z" fill="#FFD54E"/>
</svg>
