<svg width="16" height="16" viewBox="0 0 16 16" fill="none" xmlns="http://www.w3.org/2000/svg">
<path d="M8.00014 0.640015C3.94158 0.640015 0.640137 3.94145 0.640137 8.00001C0.640137 12.0586 3.94158 15.36 8.00014 15.36C12.0587 15.36 15.3601 12.0586 15.3601 8.00001C15.3601 3.94145 12.0587 0.640015 8.00014 0.640015ZM8.00014 8.96001C7.8523 8.96001 7.71374 8.92385 7.58862 8.86401L5.66638 10.7863C5.60398 10.8487 5.52206 10.88 5.44014 10.88C5.35822 10.88 5.2763 10.8487 5.2139 10.7863C5.08878 10.6611 5.08878 10.4589 5.2139 10.3338L7.13614 8.41153C7.0763 8.28641 7.04014 8.14785 7.04014 8.00001C7.04014 7.58273 7.30798 7.23105 7.68014 7.09889V2.56001C7.68014 2.38305 7.82318 2.24001 8.00014 2.24001C8.1771 2.24001 8.32014 2.38305 8.32014 2.56001V7.09889C8.6923 7.23105 8.96014 7.58273 8.96014 8.00001C8.96014 8.53025 8.53038 8.96001 8.00014 8.96001Z" fill="#644BEC"/>
</svg>
