<svg width="984" height="937" viewBox="0 0 984 937" fill="none" xmlns="http://www.w3.org/2000/svg">
<path d="M1170.98 802.072H167.589L347.707 695.709H993.621L1170.98 802.072Z" fill="#D0F0E4"/>
<path d="M742.88 282.091H562.361V177.709C562.361 170.641 568.09 164.912 575.157 164.912H730.084C737.151 164.912 742.88 170.641 742.88 177.709V282.091Z" fill="white" stroke="#66B0F0" stroke-width="1.60629" stroke-miterlimit="10"/>
<path d="M729.254 275.291H576.737C572.721 275.291 569.455 272.024 569.455 268.009V178.539C569.455 174.523 572.721 171.257 576.737 171.257H729.254C733.27 171.257 736.536 174.523 736.536 178.539V268.035C736.536 272.051 733.27 275.291 729.254 275.291Z" fill="#66B0F0"/>
<path d="M774.524 306.586C781.431 311.084 779.825 319.892 771.66 319.892H525.737C518.857 319.892 516.501 310.602 523.248 306.345L774.524 306.586Z" fill="#66B0F0" stroke="#66B0F0" stroke-width="1.60629" stroke-miterlimit="10"/>
<path d="M771.66 313.761H525.737C521.347 313.761 519.607 308.594 523.248 306.346L562.414 282.091H742.372L774.498 306.586C777.71 309.023 775.836 313.761 771.66 313.761Z" fill="white" stroke="#66B0F0" stroke-width="1.60629" stroke-miterlimit="10"/>
<path d="M743.282 306.453H554.115C550.742 306.453 549.403 302.464 552.188 300.75L579.387 282.091H720.74L745.45 300.938C747.94 302.812 746.495 306.453 743.282 306.453Z" fill="white" stroke="#66B0F0" stroke-width="1.60629" stroke-miterlimit="10"/>
<path d="M708.506 282.091L733.243 306.453" stroke="#66B0F0" stroke-width="1.60629" stroke-miterlimit="10"/>
<path d="M695.388 282.091L717.18 306.453" stroke="#66B0F0" stroke-width="1.60629" stroke-miterlimit="10"/>
<path d="M683.127 282.091L702.028 306.453" stroke="#66B0F0" stroke-width="1.60629" stroke-miterlimit="10"/>
<path d="M669.42 282.091L685.403 306.453" stroke="#66B0F0" stroke-width="1.60629" stroke-miterlimit="10"/>
<path d="M658.042 282.091L665.833 306.453" stroke="#66B0F0" stroke-width="1.60629" stroke-miterlimit="10"/>
<path d="M590.872 282.091L566.136 306.453" stroke="#66B0F0" stroke-width="1.60629" stroke-miterlimit="10"/>
<path d="M603.991 282.091L582.199 306.453" stroke="#66B0F0" stroke-width="1.60629" stroke-miterlimit="10"/>
<path d="M616.252 282.091L597.351 306.453" stroke="#66B0F0" stroke-width="1.60629" stroke-miterlimit="10"/>
<path d="M629.959 282.091L613.976 306.453" stroke="#66B0F0" stroke-width="1.60629" stroke-miterlimit="10"/>
<path d="M641.337 282.091L633.546 306.453" stroke="#66B0F0" stroke-width="1.60629" stroke-miterlimit="10"/>
<path d="M649.047 306.747V282.091" stroke="#66B0F0" stroke-width="1.60629" stroke-miterlimit="10"/>
<path d="M566.136 291.193H732.707" stroke="#66B0F0" stroke-width="1.60629" stroke-miterlimit="10"/>
<path d="M716.564 275.29H581.127L583.564 258.023C585.063 247.395 592.693 238.667 603 235.722L636.009 228.869H661.683L694.692 235.722C705.025 238.64 712.655 247.395 714.128 258.023L716.564 275.29Z" fill="#FFCF2D"/>
<path d="M657.988 248.599L648.217 238.721C648.002 238.507 648.002 238.158 648.217 237.971C648.431 237.757 648.779 237.757 648.966 237.971L657.935 247.047L671.856 231.278C672.043 231.064 672.391 231.037 672.605 231.225C672.819 231.412 672.846 231.76 672.659 231.974L657.988 248.599Z" fill="white"/>
<path d="M639.837 248.599L625.166 231.974C624.979 231.76 624.979 231.412 625.22 231.225C625.434 231.037 625.782 231.037 625.97 231.278L639.891 247.047L648.859 237.971C649.073 237.757 649.395 237.757 649.609 237.971C649.823 238.185 649.823 238.507 649.609 238.721L639.837 248.599Z" fill="white"/>
<path d="M649.073 255.051C647.788 255.051 646.744 254.007 646.744 252.722C646.744 251.437 647.788 250.393 649.073 250.393C650.358 250.393 651.402 251.437 651.402 252.722C651.402 254.007 650.358 255.051 649.073 255.051ZM649.073 251.464C648.377 251.464 647.815 252.026 647.815 252.722C647.815 253.418 648.377 253.98 649.073 253.98C649.769 253.98 650.331 253.418 650.331 252.722C650.331 252.026 649.769 251.464 649.073 251.464Z" fill="white"/>
<path d="M649.073 268.169C647.788 268.169 646.744 267.125 646.744 265.84C646.744 264.555 647.788 263.511 649.073 263.511C650.358 263.511 651.402 264.555 651.402 265.84C651.402 267.125 650.358 268.169 649.073 268.169ZM649.073 264.582C648.377 264.582 647.815 265.144 647.815 265.84C647.815 266.536 648.377 267.098 649.073 267.098C649.769 267.098 650.331 266.536 650.331 265.84C650.331 265.144 649.769 264.582 649.073 264.582Z" fill="white"/>
<path d="M635.848 274.728H592.104L580.431 240.086L624.176 227.557L635.848 274.728Z" fill="white" stroke="#66B0F0" stroke-width="1.07086" stroke-miterlimit="10"/>
<path d="M594.379 244.584H593.549C591.434 244.584 589.721 242.87 589.721 240.755V228.735C589.721 227.878 590.417 227.182 591.274 227.182H594.888C595.745 227.182 596.441 227.878 596.441 228.735V242.496C596.467 243.647 595.53 244.584 594.379 244.584Z" fill="white"/>
<path d="M594.379 244.584H593.549C591.434 244.584 589.721 242.87 589.721 240.755V228.735C589.721 227.878 590.417 227.182 591.274 227.182H594.888C595.745 227.182 596.441 227.878 596.441 228.735V242.496C596.467 243.647 595.53 244.584 594.379 244.584Z" stroke="#66B0F0" stroke-width="1.07086" stroke-miterlimit="10" stroke-linecap="round"/>
<path d="M611.995 244.584H612.825C614.94 244.584 616.653 242.87 616.653 240.755V228.735C616.653 227.878 615.957 227.182 615.101 227.182H611.46C610.603 227.182 609.907 227.878 609.907 228.735V242.496C609.907 243.647 610.844 244.584 611.995 244.584Z" fill="white"/>
<path d="M601.099 245.976H599.172C597.672 245.976 596.468 244.771 596.468 243.272V228.762C596.468 227.905 597.164 227.209 598.02 227.209H601.635C602.491 227.209 603.187 227.905 603.187 228.762V243.888C603.187 245.039 602.25 245.976 601.099 245.976Z" fill="white"/>
<path d="M607.845 246.511H606.239C604.553 246.511 603.187 245.146 603.187 243.459V228.735C603.187 227.878 603.883 227.182 604.74 227.182H608.354C609.211 227.182 609.907 227.878 609.907 228.735V244.423C609.907 245.574 608.97 246.511 607.845 246.511Z" fill="white"/>
<path d="M611.995 244.584H612.825C614.94 244.584 616.653 242.87 616.653 240.755V228.735C616.653 227.878 615.957 227.182 615.101 227.182H611.46C610.603 227.182 609.907 227.878 609.907 228.735V242.496C609.907 243.647 610.844 244.584 611.995 244.584Z" stroke="#66B0F0" stroke-width="1.07086" stroke-miterlimit="10" stroke-linecap="round"/>
<path d="M601.099 245.976H599.172C597.672 245.976 596.468 244.771 596.468 243.272V228.762C596.468 227.905 597.164 227.209 598.02 227.209H601.635C602.491 227.209 603.187 227.905 603.187 228.762V243.888C603.187 245.039 602.25 245.976 601.099 245.976Z" stroke="#66B0F0" stroke-width="1.07086" stroke-miterlimit="10" stroke-linecap="round"/>
<path d="M607.845 246.511H606.239C604.553 246.511 603.187 245.146 603.187 243.459V228.735C603.187 227.878 603.883 227.182 604.74 227.182H608.354C609.211 227.182 609.907 227.878 609.907 228.735V244.423C609.907 245.574 608.97 246.511 607.845 246.511Z" stroke="#66B0F0" stroke-width="1.07086" stroke-miterlimit="10" stroke-linecap="round"/>
<path d="M661.709 213.127V232.67C661.709 236.043 655.953 238.801 648.859 238.801C641.765 238.801 636.009 236.043 636.009 232.67V213.127H661.709Z" fill="white"/>
<path d="M661.708 213.127C661.708 227.878 652.258 232.269 643.182 231.492C643.156 231.492 643.129 231.492 643.102 231.492C639.086 231.118 636.034 227.691 636.034 223.675V213.154H661.708V213.127Z" fill="#66B0F0"/>
<path d="M667.679 208.094V209.085C667.679 211.28 665.912 213.047 663.717 213.047H661.682L661.709 213.502C661.709 219.82 656.596 224.933 650.278 224.933H647.467C641.149 224.933 636.035 219.82 636.035 213.502L636.062 213.047H634.027C631.832 213.047 630.065 211.28 630.065 209.085V208.094C630.065 205.899 631.832 204.132 634.027 204.132H636.624L636.919 199.286C636.919 198.537 637.026 197.814 637.24 197.145C644.897 199.045 653.865 194.119 656.275 192.647C658.952 193.664 660.852 196.234 660.852 199.26L661.147 204.105H663.744C665.912 204.132 667.679 205.899 667.679 208.094Z" fill="white"/>
<path d="M663.904 204.132H661.12L660.826 199.286C660.826 196.261 658.925 193.691 656.248 192.674C653.838 194.119 644.87 199.045 637.213 197.171C636.999 197.841 636.892 198.564 636.892 199.313L636.598 204.159H634.857C634.857 204.159 631.297 186.918 634.804 183.759C637.401 181.43 661.174 186.516 663.797 190.131C665.27 192.192 663.904 204.132 663.904 204.132Z" fill="#E57281"/>
<path d="M657.212 203.088C657.131 203.088 657.024 203.061 656.944 202.981C656.917 202.954 655.177 201.535 652.393 201.535C652.179 201.535 651.991 201.348 651.991 201.134C651.991 200.919 652.179 200.732 652.393 200.732C655.472 200.732 657.372 202.285 657.453 202.365C657.613 202.499 657.64 202.767 657.506 202.927C657.453 203.034 657.319 203.088 657.212 203.088Z" fill="#66B0F0"/>
<path d="M647.039 211.387C646.985 211.387 646.932 211.387 646.905 211.36C646.691 211.28 646.584 211.039 646.664 210.852C647.414 208.871 647.226 206.381 646.182 204.186C645.567 202.847 644.683 201.883 643.907 201.615C642.193 201.027 639.784 201.856 639.757 201.856C639.543 201.937 639.329 201.83 639.248 201.615C639.168 201.401 639.275 201.187 639.489 201.107C639.596 201.08 642.167 200.197 644.148 200.866C645.138 201.214 646.155 202.312 646.878 203.864C648.003 206.247 648.19 208.978 647.387 211.173C647.36 211.28 647.2 211.387 647.039 211.387Z" fill="#66B0F0"/>
<path d="M652.313 215.644C652.34 215.858 652.152 216.045 651.938 216.072H651.911C651.697 216.072 651.537 215.911 651.51 215.697C651.483 215.43 651.43 215.162 651.349 214.921C650.198 215.483 649.154 215.67 648.297 215.67C646.611 215.67 645.593 214.974 645.54 214.921C645.352 214.787 645.326 214.546 645.433 214.359C645.567 214.171 645.808 214.144 645.995 214.252C646.049 214.278 646.905 214.867 648.297 214.867C649.047 214.867 649.957 214.707 651.001 214.198C650.841 213.93 650.68 213.77 650.68 213.77C650.519 213.609 650.546 213.341 650.707 213.208C650.867 213.074 651.135 213.074 651.269 213.234C651.322 213.315 652.233 214.332 652.313 215.644Z" fill="#66B0F0"/>
<path d="M653.758 207.993C654.127 207.97 654.389 207.353 654.343 206.615C654.297 205.877 653.961 205.298 653.592 205.321C653.223 205.344 652.961 205.961 653.007 206.698C653.053 207.436 653.389 208.016 653.758 207.993Z" fill="#66B0F0"/>
<path d="M642.828 207.886C643.168 207.865 643.409 207.297 643.366 206.618C643.324 205.939 643.015 205.406 642.675 205.427C642.336 205.449 642.095 206.016 642.137 206.695C642.179 207.374 642.489 207.907 642.828 207.886Z" fill="#66B0F0"/>
<path d="M635.34 209.379C635.126 209.379 634.938 209.192 634.938 208.978C634.938 207.8 633.974 206.863 632.823 206.863C632.609 206.863 632.422 206.675 632.422 206.461C632.422 206.247 632.609 206.06 632.823 206.06C634.43 206.06 635.741 207.371 635.741 208.978C635.741 209.219 635.554 209.379 635.34 209.379Z" fill="#66B0F0"/>
<path d="M662.272 209.379C662.058 209.379 661.87 209.192 661.87 208.978C661.87 207.371 663.182 206.06 664.789 206.06C665.003 206.06 665.19 206.247 665.19 206.461C665.19 206.675 665.003 206.863 664.789 206.863C663.611 206.863 662.674 207.826 662.674 208.978C662.674 209.219 662.513 209.379 662.272 209.379Z" fill="#66B0F0"/>
<path d="M1146.89 802.072L1032.23 422.935C1029.95 415.386 1022.96 410.219 1015.07 410.219H319.142C311.164 410.219 304.15 415.493 301.928 423.176L192.513 802.072" stroke="#66B0F0" stroke-width="1.60629" stroke-miterlimit="10"/>
<path d="M509.781 282.091H814.173" stroke="#66B0F0" stroke-width="1.60629" stroke-miterlimit="10"/>
<path d="M669.575 348.457L643.713 401.678H565.568L596.97 348.457H669.575Z" fill="white" stroke="#3FB1B5" stroke-width="1.33857" stroke-miterlimit="10"/>
<path d="M652.441 361.441C652.441 361.441 649.041 355.632 640.875 357.131C634.771 358.228 627.543 363.262 623.099 360.558C618.655 357.854 614.72 354.48 608.964 356.087C603.208 357.693 598.951 360.772 598.951 360.772" stroke="#3FB1B5" stroke-width="1.33857" stroke-miterlimit="10"/>
<path d="M649.764 369.74C649.764 369.74 646.364 363.931 638.198 365.43C632.094 366.528 624.866 371.561 620.422 368.857C615.978 366.153 612.043 362.78 606.287 364.386C600.531 365.992 596.274 369.071 596.274 369.071" stroke="#3FB1B5" stroke-width="1.33857" stroke-miterlimit="10"/>
<path d="M698.969 587.312C698.969 594.46 679.131 600.242 654.288 600.242C629.444 600.242 610.195 594.46 610.195 587.312C610.195 580.164 629.444 574.381 654.288 574.381C679.131 574.381 698.969 580.19 698.969 587.312Z" fill="#FE5244"/>
<path d="M687.538 578.611V670.972L684.727 657.64C681.701 643.291 669.038 633.037 654.368 633.037C649.95 633.037 645.613 633.974 641.678 635.741C641.544 635.795 641.41 635.875 641.25 635.928L630.943 598.341L625.214 577.433C633.058 575.532 643.204 574.381 654.287 574.381C667.459 574.381 679.319 576.014 687.538 578.611Z" fill="#A0505A"/>
<path d="M687.538 578.611V596.013C679.319 598.61 667.459 600.243 654.287 600.243C645.747 600.243 637.769 599.547 630.943 598.369L625.214 577.46C633.058 575.559 643.204 574.408 654.287 574.408C667.459 574.381 679.319 576.014 687.538 578.611Z" fill="#73325A"/>
<path d="M685.557 668.268C686.279 668.483 693.079 670.383 699.103 670.383C702.369 670.383 705.394 669.821 707.108 668.108C708.58 666.635 708.928 664.494 708.152 661.79C707.456 659.38 706.117 657.881 704.163 657.346C700.575 656.382 695.596 659.059 691.661 661.87C697.791 654.428 703.842 644.977 701.593 638.793C700.79 636.598 698.969 635.125 696.694 634.858C694.793 634.643 693.026 635.313 692.196 636.571C688.341 642.434 685.182 666.501 685.048 667.519L685.557 668.268ZM693.32 637.321C693.802 636.598 694.82 636.169 695.997 636.169C696.185 636.169 696.372 636.169 696.56 636.196C697.416 636.303 699.478 636.785 700.361 639.248C700.95 640.881 701.164 643.88 698.782 648.913C696.533 653.678 692.464 659.273 686.681 665.618C687.538 659.514 690.268 641.952 693.32 637.321ZM706.171 667.171C704.404 668.938 700.388 669.473 694.525 668.723C691.446 668.322 688.582 667.679 687.056 667.278C688.207 666.261 690.349 664.413 692.838 662.7C697.604 659.407 701.405 657.988 703.842 658.657C705.314 659.059 706.304 660.21 706.893 662.164C707.536 664.413 707.295 666.046 706.171 667.171Z" fill="#FFCF2D"/>
<path d="M631.21 643.425L625.026 650.358C618.012 658.229 616.861 669.687 622.189 678.79L649.415 725.479C654.743 734.608 664.514 740.203 675.062 740.203H686.333C694.498 740.203 700.575 732.707 698.889 724.729L684.7 657.667C681.675 643.317 669.012 633.064 654.341 633.064C645.533 633.037 637.1 636.812 631.21 643.425Z" fill="white" stroke="#3FB1B5" stroke-width="1.33857" stroke-miterlimit="10"/>
<path d="M652.28 663.61L687.431 731.717C689.091 734.795 691.152 736.776 693.508 738.035C691.473 739.4 689.01 740.23 686.333 740.23H675.062C664.488 740.23 654.716 734.608 649.415 725.506L622.189 678.79C621.091 676.889 620.261 674.908 619.699 672.846C615.844 658.524 632.148 647.28 644.382 655.686C647.167 657.587 649.897 660.157 652.28 663.61Z" fill="#3FB1B5"/>
<path d="M652.36 663.771H619.913C620.074 663.262 620.261 662.78 620.475 662.325H651.316C651.637 662.753 651.958 663.182 652.28 663.637L652.36 663.771Z" fill="white"/>
<path d="M657.125 672.98H619.752C619.752 672.927 619.726 672.873 619.726 672.846C619.618 672.418 619.511 671.963 619.431 671.534H656.402L657.125 672.98Z" fill="white"/>
<path d="M661.891 682.216H624.197L623.34 680.744H661.141L661.891 682.216Z" fill="white"/>
<path d="M666.656 691.452H629.577L628.721 689.98H665.906L666.656 691.452Z" fill="white"/>
<path d="M671.421 700.662H634.959L634.102 699.216H670.672L671.421 700.662Z" fill="white"/>
<path d="M676.186 709.898H640.339L639.483 708.425H675.41L676.186 709.898Z" fill="white"/>
<path d="M680.952 719.134H645.72L644.864 717.662H680.175L680.952 719.134Z" fill="white"/>
<path d="M685.691 728.343H651.316C650.968 727.862 650.62 727.38 650.299 726.898H684.941L685.691 728.343Z" fill="white"/>
<path d="M692.731 737.58H662.854C661.891 737.151 660.954 736.669 660.043 736.134H690.804C691.419 736.669 692.062 737.151 692.731 737.58Z" fill="white"/>
<path d="M589.314 585.411C589.073 592.478 569.021 598.207 544.338 598.207C519.654 598.207 499.603 592.505 499.362 585.411V529.753H589.314V585.411Z" fill="#73325A"/>
<path d="M583.343 594.647L583.21 601.259L581.925 665.805V663.931C581.925 647.36 568.485 633.921 551.914 633.921H550.093C541.634 633.921 534.004 637.213 528.355 642.514L524.42 615.903L521.983 599.439C528.569 600.537 536.199 601.152 544.311 601.152C561.016 601.126 575.553 598.502 583.343 594.647Z" fill="#A0505A"/>
<path d="M583.342 594.647L583.208 601.259C573.249 608.327 542.489 617.028 524.445 615.877L522.009 599.412C528.594 600.483 536.224 601.126 544.336 601.126C561.015 601.126 575.552 598.502 583.342 594.647Z" fill="#73325A"/>
<path d="M553.279 741.087H558.258C571.323 741.087 581.924 730.485 581.924 717.421V663.931C581.924 647.36 568.485 633.921 551.914 633.921H550.093C530.818 633.921 515.96 650.92 518.556 670.035L524.848 716.296C526.802 730.485 538.929 741.087 553.279 741.087Z" fill="white" stroke="#3FB1B5" stroke-width="1.33857" stroke-miterlimit="10"/>
<path d="M574.482 734.635C570.252 738.624 564.523 741.087 558.258 741.087H553.279C538.929 741.087 526.802 730.485 524.874 716.296L518.583 670.035C518.476 669.152 518.369 668.268 518.342 667.412C519.948 657.158 528.81 649.314 539.518 649.314C544.792 649.314 549.665 651.242 553.439 654.454C557.214 657.667 559.865 662.191 560.694 667.412L568.967 723.873C569.583 728.076 571.564 731.824 574.482 734.635Z" fill="#3FB1B5"/>
<path d="M558.205 660.264H520.805C521.073 659.755 521.394 659.273 521.715 658.818H557.321C557.642 659.273 557.937 659.755 558.205 660.264Z" fill="white"/>
<path d="M560.989 669.473H518.503C518.449 668.991 518.396 668.509 518.369 668.027H560.775L560.989 669.473Z" fill="white"/>
<path d="M562.354 678.709H519.761L519.547 677.264H562.14L562.354 678.709Z" fill="white"/>
<path d="M563.693 687.945H521.019L520.805 686.473H563.479L563.693 687.945Z" fill="white"/>
<path d="M565.059 697.155H522.278L522.064 695.709H564.844L565.059 697.155Z" fill="white"/>
<path d="M566.397 706.391H523.509L523.322 704.945H566.183L566.397 706.391Z" fill="white"/>
<path d="M567.762 715.627H524.767L524.58 714.155H567.548L567.762 715.627Z" fill="white"/>
<path d="M569.128 724.836H527.418C527.177 724.354 526.963 723.873 526.775 723.391H568.887L568.967 723.873C569.021 724.194 569.074 724.515 569.128 724.836Z" fill="white"/>
<path d="M573.92 734.072H534.486C533.95 733.617 533.415 733.109 532.933 732.627H572.688C573.063 733.135 573.492 733.617 573.92 734.072Z" fill="white"/>
<path d="M608.776 296.118V341.202C606.822 336.088 591.348 336.811 574.322 343.263C559.731 348.805 548.782 356.408 547.175 361.682V298.233C547.175 279.36 557.268 262.494 572.769 253.284C592.901 256.791 608.776 274.327 608.776 296.118Z" fill="#FFCF2D"/>
<path d="M545.997 255.319C532.29 264.849 523.563 280.671 523.563 298.233V350.572H447.345L457.866 305.274C462.337 285.972 476.311 270.579 494.516 264.02L545.997 255.319Z" fill="#FFCF2D"/>
<path d="M700.147 479.342V584.42C700.147 577.272 679.132 571.49 654.288 571.49C629.444 571.49 609.312 577.272 609.312 584.42V534.063C609.312 531.707 607.384 529.78 605.029 529.78H468.387C427.293 529.78 396.908 491.523 406.197 451.5L439.18 309.397C444.427 286.722 462.792 269.454 485.735 265.546L494.516 264.046C476.312 270.605 462.337 285.999 457.866 305.301L447.345 350.598H523.563V298.234C523.563 280.671 532.317 264.823 545.998 255.319L558.045 253.284C560.535 252.856 562.971 252.669 565.407 252.669C565.728 252.669 566.023 252.669 566.344 252.669C566.638 252.669 566.933 252.695 567.201 252.695C567.254 252.695 567.308 252.695 567.361 252.695C567.575 252.695 567.816 252.722 568.03 252.722C568.057 252.722 568.111 252.722 568.138 252.722C568.271 252.722 568.405 252.749 568.512 252.749C568.753 252.776 568.967 252.776 569.208 252.802C569.476 252.829 569.771 252.856 570.038 252.883C570.306 252.91 570.547 252.936 570.815 252.963C570.868 252.963 570.922 252.99 571.002 252.99C571.27 253.017 571.564 253.07 571.832 253.097C571.859 253.097 571.886 253.097 571.886 253.097C572.18 253.15 572.475 253.177 572.769 253.231C557.268 262.44 547.176 279.306 547.176 298.18V426.817H647.675C676.642 426.87 700.147 450.349 700.147 479.342Z" fill="#FE5244"/>
<path d="M547.738 254.141C534.031 263.672 523.536 280.672 523.536 298.234V350.572H447.318L457.839 305.275C462.31 285.972 475.107 270.284 493.338 263.725" stroke="white" stroke-width="1.60629" stroke-miterlimit="10" stroke-linecap="round"/>
<path d="M609.312 517.92C609.312 503.008 614.586 488.578 624.197 477.201" stroke="white" stroke-width="1.60629" stroke-miterlimit="10" stroke-linecap="round"/>
<path d="M497.969 512.592C497.835 512.592 497.702 512.566 497.595 512.485L494.061 510.558C493.659 510.344 493.525 509.862 493.739 509.46C493.954 509.059 494.436 508.925 494.837 509.139L498.371 511.066C498.772 511.281 498.906 511.762 498.692 512.164C498.532 512.432 498.264 512.592 497.969 512.592ZM501.503 511.682C501.209 511.682 500.941 511.522 500.807 511.254C500.593 510.852 500.727 510.37 501.128 510.156L504.662 508.229C505.064 508.014 505.546 508.175 505.76 508.55C505.974 508.951 505.84 509.433 505.439 509.648L501.905 511.575C501.771 511.629 501.637 511.682 501.503 511.682ZM490.902 508.764C490.768 508.764 490.634 508.737 490.527 508.657L486.993 506.729C486.591 506.515 486.458 506.033 486.672 505.632C486.886 505.23 487.368 505.096 487.769 505.311L491.303 507.238C491.705 507.452 491.839 507.934 491.625 508.336C491.464 508.603 491.196 508.764 490.902 508.764ZM508.544 507.827C508.25 507.827 507.982 507.666 507.848 507.399C507.634 506.997 507.768 506.515 508.169 506.301L511.703 504.374C512.319 504.052 512.881 503.678 513.443 503.276C513.791 503.008 514.3 503.089 514.568 503.437C514.835 503.785 514.755 504.293 514.407 504.561C513.791 505.016 513.149 505.418 512.479 505.792L508.946 507.72C508.812 507.8 508.678 507.827 508.544 507.827ZM483.914 504.802C483.754 504.802 483.593 504.748 483.432 504.641C482.308 503.811 481.264 502.848 480.381 501.75C480.086 501.402 480.14 500.893 480.488 500.626C480.836 500.331 481.344 500.385 481.612 500.733C482.415 501.723 483.352 502.58 484.369 503.329C484.717 503.597 484.798 504.106 484.557 504.454C484.423 504.695 484.182 504.802 483.914 504.802ZM516.816 501.991C516.629 501.991 516.468 501.937 516.308 501.804C515.96 501.536 515.906 501.027 516.201 500.679C517.004 499.689 517.673 498.618 518.209 497.44C518.396 497.038 518.878 496.851 519.279 497.038C519.681 497.226 519.868 497.707 519.681 498.109C519.092 499.394 518.342 500.599 517.459 501.67C517.272 501.884 517.057 501.991 516.816 501.991ZM478.881 498.671C478.587 498.671 478.292 498.511 478.158 498.216C477.569 496.931 477.141 495.593 476.873 494.2C476.793 493.772 477.088 493.344 477.516 493.263C477.944 493.183 478.373 493.478 478.453 493.906C478.694 495.164 479.069 496.369 479.604 497.52C479.792 497.922 479.604 498.404 479.203 498.591C479.095 498.644 478.988 498.671 478.881 498.671ZM520.136 494.763C520.083 494.763 520.029 494.763 520.002 494.763C519.574 494.682 519.279 494.254 519.36 493.826C519.52 492.942 519.601 492.059 519.601 491.175V489.971C519.601 489.515 519.949 489.167 520.404 489.167C520.859 489.167 521.207 489.515 521.207 489.971V491.175C521.207 492.166 521.127 493.156 520.939 494.12C520.859 494.495 520.511 494.763 520.136 494.763ZM477.409 490.854C476.954 490.854 476.606 490.506 476.606 490.051V486.035C476.606 485.58 476.954 485.232 477.409 485.232C477.864 485.232 478.212 485.58 478.212 486.035V490.051C478.212 490.479 477.837 490.854 477.409 490.854ZM520.377 486.758C519.922 486.758 519.574 486.41 519.574 485.955V481.939C519.574 481.484 519.922 481.136 520.377 481.136C520.832 481.136 521.18 481.484 521.18 481.939V485.955C521.18 486.41 520.832 486.758 520.377 486.758ZM477.409 482.823C476.954 482.823 476.606 482.475 476.606 482.019V478.004C476.606 477.549 476.954 477.201 477.409 477.201C477.864 477.201 478.212 477.549 478.212 478.004V482.019C478.212 482.448 477.837 482.823 477.409 482.823ZM520.377 478.727C519.922 478.727 519.574 478.379 519.574 477.923V473.908C519.574 473.453 519.922 473.105 520.377 473.105C520.832 473.105 521.18 473.453 521.18 473.908V477.923C521.18 478.379 520.832 478.727 520.377 478.727ZM477.409 474.791C476.954 474.791 476.606 474.443 476.606 473.988V469.972C476.606 469.517 476.954 469.169 477.409 469.169C477.864 469.169 478.212 469.517 478.212 469.972V473.988C478.212 474.416 477.837 474.791 477.409 474.791ZM520.377 470.695C519.922 470.695 519.574 470.347 519.574 469.892V465.876C519.574 465.421 519.922 465.073 520.377 465.073C520.832 465.073 521.18 465.421 521.18 465.876V469.892C521.18 470.347 520.832 470.695 520.377 470.695ZM477.409 466.76C476.954 466.76 476.606 466.412 476.606 465.957V462.503H478.774C479.229 462.503 479.577 462.851 479.577 463.306C479.577 463.761 479.229 464.109 478.774 464.109H478.212V465.957C478.212 466.385 477.837 466.76 477.409 466.76ZM518.931 464.109H514.916C514.461 464.109 514.113 463.761 514.113 463.306C514.113 462.851 514.461 462.503 514.916 462.503H518.931C519.386 462.503 519.735 462.851 519.735 463.306C519.735 463.761 519.386 464.109 518.931 464.109ZM510.9 464.109H506.884C506.429 464.109 506.081 463.761 506.081 463.306C506.081 462.851 506.429 462.503 506.884 462.503H510.9C511.355 462.503 511.703 462.851 511.703 463.306C511.703 463.761 511.355 464.109 510.9 464.109ZM502.869 464.109H498.853C498.398 464.109 498.05 463.761 498.05 463.306C498.05 462.851 498.398 462.503 498.853 462.503H502.869C503.324 462.503 503.672 462.851 503.672 463.306C503.672 463.761 503.324 464.109 502.869 464.109ZM494.837 464.109H490.821C490.366 464.109 490.018 463.761 490.018 463.306C490.018 462.851 490.366 462.503 490.821 462.503H494.837C495.292 462.503 495.64 462.851 495.64 463.306C495.64 463.761 495.292 464.109 494.837 464.109ZM486.806 464.109H482.79C482.335 464.109 481.987 463.761 481.987 463.306C481.987 462.851 482.335 462.503 482.79 462.503H486.806C487.261 462.503 487.609 462.851 487.609 463.306C487.609 463.761 487.261 464.109 486.806 464.109Z" fill="white"/>
<path d="M422.206 508.148C421.912 508.148 421.644 507.988 421.51 507.72C421.296 507.318 421.43 506.837 421.831 506.622L425.097 504.829C425.178 504.775 425.258 504.748 425.338 504.695C425.713 504.481 426.222 504.615 426.436 504.989C426.65 505.364 426.516 505.873 426.141 506.087C426.061 506.14 425.981 506.194 425.874 506.221L422.608 508.014C422.474 508.122 422.34 508.148 422.206 508.148ZM428.979 503.865C428.765 503.865 428.551 503.785 428.39 503.597C428.096 503.276 428.123 502.767 428.444 502.473C429.381 501.616 430.211 500.626 430.934 499.581C431.174 499.207 431.683 499.126 432.058 499.367C432.433 499.608 432.513 500.117 432.272 500.492C431.496 501.643 430.559 502.714 429.541 503.678C429.354 503.811 429.167 503.865 428.979 503.865ZM433.45 497.279C433.343 497.279 433.263 497.252 433.156 497.226C432.754 497.065 432.54 496.61 432.7 496.182C433.156 494.977 433.477 493.745 433.664 492.487C433.718 492.059 434.119 491.737 434.574 491.791C435.003 491.845 435.324 492.246 435.271 492.701C435.083 494.093 434.735 495.459 434.226 496.77C434.066 497.092 433.771 497.279 433.45 497.279ZM434.601 489.408C434.146 489.408 433.798 489.06 433.798 488.605V484.589C433.798 484.134 434.146 483.786 434.601 483.786C435.056 483.786 435.404 484.134 435.404 484.589V488.605C435.404 489.034 435.056 489.408 434.601 489.408ZM434.601 481.377C434.146 481.377 433.798 481.029 433.798 480.574V476.558C433.798 476.103 434.146 475.755 434.601 475.755C435.056 475.755 435.404 476.103 435.404 476.558V480.574C435.404 481.002 435.056 481.377 434.601 481.377ZM434.601 473.345C434.146 473.345 433.798 472.997 433.798 472.542V468.527C433.798 468.072 434.146 467.723 434.601 467.723C435.056 467.723 435.404 468.072 435.404 468.527V472.542C435.404 472.971 435.056 473.345 434.601 473.345ZM434.601 465.314C434.146 465.314 433.798 464.966 433.798 464.511V464.109H431.79C431.335 464.109 430.987 463.761 430.987 463.306C430.987 462.851 431.335 462.503 431.79 462.503H435.404V464.511C435.404 464.939 435.056 465.314 434.601 465.314ZM427.775 464.109H423.759C423.304 464.109 422.956 463.761 422.956 463.306C422.956 462.851 423.304 462.503 423.759 462.503H427.775C428.23 462.503 428.578 462.851 428.578 463.306C428.578 463.761 428.203 464.109 427.775 464.109ZM419.743 464.109H415.727C415.272 464.109 414.924 463.761 414.924 463.306C414.924 462.851 415.272 462.503 415.727 462.503H419.743C420.198 462.503 420.546 462.851 420.546 463.306C420.546 463.761 420.171 464.109 419.743 464.109ZM411.712 464.109H407.696C407.241 464.109 406.893 463.761 406.893 463.306C406.893 462.851 407.241 462.503 407.696 462.503H411.712C412.167 462.503 412.515 462.851 412.515 463.306C412.515 463.761 412.14 464.109 411.712 464.109Z" fill="white"/>
<path d="M608.777 341.201C610.731 346.314 598.363 355.39 581.363 361.842C564.363 368.294 549.13 369.284 547.176 364.144C545.221 359.004 557.295 349.741 574.322 343.289C591.349 336.837 606.822 336.061 608.777 341.201Z" fill="#FE5244"/>
<path d="M618.281 507.292V510.129C617.397 509.915 616.46 509.808 615.523 509.808H612.07C606.956 509.808 602.593 506.542 600.933 501.991L610.731 500.679C614.72 500.144 618.281 503.249 618.281 507.292Z" fill="#73325A"/>
<path d="M627.328 521.614V543.406C627.328 548.493 623.206 552.615 618.119 552.615H607.866C605.322 552.615 603.02 551.598 601.36 549.912C599.7 548.252 598.656 545.949 598.656 543.406H605.322C607.518 543.406 609.285 541.639 609.285 539.444V533.742C609.285 531.546 607.518 529.779 605.322 529.779H571.242C557.937 529.779 547.148 518.991 547.148 505.685V361.708C548.754 356.434 559.704 348.805 574.294 343.29C584.253 339.515 593.704 337.694 600.209 337.855V498.002C600.209 504.534 605.51 509.835 612.042 509.835H615.496C622.028 509.808 627.328 515.082 627.328 521.614Z" fill="#A0505A"/>
<path d="M600.209 337.828V352.392C595.363 355.658 588.804 359.005 581.335 361.816C564.309 368.268 549.102 369.258 547.148 364.118V361.682C548.754 356.408 559.704 348.778 574.294 343.263C584.28 339.488 593.704 337.668 600.209 337.828Z" fill="#73325A"/>
<path d="M555.688 229.377L545.622 255.319L493.739 264.609L507.286 229.377H555.688Z" fill="#A0505A"/>
<path d="M555.688 229.377L550.254 243.406L498.799 251.437L507.286 229.377H555.688Z" fill="#73325A"/>
<path d="M586.101 176.584C586.101 180.091 580.024 183.973 573.01 187.239C563.452 191.71 552.181 195.11 552.181 195.11L544.578 209.433C554.912 214.921 558.955 224.773 560.561 231.653C561.578 236.044 561.578 239.176 561.578 239.176H488.706C488.706 239.176 469.565 177.173 515.692 162.342C543.909 153.266 586.101 168.258 586.101 176.584Z" fill="white" stroke="#FFCF2D" stroke-width="1.60629" stroke-miterlimit="10" stroke-linecap="round"/>
<path d="M508.945 171.176C518.955 171.176 527.07 163.062 527.07 153.052C527.07 143.042 518.955 134.928 508.945 134.928C498.936 134.928 490.821 143.042 490.821 153.052C490.821 163.062 498.936 171.176 508.945 171.176Z" fill="white" stroke="#FFCF2D" stroke-width="1.60629" stroke-miterlimit="10" stroke-linecap="round"/>
<path d="M560.534 231.653C559.035 225.148 555.287 215.885 546.051 210.29H543.668C541.473 210.29 539.465 209.406 538.019 207.961C536.574 206.515 535.69 204.507 535.69 202.312C535.69 197.894 539.251 194.334 543.668 194.334L553.761 194.548H554.028C554.216 194.495 554.403 194.414 554.617 194.361C557.348 193.772 565.995 191.684 573.17 188.096L574 193.049L576.677 208.924C578.498 219.82 571.028 229.86 560.534 231.653Z" fill="#A0505A"/>
<path d="M573.973 193.022C565.192 196.582 553.734 194.521 553.734 194.521C553.734 194.521 564.523 192.379 573.144 188.069L573.973 193.022Z" fill="#73325A"/>
<path d="M549.879 203.837C549.879 200.785 547.416 198.323 544.364 198.323" stroke="#73325A" stroke-width="1.33857" stroke-miterlimit="10" stroke-linecap="round"/>
<path d="M578.23 543.406L609.312 802.072" stroke="#66B0F0" stroke-width="1.60629" stroke-miterlimit="10"/>
<path d="M443.49 543.406L412.435 802.072" stroke="#66B0F0" stroke-width="1.60629" stroke-miterlimit="10"/>
<path d="M423.09 713.244H598.63" stroke="#66B0F0" stroke-width="1.60629" stroke-miterlimit="10"/>
<path d="M416.478 543.406H605.243C607.492 543.406 609.312 541.586 609.312 539.337V533.822C609.312 531.573 607.492 529.753 605.243 529.753H416.478C414.229 529.753 412.408 531.573 412.408 533.822V539.337C412.435 541.586 414.256 543.406 416.478 543.406Z" fill="white" stroke="#FFCF2D" stroke-width="1.60629" stroke-miterlimit="10"/>
</svg>
