<svg width="36" height="36" viewBox="0 0 36 36" fill="none" xmlns="http://www.w3.org/2000/svg">
<circle cx="18" cy="18" r="18" fill="#FFD54E"/>
<path d="M8.41564 18.3367L12.5539 19.8798L14.1671 25.0702C14.2373 25.4209 14.6581 25.491 14.9387 25.2806L17.2533 23.3868C17.4637 23.1764 17.8144 23.1764 18.095 23.3868L22.2333 26.4028C22.5138 26.6133 22.9347 26.473 23.0048 26.1223L26.091 11.3928C26.1611 11.0421 25.8104 10.6914 25.4597 10.8317L8.41564 17.4249C7.9948 17.5652 7.9948 18.1964 8.41564 18.3367ZM13.9567 19.1083L22.093 14.1283C22.2333 14.0582 22.3735 14.2686 22.2333 14.3387L15.5699 20.5812C15.3595 20.7916 15.1491 21.0722 15.1491 21.4229L14.9387 23.1063C14.9387 23.3167 14.588 23.3868 14.5178 23.1063L13.6762 20.0201C13.4657 19.6694 13.606 19.2485 13.9567 19.1083Z" fill="#323232"/>
</svg>
