<svg width="16" height="16" viewBox="0 0 16 16" fill="none" xmlns="http://www.w3.org/2000/svg">
<g clip-path="url(#clip0)">
<path d="M9.9999 8.66685C9.63125 8.66685 9.33328 8.96555 9.33328 9.33347V12.0002C9.33328 12.3675 9.03457 12.6668 8.66654 12.6668H6.66656V2.66691C6.66656 2.09758 6.30389 1.58891 5.75861 1.39958L5.56122 1.33354H8.66654C9.03457 1.33354 9.33328 1.63286 9.33328 2.00029V4.00027C9.33328 4.36818 9.63125 4.66689 9.9999 4.66689C10.3685 4.66689 10.6665 4.36818 10.6665 4.00027V2.00029C10.6665 0.897636 9.76919 0.000305176 8.66654 0.000305176H1.49998C1.47459 0.000305176 1.45335 0.0116576 1.4287 0.0149535C1.39659 0.012268 1.36595 0.000305176 1.33336 0.000305176C0.598016 0.000305176 0 0.5982 0 1.33354V13.3334C0 13.9028 0.362667 14.4114 0.907949 14.6008L4.91999 15.9381C5.05598 15.9801 5.19123 16.0002 5.33332 16.0002C6.06866 16.0002 6.66656 15.4021 6.66656 14.6668V14.0002H8.66654C9.76919 14.0002 10.6665 13.1028 10.6665 12.0002V9.33347C10.6665 8.96555 10.3685 8.66685 9.9999 8.66685Z" fill="#999999"/>
<path d="M15.8045 6.19542L13.1378 3.52883C12.9472 3.33815 12.6605 3.28078 12.4112 3.38405C12.1626 3.48744 11.9998 3.73073 11.9998 4.00013V6.00011H9.33324C8.96521 6.00011 8.6665 6.29869 8.6665 6.66673C8.6665 7.03477 8.96521 7.33335 9.33324 7.33335H11.9998V9.33333C11.9998 9.60274 12.1626 9.84602 12.4112 9.94941C12.6605 10.0527 12.9472 9.99531 13.1378 9.80476L15.8045 7.13804C16.0651 6.87742 16.0651 6.45604 15.8045 6.19542Z" fill="#999999"/>
</g>
<defs>
<clipPath id="clip0">
<rect width="16" height="16" fill="white"/>
</clipPath>
</defs>
</svg>
