<svg width="24" height="24" viewBox="0 0 24 24" fill="none" xmlns="http://www.w3.org/2000/svg">
<path d="M24 17.3333C24 18.806 22.7358 20 21.1765 20H2.82353C1.26424 20 0 18.806 0 17.3333V4.20867C0 2.736 4.08776 0 5.64706 0H20.2059C22.3899 0 24 1.54133 24 3.58333V17.3333Z" fill="#226699"/>
<path d="M22.5883 20C22.5883 21.4727 21.324 22.6667 19.7647 22.6667H4.23533C2.67604 22.6667 1.41181 21.4727 1.41181 20V4.00003C1.41181 1.25403 1.39698 1.33337 4.94122 1.33337H19.7647C21.324 1.33337 22.5883 2.52737 22.5883 4.00003V20Z" fill="#CCD6DD"/>
<path d="M21.1765 20.6666C21.1765 21.7713 20.2285 22.6666 19.0588 22.6666H2.11765C0.948 22.6666 0 21.7713 0 20.6666V4.66663C0 3.56196 0.948 2.66663 2.11765 2.66663H19.0588C20.2285 2.66663 21.1765 3.56196 21.1765 4.66663V20.6666Z" fill="#E1E8ED"/>
<path d="M21.1764 21.3333C21.1764 22.806 19.9122 24 18.3529 24H3.52937C1.97008 24 0.705841 22.806 0.705841 21.3333V6.66667C0.705841 5.194 1.97008 4 3.52937 4H18.3529C19.9122 4 21.1764 5.194 21.1764 6.66667V21.3333Z" fill="#3B88C3"/>
<path d="M19.7647 21.3334C19.7647 22.806 18.5004 24 16.9411 24H3.52937C1.97008 24 0.705841 22.806 0.705841 21.3334V8.00004C0.705841 6.52737 1.97008 5.33337 3.52937 5.33337H17.1776C18.7369 5.33337 19.7647 6.30404 19.7647 7.77671V21.3334Z" fill="#55ACEE"/>
<path d="M3.52941 4C2.33788 4 2.30753 2.71867 2.82353 2.16667C3.41082 1.53933 4.32353 1.33333 5.95624 1.33333H7.05882V0H5.13953C2.33788 0 0 1.66667 0 3.58333V21.3333C0 22.806 1.26424 24 2.82353 24H4.23529V4H3.52941Z" fill="#226699"/>
</svg>
