<svg width="658" height="224" viewBox="0 0 658 224" fill="none" xmlns="http://www.w3.org/2000/svg">
<g clip-path="url(#clip0)">
<g opacity="0.6">
<path opacity="0.6" fill-rule="evenodd" clip-rule="evenodd" d="M342.14 80.7007C341.251 80.7007 340.531 81.4219 340.531 82.3116L340.531 113.455C340.531 114.345 341.251 115.066 342.14 115.066C343.028 115.066 343.749 114.345 343.749 113.455L343.749 82.3116C343.749 81.4219 343.028 80.7007 342.14 80.7007Z" fill="#FFC75A"/>
<path opacity="0.6" fill-rule="evenodd" clip-rule="evenodd" d="M324.871 97.7759C324.871 98.6655 325.591 99.3867 326.48 99.3867L357.585 99.3867C358.473 99.3867 359.194 98.6655 359.194 97.7759C359.194 96.8862 358.473 96.165 357.585 96.165L326.48 96.165C325.591 96.165 324.871 96.8862 324.871 97.7759Z" fill="#FFC75A"/>
<path opacity="0.6" fill-rule="evenodd" clip-rule="evenodd" d="M333.539 89.357C332.91 89.9861 332.91 91.0061 333.539 91.6352L348.425 106.54C349.053 107.169 350.072 107.169 350.7 106.54C351.329 105.911 351.329 104.891 350.7 104.262L335.814 89.357C335.186 88.728 334.167 88.728 333.539 89.357Z" fill="#FFC75A"/>
<path opacity="0.6" fill-rule="evenodd" clip-rule="evenodd" d="M333.363 106.54C333.991 107.169 335.01 107.169 335.638 106.54L350.524 91.6356C351.152 91.0066 351.152 89.9866 350.524 89.3575C349.896 88.7284 348.877 88.7285 348.249 89.3575L333.363 104.262C332.734 104.891 332.734 105.911 333.363 106.54Z" fill="#FFC75A"/>
<path opacity="0.6" fill-rule="evenodd" clip-rule="evenodd" d="M470.876 168.527C469.987 168.527 469.267 169.249 469.267 170.138L469.267 201.282C469.267 202.171 469.987 202.893 470.876 202.893C471.765 202.893 472.485 202.171 472.485 201.282L472.485 170.138C472.485 169.249 471.765 168.527 470.876 168.527Z" fill="#F08A4F"/>
<path opacity="0.6" fill-rule="evenodd" clip-rule="evenodd" d="M453.607 185.603C453.607 186.492 454.327 187.213 455.216 187.213L486.321 187.213C487.21 187.213 487.93 186.492 487.93 185.603C487.93 184.713 487.21 183.992 486.321 183.992L455.216 183.992C454.327 183.992 453.607 184.713 453.607 185.603Z" fill="#F08A4F"/>
<path opacity="0.6" fill-rule="evenodd" clip-rule="evenodd" d="M462.276 177.184C461.647 177.813 461.647 178.833 462.276 179.462L477.162 194.366C477.79 194.995 478.809 194.995 479.437 194.366C480.065 193.737 480.065 192.717 479.437 192.088L464.551 177.184C463.923 176.555 462.904 176.555 462.276 177.184Z" fill="#F08A4F"/>
<path opacity="0.6" fill-rule="evenodd" clip-rule="evenodd" d="M462.099 194.367C462.728 194.996 463.746 194.996 464.375 194.367L479.261 179.462C479.889 178.833 479.889 177.813 479.261 177.184C478.633 176.555 477.614 176.555 476.986 177.184L462.099 192.089C461.471 192.718 461.471 193.738 462.099 194.367Z" fill="#F08A4F"/>
<g opacity="0.5">
<path opacity="0.5" fill-rule="evenodd" clip-rule="evenodd" d="M122.285 222.222C121.397 222.222 120.676 222.943 120.676 223.833L120.676 254.976C120.676 255.866 121.397 256.587 122.285 256.587C123.174 256.587 123.894 255.866 123.894 254.976L123.894 223.833C123.894 222.943 123.174 222.222 122.285 222.222Z" fill="#F08A4F"/>
</g>
<path opacity="0.6" fill-rule="evenodd" clip-rule="evenodd" d="M606.047 71.772C605.158 71.772 604.438 72.4932 604.438 73.3828L604.438 84.122C604.438 85.0116 605.158 85.7328 606.047 85.7328C606.935 85.7328 607.656 85.0116 607.656 84.122L607.656 73.3828C607.656 72.4932 606.935 71.772 606.047 71.772Z" fill="#FFC75A"/>
<path opacity="0.6" fill-rule="evenodd" clip-rule="evenodd" d="M599.075 78.7525C599.075 79.6421 599.796 80.3633 600.684 80.3633L611.41 80.3633C612.299 80.3633 613.019 79.6421 613.019 78.7525C613.019 77.8628 612.299 77.1416 611.41 77.1416L600.684 77.1416C599.796 77.1416 599.075 77.8628 599.075 78.7525Z" fill="#FFC75A"/>
<path opacity="0.6" fill-rule="evenodd" clip-rule="evenodd" d="M105.408 115.298C104.52 115.298 103.799 116.02 103.799 116.909L103.799 127.648C103.799 128.538 104.52 129.259 105.408 129.259C106.297 129.259 107.017 128.538 107.017 127.648L107.017 116.909C107.017 116.02 106.297 115.298 105.408 115.298Z" fill="#FFC75A" fill-opacity="0.5"/>
<path opacity="0.6" fill-rule="evenodd" clip-rule="evenodd" d="M98.437 122.279C98.437 123.168 99.157 123.89 100.045 123.89L110.771 123.89C111.66 123.89 112.38 123.168 112.38 122.279C112.38 121.389 111.66 120.668 110.771 120.668L100.045 120.668C99.157 120.668 98.437 121.389 98.437 122.279Z" fill="#FFC75A" fill-opacity="0.5"/>
<path opacity="0.6" d="M288.516 197.544L298.886 207.926L300.959 210.002L305.107 214.155C306.253 215.302 306.253 217.161 305.107 218.308C303.961 219.455 302.105 219.455 300.959 218.308L296.812 214.155L294.738 212.079L284.369 201.697C283.223 200.549 283.223 198.691 284.369 197.544C285.514 196.397 287.371 196.397 288.516 197.544Z" fill="white" fill-opacity="0.3"/>
<path opacity="0.6" d="M298.942 203.717C297.402 202.175 297.402 199.675 298.942 198.134C300.482 196.592 302.978 196.592 304.518 198.134C306.058 199.675 306.058 202.175 304.518 203.717C302.978 205.259 300.482 205.259 298.942 203.717Z" fill="white" fill-opacity="0.3"/>
<path opacity="0.6" d="M284.943 217.732C283.403 216.19 283.403 213.691 284.943 212.149C286.483 210.607 288.98 210.607 290.52 212.149C292.06 213.691 292.06 216.19 290.52 217.732C288.98 219.274 286.483 219.274 284.943 217.732Z" fill="white" fill-opacity="0.3"/>
</g>
</g>
<defs>
<clipPath id="clip0">
<rect width="224" height="658" fill="white" transform="translate(658) rotate(90)"/>
</clipPath>
</defs>
</svg>
