<svg width="344" height="795" viewBox="0 0 344 795" fill="none" xmlns="http://www.w3.org/2000/svg">
<mask id="mask0" mask-type="alpha" maskUnits="userSpaceOnUse" x="0" y="-160" width="344" height="955">
<path d="M344 -160H0V795H344V-160Z" fill="#C4C4C4"/>
</mask>
<g mask="url(#mask0)">
<path d="M173.06 539.569C173.06 539.569 163.163 548.193 164.936 561.399C166.709 574.605 174.704 588.513 164.242 598.974C152.933 609.576 154.56 611.482 158.594 622.567C162.629 633.653 168.927 647.845 136.621 671.105C104.314 694.366 73.8088 613.66 73.8088 613.66C73.8088 613.66 84.824 570.004 88.6412 566.752C92.105 563.995 124.976 538.898 124.976 538.898L173.06 539.569Z" fill="#2A1A4F"/>
<path d="M119.488 615.594C119.488 615.594 109.654 601.122 107.885 598.369C107.885 598.369 105.338 593.568 110.638 586.148C110.638 586.148 113.324 581.343 114.879 580.212L102.501 571.392L90.1234 562.573C89.5584 564.41 85.8828 568.509 85.8828 568.509C80.087 575.576 75.2077 575.085 75.2077 575.085C72.0254 574.311 55.1235 569.732 55.1235 569.732L51.7559 643.472L119.488 615.594Z" fill="#FFC5B6"/>
<path d="M86.7927 566.184C87.4995 565.194 88.5597 563.71 89.2665 562.721C90.6121 568.158 94.0082 572.818 98.9597 576.346C103.416 579.521 108.438 580.86 113.671 580.856C112.257 582.835 110.985 585.661 110.985 585.661C106.179 593.434 108.232 597.883 108.232 597.883L108.868 599.083L86.7927 566.184Z" fill="#FFC5B6"/>
<path d="M100.129 502.545C94.9002 513.002 89.5296 522.611 87.4831 533.842C85.4365 545.074 85.8654 558.069 89.9 569.155C91.4571 573.25 93.0142 577.345 96.8333 579.32C100.299 581.789 104.683 581.927 109.067 582.065C132.401 580.777 153.893 568.472 165.483 549.111C169.228 542.822 178.276 534.34 177 526.713C175.867 519.934 170.556 501.221 165.464 496.846C157.259 489.507 146.65 483.441 135.548 482.248C124.799 480.561 119.85 482.26 111.367 488.905L100.129 502.545Z" fill="#FFC5B6"/>
<path d="M129.18 475.472C129.18 475.472 119.002 487.628 133.432 500.895C147.862 514.163 154.015 517.054 155.435 530.756C156.996 545.304 151.062 561.977 140.742 573.286C140.742 573.286 174.472 574.179 180.185 532.715C186.744 485.882 137.663 468.826 129.18 475.472Z" fill="#2A1A4F"/>
<path d="M77.9463 562.865C77.9463 562.865 85.5083 553.325 82.8875 540.262C80.2667 527.199 82.5928 507.21 90.4382 499.365C98.637 491.026 120.83 467.28 139.852 474.116C159.369 481.305 140.349 479.695 140.349 479.695C140.349 479.695 132.296 499.334 118.37 507.325C104.797 514.821 93.5578 523.234 93.2102 539.407C92.7207 554.733 86.0752 556.715 77.9463 562.865Z" fill="#2A1A4F"/>
<path d="M99.8678 553.112C99.8678 553.112 106.66 562.431 121.655 568.636C121.655 568.636 115.787 572.667 107.511 567.517C98.7395 562.013 99.8678 553.112 99.8678 553.112Z" fill="white"/>
<path d="M153.674 543.681C155.938 546.788 156.575 547.988 156.575 547.988C156.575 547.988 156.573 542.761 153.602 540.644C152.117 539.585 139.314 533.449 139.314 533.449C139.314 533.449 138.254 534.933 139.739 535.992C142.357 538.603 151.905 540.927 153.674 543.681Z" fill="#2A1A4F"/>
<path d="M146.749 554.424C144.98 551.67 140.805 544.963 131.965 546.877C131.965 546.877 143.069 548.069 145.335 556.403C148.164 557.672 149.79 554.351 149.79 554.351C148.941 554.493 148.093 554.635 146.749 554.424Z" fill="#2A1A4F"/>
<path d="M104.164 524.078C104.022 523.23 103.032 522.524 103.244 521.182C103.244 521.182 100.628 523.798 102.75 526.057C111.378 525.485 116.12 535.583 116.12 535.583C115.056 526.613 107.7 524.358 104.164 524.078Z" fill="#2A1A4F"/>
<path d="M106.561 512.35C106.561 512.35 107.905 512.561 111.583 513.689C115.261 514.816 120.073 522.724 123.892 524.699C125.236 524.91 126.438 524.274 126.438 524.274C126.438 524.274 116.463 514.179 114.977 513.121C111.511 510.651 106.561 512.35 106.561 512.35Z" fill="#2A1A4F"/>
<path d="M121.432 543.846L113.306 555.222C113.306 555.222 113.445 550.844 114.01 549.007C114.222 547.665 121.432 543.846 121.432 543.846Z" fill="#B7747D"/>
<path d="M43.114 771.659C41.1355 775.474 33.4292 778.941 29.4702 781.345C26.3597 783.607 2.10526 804.689 -0.723663 803.42C-5.0379 801.092 -6.23392 786.817 -10.5482 784.49C-19.1767 779.835 -8.7911 763.787 -16.7129 758.142C-31.071 747.912 -45.6408 739.023 -59.2922 727.803C-64.8801 723.075 -68.9128 717.216 -73.2989 711.851C-77.0481 707.687 -79.5954 702.886 -76.7684 698.929C-71.4677 691.509 -60.5092 686.627 -53.5814 681.113C-48.5623 677.225 -24.3189 647.472 -23.7558 640.409C-23.7577 635.182 -19.6588 628.399 -17.6803 624.584C-16.9735 623.594 -16.6201 623.1 -16.2668 622.605L-15.9134 622.11C-20.016 618.441 -23.3419 611.592 -25.6776 605.449C-28.6501 598.106 -30.1373 591.821 -30.1373 591.821C-30.1373 591.821 -5.0417 572.379 1.60258 565.17C8.24689 557.961 12.631 558.099 21.1877 559.717C29.7444 561.336 54.8495 568.027 55.3446 568.38C57.6784 569.296 58.5288 574.381 58.8122 576.076C60.2276 579.323 62.1381 582.924 64.0486 586.525C68.223 593.231 73.4576 598.454 79.894 603.04C90.2913 610.449 103.162 614.394 115.82 614.456C118.365 614.03 118.507 614.877 120.134 616.783C121.266 618.336 122.398 619.889 123.53 621.442C125.935 625.396 129.189 629.207 131.595 633.161C133.859 636.267 135.769 639.867 137.68 643.468C141.996 651.022 143.553 655.117 138.889 663.738C134.226 672.358 123.983 702.383 123.983 702.383C123.983 702.383 100.791 704.519 90.6767 698.805C90.6767 698.805 82.7606 708.84 76.2562 711.67C69.7517 714.5 49.4692 747.075 47.4207 753.08C45.2306 758.238 48.2031 765.581 45.5178 770.386" fill="#F9BC33"/>
<path d="M62.016 644.801C61.6626 645.295 61.3092 645.79 60.9559 646.284C56.2204 651.867 48.5145 655.334 41.8687 657.316C36.0712 659.157 30.2739 660.997 24.2629 658.954C27.6567 658.386 30.5554 657.466 33.4541 656.546C41.3018 653.927 49.0077 650.46 54.0965 644.383C54.4499 643.888 54.8032 643.393 55.1566 642.899C57.2768 639.931 58.9019 636.61 57.4865 633.363C56.5663 630.468 54.0909 628.704 51.2621 627.435C53.5958 628.351 55.9295 629.267 58.2632 630.184C60.5969 631.1 63.0723 632.864 63.9925 635.759C64.9128 638.654 64.1361 641.833 62.016 644.801Z" fill="#E5B177"/>
<path d="M122.3 702.683C107.947 702.906 85.8148 698.332 85.8148 698.332C77.616 706.671 80.1613 706.246 73.3059 714.796C72.6692 713.596 75.0746 717.549 74.4378 716.349L51.4116 782.046C53.6035 782.115 56.1487 781.689 58.1989 780.911C68.0964 777.514 76.2253 771.364 81.7371 762.602C95.7293 741.97 108.308 723.316 122.3 702.683Z" fill="#FFC5B6"/>
<path d="M73.0104 713.092C71.8067 708.502 70.2496 704.407 69.8944 699.675C69.6109 697.98 69.1857 695.438 68.9023 693.743C67.6267 686.116 67.553 677.853 69.8131 670.506C70.9432 666.832 72.5683 663.511 72.8499 659.98C73.1314 656.448 71.716 653.2 70.654 649.458C69.592 645.715 67.6815 642.115 66.2662 638.867C64.0023 635.761 61.0317 633.644 58.4145 631.033C56.7874 629.127 53.3935 629.695 50.353 629.768C47.3125 629.84 45.8272 628.782 44.0603 631.255C43.7069 631.75 43.3536 632.245 43.0002 632.739C39.2548 639.028 38.48 647.433 38.7653 654.355C39.0507 661.276 38.8409 667.845 43.9336 672.22C47.5411 675.537 51.2902 679.701 51.2921 684.927C51.3639 687.964 50.0922 690.79 48.8204 693.616C41.6149 713.115 35.8948 733.672 39.7913 754.363C40.3582 757.753 41.2785 760.648 41.8454 764.038C42.2706 766.58 43.1909 769.475 43.6161 772.017C44.183 775.407 45.245 779.15 47.7205 780.913C48.7107 781.619 50.5494 782.183 51.893 782.394L74.9209 716.692C74.2841 715.492 73.6473 714.292 73.0104 713.092Z" fill="#FFC5B6"/>
<path d="M34.3128 682.538L6.58755 662.783C4.11208 661.019 3.54516 657.63 5.31201 655.156L39.9422 606.68C41.7091 604.207 45.1029 603.64 47.5784 605.404L75.3037 625.159C77.7792 626.922 78.3461 630.312 76.5792 632.785L41.949 681.261C40.1821 683.734 36.7883 684.302 34.3128 682.538Z" fill="#5E40AD"/>
<path d="M63.9884 635.747C63.0681 632.852 60.5926 631.088 58.2589 630.172C54.9349 628.55 50.7625 627.07 47.5803 626.295C43.903 625.168 40.014 625.383 36.1251 625.598C32.2361 625.812 29.0539 625.038 25.4484 626.947C22.1963 628.362 19.5809 630.977 16.4705 633.24C10.2497 637.765 2.89693 640.736 -5.23437 641.66C-6.9313 641.944 -9.47668 642.37 -11.1736 642.654C-15.4159 643.363 -20.1533 643.72 -24.8908 644.076C-26.5877 644.36 -28.7797 644.291 -30.1233 644.08L-68.2192 690.087C-66.5223 689.803 -64.8254 689.519 -62.6334 689.588C-59.2395 689.021 -56.199 688.948 -52.8051 688.38C-31.9469 685.328 -14.3445 673.238 1.77254 660.089C4.03449 657.968 6.29644 655.848 9.19521 654.928C13.7909 653.724 18.9535 655.909 23.6211 657.742C29.7738 660.633 35.9247 658.298 42.2174 656.81C49.7118 654.686 56.5695 651.361 61.305 645.778C61.6584 645.284 62.0118 644.789 62.3651 644.294C64.132 641.821 64.9087 638.642 63.9884 635.747Z" fill="#FFC5B6"/>
<path d="M44.465 618.12L43.4747 617.414C41.9894 616.356 41.5642 613.813 42.6243 612.329L42.9777 611.835C44.0379 610.351 46.5834 609.925 48.0688 610.983L48.5639 611.336C50.0492 612.394 50.4744 614.937 49.4143 616.421L49.0609 616.915C48.1424 619.247 45.9503 619.178 44.465 618.12Z" fill="#4A3596"/>
<path opacity="0.3" fill-rule="evenodd" clip-rule="evenodd" d="M225.473 166.973C225.473 167.861 224.752 168.582 223.862 168.582H192.719C191.829 168.582 191.108 167.861 191.108 166.973C191.108 166.084 191.829 165.364 192.719 165.364H223.862C224.752 165.364 225.473 166.084 225.473 166.973Z" fill="#FFC75A"/>
<path opacity="0.3" fill-rule="evenodd" clip-rule="evenodd" d="M208.398 184.242C207.508 184.242 206.787 183.521 206.787 182.633V151.528C206.787 150.639 207.508 149.919 208.398 149.919C209.288 149.919 210.009 150.639 210.009 151.528V182.633C210.009 183.521 209.288 184.242 208.398 184.242Z" fill="#FFC75A"/>
<path opacity="0.3" fill-rule="evenodd" clip-rule="evenodd" d="M216.817 175.574C216.188 176.202 215.168 176.202 214.539 175.574L199.634 160.688C199.005 160.059 199.005 159.041 199.634 158.412C200.263 157.784 201.283 157.784 201.912 158.412L216.817 173.298C217.446 173.927 217.446 174.945 216.817 175.574Z" fill="#FFC75A"/>
<path opacity="0.3" fill-rule="evenodd" clip-rule="evenodd" d="M199.634 175.75C199.005 175.122 199.005 174.103 199.634 173.475L214.538 158.588C215.167 157.96 216.187 157.96 216.816 158.588C217.445 159.217 217.445 160.235 216.816 160.864L201.912 175.75C201.283 176.378 200.263 176.378 199.634 175.75Z" fill="#FFC75A"/>
<path opacity="0.3" fill-rule="evenodd" clip-rule="evenodd" d="M137.646 38.2363C137.646 39.1253 136.925 39.8453 136.036 39.8453H104.892C104.002 39.8453 103.281 39.1253 103.281 38.2363C103.281 37.3483 104.002 36.6283 104.892 36.6283H136.036C136.925 36.6283 137.646 37.3483 137.646 38.2363Z" fill="#F08A4F"/>
<path opacity="0.3" fill-rule="evenodd" clip-rule="evenodd" d="M120.571 55.5054C119.682 55.5054 118.96 54.7854 118.96 53.8964V22.7914C118.96 21.9034 119.682 21.1824 120.571 21.1824C121.461 21.1824 122.182 21.9034 122.182 22.7914V53.8964C122.182 54.7854 121.461 55.5054 120.571 55.5054Z" fill="#F08A4F"/>
<path opacity="0.3" fill-rule="evenodd" clip-rule="evenodd" d="M128.99 46.8373C128.361 47.4653 127.341 47.4653 126.712 46.8373L111.807 31.9513C111.178 31.3223 111.178 30.3043 111.807 29.6753C112.437 29.0473 113.457 29.0473 114.086 29.6753L128.99 44.5623C129.619 45.1903 129.619 46.2093 128.99 46.8373Z" fill="#F08A4F"/>
<path opacity="0.3" fill-rule="evenodd" clip-rule="evenodd" d="M111.807 47.0134C111.178 46.3854 111.178 45.3664 111.807 44.7384L126.712 29.8524C127.341 29.2234 128.361 29.2234 128.99 29.8524C129.619 30.4804 129.619 31.4994 128.99 32.1274L114.085 47.0134C113.456 47.6414 112.436 47.6414 111.807 47.0134Z" fill="#F08A4F"/>
<g opacity="0.5">
<path opacity="0.5" fill-rule="evenodd" clip-rule="evenodd" d="M83.9516 386.827C83.9516 387.716 83.2303 388.436 82.3407 388.436H51.1972C50.3076 388.436 49.5864 387.716 49.5864 386.827C49.5864 385.938 50.3076 385.218 51.1972 385.218H82.3407C83.2303 385.218 83.9516 385.938 83.9516 386.827Z" fill="#F08A4F"/>
<path opacity="0.5" fill-rule="evenodd" clip-rule="evenodd" d="M66.8765 404.096C65.9868 404.096 65.2656 403.376 65.2656 402.487V371.382C65.2656 370.493 65.9868 369.773 66.8765 369.773C67.7662 369.773 68.4874 370.493 68.4874 371.382V402.487C68.4874 403.376 67.7662 404.096 66.8765 404.096Z" fill="#F08A4F"/>
<path opacity="0.5" fill-rule="evenodd" clip-rule="evenodd" d="M75.2953 395.427C74.6662 396.055 73.6463 396.055 73.0172 395.427L58.1127 380.541C57.4836 379.913 57.4836 378.894 58.1127 378.266C58.7418 377.637 59.7617 377.637 60.3908 378.266L75.2953 393.152C75.9244 393.78 75.9244 394.799 75.2953 395.427Z" fill="#F08A4F"/>
<path opacity="0.5" fill-rule="evenodd" clip-rule="evenodd" d="M58.1122 395.603C57.4831 394.975 57.4831 393.956 58.1122 393.328L73.0167 378.442C73.6458 377.814 74.6657 377.814 75.2948 378.442C75.9239 379.07 75.9239 380.089 75.2948 380.717L60.3903 395.603C59.7612 396.232 58.7413 396.232 58.1122 395.603Z" fill="#F08A4F"/>
</g>
<path opacity="0.3" fill-rule="evenodd" clip-rule="evenodd" d="M24.8868 259.833C24.8868 260.722 24.1656 261.442 23.276 261.442H12.5368C11.6472 261.442 10.926 260.722 10.926 259.833C10.926 258.945 11.6472 258.224 12.5368 258.224H23.276C24.1656 258.224 24.8868 258.945 24.8868 259.833Z" fill="#FFC75A"/>
<path opacity="0.3" fill-rule="evenodd" clip-rule="evenodd" d="M17.9058 266.805C17.0161 266.805 16.2949 266.084 16.2949 265.196V254.47C16.2949 253.581 17.0161 252.861 17.9058 252.861C18.7954 252.861 19.5167 253.581 19.5167 254.47V265.196C19.5167 266.084 18.7954 266.805 17.9058 266.805Z" fill="#FFC75A"/>
<path opacity="0.5" fill-rule="evenodd" clip-rule="evenodd" d="M40.0814 504.077C39.4524 504.705 38.4324 504.705 37.8033 504.077L30.2096 496.493C29.5805 495.864 29.5805 494.846 30.2096 494.217C30.8387 493.589 31.8586 493.589 32.4877 494.217L40.0814 501.802C40.7105 502.43 40.7105 503.449 40.0814 504.077Z" fill="#FFC75A"/>
<path opacity="0.5" fill-rule="evenodd" clip-rule="evenodd" d="M30.2094 504.077C29.5803 503.448 29.5803 502.43 30.2094 501.801L37.8031 494.217C38.4322 493.589 39.4521 493.589 40.0812 494.217C40.7103 494.845 40.7103 495.864 40.0812 496.492L32.4875 504.077C31.8584 504.705 30.8385 504.705 30.2094 504.077Z" fill="#FFC75A"/>
<path fill-rule="evenodd" clip-rule="evenodd" d="M190.875 403.704C190.875 404.593 190.154 405.313 189.265 405.313H178.525C177.636 405.313 176.915 404.593 176.915 403.704C176.915 402.816 177.636 402.095 178.525 402.095H189.265C190.154 402.095 190.875 402.816 190.875 403.704Z" fill="#FFC75A" fill-opacity="0.5"/>
<path opacity="0.5" fill-rule="evenodd" clip-rule="evenodd" d="M183.895 410.676C183.005 410.676 182.284 409.956 182.284 409.067V398.341C182.284 397.453 183.005 396.732 183.895 396.732C184.785 396.732 185.506 397.453 185.506 398.341V409.067C185.506 409.956 184.785 410.676 183.895 410.676Z" fill="#FFC75A" fill-opacity="0.5"/>
<path opacity="0.5" d="M108.63 220.596L98.248 210.227L96.1716 208.153L92.0188 204.005C90.8716 202.86 89.0132 202.86 87.866 204.005C86.7188 205.151 86.7188 207.007 87.866 208.153L92.0188 212.301L94.0952 214.375L104.477 224.744C105.624 225.89 107.483 225.89 108.63 224.744C109.777 223.598 109.777 221.742 108.63 220.596Z" fill="white" fill-opacity="0.3"/>
<path opacity="0.5" d="M102.457 210.171C103.999 211.711 106.498 211.711 108.04 210.171C109.582 208.631 109.582 206.134 108.04 204.594C106.498 203.054 103.999 203.054 102.457 204.594C100.915 206.134 100.915 208.631 102.457 210.171Z" fill="white" fill-opacity="0.3"/>
<path opacity="0.5" d="M88.4418 224.169C89.9836 225.709 92.4834 225.709 94.0252 224.169C95.567 222.629 95.567 220.133 94.0252 218.593C92.4834 217.053 89.9836 217.053 88.4418 218.593C86.8999 220.133 86.8999 222.629 88.4418 224.169Z" fill="white" fill-opacity="0.3"/>
<g opacity="0.3">
<path opacity="0.3" d="M59.2116 81.4063L54.9393 76.0723C54.5645 75.6033 53.9957 75.3303 53.3951 75.3303H53.3922C52.3892 75.3303 51.5773 76.1433 51.5773 77.1433C51.5773 77.5063 51.6859 77.8603 51.8899 78.1603L53.2778 80.2223H29.2475C28.2662 80.2223 27.4702 81.0173 27.4702 81.9973C27.4702 82.9773 28.2662 83.7723 29.2475 83.7723H53.2764L51.8885 85.8333C51.3255 86.6613 51.5411 87.7893 52.3719 88.3513C52.6729 88.5553 53.0275 88.6633 53.3907 88.6633H53.3951C53.9957 88.6633 54.5645 88.3903 54.9393 87.9223L59.2116 82.5883C59.4895 82.2423 59.4881 81.7513 59.2116 81.4063Z" fill="white"/>
<path opacity="0.3" d="M57.6432 65.6713H33.6128L35.0022 63.6103C35.5651 62.7823 35.3481 61.6543 34.5188 61.0923C34.2177 60.8883 33.8632 60.7803 33.4999 60.7803H33.4956C32.8949 60.7803 32.3262 61.0533 31.9513 61.5213L27.679 66.8553C27.4026 67.2013 27.4026 67.6923 27.679 68.0383L31.9513 73.3713C32.3262 73.8403 32.8949 74.1133 33.4956 74.1133H33.4985C34.5014 74.1133 35.3133 73.3013 35.3133 72.3003C35.3133 71.9383 35.2048 71.5823 35.0007 71.2833L33.6128 69.2223H57.6432C58.6244 69.2223 59.4204 68.4263 59.4204 67.4463C59.4204 66.4663 58.6244 65.6713 57.6432 65.6713Z" fill="white"/>
</g>
</g>
</svg>
