<svg width="141" height="136" viewBox="0 0 141 136" fill="none" xmlns="http://www.w3.org/2000/svg">
<path d="M82.4947 6.02977C102.27 7.59292 117.256 23.1656 128.005 40.0571C138.258 56.1707 143.931 75.4199 138.298 93.7234C132.718 111.851 117.397 124.581 99.8994 131.378C82.7288 138.048 63.9185 137.412 47.517 128.986C29.9737 119.974 14.3073 105.426 11.1047 85.7614C7.87646 65.9403 18.4729 47.3304 31.7947 32.452C45.2295 17.4474 62.561 4.45408 82.4947 6.02977Z" fill="#A166F0"/>
<path d="M72.4159 2.02666C91.6942 3.55055 106.448 18.7589 117.161 35.5939C127.327 51.5701 132.857 70.51 127.342 88.4292C121.88 106.175 106.851 118.72 89.5373 125.446C72.6201 132.017 54.1088 131.386 37.9739 123.097C20.5596 114.151 5.2208 99.8136 2.09166 80.6007C-1.06206 61.2369 9.27942 42.9288 22.5397 28.1191C35.9299 13.1643 52.9753 0.489954 72.4159 2.02666Z" stroke="white" stroke-width="2"/>
<path d="M73.7406 41C70.0612 41 66.6014 42.07 63.6719 43.9097L58.622 44.2885C52.6429 44.7285 48.174 49.7686 48.4439 55.7476L48.9146 66.0565C48.2547 66.4864 47.7147 67.0658 47.3347 67.7456C46.5949 69.0554 46.4645 70.6861 46.9344 72.4558C47.6143 74.9954 49.4235 77.3535 51.3731 78.3533L51.6641 85.5123C51.8841 91.0314 55.5827 95.8205 60.8618 97.4303L69.3019 100C71.4915 100.66 73.7504 101 76 101C78.2496 101 80.5085 100.66 82.6981 100L91.1381 97.4303C96.4173 95.8205 100.116 91.0314 100.336 85.5123L100.627 78.3533C101.187 78.0733 101.745 77.6742 102.285 77.1543C103.585 75.9245 104.596 74.2055 105.066 72.4558C105.535 70.6861 105.405 69.0554 104.665 67.7456C104.285 67.0658 103.745 66.4864 103.085 66.0565L103.556 55.7476C103.826 49.7686 99.357 44.7285 93.378 44.2885L88.3281 43.9097C85.3985 42.07 81.9388 41 78.2594 41H73.7406ZM73.7406 42.9997H78.2594C79.5792 42.9997 80.8783 43.1489 82.1181 43.4488C84.1178 43.9187 85.9885 44.7485 87.6582 45.8683C91.8876 48.6879 94.8179 53.3775 95.2078 58.7666L95.3172 60.3074C95.4571 62.2371 96.0367 64.1463 96.9966 65.826C97.0066 65.846 97.0256 65.8763 97.0356 65.8963L97.3871 66.4861C97.4871 66.6561 97.5764 66.8258 97.6664 66.9958C97.7664 67.1957 97.8557 67.4051 97.9456 67.605C98.1456 68.055 98.3156 68.5155 98.4456 68.9954C98.5355 69.2954 98.6062 69.5955 98.6662 69.9055C98.7662 70.4454 99.296 70.7944 99.836 70.6944C100.376 70.5944 100.737 70.0646 100.627 69.5247C100.597 69.3447 100.556 69.1754 100.506 68.9954C100.356 68.3256 100.147 67.6647 99.8867 67.0348C100.177 67.0348 100.475 67.0857 100.785 67.1657C101.685 67.4056 102.386 67.8862 102.816 68.5561C102.856 68.6161 102.895 68.666 102.925 68.726C103.205 69.2259 103.345 69.8158 103.345 70.4757C103.345 70.9356 103.276 71.4245 103.136 71.9344C102.766 73.3242 101.936 74.7354 100.916 75.7053C100.856 75.7653 100.786 75.8252 100.726 75.8752L100.746 75.2835C100.766 74.7336 100.335 74.2646 99.7852 74.2446C99.2153 74.2246 98.7663 74.6555 98.7463 75.2054L98.676 76.875L98.5959 78.8747L98.3362 85.4322C98.1462 90.1015 95.0177 94.1606 90.5484 95.5204L82.1084 98.0806C78.109 99.3004 73.891 99.3004 69.8916 98.0806L61.4516 95.5204C56.9823 94.1606 53.8538 90.1015 53.6638 85.4322L53.4275 79.5055C53.4275 79.4945 53.4344 79.4833 53.4334 79.4723L53.2556 75.0609C53.2336 74.51 52.7777 74.083 52.2168 74.102C51.6648 74.124 51.2359 74.589 51.2579 75.1409L51.2872 75.8635C50.2184 74.9196 49.2707 73.4432 48.8638 71.9344C48.5238 70.6846 48.6048 69.5758 49.0747 68.726C49.1047 68.666 49.144 68.6161 49.184 68.5561C49.614 67.8862 50.3151 67.4056 51.215 67.1657C51.9348 66.9757 52.6531 66.985 53.283 67.195C53.6329 67.3149 54.0033 67.2357 54.2633 66.9958C54.3533 66.9258 54.424 66.836 54.484 66.736L54.9644 65.8963C55.9442 64.1966 56.5428 62.2671 56.6828 60.3074L56.7922 58.7666C57.1821 53.3775 60.1124 48.6879 64.3417 45.8683C66.0115 44.7485 67.8822 43.9187 69.8818 43.4488C71.1216 43.1489 72.4208 42.9997 73.7406 42.9997ZM60.8032 46.13C57.4038 49.2995 55.1524 53.6888 54.7925 58.628L54.6831 60.1668C54.5632 61.8165 54.064 63.457 53.2342 64.8867L53.1033 65.0957C52.3934 64.9857 51.6448 65.0053 50.8849 65.1953L50.4436 55.6578C50.2236 50.7586 53.8831 46.6384 58.7723 46.2784L60.8032 46.13ZM91.1967 46.13L93.2277 46.2784C98.1169 46.6384 101.776 50.7586 101.556 55.6578L101.115 65.1953C100.355 65.0053 99.6065 64.9857 98.8967 65.0957L98.7658 64.8867C97.936 63.457 97.4368 61.8165 97.3168 60.1668L97.2075 58.628C96.8475 53.6888 94.5962 49.2995 91.1967 46.13ZM76 62.9964C73.9393 62.9964 72.2566 64.5683 72.0436 66.574C70.9758 65.5971 69.559 64.9961 68.0013 64.9961C64.6928 64.9961 62.0023 67.6867 62.0023 70.9951C62.0023 74.3036 64.6928 76.9941 68.0013 76.9941C71.3098 76.9941 74.0003 74.3036 74.0003 70.9951C74.0003 70.7422 73.9795 70.4941 73.9495 70.2491C73.9715 70.1662 74.0003 70.0853 74.0003 69.9953V66.9958C74.0003 65.8929 74.8972 64.9961 76 64.9961C77.1028 64.9961 77.9997 65.8929 77.9997 66.9958V69.9953C77.9997 70.0853 78.0284 70.1662 78.0504 70.2491C78.0204 70.4941 77.9997 70.7422 77.9997 70.9951C77.9997 74.3036 80.6902 76.9941 83.9987 76.9941C87.3071 76.9941 89.9977 74.3036 89.9977 70.9951C89.9977 67.6867 87.3071 64.9961 83.9987 64.9961C82.4409 64.9961 81.0242 65.5971 79.9564 66.574C79.7434 64.5683 78.0607 62.9964 76 62.9964ZM68.0013 66.9958C70.2069 66.9958 72.0006 68.7895 72.0006 70.9951C72.0006 73.2008 70.2069 74.9945 68.0013 74.9945C65.7957 74.9945 64.0019 73.2008 64.0019 70.9951C64.0019 68.7895 65.7957 66.9958 68.0013 66.9958ZM83.9987 66.9958C86.2043 66.9958 87.998 68.7895 87.998 70.9951C87.998 73.2008 86.2043 74.9945 83.9987 74.9945C81.793 74.9945 79.9993 73.2008 79.9993 70.9951C79.9993 68.7895 81.793 66.9958 83.9987 66.9958ZM76 78.9938C69.592 78.9938 64.1988 82.1577 63.174 86.516C63.032 87.1219 63.1718 87.7476 63.5567 88.2345C63.9386 88.7154 64.507 88.9922 65.1209 88.9922H70.5419C71.6077 88.9922 72.6773 88.7425 73.6332 88.2716L75.5587 87.3245C75.8386 87.1865 76.1604 87.1865 76.4413 87.3245L78.3668 88.2716C79.3236 88.7425 80.3923 88.9902 81.4581 88.9902H86.8791C87.492 88.9902 88.0623 88.7154 88.4433 88.2345C88.8282 87.7476 88.968 87.121 88.826 86.5141C87.8022 82.1568 82.4079 78.9938 76 78.9938ZM76 80.9935C81.4011 80.9935 86.0792 83.5641 86.8791 86.9925H81.4581C80.6962 86.9925 79.9333 86.8139 79.2495 86.477L77.324 85.5299C76.9091 85.3249 76.4549 85.2233 76 85.2233C75.5451 85.2233 75.0909 85.3259 74.676 85.5299L72.7486 86.477C72.0657 86.8139 71.3028 86.9925 70.5419 86.9925L65.1209 86.973C65.9218 83.5635 70.5989 80.9935 76 80.9935ZM74.0003 90.9919C73.4484 90.9919 73.0005 91.4398 73.0005 91.9917C73.0005 92.5436 73.4484 92.9915 74.0003 92.9915H77.9997C78.5516 92.9915 78.9995 92.5436 78.9995 91.9917C78.9995 91.4398 78.5516 90.9919 77.9997 90.9919H74.0003Z" fill="white" stroke="white"/>
</svg>
