<svg width="24" height="24" viewBox="0 0 24 24" fill="none" xmlns="http://www.w3.org/2000/svg">
<g clip-path="url(#clip0)">
<path d="M21.4273 5.18962L16.9338 0.231C16.8005 0.0839062 16.6113 0 16.4128 0H4.41188C3.29738 0 2.39062 0.90675 2.39062 2.02125V21.9788C2.39062 23.0933 3.29738 24 4.41188 24H19.5881C20.7026 24 21.6094 23.0933 21.6094 21.9788V5.66175C21.6094 5.48723 21.5445 5.31895 21.4273 5.18962ZM17.1159 2.52614L19.3202 4.95862H17.1159V2.52614ZM19.5881 22.5938H4.41188C4.07278 22.5938 3.79688 22.3178 3.79688 21.9788V2.02125C3.79688 1.68216 4.07278 1.40625 4.41188 1.40625H15.7096V5.66175C15.7096 6.05006 16.0245 6.36487 16.4128 6.36487H20.2031V21.9788C20.2031 22.3178 19.9272 22.5938 19.5881 22.5938Z" fill="#48C95F"/>
<path d="M15.9842 11.3158C16.1215 11.4531 16.3015 11.5218 16.4814 11.5218C16.6613 11.5218 16.8413 11.4531 16.9785 11.3158L18.9506 9.34382C19.2252 9.06928 19.2252 8.62406 18.9506 8.34946C18.676 8.07492 18.2308 8.07492 17.9562 8.34946L16.4813 9.82434L16.0699 9.41296C15.7954 9.13842 15.3502 9.13842 15.0756 9.41296C14.801 9.68751 14.801 10.1327 15.0756 10.4073L15.9842 11.3158Z" fill="#48C95F"/>
<path d="M15.9842 16.0976C16.1215 16.2349 16.3015 16.3036 16.4814 16.3036C16.6613 16.3036 16.8413 16.2349 16.9785 16.0976L18.9506 14.1256C19.2252 13.851 19.2252 13.4058 18.9506 13.1312C18.676 12.8567 18.2308 12.8567 17.9562 13.1312L16.4813 14.6061L16.0699 14.1947C15.7954 13.9202 15.3502 13.9202 15.0756 14.1947C14.801 14.4692 14.801 14.9145 15.0756 15.1891L15.9842 16.0976Z" fill="#48C95F"/>
<path d="M17.9562 17.7474L16.4814 19.2223L16.07 18.8109C15.7954 18.5364 15.3502 18.5364 15.0756 18.8109C14.801 19.0854 14.801 19.5307 15.0756 19.8053L15.9842 20.7138C16.1215 20.8512 16.3014 20.9198 16.4814 20.9198C16.6613 20.9198 16.8413 20.8511 16.9785 20.7138L18.9505 18.7419C19.2251 18.4673 19.2251 18.0221 18.9505 17.7475C18.676 17.4728 18.2308 17.4728 17.9562 17.7474Z" fill="#48C95F"/>
<path d="M13.1006 9.12939H5.83875C5.45043 9.12939 5.13562 9.44421 5.13562 9.83252C5.13562 10.2208 5.45043 10.5356 5.83875 10.5356H13.1006C13.4889 10.5356 13.8037 10.2208 13.8037 9.83252C13.8037 9.44421 13.4889 9.12939 13.1006 9.12939Z" fill="#48C95F"/>
<path d="M13.1006 13.9111H5.83875C5.45043 13.9111 5.13562 14.2259 5.13562 14.6143C5.13562 15.0026 5.45043 15.3174 5.83875 15.3174H13.1006C13.4889 15.3174 13.8037 15.0026 13.8037 14.6143C13.8037 14.2259 13.4889 13.9111 13.1006 13.9111Z" fill="#48C95F"/>
<path d="M13.1006 18.5273H5.83875C5.45043 18.5273 5.13562 18.8422 5.13562 19.2305C5.13562 19.6188 5.45043 19.9336 5.83875 19.9336H13.1006C13.4889 19.9336 13.8037 19.6188 13.8037 19.2305C13.8037 18.8422 13.4889 18.5273 13.1006 18.5273Z" fill="#48C95F"/>
<path d="M5.83875 4.26709H8.03967C8.42799 4.26709 8.7428 3.95228 8.7428 3.56396C8.7428 3.17565 8.42799 2.86084 8.03967 2.86084H5.83875C5.45043 2.86084 5.13562 3.17565 5.13562 3.56396C5.13562 3.95228 5.45039 4.26709 5.83875 4.26709Z" fill="#48C95F"/>
<path d="M5.83875 6.70899H10.6225C11.0108 6.70899 11.3257 6.39418 11.3257 6.00586C11.3257 5.61755 11.0108 5.30273 10.6225 5.30273H5.83875C5.45043 5.30273 5.13562 5.61755 5.13562 6.00586C5.13562 6.39418 5.45039 6.70899 5.83875 6.70899Z" fill="#48C95F"/>
</g>
<defs>
<clipPath id="clip0">
<rect width="24" height="24" fill="white"/>
</clipPath>
</defs>
</svg>
