<svg width="24" height="24" viewBox="0 0 24 24" fill="none" xmlns="http://www.w3.org/2000/svg">
<path d="M10.5 19.5C10.0375 19.502 9.58896 19.3417 9.23249 19.047L2.41899 13.188C2.2716 13.0597 2.17971 12.8793 2.16265 12.6847C2.14558 12.4901 2.20467 12.2964 2.32749 12.1445L3.90949 10.208C3.97295 10.1302 4.05138 10.0659 4.14014 10.019C4.22889 9.97212 4.32616 9.9435 4.42617 9.93487C4.52619 9.92625 4.62692 9.93779 4.7224 9.96881C4.81787 9.99984 4.90615 10.0497 4.98199 10.1155L10.3 14.7325L18.85 5.34698C18.983 5.20064 19.1684 5.11276 19.3659 5.10246C19.5634 5.09216 19.757 5.16027 19.9045 5.29198L21.7685 6.96498C21.8421 7.03096 21.9019 7.11083 21.9445 7.19999C21.9871 7.28915 22.0116 7.38586 22.0168 7.48455C22.0219 7.58324 22.0074 7.68196 21.9743 7.77505C21.9411 7.86814 21.8899 7.95376 21.8235 8.02698L11.99 18.8365C11.8014 19.0446 11.5715 19.2111 11.315 19.3254C11.0584 19.4396 10.7808 19.4991 10.5 19.5Z" fill="#65E04D"/>
</svg>
