<svg width="24" height="24" viewBox="0 0 24 24" fill="none" xmlns="http://www.w3.org/2000/svg">
<g opacity="0.2">
<path d="M6.38282 4.78439C6.06466 4.78478 5.75384 4.88001 5.49006 5.05791C5.22629 5.23581 5.02153 5.48831 4.90195 5.78314C4.78238 6.07798 4.75341 6.40176 4.81874 6.71314C4.88408 7.02452 5.04075 7.30936 5.26875 7.53126L9.7375 12L5.26875 16.4688C5.1152 16.6162 4.9926 16.7928 4.90815 16.9882C4.82369 17.1836 4.77907 17.3939 4.77691 17.6068C4.77474 17.8196 4.81507 18.0308 4.89553 18.2279C4.976 18.4249 5.09498 18.604 5.2455 18.7545C5.39603 18.905 5.57507 19.024 5.77216 19.1045C5.96924 19.1849 6.1804 19.2253 6.39326 19.2231C6.60613 19.2209 6.81642 19.1763 7.01183 19.0919C7.20723 19.0074 7.38382 18.8848 7.53125 18.7313L12 14.2625L16.4688 18.7313C16.6162 18.8848 16.7928 19.0074 16.9882 19.0919C17.1836 19.1763 17.3939 19.221 17.6067 19.2231C17.8196 19.2253 18.0308 19.185 18.2279 19.1045C18.4249 19.024 18.604 18.9051 18.7545 18.7545C18.905 18.604 19.024 18.4249 19.1045 18.2279C19.1849 18.0308 19.2253 17.8196 19.2231 17.6068C19.2209 17.3939 19.1763 17.1836 19.0919 16.9882C19.0074 16.7928 18.8848 16.6162 18.7313 16.4688L14.2625 12L18.7313 7.53126C18.9625 7.30652 19.1204 7.01718 19.1843 6.70114C19.2482 6.38511 19.2152 6.05714 19.0895 5.7602C18.9639 5.46326 18.7514 5.21122 18.4801 5.03709C18.2087 4.86296 17.891 4.77488 17.5688 4.78439C17.1531 4.79677 16.7585 4.9705 16.4688 5.26876L12 9.73751L7.53125 5.26876C7.38197 5.1153 7.2034 4.99336 7.00614 4.91016C6.80887 4.82696 6.59691 4.78419 6.38282 4.78439Z" fill="black"/>
</g>
</svg>
