<svg width="133" height="42" viewBox="0 0 133 42" fill="none" xmlns="http://www.w3.org/2000/svg">
<path d="M77.6116 25.2673L66.5002 41.9999L55.3882 25.2673H77.6116Z" fill="#D02D7F"/>
<path d="M77.6115 25.2673L66.5 41.9999V25.2673H77.6115Z" fill="#C42C78"/>
<path d="M104.846 18.5544L101.839 37.2034L83.9629 24.4054L104.846 18.5544Z" fill="#95E9D2"/>
<path d="M104.846 18.5544L101.839 37.2034L94.4043 21.48L104.846 18.5544Z" fill="#8CD9C3"/>
<path d="M127.456 5.07617L132.916 23.392L110.432 16.0722L127.456 5.07617Z" fill="#DBE77F"/>
<path d="M127.456 5.07617L132.916 23.392L118.944 10.5742L127.456 5.07617Z" fill="#CED977"/>
<path d="M22.568 16.0722L0.0834961 23.392L5.54376 5.07617L22.568 16.0722Z" fill="#FC9FD8"/>
<path d="M22.568 16.0722L0.0834961 23.3921L14.0563 10.5742L22.568 16.0722Z" fill="#EC96CB"/>
<path d="M49.0364 24.4054L31.1601 37.2034L28.1533 18.5544L49.0364 24.4054Z" fill="#F6C958"/>
<path d="M49.0364 24.4054L31.1602 37.2034L38.5949 21.48L49.0364 24.4054Z" fill="#E5BC53"/>
<path d="M66.5001 26.7431C53.2316 26.7431 40.5449 24.4176 28.7924 19.8312C17.5851 15.4577 7.62904 9.0655 0 1.34616L2.2984 0.000244141C9.66482 7.45425 19.278 13.6261 30.0982 17.8488C41.4422 22.2757 53.6893 24.5206 66.5001 24.5206C79.311 24.5206 91.5581 22.2757 102.902 17.8488C113.722 13.6261 123.335 7.45425 130.702 0.000244141L133 1.34616C125.371 9.0657 115.415 15.4577 104.208 19.8316C92.4551 24.4178 79.7687 26.7431 66.5001 26.7431Z" fill="#4D4D4D"/>
<path d="M66.5 26.7431V24.5203C79.3106 24.5203 91.558 22.2754 102.902 17.8486C113.722 13.6259 123.335 7.454 130.702 0L133 1.34591C125.371 9.06546 115.415 15.4575 104.208 19.8314C92.455 24.4178 79.7685 26.7431 66.5 26.7431Z" fill="#4D4D4D"/>
</svg>
