<svg width="64" height="64" viewBox="0 0 64 64" fill="none" xmlns="http://www.w3.org/2000/svg">
<path d="M54.625 33.519H48.3602C47.5076 33.519 46.6821 33.6355 45.8965 33.8497C44.3467 30.8032 41.1828 28.71 37.5369 28.71H26.4631C22.8172 28.71 19.6532 30.8032 18.1035 33.8497C17.3179 33.6355 16.4924 33.519 15.6397 33.519H9.375C4.20563 33.519 0 37.7246 0 42.894V52.9087C0 56.0103 2.52338 58.5337 5.625 58.5337H58.375C61.4766 58.5337 64 56.0103 64 52.9087V42.894C64 37.7246 59.7944 33.519 54.625 33.519ZM17.0881 38.0852V54.7838H5.625C4.59113 54.7838 3.75 53.9427 3.75 52.9088V42.8941C3.75 39.7925 6.27338 37.2691 9.375 37.2691H15.6397C16.1488 37.2691 16.6416 37.3382 17.1109 37.4656C17.0974 37.6707 17.0881 37.877 17.0881 38.0852ZM43.1619 54.7838H20.8381V38.0851C20.8381 34.9835 23.3615 32.4601 26.4631 32.4601H37.5369C40.6385 32.4601 43.1619 34.9835 43.1619 38.0851V54.7838ZM60.25 52.9088C60.25 53.9427 59.4089 54.7838 58.375 54.7838H46.9119V38.0851C46.9119 37.8767 46.9026 37.6705 46.8891 37.4655C47.3584 37.3382 47.8512 37.269 48.3602 37.269H54.625C57.7266 37.269 60.25 39.7923 60.25 42.894V52.9088Z" fill="url(#paint0_linear)"/>
<path d="M12.5074 15.813C7.91382 15.813 4.1767 19.5501 4.1767 24.1437C4.17657 28.7374 7.91382 32.4745 12.5074 32.4745C17.1009 32.4745 20.8382 28.7374 20.8382 24.1437C20.8382 19.5501 17.1011 15.813 12.5074 15.813ZM12.5073 28.7245C9.98145 28.7245 7.92657 26.6696 7.92657 24.1437C7.92657 21.6179 9.98145 19.563 12.5073 19.563C15.0332 19.563 17.0881 21.6179 17.0881 24.1437C17.0881 26.6696 15.0332 28.7245 12.5073 28.7245Z" fill="url(#paint1_linear)"/>
<path d="M32 5.46631C25.863 5.46631 20.8702 10.4591 20.8702 16.5961C20.8702 22.7331 25.863 27.7258 32 27.7258C38.137 27.7258 43.1297 22.7331 43.1297 16.5961C43.1297 10.4592 38.137 5.46631 32 5.46631ZM32 23.9758C27.9307 23.9758 24.6202 20.6653 24.6202 16.5961C24.6202 12.5269 27.9307 9.21631 32 9.21631C36.0692 9.21631 39.3797 12.5268 39.3797 16.5961C39.3797 20.6653 36.0692 23.9758 32 23.9758Z" fill="url(#paint2_linear)"/>
<path d="M51.4926 15.813C46.8991 15.813 43.1618 19.5501 43.1618 24.1437C43.1619 28.7374 46.8991 32.4745 51.4926 32.4745C56.0862 32.4745 59.8233 28.7374 59.8233 24.1437C59.8233 19.5501 56.0862 15.813 51.4926 15.813ZM51.4926 28.7245C48.9668 28.7245 46.9118 26.6696 46.9118 24.1437C46.9119 21.6179 48.9668 19.563 51.4926 19.563C54.0184 19.563 56.0733 21.6179 56.0733 24.1437C56.0733 26.6696 54.0184 28.7245 51.4926 28.7245Z" fill="url(#paint3_linear)"/>
<defs>
<linearGradient id="paint0_linear" x1="32" y1="28.71" x2="32" y2="58.5337" gradientUnits="userSpaceOnUse">
<stop stop-color="#65E04D"/>
<stop offset="1" stop-color="#644BEC"/>
</linearGradient>
<linearGradient id="paint1_linear" x1="12.5074" y1="15.813" x2="12.5074" y2="32.4745" gradientUnits="userSpaceOnUse">
<stop stop-color="#65E04D"/>
<stop offset="1" stop-color="#644BEC"/>
</linearGradient>
<linearGradient id="paint2_linear" x1="32" y1="5.46631" x2="32" y2="27.7258" gradientUnits="userSpaceOnUse">
<stop stop-color="#65E04D"/>
<stop offset="1" stop-color="#644BEC"/>
</linearGradient>
<linearGradient id="paint3_linear" x1="51.4926" y1="15.813" x2="51.4926" y2="32.4745" gradientUnits="userSpaceOnUse">
<stop stop-color="#65E04D"/>
<stop offset="1" stop-color="#644BEC"/>
</linearGradient>
</defs>
</svg>
