<svg width="14" height="14" viewBox="0 0 14 14" fill="none" xmlns="http://www.w3.org/2000/svg">
<path d="M6.99998 0.639404C3.48736 0.639404 0.639404 3.48736 0.639404 6.99998C0.639404 10.5126 3.48736 13.3606 6.99998 13.3606C10.5126 13.3606 13.3606 10.5126 13.3606 6.99998C13.3606 3.48736 10.5126 0.639404 6.99998 0.639404ZM8.3251 10.4979C7.99698 10.6262 7.73616 10.725 7.54055 10.7923C7.34493 10.8597 7.11987 10.8933 6.86116 10.8933C6.46573 10.8933 6.15653 10.7966 5.93568 10.603C5.71693 10.4116 5.60755 10.1655 5.60755 9.86687C5.60755 9.75118 5.61597 9.63339 5.63279 9.5135C5.64752 9.39151 5.67486 9.25689 5.71062 9.10335L6.12077 7.65623C6.15653 7.51741 6.18808 7.387 6.21332 7.2629C6.23856 7.1388 6.24908 7.02522 6.24908 6.92216C6.24908 6.73916 6.21122 6.60876 6.1355 6.53724C6.05767 6.46362 5.91254 6.42787 5.698 6.42787C5.59283 6.42787 5.48345 6.44469 5.37198 6.47624C5.2605 6.5099 5.16585 6.54145 5.08592 6.57089L5.19529 6.12498C5.46242 6.01561 5.71903 5.92306 5.96513 5.84523C6.20912 5.76741 6.44259 5.72744 6.65924 5.72744C7.05257 5.72744 7.35755 5.8242 7.56999 6.0135C7.78243 6.20281 7.8897 6.451 7.8897 6.75389C7.8897 6.81699 7.88339 6.92847 7.86867 7.08622C7.85395 7.24397 7.8266 7.3891 7.78664 7.52372L7.37859 8.96663C7.34493 9.08231 7.31549 9.21482 7.28814 9.36206C7.2629 9.5093 7.25028 9.62288 7.25028 9.6986C7.25028 9.89001 7.29235 10.0225 7.37859 10.0919C7.46272 10.1613 7.61206 10.195 7.8245 10.195C7.92336 10.195 8.03484 10.1782 8.16104 10.1445C8.28514 10.1088 8.37558 10.0793 8.43237 10.052L8.3251 10.4979ZM8.25148 4.64001C8.06218 4.81669 7.83291 4.90503 7.56579 4.90503C7.29866 4.90503 7.06729 4.81669 6.87588 4.64001C6.68448 4.46332 6.58982 4.24878 6.58982 3.99848C6.58982 3.74818 6.68658 3.53153 6.87588 3.35275C7.06729 3.17396 7.29866 3.08562 7.56579 3.08562C7.83291 3.08562 8.06218 3.17396 8.25148 3.35275C8.44289 3.53153 8.53754 3.74818 8.53754 3.99848C8.53754 4.24878 8.44289 4.46332 8.25148 4.64001Z" fill="#48C95F"/>
</svg>
