<?xml version="1.0" encoding="utf-8"?>
<!-- Generator: Adobe Illustrator 23.0.2, SVG Export Plug-In . SVG Version: 6.00 Build 0)  -->
<svg version="1.1" id="Слой_1" xmlns="http://www.w3.org/2000/svg" xmlns:xlink="http://www.w3.org/1999/xlink" x="0px" y="0px"
	 viewBox="0 0 593 498.6" style="enable-background:new 0 0 593 498.6;" xml:space="preserve">
<style type="text/css">
	.st0{fill:#F7F6FE;}
	.st1{clip-path:url(#SVGID_2_);}
	.st2{fill:#E6F2EE;}
	.st3{fill:#48C95F;}
	.st4{opacity:0.2;enable-background:new    ;}
	.st5{fill:#F2F2F2;}
	.st6{fill:#3F3D56;}
	.st7{fill:none;stroke:#2F2E41;stroke-width:2;stroke-miterlimit:10;}
	.st8{fill:#2F2E41;}
	.st9{fill:#FBBEBE;}
	.st10{fill:#FF6584;}
	.st11{opacity:0.15;enable-background:new    ;}
	.st12{opacity:0.2;fill:#48C95F;enable-background:new    ;}
	.st13{fill:none;stroke:#3F3D56;stroke-width:2;stroke-miterlimit:10;}
</style>
<path class="st0" d="M82.9,263.3c0.5,64.6,19.1,123.7,61.5,165.2c45.2,44.3,105.1,81.9,175.1,66.7c67.9-14.8,114.8-82.5,161.5-140
	c43.1-53.1,86.7-108.7,91.6-171.4c5.2-65.7-16.8-128.8-65.3-163.7C461.1-13,394.1,2.9,331.6,10.9c-66.1,8.4-139.3,4.4-190.1,55.9
	C89.3,119.9,82.4,196,82.9,263.3z"/>
<g>
	<defs>
		<rect id="SVGID_1_" x="1.2" y="8.7" width="590.5" height="423.7"/>
	</defs>
	<clipPath id="SVGID_2_">
		<use xlink:href="#SVGID_1_"  style="overflow:visible;"/>
	</clipPath>
	<g class="st1">
		<path class="st2" d="M290.9,8.7l-162,88.2c2.8,4.8,4.6,10.1,5.2,15.6c0.7,5.5,0.3,11.1-1.2,16.4c-1.5,5.3-4,10.3-7.5,14.6
			c-3.4,4.3-7.7,7.9-12.6,10.6c-4.8,2.6-10.2,4.3-15.7,4.8c-5.5,0.5-11,0-16.3-1.7c-5.3-1.7-10.1-4.4-14.3-8
			c-4.2-3.6-7.6-8-10.1-12.9L1.2,166.4L144.3,432l289.6-157.7L290.9,8.7z"/>
		<path class="st3" d="M85.7,215.3L202.4,234l-9.5,59.9l-91.2-14.6L98,302.5l-7.5-25l-14.4-2.3L85.7,215.3z"/>
		<path class="st4" d="M85.7,215.3L202.4,234l-9.5,59.9l-91.2-14.6L98,302.5l-7.5-25l-14.4-2.3L85.7,215.3z"/>
		<path class="st5" d="M105.5,239.7L176,251l1-6.1l-70.5-11.3L105.5,239.7z"/>
		<path class="st5" d="M103.5,252l70.5,11.3l1-6.1l-70.5-11.3L103.5,252z"/>
		<path class="st5" d="M101.6,264.2l70.5,11.3l1-6.1l-70.5-11.3L101.6,264.2z"/>
		<path class="st3" d="M77.7,301.3l108.5-47.2l23.9,55.7l-84.8,36.9l9.3,21.6L115,351.1l-13.4,5.8L77.7,301.3z"/>
		<path class="st5" d="M107.5,311.2l65.5-28.5l-2.4-5.7L105,305.6L107.5,311.2z"/>
		<path class="st5" d="M112.3,322.6l65.5-28.5l-2.4-5.7l-65.5,28.5L112.3,322.6z"/>
		<path class="st5" d="M117.2,334l65.5-28.5l-2.4-5.7l-65.5,28.5L117.2,334z"/>
		<path class="st3" d="M94.3,192.3l108.5-47.2l23.9,55.7L142,237.7l9.3,21.6l-19.7-17.1l-13.4,5.8L94.3,192.3z"/>
		<path class="st5" d="M124.1,202.3l65.5-28.5l-2.4-5.7l-65.5,28.5L124.1,202.3z"/>
		<path class="st5" d="M129,213.7l65.5-28.5l-2.4-5.7L126.5,208L129,213.7z"/>
		<path class="st5" d="M133.8,225l65.5-28.5l-2.4-5.7l-65.5,28.5L133.8,225z"/>
		<path class="st6" d="M102.6,57.6l433.9,18.6c0,0,68,217.5,17.3,310.8l-411.1,45.4C142.7,432.4,229.3,270.8,102.6,57.6z"/>
		<path class="st7" d="M168.7,158.9l365.9-6.2"/>
		<path class="st7" d="M178.6,187.5l369.7-7.5"/>
		<path class="st7" d="M111.4,72.9L540,88.1"/>
		<path class="st4" d="M433.8,295.6c0,0.9,0,1.8,0,2.8v0c0,2.3-0.1,4.5-0.3,6.7c-0.1,2.4-0.3,4.7-0.6,7c-2.5,22.5-10,42.1-20.6,55.5
			c-6,7.6-12.9,13.2-20.5,16.2c-2.3,0.9-4.7,1.6-7.2,2c-1.9,0.3-3.8,0.5-5.8,0.5c-9.1,0-17.6-3.6-25.2-10.1
			c-14.6-12.4-25.3-35.3-28.7-62.6v0c-0.6-4.6-0.9-9.4-1-14.2c0-1.3-0.1-2.6-0.1-3.9c0-50.1,24.6-90.7,54.9-90.7
			c7.2,0,14,2.3,20.3,6.4c0.2,0.1,0.4,0.2,0.5,0.4c3.5,2.4,6.6,5.2,9.4,8.3c1.8,2,3.5,4.1,5.1,6.3c2,2.8,3.8,5.8,5.5,8.8
			c1.4,2.5,2.7,5.2,3.9,8v0c1.2,2.9,2.4,5.9,3.4,9v0c3.1,9.5,5.2,19.4,6.1,29.3C433.6,286,433.8,290.8,433.8,295.6z"/>
		<path class="st3" d="M136.2,64.7c0.5,1.8-0.1,3.8-1.3,4.6c-1.2,0.8-2.5-0.1-3-1.8c-0.5-1.8,0.1-3.8,1.3-4.6
			C134.4,62.1,135.8,63,136.2,64.7z"/>
		<path class="st3" d="M146.1,64.6c0.5,1.8-0.1,3.8-1.3,4.6c-1.2,0.8-2.5-0.1-3-1.8c-0.5-1.8,0.1-3.8,1.3-4.6
			C144.3,62,145.6,62.8,146.1,64.6z"/>
		<path class="st3" d="M126.3,64.9c0.5,1.8-0.1,3.8-1.3,4.6c-1.2,0.8-2.5-0.1-3-1.8c-0.5-1.8,0.1-3.8,1.3-4.6
			C124.5,62.3,125.9,63.1,126.3,64.9z"/>
		<path class="st8" d="M434.6,243.3l3.2,9.6l3.5,0.3l-3.1-23.8c1.2-15.1-5.1-28.3-20.1-29.5l0,0c-5-0.4-10,1.2-13.8,4.5
			c-3.8,3.3-6.2,8-6.6,13l-1.8,23c-0.2,2.4,0.6,4.9,2.2,6.7c1.6,1.9,3.8,3,6.3,3.2l26.8,2.1L434.6,243.3z"/>
		<path class="st9" d="M438,297.8c0,0,2.8,7.8,7.7,9s41,9.8,41,9.8s31.7,0.8,21.9,7.8c-9.7,6.9-25.6,0-25.6,0s-46.3-5.7-49.9-11.8
			c-2.4-4.2-4.4-8.5-6.1-13.1L438,297.8z"/>
		<path class="st10" d="M422.6,263.5c0,0,23.1,38,20.3,38.8c-2.8,0.8-29.2,9.4-30.4,6.1s-1.2-18.4-1.2-18.4L422.6,263.5z"/>
		<path class="st11" d="M422.6,263.5c0,0,23.1,38,20.3,38.8c-2.8,0.8-29.2,9.4-30.4,6.1s-1.2-18.4-1.2-18.4L422.6,263.5z"/>
		<path class="st9" d="M359,250.9l-34.3,48c0,0-22.8,20.5-14.3,23c8.6,2.5,22.1-17.4,22.1-17.4l39.6-50.3L359,250.9z"/>
		<path class="st9" d="M429.5,233.3c0,0-10.1,15.5-9.3,19.2c0,0-0.8,2.4,0.4,4.1c1.2,1.6,0.8,11.4,0.8,11.4l-4.1,5.7l-5.3-17.5
			l-2.4-18.8c0,0,5.5-7.6,4.7-11.2C413.5,222.5,429.5,233.3,429.5,233.3z"/>
		<path class="st10" d="M412.3,367.6c-6,7.6-12.9,13.2-20.5,16.2c-2.3,0.9-4.7,1.6-7.2,2c1.3-29,2.8-54.8,3.8-57.1
			c2.4-5.3,8.9-7.3,8.9-7.3s0.6,1.7,1.7,4.7C401.9,334,407.6,350.5,412.3,367.6z"/>
		<path class="st11" d="M412.3,367.6c-6,7.6-12.9,13.2-20.5,16.2c-2.3,0.9-4.7,1.6-7.2,2c1.3-29,2.8-54.8,3.8-57.1
			c2.4-5.3,8.9-7.3,8.9-7.3s0.6,1.7,1.7,4.7C401.9,334,407.6,350.5,412.3,367.6z"/>
		<path class="st9" d="M424.2,235.7c8.3,0,15-6.8,15-15.1c0-8.3-6.7-15.1-15-15.1s-15,6.8-15,15.1
			C409.2,229,415.9,235.7,424.2,235.7z"/>
		<path class="st10" d="M417.7,290.4c-2.8,2.7-4.9,4.7-6.4,6.2c-3.1,3.1-3.9,4.2-4.2,5.2c-0.4,1.6-2.4,1.6-2.4,1.6l-5.6,22.7
			l-6.2,25.1c0,0-0.4,13.9-1.1,32.6c-2.3,0.9-4.7,1.6-7.2,2c-1.9,0.3-3.8,0.5-5.8,0.5c-9.1,0-17.6-3.6-25.2-10.1
			c0.1-23.9-0.1-48.3-0.1-48.3s-6.5-10.6,15.8-31.4c0,0,3.5-10.3,7.2-20.7c3.7-10.4,7.4-20.9,7.9-20.9c0.3,0,2.2-2.5,4.7-5.8
			c2.2-2.9,4.7-6.5,6.9-9.5c2.8-3.9,5-7.1,5-7.1s6.7,0,9.5,3.4c0.5,0.5,0.8,1.2,1,1.9c0.7,2.3,2.3,7.8,3.8,13.4
			c2.1,7.5,4.3,15.2,4.3,15.2l1.1-9.2c0,0,3.4,4.7,3.4,8.4c0,0.2,0,0.4,0,0.7C424.4,270.6,425.8,282.7,417.7,290.4z"/>
		<path class="st10" d="M405.9,235.7l-4.9-3.3c0,0-20.3,12.2-34.5,13.1c-14.2,0.8-13.8,9-8.1,14.7c5.7,5.7,28,25.3,28.8,20.4
			C388.1,275.7,405.9,235.7,405.9,235.7z"/>
		<path class="st8" d="M432.7,201.8c-3.3-1.1-11.2-1.7-12.3-1.8c-2.8-0.2-5.6,0.1-8.2,1c-2.7,0.9-5.1,2.3-7.2,4.1
			c-2.1,1.8-3.9,4.1-5.1,6.6c-1.3,2.5-2,5.2-2.2,8l-10.3,29.3l15.5,1.2l3.7-10.9l3.2,11.4l7.8,0.6l1.2-6.6l2.1,6.9l8.7,0.7
			c-5.4-15.3-7.8-29.1,1.4-36.8c5.7,1.2,10.7,0.1,11.8-3C444,208.8,439.5,204.1,432.7,201.8z"/>
		<path class="st3" d="M473.6,236.5h118.2v60.7h-92.3v23.5l-11.3-23.5h-14.6V236.5z"/>
		<path class="st5" d="M497,257.5h71.4v-6.2H497V257.5z"/>
		<path class="st5" d="M497,269.9h71.4v-6.2H497V269.9z"/>
		<path class="st5" d="M497,282.3h71.4v-6.2H497V282.3z"/>
		<path class="st12" d="M375.8,105.1l-29.7-8l-7.9,29.9l29.7,8L375.8,105.1z"/>
		<path class="st13" d="M365.1,137.8c5,0,9.1-4.1,9.1-9.1c0-5-4.1-9.1-9.1-9.1c-5,0-9.1,4.1-9.1,9.1
			C356,133.8,360.1,137.8,365.1,137.8z"/>
	</g>
</g>
</svg>
