<?xml version="1.0" encoding="utf-8"?>
<!-- Generator: Adobe Illustrator 23.0.2, SVG Export Plug-In . SVG Version: 6.00 Build 0)  -->
<svg version="1.1" id="Слой_1" xmlns="http://www.w3.org/2000/svg" xmlns:xlink="http://www.w3.org/1999/xlink" x="0px" y="0px"
	 viewBox="0 0 593 577" style="enable-background:new 0 0 593 577;" xml:space="preserve">
<style type="text/css">
	.st0{fill:#F7F6FE;}
	.st1{clip-path:url(#SVGID_2_);}
	.st2{opacity:0.1;fill:#48C95F;enable-background:new    ;}
	.st3{fill:none;stroke:#535461;stroke-width:2;stroke-miterlimit:10;}
	.st4{fill:#48C95F;}
	.st5{fill:url(#SVGID_3_);}
	.st6{fill:#F5F7FE;}
	.st7{opacity:0.1;enable-background:new    ;}
	.st8{opacity:0.5;fill:#48C95F;enable-background:new    ;}
	.st9{fill:url(#SVGID_4_);}
	.st10{fill:#575988;}
	.st11{opacity:5.000000e-02;enable-background:new    ;}
	.st12{fill:#67647E;}
	.st13{fill:#F7C4A7;}
	.st14{fill:#E6E6F0;}
	.st15{fill:#B96B6B;}
	.st16{fill:url(#SVGID_5_);}
</style>
<path class="st0" d="M562.5,313.2c-0.6,72.4-21.8,138.6-70,185.2c-51.5,49.7-119.7,91.8-199.4,74.8
	c-77.4-16.6-130.7-92.5-183.9-156.9C60.1,356.7,10.5,294.4,4.9,224.1C-1,150.5,24.1,79.7,79.3,40.7c52.6-37.1,128.8-19.4,200-10.4
	c75.3,9.5,158.7,5,216.5,62.7C555.3,152.4,563.1,237.8,562.5,313.2z"/>
<g>
	<defs>
		<rect id="SVGID_1_" x="0" width="593" height="490.8"/>
	</defs>
	<clipPath id="SVGID_2_">
		<use xlink:href="#SVGID_1_"  style="overflow:visible;"/>
	</clipPath>
	<g class="st1">
		<path class="st2" d="M433.8,0.6c-27.8-1.3-56.1-1.1-83,5.4c-26.9,6.5-52.4,20-67.7,40.6c-8.8,11.8-14,25.6-24.2,36.4
			c-17.7,18.8-46.6,25.3-73.3,31.8C123.1,130,60.1,151.9,14.7,192.9c-6.5,5.9-12.9,12.6-14.4,20.7c-2.3,12.5,7.7,24.2,18.8,32.2
			c11.1,8,24.2,14.4,32.3,24.7c10.4,13.2,11,30.7,8.1,46.7c-3,15.9-9.1,31.4-10.7,47.5c-0.4,4-0.5,8.1,1.3,11.8
			c2.3,4.9,7.5,8.2,12.5,10.9c17.9,9.9,37.2,17.1,57.3,21.3c34.6,7.3,70.7,5.9,106.1,8.9c35.4,3,72.3,11.4,97.3,33.9
			c15.3,13.8,29.1,33.9,50.8,33.2c12.2-0.4,23-7.7,35.2-8.5c13.7-0.9,26.1,6.4,39,10.6c18.4,5.9,39.6,5.4,56.8-2.8
			c17.2-8.2,29.7-24.3,30.7-41.5c1-16.9-8.3-32.7-13.7-49c-17.7-53.3,7.2-109.5,31.9-160.5c24.7-51,50.2-106.9,33.8-160.4
			C568.7,10.4,494.8,3.6,433.8,0.6z"/>
		<path class="st3" d="M140.4,314.3c0,0-20.6-11.1-26.6-28.1c-2.5-7.1-7.3-13.3-13.7-17.5c-3-2-6.3-3.7-9.6-5.1"/>
		<path class="st4" d="M86.6,252.8c1.9,1.9,4,11,4,11s-9.2-2.1-11.1-4c-0.9-0.9-1.4-2.2-1.4-3.5c0-1.3,0.5-2.5,1.5-3.4
			c0.9-0.9,2.2-1.4,3.5-1.4C84.4,251.5,85.6,252,86.6,252.8z"/>
		<path class="st4" d="M103.2,257.8c0.6,2.7-2.7,11.4-2.7,11.4s-6.5-6.7-7.1-9.3c-0.2-0.6-0.2-1.3-0.1-2c0.1-0.6,0.3-1.3,0.7-1.8
			c0.4-0.6,0.8-1,1.4-1.4c0.5-0.4,1.2-0.6,1.8-0.8c0.7-0.1,1.3-0.1,2,0s1.3,0.4,1.8,0.7c0.6,0.4,1,0.8,1.4,1.4
			C102.8,256.5,103.1,257.1,103.2,257.8L103.2,257.8z"/>
		<path class="st4" d="M121.4,276.2c-0.9,2.6-8.1,8.5-8.1,8.5s-2.2-9-1.3-11.6c0.4-1.2,1.3-2.3,2.5-2.8c1.2-0.6,2.6-0.7,3.8-0.3
			c1.3,0.4,2.3,1.3,2.9,2.5C121.7,273.6,121.8,275,121.4,276.2L121.4,276.2z"/>
		<path class="st4" d="M131.9,293.2c-0.4,2.7-6.6,9.7-6.6,9.7s-3.7-8.5-3.3-11.2c0.2-1.3,1-2.4,2-3.1c1.1-0.7,2.4-1,3.7-0.9
			c1.3,0.2,2.4,0.9,3.2,1.9C131.7,290.7,132,291.9,131.9,293.2z"/>
		<path class="st4" d="M93.5,276.8c2.8,0,10.7-5,10.7-5s-8-4.8-10.8-4.8c-1.3,0.1-2.5,0.6-3.4,1.5c-0.9,0.9-1.4,2.2-1.4,3.4
			c0,1.3,0.5,2.5,1.4,3.4C90.9,276.2,92.2,276.7,93.5,276.8L93.5,276.8z"/>
		<path class="st4" d="M106.1,296.5c2.6-0.8,8.7-7.9,8.7-7.9s-9.1-2.2-11.8-1.4c-1.2,0.4-2.2,1.3-2.8,2.5c-0.6,1.1-0.7,2.5-0.3,3.7
			c0.4,1.2,1.3,2.2,2.4,2.8C103.5,296.7,104.8,296.8,106.1,296.5z"/>
		<path class="st4" d="M121,314c2.7-0.4,9.9-6.4,9.9-6.4s-8.6-3.7-11.4-3.3c-0.6,0.1-1.3,0.3-1.8,0.6c-0.6,0.3-1.1,0.8-1.4,1.3
			c-0.4,0.5-0.7,1.1-0.8,1.7c-0.2,0.6-0.2,1.3-0.1,1.9c0.1,0.6,0.3,1.3,0.7,1.8c0.3,0.6,0.8,1,1.3,1.4c0.5,0.4,1.1,0.7,1.8,0.8
			C119.7,314.1,120.3,314.1,121,314z"/>
		<path class="st3" d="M156.6,266.6c0,0-14.2-18.3-12.8-36.3c0.7-7.5-1.2-15.1-5.3-21.5c-2-3-4.2-5.9-6.7-8.5"/>
		<path class="st4" d="M132.7,189c1,2.5-0.8,11.6-0.8,11.6s-7.5-5.6-8.5-8.1c-0.3-0.6-0.4-1.3-0.4-1.9c0-0.7,0.1-1.3,0.4-1.9
			c0.3-0.6,0.6-1.2,1.1-1.6c0.5-0.5,1.1-0.8,1.7-1.1c0.6-0.2,1.3-0.3,2-0.3c0.7,0,1.3,0.2,1.9,0.5c0.6,0.3,1.2,0.7,1.6,1.2
			C132.1,187.8,132.5,188.4,132.7,189L132.7,189z"/>
		<path class="st4" d="M145.8,200.1c-0.6,2.7-7.1,9.3-7.1,9.3s-3.2-8.7-2.6-11.4c0.1-0.6,0.4-1.2,0.8-1.8c0.4-0.5,0.8-1,1.4-1.4
			c0.6-0.4,1.2-0.6,1.8-0.7c0.7-0.1,1.3-0.1,2,0c0.6,0.1,1.3,0.4,1.8,0.8c0.5,0.4,1,0.8,1.4,1.4c0.4,0.5,0.6,1.2,0.7,1.8
			C146,198.8,146,199.5,145.8,200.1L145.8,200.1z"/>
		<path class="st4" d="M154.8,224.2c-1.9,2-10.9,4.5-10.9,4.5s1.7-9.1,3.6-11.1c0.4-0.5,1-0.9,1.6-1.2c0.6-0.3,1.2-0.5,1.9-0.5
			c0.7,0,1.3,0.1,2,0.3c0.6,0.2,1.2,0.6,1.7,1s0.9,1,1.2,1.6c0.3,0.6,0.4,1.2,0.5,1.9c0,0.7-0.1,1.3-0.3,1.9
			C155.7,223.2,155.3,223.7,154.8,224.2L154.8,224.2z"/>
		<path class="st4" d="M157.4,244c-1.5,2.3-10,6.3-10,6.3s0.1-9.3,1.6-11.6c0.7-1,1.9-1.8,3.1-2c1.3-0.2,2.6,0,3.7,0.7
			c1.1,0.7,1.9,1.8,2.2,3C158.3,241.6,158.1,242.9,157.4,244L157.4,244z"/>
		<path class="st4" d="M129.1,213.6c2.5,1.1,11.9-0.3,11.9-0.3s-5.4-7.6-7.9-8.7c-1.2-0.5-2.6-0.5-3.8,0c-1.2,0.5-2.2,1.4-2.7,2.6
			c-0.5,1.2-0.5,2.5-0.1,3.7C127,212.1,128,213.1,129.1,213.6L129.1,213.6z"/>
		<path class="st4" d="M132.5,236.6c2.7,0.3,11.2-3.8,11.2-3.8s-7.4-5.7-10.2-6c-1.3-0.1-2.6,0.3-3.5,1.2c-1,0.8-1.6,2-1.7,3.2
			c-0.1,1.3,0.2,2.5,1,3.5C130.1,235.8,131.2,236.5,132.5,236.6z"/>
		<path class="st4" d="M138.9,258.6c2.7,0.7,11.7-1.9,11.7-1.9s-6.4-6.8-9-7.6c-0.6-0.2-1.3-0.3-2-0.2c-0.7,0.1-1.3,0.3-1.9,0.6
			c-0.6,0.3-1.1,0.7-1.5,1.3c-0.4,0.5-0.7,1.1-0.9,1.7c-0.2,0.6-0.2,1.3-0.1,1.9c0.1,0.6,0.3,1.3,0.6,1.8c0.3,0.6,0.8,1.1,1.3,1.5
			C137.6,258.2,138.2,258.4,138.9,258.6L138.9,258.6z"/>
		<path class="st3" d="M419.1,290.6c0,0-2.9-22.9,7.6-37.7c4.4-6.2,6.7-13.6,6.5-21.2c-0.1-3.6-0.6-7.2-1.4-10.7"/>
		<path class="st4" d="M438.3,211.7c-0.5,2.7-6.7,9.6-6.7,9.6s-3.6-8.6-3.2-11.2c0.2-1.3,1-2.4,2-3.1c1.1-0.7,2.4-1,3.7-0.8
			c1.3,0.2,2.4,0.9,3.2,1.9C438.1,209.2,438.5,210.5,438.3,211.7L438.3,211.7z"/>
		<path class="st4" d="M443.9,227.9c-1.9,2-10.9,4.5-10.9,4.5s1.7-9.1,3.6-11.1c0.9-0.9,2.1-1.4,3.4-1.5c1.3,0,2.5,0.4,3.5,1.3
			c1,0.9,1.5,2,1.6,3.3C445.2,225.6,444.8,226.9,443.9,227.9L443.9,227.9z"/>
		<path class="st4" d="M439.3,253.1c-2.6,0.8-11.7-1.5-11.7-1.5s6.1-7,8.8-7.8c1.2-0.3,2.6-0.1,3.7,0.5c1.1,0.6,2,1.6,2.3,2.8
			c0.4,1.2,0.3,2.5-0.3,3.6C441.5,251.8,440.5,252.7,439.3,253.1L439.3,253.1z"/>
		<path class="st4" d="M431.5,271.5c-2.5,1.2-11.9,0.4-11.9,0.4s4.8-8,7.3-9.2c0.6-0.3,1.2-0.5,1.9-0.5c0.7-0.1,1.3,0,1.9,0.2
			c0.6,0.2,1.2,0.5,1.7,0.9c0.5,0.4,0.9,0.9,1.2,1.5c0.3,0.6,0.5,1.2,0.5,1.8c0.1,0.6,0,1.3-0.2,1.9c-0.2,0.6-0.5,1.2-1,1.7
			C432.6,270.8,432,271.2,431.5,271.5L431.5,271.5z"/>
		<path class="st4" d="M422.6,231.2c1.6,2.2,10.4,5.6,10.4,5.6s-0.7-9.2-2.4-11.4c-0.8-1-2-1.7-3.3-1.8c-1.3-0.2-2.6,0.2-3.6,0.9
			c-1,0.8-1.7,1.9-2,3.1C421.5,228.9,421.8,230.2,422.6,231.2z"/>
		<path class="st4" d="M413.7,252.8c2.2,1.6,11.6,2.3,11.6,2.3s-3.5-8.6-5.7-10.2c-1.1-0.7-2.4-1-3.7-0.8c-1.3,0.2-2.4,0.9-3.2,1.9
			c-0.8,1-1.1,2.3-0.9,3.6C412,250.9,412.6,252,413.7,252.8L413.7,252.8z"/>
		<path class="st4" d="M407.9,274.9c1.9,1.9,11.1,4.2,11.1,4.2s-2-9.1-3.9-11c-0.5-0.5-1-0.9-1.6-1.2c-0.6-0.3-1.3-0.4-1.9-0.4
			c-0.7,0-1.3,0.1-2,0.3c-0.6,0.2-1.2,0.6-1.7,1.1c-0.5,0.5-0.9,1-1.1,1.6s-0.4,1.3-0.4,1.9c0,0.7,0.1,1.3,0.4,1.9
			C407.1,273.9,407.4,274.4,407.9,274.9L407.9,274.9z"/>
		
			<linearGradient id="SVGID_3_" gradientUnits="userSpaceOnUse" x1="279.7982" y1="105.2363" x2="279.7982" y2="473.6089" gradientTransform="matrix(1 0 0 -1 0 578)">
			<stop  offset="0" style="stop-color:#808080;stop-opacity:0.25"/>
			<stop  offset="0.54" style="stop-color:#808080;stop-opacity:0.12"/>
			<stop  offset="1" style="stop-color:#808080;stop-opacity:0.1"/>
		</linearGradient>
		<path class="st5" d="M279.8,104.4l-162.6,149v219.4h325.2V253.4L279.8,104.4z"/>
		<path class="st6" d="M438.9,468.8H120.7V254.1l159.1-145.8l159.1,145.8V468.8z"/>
		<path class="st7" d="M437.7,254.3H120.9v214.2h316.8V254.3z"/>
		<path class="st4" d="M342.8,83.2h32.9c3.9,0,7-3.1,7-6.9V43.9c0-3.8-3.1-6.9-7-6.9h-32.9c-3.9,0-7,3.1-7,6.9v32.4
			C335.8,80.1,338.9,83.2,342.8,83.2z"/>
		<path class="st4" d="M293,140.3h32.9c3.9,0,7-3.1,7-6.9v-32.4c0-3.8-3.1-6.9-7-6.9H293c-3.9,0-7,3.1-7,6.9v32.4
			C286,137.3,289.1,140.3,293,140.3z"/>
		<path class="st4" d="M421.1,59.9H454c3.9,0,7-3.1,7-6.9V20.6c0-3.8-3.1-6.9-7-6.9h-32.9c-3.9,0-7,3.1-7,6.9V53
			C414,56.8,417.2,59.9,421.1,59.9z"/>
		<path class="st8" d="M234.8,308.8h-11V299c0-1.8-0.7-3.6-2.1-4.9c-1.3-1.3-3.1-2-5-2h-32.9c-1.9,0-3.7,0.7-5,2
			c-1.3,1.3-2.1,3.1-2.1,4.9v32.4c0,1.8,0.7,3.6,2.1,4.9c1.3,1.3,3.1,2,5,2h11v9.8c0,1.8,0.7,3.6,2.1,4.9c1.3,1.3,3.1,2,5,2h32.9
			c1.9,0,3.7-0.7,5-2c1.3-1.3,2.1-3.1,2.1-4.9v-32.4c0-0.9-0.2-1.8-0.5-2.6c-0.4-0.8-0.9-1.6-1.5-2.2c-0.7-0.6-1.4-1.2-2.3-1.5
			C236.6,309,235.7,308.8,234.8,308.8z"/>
		<path class="st8" d="M375.7,287.2h-32.9c-0.9,0-1.8,0.2-2.7,0.5c-0.9,0.3-1.6,0.9-2.3,1.5c-0.7,0.6-1.2,1.4-1.5,2.2
			c-0.4,0.8-0.5,1.7-0.5,2.6v15.2h-16.5c-1.9,0-3.7,0.7-5,2c-1.3,1.3-2.1,3.1-2.1,4.9v15.7h-15.5c-1.9,0-3.7,0.7-5,2
			c-1.3,1.3-2.1,3.1-2.1,4.9v32.4c0,1.8,0.7,3.6,2.1,4.9c1.3,1.3,3.1,2,5,2h32.9c1.9,0,3.7-0.7,5-2c1.3-1.3,2.1-3.1,2.1-4.9v-15.7
			h15.5c1.9,0,3.7-0.7,5-2c1.3-1.3,2.1-3.1,2.1-4.9v-15.2h16.5c1.9,0,3.6-0.7,5-2c1.3-1.3,2-3.1,2-4.9v-32.4c0-1.8-0.7-3.6-2.1-4.9
			C379.4,287.9,377.6,287.2,375.7,287.2z"/>
		
			<linearGradient id="SVGID_4_" gradientUnits="userSpaceOnUse" x1="263.1779" y1="-225164.3281" x2="263.1779" y2="-99000.0469" gradientTransform="matrix(1 0 0 -1 0 578)">
			<stop  offset="0" style="stop-color:#808080;stop-opacity:0.25"/>
			<stop  offset="0.54" style="stop-color:#808080;stop-opacity:0.12"/>
			<stop  offset="1" style="stop-color:#808080;stop-opacity:0.1"/>
		</linearGradient>
		<path class="st9" d="M210.1,240.1c0.4,0.9,0.9,1.6,1.6,2.3c0.7,0.6,1.5,1.1,2.4,1.4c0.8,0.3,1.6,0.3,2.4,0.5
			c3.9,0.9,6.6,4.2,10.1,6.1c0.3,0.2,0.6,0.3,0.9,0.3h0.1c0.1,0,0.1,0,0.2,0c0.4,0,0.7-0.2,1-0.4l0.2-0.1c0.4,1.5,0.4,3.1,0.2,4.7
			c-1.4,0-10.5,0.5-9.2,11.1c1.3,11.4,14.8,27.4,14.8,27.4s9.4,9.5,6.4,41.8l-0.3,15.7c0,0,3.6-0.5,8.2-1.1c0.1,0.2,0.2,0.4,0.3,0.6
			c1.3,2.3,3,4.3,5,6l7.7,18c0,0,0.7,1.2,1.6,3c0.1,3.8-2.3,7.1-2.3,7.1c-14.8,4.2-20.9,19.6-20.9,19.6s-8.4,4.9-10.2,10.4
			c-3.6,2.8-3.3,10.5-3.3,10.5s12.5,6.5,21.6,10.1c1.1,0.4,2.2,0.7,3.3,0.9l-2,4.1c-2.1,0.7-2.3,11-2.3,11s22.2,15.7,29,16.7
			c6.7,1,12.5-3.6,5.4-6.9c-5.7-2.6-12-12.7-14.3-16.5c2.8-3.8,11.7-16.1,12.3-21.1c0.7-5.9,9.1-10.8,9.1-10.8
			c12.1-12.7,4-27.8,3-35.6c0-0.2,0-0.3-0.1-0.5c-0.7-3.4-1.7-6.8-2.9-10c1.3-8.2,2.4-21.1,3-29.5c2.7,0.8,5.3,1.8,5.3,1.8
			c4.9-9.8-11.8-50.2-16.6-61.4c2.8-0.9,7.6-2.3,14.6-3.9c11.8-2.6,12.5-8.5,12.5-8.5l9.1-24.2c-0.8,0.3-2,0.3-3.4,0.1
			c0-0.2,0-0.4,0-0.7c0.1-2.3,0.3-6,1-6.6c0,0-2.2,0-5-0.2v-0.3l1.2-14.8c0,0-1.7-16.3-7.4-14c-4.6,1.8-4,16.5-3.6,22.2
			c0.1,1.5,0.5,2.9,1.3,4.2l0.4,0.7l0.3,0.5c-0.3-0.1-0.5-0.3-0.7-0.4v5.1c-0.6-0.3-1-0.5-1-0.5c0.3,5.6-6.7,24.2-6.7,24.2
			s-12.5-1.3-16.5,1.3c-3,1.9-6.8-1.8-8.7-3.9l8.7-18.7c-1-0.2-2.1-0.4-3.1-0.7c0-0.2,0.1-0.5,0.1-0.7c0.4-2.3,1.2-5.6,2.3-6.1
			c-1.5-0.8-3.1-1.5-4.8-2.2c0-0.2,0.1-0.4,0.1-0.6c0.6-3.3,1.6-10.3-0.4-15.2c-2.7-6.5-3.7-19.2-8.8-16.3c-4,2.3-4.2,16.4-4.1,22.1
			c0,1.5,0.4,3.1,1.2,4.4l1.9,3.6l0.3,0.5l-0.3,0v4.5c-0.9-0.5-1.3-0.9-1.3-0.9c-0.2,6.3-4.4,14.6-8.5,21.4l-2.1-1.5l-0.5-0.4
			c0-0.1,0-0.1,0-0.2c0,0-0.9-0.2-2.2-0.5c-1.7-3.2-2.6-7-3.2-10.2c-0.1-0.3-0.1-0.7-0.2-1c0.8-1.7,1.2-3.5,1.2-5.4
			c0-3.2-1.2-6.3-3.3-8.7c-2.1-2.4-5-4-8.2-4.5c0.4-0.4,0.6-0.6,0.7-0.6h0.1c0.2,0,0.5,0.1,1.5-0.4c1-0.5,2.3-1.3,2.3-2.4
			c0-0.8-0.7-1.5-1.4-2c-1.7-1.2-1.8-3.1-3.4-3c-0.3,0-0.6,0-0.9,0.1c-1.5,0.5-2.8,1.4-4.2,2c-1,0.4-2.1,0.6-3.2,0.7
			c-0.7,0-1.4,0.1-2.1,0.2c-0.5,0.1-1.1,0.3-1.6,0.6c-3,1.6-6.6,4.1-7.5,7.4c-0.9,3,0.4,7-2,9.1c-0.4,0.3-0.8,0.7-1.2,1.1
			c-0.3,0.4-0.5,1-0.6,1.5C209.2,236.5,209.3,238.4,210.1,240.1z M271.6,397.1c0.1,1.6-0.2,2.7-1.1,3c-5.1,2-10.8,19.9-10.8,19.9
			l-3.8,7.8c-3-2.3-5.9-4.7-8.7-7.2l0.4-2.8c0,0,10.8-7.8,11.5-10.1C259.6,405.8,268.3,399.5,271.6,397.1z"/>
		<path class="st10" d="M279.2,275.3c0,0,22.9,52.1,17.3,63.4c0,0-9.2-3.5-10.5-2.9c-1.3,0.6-14.4-67.3-14.4-67.3L279.2,275.3z"/>
		<path class="st11" d="M279.2,275.3c0,0,22.9,52.1,17.3,63.4c0,0-9.2-3.5-10.5-2.9c-1.3,0.6-14.4-67.3-14.4-67.3L279.2,275.3z"/>
		<path class="st10" d="M266.7,441.3c0,0,7.9,14.5,14.7,17.7c6.9,3.2,1.3,7.7-5.2,6.8c-6.5-1-28.1-16.4-28.1-16.4s0.1-10.1,2.2-10.8
			C252.3,437.8,266.7,441.3,266.7,441.3z"/>
		<path class="st10" d="M246.1,417.9c0,0,11.1,10.9,16,11.9c4.9,1-4.3,7.4-13.1,3.9c-8.8-3.5-20.9-10-20.9-10s-0.3-10.3,5.2-11.3
			C238.9,411.4,246.1,417.9,246.1,417.9z"/>
		<path class="st12" d="M291.9,328.4c0,0-2.3,39.3-5.2,44.7c-2.9,5.5-14.1,22.2-14.1,22.2s-12.8,9-13.4,11.3
			c-0.7,2.3-11.1,10-11.1,10l-0.7,4.5c0,0-17.3-1-16.4-6.8c1-5.8,10.1-11.3,10.1-11.3s5.9-15.1,20.3-19.3c0,0,4.6-6.4,0.7-11.6
			c0,0-9.8-24.1-15.4-27c-5.6-2.9,2.3-19.6,2.3-19.6L291.9,328.4z"/>
		<path class="st11" d="M291.9,328.4c0,0-2.3,39.3-5.2,44.7c-2.9,5.5-14.1,22.2-14.1,22.2s-12.8,9-13.4,11.3
			c-0.7,2.3-11.1,10-11.1,10l-0.7,4.5c0,0-17.3-1-16.4-6.8c1-5.8,10.1-11.3,10.1-11.3s5.9-15.1,20.3-19.3c0,0,4.6-6.4,0.7-11.6
			c0,0-9.8-24.1-15.4-27c-5.6-2.9,2.3-19.6,2.3-19.6L291.9,328.4z"/>
		<path class="st12" d="M259.9,418.8l-10.5,21.6c1.6,5.5,17.3,3.5,17.3,3.5s12.1-16.1,12.8-21.9c0.7-5.8,8.8-10.6,8.8-10.6
			c11.8-12.5,3.9-27.4,3-35.1c0-0.1,0-0.3-0.1-0.5c-0.9-5.2-6.2-20.1-10.3-31.2c-2.8-7.5-5-13.3-5-13.3s-21.9,1-26.5,8.7
			c-2.1,3.5-1.2,7.2,0.5,10.2c1.3,2.2,2.9,4.2,4.8,6l7.4,17.7c0,0,13.1,23.5,8.2,25.4C265.4,401.1,259.9,418.8,259.9,418.8z"/>
		<path class="st13" d="M298.9,228c0.1,1.4,0.5,2.8,1.2,4.1l0.4,0.7l1.8,3.3h5.9l0.1-1.5l1.2-14.6c0,0-1.6-16.1-7.2-13.8
			C297.9,207.9,298.5,222.4,298.9,228z"/>
		<path class="st7" d="M300.5,232.8l1.8,3.3h5.9l0.1-1.5C305.7,234.3,302.4,233.8,300.5,232.8z"/>
		<path class="st14" d="M300.1,232.8v7.4l12.1,3.2c0,0,0-0.8,0-1.8c0.1-2.3,0.3-5.9,0.9-6.5C313.2,235.1,303.4,235.1,300.1,232.8z"
			/>
		<path class="st7" d="M300.1,237.2v3.1l12.1,3.2c0,0,0-0.8,0-1.8C308.2,240.9,302.4,238.3,300.1,237.2z"/>
		<path class="st13" d="M229.5,249.4c2.4,6.8-0.7,9.8-0.7,9.8s29.4,1.9,22.2-3.2c-4.2-3-6.1-9.6-6.9-14.6c-0.3-2.1-0.6-4.2-0.6-6.3
			c0,0-23.5-0.3-18.6,6.1C226.8,243.7,228.4,246.4,229.5,249.4z"/>
		<path class="st7" d="M224.8,241.2c2.4,3.2,3.2,3.6,4,5.9c0.7,0.1,1.5,0.2,2.2,0.2c5.6,0,11.1-1.1,13-5.9c-0.3-2.1-0.6-4.2-0.6-6.3
			C243.5,235.1,220,234.7,224.8,241.2z"/>
		<path class="st13" d="M231.7,248.3c7.4,0,13.4-5.9,13.4-13.2c0-7.3-6-13.2-13.4-13.2c-7.4,0-13.4,5.9-13.4,13.2
			C218.3,242.4,224.3,248.3,231.7,248.3z"/>
		<path class="st10" d="M299.1,237.3c0,0,12.8,6.4,16.4,4.8l-8.8,23.8c0,0-0.7,5.8-12.1,8.4c-11.5,2.6-17,4.8-17,4.8l-21.3-24.8
			l10.8,2.9c0,0,5.6,7.7,9.5,5.1c3.9-2.6,16-1.3,16-1.3S299.5,242.8,299.1,237.3z"/>
		<path class="st11" d="M299.1,237.3c0,0,12.8,6.4,16.4,4.8l-8.8,23.8c0,0-0.7,5.8-12.1,8.4c-11.5,2.6-17,4.8-17,4.8l-21.3-24.8
			l10.8,2.9c0,0,5.6,7.7,9.5,5.1c3.9-2.6,16-1.3,16-1.3S299.5,242.8,299.1,237.3z"/>
		<path class="st7" d="M249.4,252.5c0,0-17.3-4.9-19.1,4.2c0,0,8-3.8,19.4,2.9c0.9,0.5,1.7,1,2.5,1.6c10.1,6.9,17.1,17.7,19.9,29.9
			l7.3,31.5l0.7,8.5c0,0,10.5,2,12.5-1c2-3,0.7-13.2-2.3-16.6c-2.9-3.4-7.5-17.9-7.5-17.9l-2.9-8.5c-2.4-7.1-6.2-13.7-11.2-19.3
			L268,267c-4.3-5.1-9.8-9.1-16-11.8C250.4,254.5,249.2,253.6,249.4,252.5z"/>
		<path class="st14" d="M249.4,251.9c0,0-17.3-4.9-19.1,4.2c0,0,8-3.8,19.4,2.9c0.9,0.5,1.7,1.1,2.5,1.6
			c10.1,6.9,17.1,17.7,19.9,29.9l7.3,31.5l0.7,8.5c0,0,10.5,2,12.5-1c2-3.1,0.7-13.2-2.3-16.6c-2.9-3.4-7.5-18-7.5-18l-2.9-8.4
			c-2.4-7.1-6.2-13.7-11.2-19.3l-0.7-0.8c-4.3-5.1-9.8-9.1-16-11.7C250.4,253.9,249.2,253,249.4,251.9z"/>
		<path class="st7" d="M292.9,316.7l-0.1,5.5l-4.6-2.9c0,0-8.2-29.2-13.9-37.2c-0.7-0.9-1-2.3-1.6-2.6l-23.4-22.2v-5.2
			c0,0,11.9,8.7,12.9,10.3c0.4,0.7,6.7,4.1,10.5,9.3c3.4,4.9,6.4,10,9,15.3l7.9,17.4L292.9,316.7z"/>
		<path class="st7" d="M236.2,221.1c1-0.5,2.2-1.3,2.2-2.4c-0.1-0.4-0.2-0.8-0.4-1.2s-0.6-0.6-0.9-0.8c-1.9-1.3-1.7-3.5-3.9-2.8
			c-1.4,0.5-2.7,1.4-4.1,1.9c-1,0.4-2,0.6-3.1,0.7c-0.7,0-1.3,0.1-2,0.2c-0.5,0.1-1,0.3-1.5,0.6c-3,1.6-5.2,4.4-6.2,7.6
			c-0.9,3-0.8,6.5-3.1,8.7c-0.4,0.3-0.8,0.7-1.1,1.1c-0.3,0.4-0.5,0.9-0.6,1.5c-0.4,1.8-0.3,3.7,0.5,5.3c0.4,0.8,0.9,1.6,1.6,2.2
			c0.7,0.6,1.5,1.1,2.3,1.4c0.8,0.3,1.6,0.3,2.4,0.5c3.8,0.9,6.4,4.2,9.8,6c0.3,0.2,0.6,0.3,0.9,0.3c0.4,0,0.7-0.2,1-0.4
			c1.3-0.9,2.4-2.4,2.4-4c-0.1-1-0.4-2-0.9-2.9c-0.7-1.7-1.3-3.4-1.6-5.2c-0.1-0.4-0.1-0.8,0-1.3c0.2-0.8,1.1-1.2,1.7-1.7
			c1.2-1.1,1.3-2.9,0.9-4.4c-0.4-1.5-1.3-2.8-2-4.2c-0.2-0.4-0.4-0.9-0.4-1.4c0-1.9,2.6-2.9,3.7-4.1
			C235.1,220.7,234.2,222.1,236.2,221.1z"/>
		<path class="st15" d="M235.9,221.1c1-0.5,2.2-1.3,2.2-2.4c-0.1-0.4-0.2-0.8-0.4-1.2c-0.2-0.3-1.4-1.8-1.8-2
			c-1.9-1.3-0.9-2.3-3-1.7c-1.4,0.5-2.3-0.2-3.7,0.3c-1,0.4-2.3,1.3-3.4,1.3c-0.7,0-3,0-3.6,0.2c-0.5,0.1-1,0.3-1.5,0.6
			c-3,1.6-5.2,4.4-6.2,7.6c-0.9,3-0.3,6.7-2.6,8.9c-0.4,0.4,0.1,1.5-0.2,1.9c-0.3,0.4-0.5,0.9-0.6,1.5c-0.4,1.8-0.3,3.6,0.5,5.3
			c0.4,0.8,0.9,1.6,1.6,2.2c0.7,0.6,1.5,1.1,2.3,1.4c0.8,0.3,1.6,0.3,2.4,0.5c3.8,0.9,6.4,4.2,9.8,6c0.3,0.2,0.6,0.3,0.9,0.3
			c0.4,0,0.7-0.2,1-0.4c1.3-0.9,2.4-2.4,2.4-4c-0.1-1-0.4-2-0.9-2.9c-0.7-1.7-1.3-3.4-1.6-5.2c-0.1-0.4-0.1-0.8,0-1.3
			c0.2-0.8,1.1-1.2,1.7-1.7c1.2-1.1,1.3-2.9,0.9-4.4c-0.4-1.5-1.3-2.8-2-4.2c-0.2-0.4-0.4-0.9-0.4-1.4c0-1.9,2.6-2.9,3.7-4.1
			C234.8,220.7,233.8,222.1,235.9,221.1z"/>
		<path class="st7" d="M249.9,350.2c6-0.7,13.6-1.4,16.9-0.8c5.3,0.9,12.8-3.8,14.2-4.7c-2.8-7.5-5-13.3-5-13.3s-21.9,1-26.5,8.7
			C247.3,343.5,248.2,347.2,249.9,350.2z"/>
		<path class="st10" d="M221.2,266.9c1.3,11.3,14.4,27,14.4,27s9.2,9.3,6.2,41.2l-0.3,15.4c0,0,19.3-2.9,25.2-1.9
			c5.9,1,14.4-4.8,14.4-4.8s3.3-55.7-10.8-67.3c-1.7-2.6-3.6-5.2-5.7-7.6c-3.8-4.5-8.9-9.6-13.7-10.8c-0.6-0.2-1.3-0.3-1.9-0.3
			c0,0-14.7-8-18.6-1.9C230.4,256,219.9,255.7,221.2,266.9z"/>
		<path class="st7" d="M281,327c0,0-5.2-2.2-14.1-1.6c-8.9,0.6-24.6-7.1-24.6-7.1"/>
		<path class="st11" d="M271.5,398.7c0,0-0.3,1,3.9,2.3c4.3,1.3,5.6,2.6,5.6,2.6"/>
		<path class="st4" d="M300.8,179.2h-32.9c-3.9,0-7,3.1-7,6.9v32.4c0,3.8,3.1,6.9,7,6.9h32.9c3.9,0,7-3.1,7-6.9v-32.4
			C307.8,182.3,304.7,179.2,300.8,179.2z"/>
		<path class="st13" d="M258.5,220.8c0,1.5,0.4,3,1.1,4.4l1.9,3.6l1.3,2.5l8.2,0.6c0,0,0.2-0.7,0.4-1.7c0.6-3.2,1.6-10.2-0.4-15
			c-2.6-6.4-3.6-19-8.5-16.1C258.6,201.3,258.4,215.2,258.5,220.8z"/>
		<path class="st7" d="M261.5,228.7L261.5,228.7l1.3,2.6l8.2,0.6c0,0,0.2-0.7,0.4-1.7C268.4,229,264.6,228,261.5,228.7z"/>
		<path class="st14" d="M261.5,229.3v5.8l11.8,6.1c0,0,0.1-1.1,0.4-2.4c0.4-2.3,1.2-5.6,2.2-6C275.9,232.8,267.4,228,261.5,229.3z"
			/>
		<path class="st11" d="M229.6,281.9c1.4,1.2,3.1,2.2,4.9,2.8c1.8,0.6,3.7,0.8,5.6,0.6c20.7-2.1,21.3-9.3,21.3-9.3l3.2-6.9
			c-3.8-4.5-8.9-9.6-13.7-10.8c-3.4,5.4-6.5,9.4-6.5,9.4s-15.4-11.6-20-0.6C221.9,273.3,225.8,278.6,229.6,281.9z"/>
		<path class="st7" d="M261.5,232.8v2.2l11.8,6.1c0,0,0.1-1.1,0.4-2.4C268.6,237.2,263.6,234.2,261.5,232.8z"/>
		<path class="st10" d="M260.2,232.8c0,0,8.8,6.1,16.4,7.4l-15.4,33.5c0,0-0.6,7.2-21.3,9.3c-1.9,0.2-3.8,0-5.6-0.6
			c-1.8-0.6-3.5-1.5-4.9-2.8c-3.8-3.3-7.8-8.6-5.1-14.9c4.6-10.9,20,0.6,20,0.6S259.9,245.1,260.2,232.8z"/>
		<path class="st6" d="M120.7,254.1l159.1,107.3L120.7,468.8V254.1z"/>
		<path class="st6" d="M438.9,254.1L279.8,361.5l159.1,107.3V254.1z"/>
		
			<linearGradient id="SVGID_5_" gradientUnits="userSpaceOnUse" x1="279.7982" y1="-98994.4688" x2="279.7982" y2="-74673.2891" gradientTransform="matrix(1 0 0 -1 0 578)">
			<stop  offset="0" style="stop-color:#808080;stop-opacity:0.25"/>
			<stop  offset="0.54" style="stop-color:#808080;stop-opacity:0.12"/>
			<stop  offset="1" style="stop-color:#808080;stop-opacity:0.1"/>
		</linearGradient>
		<path class="st16" d="M120.7,468.8l152.9-117c1.8-1.4,4-2.1,6.2-2.1c2.3,0,4.5,0.7,6.2,2.1l152.9,117H120.7z"/>
		<path class="st6" d="M120.7,468.8L273.6,357c1.8-1.3,4-2,6.2-2c2.2,0,4.4,0.7,6.2,2l152.9,111.9H120.7z"/>
	</g>
</g>
</svg>
