<svg width="593" height="577" viewBox="0 0 593 577" fill="none" xmlns="http://www.w3.org/2000/svg">
<path d="M107.015 327.103C107.438 381.722 123.154 431.62 158.95 466.713C197.137 504.15 247.786 535.954 306.919 523.081C364.321 510.585 403.914 453.336 443.361 404.798C479.819 359.94 516.602 312.936 520.759 259.969C525.112 204.486 506.549 151.093 465.577 121.677C426.581 93.6782 370.012 107.075 317.19 113.81C261.307 120.936 199.46 117.563 156.583 161.076C112.397 205.917 106.575 270.283 107.015 327.103Z" fill="#F7F6FE"/>
<g clip-path="url(#clip0)">
<path d="M282.731 112L145.867 186.539C148.208 190.591 149.715 195.073 150.301 199.721C150.887 204.369 150.539 209.087 149.278 213.598C148.017 218.108 145.868 222.317 142.959 225.977C140.05 229.637 136.44 232.673 132.343 234.904C128.246 237.136 123.745 238.517 119.108 238.968C114.47 239.418 109.789 238.928 105.343 237.526C100.897 236.124 96.7761 233.839 93.2244 230.806C89.6728 227.774 86.7627 224.055 84.6666 219.871L38 245.287L158.881 469.678L403.612 336.392L282.731 112Z" fill="#E6F2EE"/>
<path d="M109.341 286.545L207.976 302.332L199.963 352.953L122.904 340.619L119.797 360.248L113.48 339.111L101.328 337.166L109.341 286.545Z" fill="#48C95F"/>
<path opacity="0.2" d="M109.341 286.545L207.976 302.332L199.963 352.953L122.904 340.619L119.797 360.248L113.48 339.111L101.328 337.166L109.341 286.545Z" fill="black"/>
<path d="M126.083 307.232L185.675 316.77L186.492 311.604L126.9 302.067L126.083 307.232Z" fill="#F2F2F2"/>
<path d="M124.447 317.563L184.039 327.1L184.857 321.935L125.265 312.397L124.447 317.563Z" fill="#F2F2F2"/>
<path d="M122.812 327.894L182.404 337.431L183.222 332.266L123.63 322.728L122.812 327.894Z" fill="#F2F2F2"/>
<path d="M102.585 359.217L194.256 319.353L214.492 366.399L142.874 397.543L150.721 415.786L134.116 401.352L122.821 406.264L102.585 359.217Z" fill="#48C95F"/>
<path d="M127.749 367.649L183.133 343.565L181.068 338.764L125.684 362.849L127.749 367.649Z" fill="#F2F2F2"/>
<path d="M131.879 377.251L187.263 353.166L185.198 348.366L129.814 372.45L131.879 377.251Z" fill="#F2F2F2"/>
<path d="M136.007 386.852L191.392 362.767L189.327 357.967L133.942 382.051L136.007 386.852Z" fill="#F2F2F2"/>
<path d="M116.63 267.162L208.301 227.297L228.537 274.344L156.919 305.488L164.766 323.73L148.161 309.297L136.867 314.208L116.63 267.162Z" fill="#48C95F"/>
<path d="M141.794 275.594L197.178 251.51L195.114 246.709L139.729 270.793L141.794 275.594Z" fill="#F2F2F2"/>
<path d="M145.924 285.195L201.308 261.111L199.243 256.31L143.859 280.395L145.924 285.195Z" fill="#F2F2F2"/>
<path d="M150.053 294.797L205.437 270.712L203.372 265.911L147.988 289.996L150.053 294.797Z" fill="#F2F2F2"/>
<path d="M123.619 153.298L490.308 169.054C490.308 169.054 547.766 352.878 504.934 431.66L157.572 470C157.572 470 230.701 333.445 123.619 153.298Z" fill="#3F3D56"/>
<path d="M179.511 238.907L488.741 233.655" stroke="#2F2E41" stroke-width="2" stroke-miterlimit="10"/>
<path d="M187.868 263.067L500.233 256.764" stroke="#2F2E41" stroke-width="2" stroke-miterlimit="10"/>
<path d="M131.045 166.236L493.246 179.043" stroke="#2F2E41" stroke-width="2" stroke-miterlimit="10"/>
<path opacity="0.2" d="M403.529 354.455C403.529 355.234 403.524 356.013 403.503 356.782V356.787C403.472 358.691 403.399 360.564 403.28 362.426C403.155 364.424 402.985 366.396 402.77 368.342C400.663 387.365 394.306 403.94 385.385 415.269C380.329 421.697 374.445 426.441 368.042 428.994C366.086 429.777 364.055 430.353 361.982 430.714C360.372 430.993 358.741 431.133 357.107 431.133C349.445 431.133 342.214 428.068 335.847 422.628C323.545 412.141 314.441 392.83 311.617 369.759V369.754C311.138 365.852 310.836 361.851 310.737 357.76C310.706 356.667 310.691 355.565 310.691 354.455C310.691 312.104 331.472 277.771 357.107 277.771C363.178 277.771 368.978 279.696 374.294 283.201C374.451 283.3 374.607 283.405 374.757 283.514C377.682 285.525 380.362 287.874 382.742 290.513C384.272 292.197 385.703 293.97 387.029 295.822C388.728 298.201 390.278 300.685 391.669 303.259C392.834 305.404 393.932 307.663 394.941 310.022V310.028C395.992 312.454 396.954 314.982 397.828 317.612V317.617C400.465 325.661 402.186 333.98 402.957 342.414C403.337 346.337 403.529 350.359 403.529 354.455Z" fill="black"/>
<path d="M152.062 159.336C152.46 160.836 151.983 162.576 150.998 163.221C150.015 163.865 148.899 163.175 148.503 161.681C148.106 160.187 148.579 158.45 149.56 157.8C150.543 157.149 151.664 157.836 152.062 159.336Z" fill="#48C95F"/>
<path d="M160.407 159.205C160.805 160.705 160.328 162.445 159.343 163.09C158.36 163.734 157.244 163.043 156.848 161.549C156.452 160.055 156.924 158.318 157.905 157.669C158.888 157.017 160.01 157.705 160.407 159.205Z" fill="#48C95F"/>
<path d="M143.717 159.467C144.115 160.967 143.638 162.707 142.653 163.353C141.67 163.996 140.554 163.306 140.158 161.812C139.761 160.318 140.234 158.581 141.215 157.931C142.198 157.28 143.319 157.967 143.717 159.467Z" fill="#48C95F"/>
<path d="M404.228 310.24L406.928 318.319L409.852 318.546L407.224 298.407C408.2 285.687 402.919 274.466 390.269 273.484H390.269C386.027 273.155 381.829 274.534 378.598 277.317C375.368 280.1 373.369 284.059 373.041 288.324L371.549 307.759C371.391 309.819 372.053 311.858 373.39 313.427C374.727 314.996 376.63 315.967 378.678 316.126L401.359 317.886L404.228 310.24Z" fill="#2F2E41"/>
<path d="M407.079 356.251C407.079 356.251 409.48 362.804 413.596 363.839C417.712 364.874 448.239 372.116 448.239 372.116C448.239 372.116 474.994 372.806 466.762 378.669C458.529 384.532 445.152 378.669 445.152 378.669C445.152 378.669 406.05 373.84 402.963 368.667C400.931 365.147 399.21 361.454 397.818 357.631L407.079 356.251Z" fill="#FBBEBE"/>
<path d="M394.045 327.281C394.045 327.281 413.596 359.355 411.195 360.045C408.794 360.735 386.499 367.977 385.47 365.218C384.441 362.459 384.441 349.699 384.441 349.699L394.045 327.281Z" fill="#FF6584"/>
<path opacity="0.15" d="M394.045 327.281C394.045 327.281 413.596 359.355 411.195 360.045C408.794 360.735 386.499 367.977 385.47 365.218C384.441 362.459 384.441 349.699 384.441 349.699L394.045 327.281Z" fill="black"/>
<path d="M340.331 316.665L311.311 357.237C311.311 357.237 292.014 374.566 299.247 376.648C306.479 378.729 317.958 361.946 317.958 361.946L351.406 319.476L340.331 316.665Z" fill="#FBBEBE"/>
<path d="M399.876 301.76C399.876 301.76 391.301 314.866 391.987 317.97C391.987 317.97 391.301 320.039 392.33 321.419C393.359 322.798 393.016 331.075 393.016 331.075L389.586 335.904L385.127 321.074L383.069 305.209C383.069 305.209 387.7 298.829 387.014 295.725C386.328 292.621 399.876 301.76 399.876 301.76Z" fill="#FBBEBE"/>
<path d="M385.385 415.269C380.329 421.697 374.445 426.441 368.042 428.994C366.086 429.776 364.055 430.353 361.981 430.714C363.079 406.231 364.343 384.394 365.233 382.464C367.293 377.981 372.781 376.255 372.781 376.255C372.781 376.255 373.322 377.714 374.227 380.251C376.573 386.862 381.369 400.796 385.385 415.269Z" fill="#FF6584"/>
<path opacity="0.15" d="M385.385 415.269C380.329 421.697 374.445 426.441 368.042 428.994C366.086 429.776 364.055 430.353 361.981 430.714C363.079 406.231 364.343 384.394 365.233 382.464C367.293 377.981 372.781 376.255 372.781 376.255C372.781 376.255 373.322 377.714 374.227 380.251C376.573 386.862 381.369 400.796 385.385 415.269Z" fill="black"/>
<path d="M395.417 303.83C402.426 303.83 408.108 298.116 408.108 291.069C408.108 284.021 402.426 278.308 395.417 278.308C388.408 278.308 382.726 284.021 382.726 291.069C382.726 298.116 388.408 303.83 395.417 303.83Z" fill="#FBBEBE"/>
<path d="M389.931 350.045C387.559 352.315 385.817 353.989 384.537 355.265C381.936 357.849 381.239 358.775 381.01 359.701C380.667 361.082 378.955 361.082 378.955 361.082L374.227 380.251L369.004 401.429C369.004 401.429 368.666 413.198 368.042 428.993C366.086 429.776 364.055 430.353 361.981 430.714C360.372 430.993 358.741 431.133 357.107 431.133C349.445 431.133 342.214 428.068 335.847 422.628C335.936 402.428 335.733 381.773 335.733 381.773C335.733 381.773 330.245 372.808 349.112 355.218C349.112 355.218 352.087 346.494 355.167 337.733C358.262 328.904 361.461 320.039 361.805 320.039C362.034 320.039 363.672 317.931 365.753 315.122C367.579 312.664 369.748 309.661 371.6 307.062C373.988 303.735 375.865 301.073 375.865 301.073C375.865 301.073 381.499 301.073 383.913 303.965C384.31 304.429 384.607 304.971 384.787 305.555C385.369 307.465 386.701 312.125 388.038 316.853C389.833 323.219 391.643 329.694 391.643 329.694L392.564 321.911C392.564 321.911 395.419 325.902 395.419 329.003C395.419 329.171 395.425 329.359 395.43 329.574C395.581 333.292 396.741 343.518 389.931 350.045Z" fill="#FF6584"/>
<path d="M379.982 303.83L375.866 301.071C375.866 301.071 358.716 311.417 346.711 312.107C334.706 312.797 335.049 319.694 339.851 324.522C344.653 329.351 363.518 345.905 364.204 341.767C364.89 337.628 379.982 303.83 379.982 303.83Z" fill="#FF6584"/>
<path d="M402.594 275.142C399.835 274.207 393.162 273.709 392.185 273.633C389.833 273.45 387.469 273.735 385.226 274.472C382.984 275.208 380.908 276.381 379.116 277.924C377.325 279.468 375.853 281.35 374.785 283.465C373.718 285.58 373.075 287.886 372.893 290.251L364.21 315.003L377.334 316.022L380.491 306.824L383.228 316.479L389.834 316.992L390.835 311.395L392.638 317.21L399.997 317.781C395.448 304.814 393.394 293.157 401.176 286.665C406.015 287.714 410.239 286.717 411.116 284.104C412.126 281.093 408.31 277.081 402.594 275.142Z" fill="#2F2E41"/>
<path d="M437.123 304.457H537V355.715H458.971V375.591L449.429 355.715H437.123V304.457Z" fill="#48C95F"/>
<path d="M456.89 322.24H517.233V317.01H456.89V322.24Z" fill="#F2F2F2"/>
<path d="M456.89 332.701H517.233V327.471H456.89V332.701Z" fill="#F2F2F2"/>
<path d="M456.89 343.162H517.233V337.932H456.89V343.162Z" fill="#F2F2F2"/>
<path opacity="0.2" d="M354.55 193.479L329.422 186.729L322.709 211.996L347.837 218.745L354.55 193.479Z" fill="#48C95F"/>
<path d="M345.453 221.119C349.692 221.119 353.128 217.663 353.128 213.401C353.128 209.138 349.692 205.683 345.453 205.683C341.213 205.683 337.777 209.138 337.777 213.401C337.777 217.663 341.213 221.119 345.453 221.119Z" stroke="#3F3D56" stroke-width="2" stroke-miterlimit="10"/>
</g>
<defs>
<clipPath id="clip0">
<rect width="499" height="358" fill="white" transform="translate(38 112)"/>
</clipPath>
</defs>
</svg>
