<?xml version="1.0" encoding="utf-8"?>
<!-- Generator: Adobe Illustrator 23.0.2, SVG Export Plug-In . SVG Version: 6.00 Build 0)  -->
<svg version="1.1" id="Слой_1" xmlns="http://www.w3.org/2000/svg" xmlns:xlink="http://www.w3.org/1999/xlink" x="0px" y="0px"
	 viewBox="0 0 570 423" style="enable-background:new 0 0 570 423;" xml:space="preserve">
<style type="text/css">
	.st0{fill:#F7F6FE;}
	.st1{clip-path:url(#SVGID_2_);}
	.st2{opacity:0.1;fill:#48C95F;enable-background:new    ;}
	.st3{fill:#3F3D56;}
	.st4{fill:#48C95F;}
	.st5{opacity:0.1;enable-background:new    ;}
	.st6{opacity:0.1;}
	.st7{fill:#D0D2D5;}
	.st8{fill:#444053;}
	.st9{fill:#FFFFFF;}
	.st10{opacity:0.2;fill:#3F3D56;enable-background:new    ;}
	.st11{fill:#EFB7B9;}
	.st12{fill:#454B69;}
	.st13{fill:#464353;}
	.st14{fill:#A1616A;}
	.st15{opacity:0.1;fill:none;stroke:#000000;stroke-miterlimit:10;enable-background:new    ;}
</style>
<path class="st0" d="M492.4,224.1c-0.4,54.6-16.1,104.5-51.9,139.6c-38.2,37.4-88.8,69.2-148,56.4c-57.4-12.5-97-69.7-136.4-118.3
	c-36.5-44.9-73.2-91.9-77.4-144.8c-4.4-55.5,14.2-108.9,55.2-138.3c39-28,95.6-14.6,148.4-7.9c55.9,7.1,117.7,3.8,160.6,47.3
	C487,102.9,492.8,167.3,492.4,224.1z"/>
<g>
	<defs>
		<rect id="SVGID_1_" width="594" height="370"/>
	</defs>
	<clipPath id="SVGID_2_">
		<use xlink:href="#SVGID_1_"  style="overflow:visible;"/>
	</clipPath>
	<g class="st1">
		<path class="st2" d="M560,345.2c-2.2,6-4.9,11.8-8.1,17.3c-1.5,2.6-3.1,5.1-4.9,7.5L547,370H440.6h-47.1H156.6H0l0.1-0.1
			c0.5-0.4,3.4-3,7.9-7.5c3.2-3.2,7.3-7.4,11.8-12.4C56.9,309.4,128.3,213,68.9,124.8c-55.3-82,4.2-96.9,43.5-98.7
			c15.1-0.7,30.1,2.1,44.2,8.1c18.1,7.7,51.3,19.4,94.4,24.8c1.4,0.2,2.8,0.3,4.3,0.5c22.9,2.6,45.9,3.1,68.8,1.4
			c0.7,0,1.4-0.1,2-0.1c22.7-1.8,45.2-5.7,67.3-11.6c1.4-0.4,2.8-0.8,4.3-1.1c73.6-19,141.5,45.7,124.6,118.8
			c-6.3,27-4.7,55.9,16.2,79.2C572.7,284.1,568.6,321.5,560,345.2z"/>
		<path class="st3" d="M466.2,146.9c1.9-3.6,1.4-7.7-1.3-9.3c-2.7-1.5-6.4,0.1-8.3,3.7c-1.9,3.6-1.4,7.7,1.3,9.3
			C460.6,152.2,464.3,150.5,466.2,146.9z"/>
		<path class="st3" d="M470.5,139c1.9-3.6,1.4-7.7-1.3-9.3c-2.7-1.5-6.4,0.1-8.3,3.7c-1.9,3.6-1.4,7.7,1.3,9.3
			C464.9,144.2,468.6,142.6,470.5,139z"/>
		<path class="st3" d="M474.8,131c1.9-3.6,1.4-7.7-1.3-9.3c-2.7-1.5-6.4,0.1-8.3,3.7c-1.9,3.6-1.4,7.7,1.3,9.3
			C469.2,136.3,472.9,134.6,474.8,131z"/>
		<path class="st3" d="M479.1,123.1c1.9-3.6,1.4-7.7-1.3-9.3c-2.7-1.5-6.4,0.1-8.3,3.7c-1.9,3.6-1.4,7.7,1.3,9.3
			C473.5,128.3,477.2,126.7,479.1,123.1z"/>
		<path class="st3" d="M483.5,115.1c1.9-3.6,1.4-7.7-1.3-9.3c-2.7-1.5-6.4,0.1-8.3,3.7c-1.9,3.6-1.4,7.7,1.3,9.3
			C477.8,120.4,481.5,118.7,483.5,115.1z"/>
		<path class="st3" d="M487.8,107.2c1.9-3.6,1.4-7.7-1.3-9.3c-2.7-1.5-6.4,0.1-8.3,3.7c-1.9,3.6-1.4,7.7,1.3,9.3
			C482.1,112.4,485.8,110.8,487.8,107.2z"/>
		<path class="st3" d="M492.1,99.2c1.9-3.6,1.4-7.7-1.3-9.3s-6.4,0.1-8.3,3.7c-1.9,3.6-1.4,7.7,1.3,9.3
			C486.4,104.5,490.1,102.8,492.1,99.2z"/>
		<path class="st4" d="M534.7,52.4c1.1-0.5,2.2-1,3.3-1.7l-11.5-9.4l13.6,8c2.9-2.2,5.4-5,7.2-8.2c1.8-3.2,3-6.7,3.5-10.4l-23.7-0.8
			l23.9-3.1c0-3.8-0.8-7.5-2.3-10.9c-1.5-3.4-3.6-6.5-6.3-9c-2.7-2.5-5.9-4.5-9.3-5.7c-3.5-1.2-7.1-1.7-10.7-1.3
			c-3.6,0.3-7.2,1.4-10.4,3.2c-3.2,1.8-6,4.3-8.2,7.2c-2.2,3-3.9,6.4-4.7,10c-0.9,3.6-1.1,7.4-0.5,11.2c-1.8,0.8-3.4,1.7-5,2.8
			l11.7,18.3L491,36.5c-3.3,3-5.7,6.9-7.2,11.1c-1.5,4.3-1.9,8.9-1.2,13.3c-4.6,2-8.5,5.2-11.4,9.4c-2.9,4.2-4.5,9.1-4.8,14.2
			c-0.3,5.1,0.8,10.2,3.2,14.7c2.4,4.5,5.9,8.2,10.3,10.7c4.3,2.5,9.2,3.7,14.2,3.4c5-0.3,9.7-1.9,13.8-4.9c4.1-2.9,7.3-7,9.2-11.7
			c1.9-4.7,2.6-9.9,1.8-14.9c5.5-2.4,10-6.5,12.9-11.9S535.7,58.5,534.7,52.4L534.7,52.4z"/>
		<path class="st5" d="M485.6,43.4c-2.9,5.3-4,11.5-3,17.6c-4.6,2-8.5,5.2-11.4,9.4c-2.9,4.2-4.5,9.1-4.8,14.2
			c-0.3,5.1,0.8,10.2,3.2,14.7c2.4,4.5,5.9,8.2,10.3,10.7c4.3,2.5,9.2,3.7,14.2,3.4c5-0.3,9.7-1.9,13.8-4.9c4.1-2.9,7.3-7,9.2-11.7
			c1.9-4.7,2.6-9.9,1.8-14.9C524.1,79.6,487,40.7,485.6,43.4z"/>
		<path class="st3" d="M519.9,335.1h6.2c3.4,0,6.7,1.4,9.1,3.9c2.4,2.5,3.8,5.9,3.8,9.4V368H507v-19.7c0-3.5,1.4-6.9,3.8-9.4
			C513.2,336.5,516.5,335.1,519.9,335.1z"/>
		<path class="st5" d="M519.9,335.1h6.2c3.4,0,6.7,1.4,9.1,3.9c2.4,2.5,3.8,5.9,3.8,9.4V368H507v-19.7c0-3.5,1.4-6.9,3.8-9.4
			C513.2,336.5,516.5,335.1,519.9,335.1z"/>
		<path class="st3" d="M521.7,342.3c1.4,0,2.6-1.2,2.6-2.6s-1.1-2.6-2.6-2.6s-2.6,1.2-2.6,2.6S520.3,342.3,521.7,342.3z"/>
		<path class="st3" d="M521.7,339c1.4,0,2.6-1.2,2.6-2.6s-1.1-2.6-2.6-2.6s-2.6,1.2-2.6,2.6S520.3,339,521.7,339z"/>
		<path class="st3" d="M521.7,335.7c1.4,0,2.6-1.2,2.6-2.6c0-1.5-1.1-2.6-2.6-2.6s-2.6,1.2-2.6,2.6
			C519.2,334.6,520.3,335.7,521.7,335.7z"/>
		<path class="st3" d="M521.7,332.4c1.4,0,2.6-1.2,2.6-2.6c0-1.5-1.1-2.6-2.6-2.6s-2.6,1.2-2.6,2.6
			C519.2,331.3,520.3,332.4,521.7,332.4z"/>
		<path class="st3" d="M521.7,329.1c1.4,0,2.6-1.2,2.6-2.6s-1.1-2.6-2.6-2.6s-2.6,1.2-2.6,2.6S520.3,329.1,521.7,329.1z"/>
		<path class="st3" d="M521.7,325.9c1.4,0,2.6-1.2,2.6-2.6s-1.1-2.6-2.6-2.6s-2.6,1.2-2.6,2.6S520.3,325.9,521.7,325.9z"/>
		<path class="st3" d="M521.7,322.6c1.4,0,2.6-1.2,2.6-2.6c0-1.5-1.1-2.6-2.6-2.6s-2.6,1.2-2.6,2.6
			C519.2,321.4,520.3,322.6,521.7,322.6z"/>
		<path class="st3" d="M525.5,323.9c1.4,0,2.6-1.2,2.6-2.6s-1.1-2.6-2.6-2.6c-1.4,0-2.6,1.2-2.6,2.6S524.1,323.9,525.5,323.9z"/>
		<path class="st3" d="M528.1,322.6c1.4,0,2.6-1.2,2.6-2.6c0-1.5-1.1-2.6-2.6-2.6c-1.4,0-2.6,1.2-2.6,2.6
			C525.5,321.4,526.7,322.6,528.1,322.6z"/>
		<path class="st3" d="M530.7,321.2c1.4,0,2.6-1.2,2.6-2.6c0-1.5-1.1-2.6-2.6-2.6c-1.4,0-2.6,1.2-2.6,2.6
			C528.1,320.1,529.2,321.2,530.7,321.2z"/>
		<path class="st3" d="M521.7,319.3c1.4,0,2.6-1.2,2.6-2.6s-1.1-2.6-2.6-2.6s-2.6,1.2-2.6,2.6S520.3,319.3,521.7,319.3z"/>
		<path class="st3" d="M521.7,316c1.4,0,2.6-1.2,2.6-2.6c0-1.5-1.1-2.6-2.6-2.6s-2.6,1.2-2.6,2.6C519.2,314.8,520.3,316,521.7,316z"
			/>
		<path class="st3" d="M521.7,312.7c1.4,0,2.6-1.2,2.6-2.6s-1.1-2.6-2.6-2.6s-2.6,1.2-2.6,2.6S520.3,312.7,521.7,312.7z"/>
		<path class="st3" d="M521.7,309.4c1.4,0,2.6-1.2,2.6-2.6c0-1.5-1.1-2.6-2.6-2.6s-2.6,1.2-2.6,2.6
			C519.2,308.2,520.3,309.4,521.7,309.4z"/>
		<path class="st4" d="M532.3,298.3c-0.6,0.1-1.3,0.2-1.9,0.2c0.6-0.5,1.1-1.1,1.6-1.7c-0.4-1.1-0.9-2.2-1.5-3.1
			c-0.6,0.4-1.3,0.6-2.1,0.7c-0.6,0.1-1.3,0.2-1.9,0.2c0.9-0.8,1.7-1.7,2.4-2.7c-1.8-1.7-4.2-2.7-6.7-2.9c-2.5-0.1-4.9,0.6-7,2.1
			c-2,1.5-3.5,3.7-4.1,6.2c-0.6,2.5-0.5,5.1,0.6,7.5c1,2.3,2.8,4.3,5,5.4c2.2,1.2,4.8,1.5,7.2,1c2.4-0.5,4.6-1.9,6.2-3.9
			c1.6-2,2.4-4.5,2.4-7.1C532.5,299.5,532.5,298.8,532.3,298.3L532.3,298.3z"/>
		<path class="st4" d="M540.8,311.3c-0.7,0.4-1.4,0.7-2.1,0.7c-0.6,0.1-1.3,0.2-1.9,0.2c0.7-0.6,1.3-1.3,1.9-2
			c-0.5-0.1-1.1-0.2-1.6-0.2c-1.5,0-3,0.6-4.2,1.6c-1.2,1-1.9,2.4-2.2,4c-0.2,1.5,0.1,3.1,0.8,4.5c0.8,1.3,2,2.4,3.5,2.8
			c1.4,0.5,3,0.4,4.4-0.1s2.6-1.7,3.3-3.1s0.9-3,0.6-4.5C542.9,313.6,542.1,312.3,540.8,311.3z"/>
		<path class="st3" d="M517.9,323.9c1.4,0,2.6-1.2,2.6-2.6s-1.1-2.6-2.6-2.6c-1.4,0-2.6,1.2-2.6,2.6S516.5,323.9,517.9,323.9z"/>
		<path class="st3" d="M515.3,322.6c1.4,0,2.6-1.2,2.6-2.6c0-1.5-1.1-2.6-2.6-2.6c-1.4,0-2.6,1.2-2.6,2.6
			C512.8,321.4,513.9,322.6,515.3,322.6z"/>
		<path class="st3" d="M512.8,321.2c1.4,0,2.6-1.2,2.6-2.6c0-1.5-1.1-2.6-2.6-2.6c-1.4,0-2.6,1.2-2.6,2.6
			C510.2,320.1,511.4,321.2,512.8,321.2z"/>
		<path class="st4" d="M502.6,311.3c0.7,0.4,1.4,0.7,2.1,0.7c0.6,0.1,1.3,0.2,1.9,0.2c-0.7-0.6-1.3-1.3-1.9-2
			c0.5-0.1,1.1-0.2,1.6-0.2c1.5,0,3,0.6,4.2,1.6c1.2,1,1.9,2.4,2.2,4c0.2,1.5-0.1,3.1-0.8,4.5c-0.8,1.3-2,2.4-3.5,2.8
			c-1.4,0.5-3,0.4-4.4-0.1c-1.4-0.6-2.6-1.7-3.3-3.1c-0.7-1.4-0.9-3-0.6-4.5C500.5,313.6,501.4,312.3,502.6,311.3z"/>
		<path class="st3" d="M519.9,337.1h6.2c3.4,0,6.7,1.4,9.1,3.9c2.4,2.5,3.8,5.9,3.8,9.4v17.4c0,0.6-0.2,1.2-0.6,1.6s-1,0.7-1.5,0.7
			h-27.6c-0.6,0-1.1-0.2-1.5-0.7s-0.6-1-0.6-1.6v-17.4c0-3.5,1.4-6.9,3.8-9.4C513.2,338.5,516.5,337.1,519.9,337.1z"/>
		<g class="st6">
			<path class="st5" d="M532.5,299c-0.3,0.3-0.5,0.6-0.8,0.8c0.3,0,0.6,0,0.9-0.1C532.5,299.5,532.5,299.2,532.5,299z"/>
			<path class="st5" d="M527.8,295.8c0.6,0,1.3-0.1,1.9-0.2c0.6-0.1,1.1-0.2,1.7-0.5c-0.3-0.5-0.6-1-0.9-1.5c-0.3,0.2-0.7,0.4-1,0.5
				C529,294.7,528.4,295.3,527.8,295.8z"/>
			<path class="st5" d="M512.1,301.5c0-2,0.5-4,1.5-5.7c1-1.7,2.4-3.2,4.1-4.1c1.7-1,3.6-1.4,5.6-1.4c1.9,0.1,3.8,0.7,5.5,1.8
				l0.2-0.2c-1.1-1-2.3-1.7-3.7-2.2c-1.4-0.5-2.8-0.7-4.2-0.6c-1.4,0.1-2.8,0.5-4.1,1.1c-1.3,0.7-2.4,1.6-3.4,2.7
				c-0.9,1.1-1.7,2.4-2.1,3.8s-0.6,2.9-0.5,4.4c0.1,1.5,0.5,2.9,1.1,4.2c0.6,1.3,1.5,2.5,2.6,3.5C513,306.7,512.1,304.1,512.1,301.5
				z"/>
		</g>
		<g class="st6">
			<path class="st5" d="M536.8,313.6c0.6,0,1.3-0.1,1.9-0.2c0.8-0.1,1.5-0.3,2.1-0.7c0.7,0.5,1.3,1.2,1.8,2.1
				c0.4,0.8,0.7,1.7,0.8,2.6c0-0.2,0-0.5,0-0.7c0-1-0.2-2-0.7-3c-0.4-0.9-1.1-1.7-1.9-2.3c-0.7,0.4-1.4,0.7-2.1,0.7l-0.5,0.1
				C537.8,312.7,537.3,313.2,536.8,313.6z"/>
			<path class="st5" d="M537,311.4c0.2,0,0.4,0,0.6,0c0.3-0.4,0.7-0.8,1-1.1c-0.5-0.1-1.1-0.2-1.6-0.2c-1.7,0-3.3,0.7-4.5,1.9
				c-1.2,1.2-1.9,2.9-1.9,4.7c0,0.2,0,0.4,0,0.7c0.2-1.6,0.9-3.1,2.1-4.2C533.9,312,535.5,311.4,537,311.4z"/>
		</g>
		<g class="st6">
			<path class="st5" d="M506.6,313.6c-0.6,0-1.3-0.1-1.9-0.2c-0.8-0.1-1.5-0.3-2.1-0.7c-0.7,0.5-1.3,1.2-1.8,2.1
				c-0.4,0.8-0.7,1.7-0.8,2.6c0-0.2,0-0.5,0-0.7c0-1,0.2-2,0.7-3c0.4-0.9,1.1-1.7,1.9-2.3c0.7,0.4,1.4,0.7,2.1,0.7l0.5,0.1
				C505.7,312.7,506.1,313.2,506.6,313.6z"/>
			<path class="st5" d="M506.4,311.4c-0.2,0-0.4,0-0.6,0c-0.3-0.4-0.7-0.8-1-1.1c0.5-0.1,1.1-0.2,1.6-0.2c1.7,0,3.3,0.7,4.5,1.9
				c1.2,1.2,1.9,2.9,1.9,4.7c0,0.2,0,0.4,0,0.7c-0.2-1.6-0.9-3.1-2.1-4.2C509.5,312,508,311.4,506.4,311.4z"/>
		</g>
		<path class="st3" d="M29.3,285.9h49.1c3.4,0,6.7,1.4,9.1,3.9c2.4,2.5,3.8,5.9,3.8,9.4V363H16.4v-63.9c0-3.5,1.4-6.9,3.8-9.4
			C22.6,287.3,25.9,285.9,29.3,285.9z"/>
		<path class="st5" d="M29.3,285.9h49.1c3.4,0,6.7,1.4,9.1,3.9c2.4,2.5,3.8,5.9,3.8,9.4V363H16.4v-63.9c0-3.5,1.4-6.9,3.8-9.4
			C22.6,287.3,25.9,285.9,29.3,285.9z"/>
		<path class="st3" d="M50.9,302.8c3.3,0,6-2.8,6-6.2c0-3.4-2.7-6.2-6-6.2c-3.3,0-6,2.8-6,6.2C44.9,300.1,47.6,302.8,50.9,302.8z"/>
		<path class="st3" d="M50.9,295.1c3.3,0,6-2.8,6-6.2c0-3.4-2.7-6.2-6-6.2c-3.3,0-6,2.8-6,6.2C44.9,292.4,47.6,295.1,50.9,295.1z"/>
		<path class="st3" d="M50.9,287.4c3.3,0,6-2.8,6-6.2c0-3.4-2.7-6.2-6-6.2c-3.3,0-6,2.8-6,6.2C44.9,284.6,47.6,287.4,50.9,287.4z"/>
		<path class="st3" d="M50.9,279.7c3.3,0,6-2.8,6-6.2c0-3.4-2.7-6.2-6-6.2c-3.3,0-6,2.8-6,6.2C44.9,276.9,47.6,279.7,50.9,279.7z"/>
		<path class="st3" d="M50.9,272c3.3,0,6-2.8,6-6.2c0-3.4-2.7-6.2-6-6.2c-3.3,0-6,2.8-6,6.2C44.9,269.2,47.6,272,50.9,272z"/>
		<path class="st3" d="M50.9,264.2c3.3,0,6-2.8,6-6.2c0-3.4-2.7-6.2-6-6.2c-3.3,0-6,2.8-6,6.2C44.9,261.5,47.6,264.2,50.9,264.2z"/>
		<path class="st3" d="M50.9,256.5c3.3,0,6-2.8,6-6.2c0-3.4-2.7-6.2-6-6.2c-3.3,0-6,2.8-6,6.2C44.9,253.8,47.6,256.5,50.9,256.5z"/>
		<path class="st3" d="M59.8,259.6c3.3,0,6-2.8,6-6.2c0-3.4-2.7-6.2-6-6.2c-3.3,0-6,2.8-6,6.2C53.9,256.8,56.5,259.6,59.8,259.6z"/>
		<path class="st3" d="M65.8,256.5c3.3,0,6-2.8,6-6.2c0-3.4-2.7-6.2-6-6.2c-3.3,0-6,2.8-6,6.2C59.8,253.8,62.5,256.5,65.8,256.5z"/>
		<path class="st3" d="M71.8,253.4c3.3,0,6-2.8,6-6.2c0-3.4-2.7-6.2-6-6.2c-3.3,0-6,2.8-6,6.2C65.8,250.7,68.5,253.4,71.8,253.4z"/>
		<path class="st3" d="M50.9,248.8c3.3,0,6-2.8,6-6.2c0-3.4-2.7-6.2-6-6.2c-3.3,0-6,2.8-6,6.2C44.9,246,47.6,248.8,50.9,248.8z"/>
		<path class="st3" d="M50.9,241.1c3.3,0,6-2.8,6-6.2c0-3.4-2.7-6.2-6-6.2c-3.3,0-6,2.8-6,6.2C44.9,238.3,47.6,241.1,50.9,241.1z"/>
		<path class="st3" d="M50.9,233.4c3.3,0,6-2.8,6-6.2s-2.7-6.2-6-6.2c-3.3,0-6,2.8-6,6.2S47.6,233.4,50.9,233.4z"/>
		<path class="st3" d="M50.9,225.6c3.3,0,6-2.8,6-6.2c0-3.4-2.7-6.2-6-6.2c-3.3,0-6,2.8-6,6.2C44.9,222.9,47.6,225.6,50.9,225.6z"/>
		<path class="st4" d="M75.7,199.6c-1.5,0.2-3,0.4-4.5,0.5c1.4-1.3,2.7-2.6,3.8-4.1c-0.8-2.6-2-5-3.6-7.2c-1.5,0.9-3.1,1.4-4.8,1.6
			c-1.5,0.2-3,0.4-4.5,0.5c2-1.6,3.8-4.1,5.7-6.2c-4.5-4.2-10.2-6.6-16.3-6.8c-6-0.2-11.9,1.8-16.7,5.7c-4.7,3.9-8,9.3-9.2,15.4
			c-1.2,6.1-0.2,12.5,2.7,17.9s7.6,9.7,13.3,11.9c5.6,2.2,11.9,2.3,17.6,0.2c5.7-2.1,10.5-6.2,13.5-11.6c3-5.4,4.1-11.7,3.1-17.8
			L75.7,199.6z"/>
		<path class="st4" d="M95.7,230.2c-1.4,1-3.3,1.5-5,1.7c-1.5,0.2-3,0.4-4.5,0.5c1.5-1.3,3-3.1,4.4-4.7c-3.6-1-7.4-0.6-10.7,1.2
			c-3.3,1.8-5.9,4.8-7.1,8.4c-1.3,3.6-1.2,7.6,0.2,11.1c1.4,3.6,4,6.5,7.4,8.1c3.4,1.7,7.2,2,10.8,0.9c3.6-1.1,6.6-3.5,8.5-6.8
			c1.9-3.3,2.6-7.2,1.9-11S98.7,232.5,95.7,230.2z"/>
		<path class="st3" d="M41.9,259.6c3.3,0,6-2.8,6-6.2c0-3.4-2.7-6.2-6-6.2s-6,2.8-6,6.2C35.9,256.8,38.6,259.6,41.9,259.6z"/>
		<path class="st3" d="M35.9,256.5c3.3,0,6-2.8,6-6.2c0-3.4-2.7-6.2-6-6.2s-6,2.8-6,6.2C29.9,253.8,32.6,256.5,35.9,256.5z"/>
		<path class="st3" d="M29.9,253.4c3.3,0,6-2.8,6-6.2c0-3.4-2.7-6.2-6-6.2s-6,2.8-6,6.2C23.9,250.7,26.6,253.4,29.9,253.4z"/>
		<path class="st4" d="M6.1,230.2c1.4,1,3.3,1.5,5,1.7c1.5,0.2,3,0.4,4.5,0.5c-1.5-1.3-3-3.1-4.4-4.7c3.6-1,7.4-0.6,10.7,1.2
			c3.3,1.8,5.9,4.8,7.1,8.4c1.3,3.6,1.2,7.6-0.2,11.1c-1.4,3.6-4,6.5-7.4,8.1c-3.4,1.7-7.2,2-10.8,0.9c-3.6-1.1-6.6-3.5-8.5-6.8
			c-1.9-3.3-2.6-7.2-1.9-11C1,235.9,3.1,232.5,6.1,230.2z"/>
		<path class="st3" d="M29.3,290.5h49.1c3.4,0,6.7,1.4,9.1,3.9c2.4,2.5,3.8,5.9,3.8,9.4v61.7c0,0.6-0.2,1.2-0.6,1.6
			c-0.4,0.4-1,0.7-1.5,0.7H18.6c-0.3,0-0.6-0.1-0.8-0.2c-0.3-0.1-0.5-0.3-0.7-0.5c-0.2-0.2-0.4-0.5-0.5-0.7
			c-0.1-0.3-0.2-0.6-0.2-0.9v-61.7c0-3.5,1.4-6.9,3.8-9.4C22.6,291.9,25.9,290.5,29.3,290.5z"/>
		<g class="st6">
			<path class="st5" d="M76.1,201.2c-0.6,0.7-1.2,1.3-1.9,1.9c0.7,0,1.4-0.1,2.1-0.2C76.2,202.4,76.2,201.8,76.1,201.2z"/>
			<path class="st5" d="M65.2,193.9c1.5-0.1,3-0.3,4.5-0.5c1.3-0.2,2.7-0.5,3.9-1.1c-0.6-1.2-1.3-2.4-2.1-3.6
				c-0.7,0.5-1.6,0.8-2.4,1.1C67.9,191.3,66.6,192.6,65.2,193.9z"/>
			<path class="st5" d="M28.4,207.1c0-4.7,1.2-9.3,3.5-13.4c2.3-4.1,5.7-7.4,9.7-9.6c4-2.3,8.5-3.4,13.1-3.2c4.6,0.2,9,1.6,12.8,4.2
				c0.1-0.1,0.3-0.3,0.4-0.4c-2.5-2.3-5.4-4.1-8.6-5.3c-3.2-1.2-6.5-1.6-9.9-1.4s-6.7,1.1-9.7,2.6c-3,1.5-5.7,3.7-8,6.3
				c-2.2,2.6-3.9,5.7-5,9c-1.1,3.3-1.5,6.8-1.2,10.2c0.2,3.5,1.2,6.8,2.7,9.9c1.5,3.1,3.6,5.9,6.2,8.1
				C30.6,219.3,28.4,213.3,28.4,207.1z"/>
		</g>
		<g class="st6">
			<path class="st5" d="M86.2,235.5c1.5-0.1,3-0.3,4.5-0.5c1.8-0.3,3.6-0.7,5-1.7c1.7,1.3,3.1,2.9,4.1,4.8s1.7,4,1.9,6.1
				c0.1-0.5,0.1-1.1,0.1-1.6c0-2.4-0.5-4.8-1.6-6.9c-1.1-2.2-2.6-4-4.5-5.4c-1.4,1-3.3,1.5-5,1.7c-0.4,0.1-0.8,0.1-1.2,0.2
				C88.5,233.4,87.4,234.5,86.2,235.5z"/>
			<path class="st5" d="M86.8,230.3c0.5,0,1,0,1.5,0.1c0.8-0.9,1.5-1.8,2.3-2.7c-2.2-0.6-4.5-0.7-6.8-0.2c-2.2,0.5-4.4,1.5-6.2,2.9
				c-1.8,1.4-3.3,3.3-4.3,5.4s-1.5,4.5-1.5,6.8c0,0.5,0,1.1,0.1,1.5c0.4-3.8,2.1-7.3,4.8-9.9C79.5,231.7,83.1,230.3,86.8,230.3z"/>
		</g>
		<g class="st6">
			<path class="st5" d="M15.6,235.5c-1.5-0.1-3-0.3-4.5-0.5c-1.8-0.3-3.6-0.7-5-1.7c-1.7,1.3-3.1,2.9-4.1,4.8c-1,1.9-1.7,4-1.9,6.1
				C0,243.7,0,243.2,0,242.6c0-2.4,0.5-4.8,1.6-6.9c1.1-2.2,2.6-4,4.5-5.4c1.4,1,3.3,1.5,5,1.7c0.4,0.1,0.8,0.1,1.2,0.2
				C13.3,233.4,14.4,234.5,15.6,235.5z"/>
			<path class="st5" d="M15,230.3c-0.5,0-1,0-1.5,0.1c-0.8-0.9-1.5-1.8-2.3-2.7c2.2-0.6,4.5-0.7,6.8-0.2s4.4,1.5,6.2,2.9
				c1.8,1.4,3.3,3.3,4.3,5.4c1,2.1,1.5,4.5,1.5,6.8c0,0.5,0,1.1-0.1,1.5c-0.4-3.8-2.1-7.3-4.8-9.9C22.3,231.7,18.7,230.3,15,230.3z"
				/>
		</g>
		<path class="st7" d="M349.5,369.2l-100.2-1.3l0.3-2.7l4.8-43.8h88l6.5,43.8l0.5,3.3L349.5,369.2z"/>
		<path class="st5" d="M349.4,368.6h-50l-50.1-0.7l0.3-2.7h99.3L349.4,368.6z"/>
		<path class="st7" d="M365.6,365.9h-133v3.3h133V365.9z"/>
		<path class="st8" d="M492.5,58.7c0-2.3-0.9-4.5-2.4-6.1c-1.6-1.6-3.7-2.5-5.9-2.6H112.7c-1.1,0-2.2,0.2-3.2,0.7
			c-1,0.4-1.9,1.1-2.7,1.9s-1.4,1.8-1.8,2.8c-0.4,1-0.6,2.2-0.6,3.3V291h388.1V58.7z"/>
		<path class="st7" d="M104.4,288.7v27.2c0,1.1,0.2,2.3,0.6,3.3c0.4,1,1,2,1.8,2.8c0.8,0.8,1.7,1.4,2.7,1.9c1,0.4,2.1,0.7,3.2,0.7
			h371.4c2.2,0,4.3-0.9,5.9-2.5c1.6-1.6,2.4-3.8,2.4-6.1v-27.2H104.4z"/>
		<path class="st2" d="M478.3,64.6H120.5v208.8h357.9V64.6z"/>
		<path class="st4" d="M300.4,314.1c1.3,0,2.6-0.3,3.8-0.9c1.2-0.6,2.2-1.5,3-2.5c0.2-0.3,0.5-0.7,0.7-1l-4.8-0.8l5.1,0
			c0.5-1.1,0.8-2.3,0.8-3.5c0-1.2-0.2-2.4-0.6-3.6l-6.9,3.7l6.4-4.8c-0.6-1.1-1.4-2-2.3-2.8c-1-0.7-2.1-1.3-3.2-1.6
			c-1.2-0.3-2.4-0.3-3.6-0.1c-1.2,0.2-2.3,0.7-3.3,1.4c-1,0.7-1.8,1.6-2.5,2.6c-0.6,1-1.1,2.2-1.2,3.4c-0.2,1.2-0.1,2.5,0.2,3.7
			c0.3,1.2,0.9,2.3,1.6,3.3c0.8,1.1,1.8,1.9,3,2.5C297.8,313.8,299.1,314.1,300.4,314.1z"/>
		<path class="st5" d="M309,324.5l40,41.4l-6.1-41.4H309z"/>
		<path class="st9" d="M406.7,93H130.4v151.4h276.3V93z"/>
		<path class="st2" d="M222.9,132.5h-77.1v4.1h77.1V132.5z"/>
		<path class="st2" d="M160.1,110.7h-7.4v21.8h7.4V110.7z"/>
		<path class="st2" d="M171,110.7h-7.4v21.8h7.4V110.7z"/>
		<path class="st2" d="M181.8,110.7h-7.4v21.8h7.4V110.7z"/>
		<path class="st2" d="M192.6,110.7h-7.4v21.8h7.4V110.7z"/>
		<path class="st2" d="M203.5,110.7h-7.4v21.8h7.4V110.7z"/>
		<path class="st2" d="M214.3,110.7h-7.4v21.8h7.4V110.7z"/>
		<path class="st2" d="M160.1,114.8h-7.4v2.4h7.4V114.8z"/>
		<path class="st2" d="M171,114.8h-7.4v2.4h7.4V114.8z"/>
		<path class="st2" d="M181.8,114.8h-7.4v2.4h7.4V114.8z"/>
		<path class="st2" d="M192.6,114.8h-7.4v2.4h7.4V114.8z"/>
		<path class="st2" d="M203.5,114.8h-7.4v2.4h7.4V114.8z"/>
		<path class="st2" d="M214.3,114.8h-7.4v2.4h7.4V114.8z"/>
		<path class="st2" d="M160.1,125.4h-7.4v2.4h7.4V125.4z"/>
		<path class="st2" d="M171,125.4h-7.4v2.4h7.4V125.4z"/>
		<path class="st2" d="M181.8,125.4h-7.4v2.4h7.4V125.4z"/>
		<path class="st2" d="M192.6,125.4h-7.4v2.4h7.4V125.4z"/>
		<path class="st2" d="M203.5,125.4h-7.4v2.4h7.4V125.4z"/>
		<path class="st2" d="M214.3,125.4h-7.4v2.4h7.4V125.4z"/>
		<path class="st2" d="M391.9,143.1h-77.1v4.1h77.1V143.1z"/>
		<path class="st2" d="M329.1,121.3h-7.4v21.8h7.4V121.3z"/>
		<path class="st2" d="M339.9,121.3h-7.4v21.8h7.4V121.3z"/>
		<path class="st2" d="M350.8,121.3h-7.4v21.8h7.4V121.3z"/>
		<path class="st2" d="M361.6,121.3h-7.4v21.8h7.4V121.3z"/>
		<path class="st2" d="M372.5,121.3H365v21.8h7.4V121.3z"/>
		<path class="st2" d="M383.3,121.3h-7.4v21.8h7.4V121.3z"/>
		<path class="st2" d="M329.1,125.4h-7.4v2.4h7.4V125.4z"/>
		<path class="st2" d="M339.9,125.4h-7.4v2.4h7.4V125.4z"/>
		<path class="st2" d="M350.8,125.4h-7.4v2.4h7.4V125.4z"/>
		<path class="st2" d="M361.6,125.4h-7.4v2.4h7.4V125.4z"/>
		<path class="st2" d="M372.5,125.4H365v2.4h7.4V125.4z"/>
		<path class="st2" d="M383.3,125.4h-7.4v2.4h7.4V125.4z"/>
		<path class="st2" d="M329.1,136h-7.4v2.4h7.4V136z"/>
		<path class="st2" d="M339.9,136h-7.4v2.4h7.4V136z"/>
		<path class="st2" d="M350.8,136h-7.4v2.4h7.4V136z"/>
		<path class="st2" d="M361.6,136h-7.4v2.4h7.4V136z"/>
		<path class="st2" d="M372.5,136H365v2.4h7.4V136z"/>
		<path class="st2" d="M383.3,136h-7.4v2.4h7.4V136z"/>
		<path class="st2" d="M391.9,173.1h-77.1v4.1h77.1V173.1z"/>
		<path class="st2" d="M329.1,151.3h-7.4v21.8h7.4V151.3z"/>
		<path class="st2" d="M339.9,151.3h-7.4v21.8h7.4V151.3z"/>
		<path class="st2" d="M350.8,151.3h-7.4v21.8h7.4V151.3z"/>
		<path class="st2" d="M361.6,151.3h-7.4v21.8h7.4V151.3z"/>
		<path class="st2" d="M372.5,151.3H365v21.8h7.4V151.3z"/>
		<path class="st2" d="M383.3,151.3h-7.4v21.8h7.4V151.3z"/>
		<path class="st2" d="M329.1,155.5h-7.4v2.4h7.4V155.5z"/>
		<path class="st2" d="M339.9,155.5h-7.4v2.4h7.4V155.5z"/>
		<path class="st2" d="M350.8,155.5h-7.4v2.4h7.4V155.5z"/>
		<path class="st2" d="M361.6,155.5h-7.4v2.4h7.4V155.5z"/>
		<path class="st2" d="M372.5,155.5H365v2.4h7.4V155.5z"/>
		<path class="st2" d="M383.3,155.5h-7.4v2.4h7.4V155.5z"/>
		<path class="st2" d="M329.1,166.1h-7.4v2.4h7.4V166.1z"/>
		<path class="st2" d="M339.9,166.1h-7.4v2.4h7.4V166.1z"/>
		<path class="st2" d="M350.8,166.1h-7.4v2.4h7.4V166.1z"/>
		<path class="st2" d="M361.6,166.1h-7.4v2.4h7.4V166.1z"/>
		<path class="st2" d="M372.5,166.1H365v2.4h7.4V166.1z"/>
		<path class="st2" d="M383.3,166.1h-7.4v2.4h7.4V166.1z"/>
		<path class="st2" d="M193.1,179.1c-0.6-0.8-1.1-1.6-1.6-2.4l11.1-1.9l-12,0.1c-1.2-2.6-1.8-5.4-1.8-8.2c-0.1-2.8,0.4-5.7,1.5-8.3
			l16.1,8.6l-14.8-11.3c1.4-2.5,3.3-4.7,5.5-6.4c2.2-1.7,4.8-2.9,7.5-3.6s5.5-0.7,8.3-0.2c2.7,0.5,5.3,1.6,7.6,3.2s4.3,3.7,5.7,6.1
			c1.5,2.4,2.5,5.1,2.9,8c0.4,2.8,0.3,5.7-0.4,8.5c-0.7,2.8-2,5.4-3.7,7.6c0.9,1.2,1.7,2.4,2.3,3.8l-14.4,7.7l15.4-5.3
			c1.1,3.3,1.3,6.8,0.8,10.2s-2,6.6-4,9.4c2.3,3.1,3.8,6.8,4.2,10.7c0.4,3.9-0.3,7.8-1.9,11.4c-1.7,3.5-4.2,6.5-7.5,8.6
			c-3.2,2.1-6.9,3.2-10.7,3.2s-7.5-1.1-10.7-3.2c-3.2-2.1-5.8-5-7.5-8.6c-1.7-3.5-2.3-7.5-1.9-11.4c0.4-3.9,1.9-7.6,4.2-10.7
			c-2.8-3.7-4.3-8.2-4.3-12.9C188.8,187.3,190.3,182.8,193.1,179.1L193.1,179.1z"/>
		<path class="st2" d="M229.2,192c0,4.7-1.5,9.2-4.3,12.9c2.3,3.1,3.8,6.8,4.2,10.7c0.4,3.9-0.3,7.8-1.9,11.4
			c-1.7,3.5-4.2,6.5-7.5,8.6c-3.2,2.1-6.9,3.2-10.7,3.2c-3.8,0-7.5-1.1-10.7-3.2c-3.2-2.1-5.8-5-7.5-8.6c-1.7-3.5-2.3-7.5-1.9-11.4
			c0.4-3.9,1.9-7.6,4.2-10.7C190.4,201.3,229.2,189.6,229.2,192z"/>
		<path class="st10" d="M212.2,244.2c0,0.1,0.1,0.1,0.1,0.2h-6.9c0-0.1,0.1-0.1,0.1-0.2c-0.6-1.1-0.9-2.3-0.9-3.5
			c0-0.8,0.1-1.7,0.4-2.5c0.4,0.1,0.9,0.1,1.4,0.2c1.6,0.2,3.2,0.2,4.8,0c0.5,0,0.9-0.1,1.4-0.2c0,0,0,0,0,0
			c0.3,0.8,0.4,1.6,0.4,2.4C213.1,242,212.8,243.2,212.2,244.2z"/>
		<path class="st2" d="M187.6,244.4h-38.2c-0.1-0.2-0.2-0.5-0.2-0.7c-1.3-4.5-1.2-9.3,0.4-13.6c-3.7-2.7-6.5-6.5-7.8-11
			c-1.3-4.5-1.2-9.3,0.4-13.6c-0.8-0.6-1.5-1.2-2.2-1.8l10.1-5.2l-11.4,3.7c-1.8-2.1-3.2-4.6-4.1-7.3s-1.2-5.6-1-8.4l17.8,3.3
			l-17.4-6.2c0.6-2.8,1.8-5.4,3.4-7.7c1.6-2.3,3.7-4.2,6.1-5.7c2.4-1.4,5.1-2.4,7.8-2.7c2.8-0.3,5.6-0.1,8.2,0.8
			c2.7,0.8,5.1,2.2,7.2,4.1s3.8,4.2,5.1,6.7c1.2,2.6,1.9,5.4,2,8.3s-0.3,5.7-1.3,8.4c1.2,0.9,2.3,1.8,3.3,2.9l-11.6,11.8l13.2-9.8
			c2,2.8,3.2,6.1,3.7,9.5c0.4,3.4,0,6.9-1.2,10.2c3.6,2.6,6.4,6.4,7.7,10.7C189.1,235.4,189,240.1,187.6,244.4z"/>
		<path class="st2" d="M187.6,244.4h-38.2c-0.1-0.2-0.2-0.5-0.2-0.7c-1.3-4.5-1.2-9.3,0.4-13.6c-3.6-2.6,30.2-25.6,30.8-23.3
			c1.3,4.5,1.2,9.3-0.4,13.6c3.6,2.6,6.3,6.4,7.7,10.7C189.1,235.4,189,240.1,187.6,244.4z"/>
		<path class="st2" d="M360.5,216.1c-2.3,4-5.9,7.1-10.1,8.8c0.2,1.5,0.2,3,0.1,4.5l-16.2-1l15.8,3.6c-1,5-3.8,9.4-7.8,12.4h-22.1
			v0.6h-22.4c0-0.2,0.1-0.4,0.1-0.6c0.8-3.2,2.4-6.2,4.5-8.6c2.1-2.5,4.8-4.4,7.8-5.6c-0.6-4.6,0.4-9.4,2.7-13.4
			c2.3-4,5.9-7.1,10.1-8.8c-0.1-1-0.2-1.9-0.2-2.9l10.5,4.2l-10.3-6.3c0.3-2.8,1.1-5.6,2.5-8c1.4-2.5,3.2-4.6,5.4-6.4l9.5,15.9
			l-7.1-17.5c3.9-2.2,8.4-3.1,12.8-2.4c4.4,0.7,8.5,2.8,11.6,6.1c3.1,3.3,5.1,7.6,5.6,12.1C363.7,207.6,362.8,212.2,360.5,216.1
			L360.5,216.1z"/>
		<path class="st2" d="M347.7,238.3c-1.4,2.4-3.2,4.5-5.4,6.1h-22.1v0.6h-22.4c0-0.2,0.1-0.4,0.1-0.6c0.8-3.2,2.4-6.2,4.5-8.6
			c2.1-2.5,4.8-4.4,7.8-5.6c-0.2-1.5,4.2-1.3,10-0.3C331.6,231.9,348.4,236.9,347.7,238.3z"/>
		<path class="st11" d="M252.1,182.6c0,0,2.8,15.5-3.4,20.5c-6.2,5,5.2,35.3,24.1,31.8c18.9-3.5,26.6-28.9,26.6-28.9
			s-18.9-4-11.9-24.5L252.1,182.6z"/>
		<path class="st5" d="M252.1,182.6c0,0,2.8,15.5-3.4,20.5c-6.2,5,5.2,35.3,24.1,31.8c18.9-3.5,26.6-28.9,26.6-28.9
			s-18.9-4-11.9-24.5L252.1,182.6z"/>
		<path class="st11" d="M268.8,193.9c17.3,0,31.3-14.5,31.3-32.3c0-17.8-14-32.3-31.3-32.3s-31.3,14.5-31.3,32.3
			C237.5,179.5,251.5,193.9,268.8,193.9z"/>
		<path class="st4" d="M320.2,223V245H216.9V224c0-2.7,0.8-5.3,2.2-7.5c1.4-2.2,3.4-3.9,5.8-5l3-1.3c7.5-3.3,16.6-7.4,19.6-9.1
			c0.3-0.2,0.6-0.4,0.9-0.6c1.6-1.7,1.3,0.5,1.3,0.5s0,0.4-0.1,1.1c-0.2,4.9,0.5,24.4,22.6,22.7c21.5-1.6,22.5-16.6,22.3-21
			c0-0.4,0-0.8-0.1-1.2c0-0.1,1.9,0.5,4.4,1.5c4.5,1.7,11.1,4.5,12.9,5.8c0.6,0.4,1.2,0.8,2,1.2c2,1.2,3.7,2.9,4.9,5
			C319.6,218.3,320.2,220.6,320.2,223L320.2,223z"/>
		<path class="st5" d="M298.7,204.2c-1.8,8.7-7.5,25-28.2,25.5c-22,0.4-23.2-22.1-23.1-28.5c0.3-0.2,0.6-0.4,0.9-0.6
			c1.6-1.7,1.3,0.5,1.3,0.5s-2.8,25.7,22.5,23.9c25.3-1.9,22.2-22.2,22.2-22.2C294.3,202.7,296.2,203.3,298.7,204.2z"/>
		<path class="st12" d="M231.8,163.3c2.1-0.7,4.5,0.5,5.7,2.1c1.1,1.6,1.3,3.6,1.4,5.5c1.4,0.3,2.1-1.3,2.3-2.5
			c0.5-4.9,0.5-9.9,2.1-14.6c1.6-4.7,5.1-9.3,10.4-11.1c1.8-0.7,3.8-0.8,5.7-0.6c1.1,0.2,2.2,0.6,3.3,0.8c3.9,0.7,8.1-1.2,11.8,0.1
			c2.3,0.8,3.8,2.8,4.8,4.7c0.5,1,1.1,2,1.9,2.8c1.5,1.4,4,1.8,6.2,2.3c2.2,0.5,4.7,1.2,5.6,3c0.9,1.6,0.2,3.4-0.1,5.2
			c-0.4,2.7,0,5.6,1.3,8c0.4,0.8,1.2,1.7,2.2,1.5c0.4-0.2,0.8-0.5,1.1-0.9c2.6-3.7,2.5-8.5,5.7-11.8c1.1-1.1,2.5-2,3.5-3.1
			c0.8-0.8,1.4-1.8,1.7-2.9c0.3-1.1,0.4-2.3,0.1-3.4c-0.6-2.6-2.6-4.7-4.1-6.9c-2.1-2.8-3.6-6.1-4.4-9.5c-0.2-0.4-0.2-0.8,0-1.2
			c0.3-0.4,0.7-0.7,1.1-1c0.9-0.6,1.5-1.5,1.8-2.5c0.3-1,0.2-2.2-0.3-3.1c-0.9-1.9-2.9-3.4-5.1-4.2c-2.2-0.9-4.6-1.2-7-1.6
			c-1.6,0.2-3.4-0.7-3.9-2c-0.2-0.6-0.2-1.2-0.4-1.8c-0.4-1.1-1.7-1.9-3-2.2c-1.3-0.2-2.7-0.1-4,0.3c-1.5,0.4-3.2,1.1-4.5,0.3
			c-0.7-0.4-1.1-1.1-1.8-1.4c-1.5-0.7-3,0.7-4.1,1.8c-1,1.1-2.3,2-3.7,2.6c-1.5,0.5-3.3,0.5-4.6-0.3c-1-0.7-1.5-1.8-2.4-2.6
			c-1.3-1.4-3.5-2.2-5.6-2.4c-2.1-0.1-4.3,0.1-6.3,0.7c-3.9,1-7.7,2.6-11.1,4.8c-1.7,1.1-3.4,2.4-4.2,4.1c-0.6,1.3-1,2.7-1,4.2
			c-0.2,4.6,1.3,9.4,5.1,12.6c-2.3,1-3.1,3.5-3.7,5.7c-0.9,3.5-1.8,7-1.4,10.6c0.2,1.8,0.7,3.7,0.4,5.5c-0.1,0.9-0.4,1.8-0.3,2.7
			c0.1,0.5,0.3,1,0.7,1.3C230.8,162.9,231.3,163.2,231.8,163.3z"/>
		<g class="st6">
			<path class="st5" d="M307.9,146.9c-0.3,0.8-0.8,1.4-1.4,2.1c-1,1.1-2.4,2-3.5,3.1c-3.2,3.3-3.1,8.1-5.7,11.8
				c-0.2,0.4-0.6,0.7-1.1,0.9c-1,0.3-1.8-0.7-2.2-1.5c-0.5-1-0.9-2-1.1-3.1c-0.1,0.3-0.1,0.5-0.2,0.8c-0.4,2.7,0,5.6,1.3,8
				c0.4,0.8,1.2,1.7,2.2,1.5c0.4-0.2,0.8-0.5,1.1-0.9c2.6-3.7,2.5-8.5,5.7-11.8c1.1-1.1,2.5-2,3.5-3.1c0.8-0.8,1.4-1.8,1.7-2.9
				c0.3-1.1,0.4-2.3,0.1-3.4C308.3,147.8,308.1,147.4,307.9,146.9z"/>
			<path class="st5" d="M301,124c-0.4,0.2-0.8,0.5-1.1,1c-0.2,0.4-0.2,0.8,0,1.2c0.3,1.2,0.7,2.4,1.1,3.5c0.9-0.6,1.5-1.5,1.8-2.6
				c0.3-1.1,0.1-2.2-0.3-3.1c-0.1-0.3-0.3-0.6-0.5-0.9C301.6,123.5,301.3,123.8,301,124z"/>
			<path class="st5" d="M234.9,131.2c-2.7-2.3-4.4-5.5-4.9-9c-0.1,0.7-0.2,1.4-0.2,2.1c-0.2,3.4,0.7,6.7,2.5,9.5
				C232.7,132.7,233.7,131.7,234.9,131.2z"/>
			<path class="st5" d="M292.8,155.3c0.3-1.7,0.9-3.6,0.1-5.2c-1-1.8-3.4-2.6-5.6-3c-2.2-0.4-4.7-0.8-6.2-2.3
				c-0.8-0.8-1.4-1.8-1.9-2.8c-1-1.9-2.5-3.9-4.8-4.7c-3.7-1.3-7.9,0.6-11.8-0.1c-1.1-0.2-2.2-0.6-3.3-0.8c-1.9-0.3-3.8-0.1-5.7,0.5
				c-5.3,1.8-8.8,6.4-10.4,11.1c-1.6,4.7-1.6,9.7-2.1,14.6c-0.1,1.2-0.9,2.8-2.3,2.5c-0.1-1.9-0.3-3.9-1.4-5.5
				c-1.1-1.6-3.6-2.8-5.7-2.1c-0.6-0.1-1.2-0.5-1.6-1.1c0.1,0.7,0.1,1.4,0,2.1c-0.1,0.9-0.4,1.8-0.3,2.7c0.1,0.5,0.3,1,0.7,1.3
				c0.3,0.4,0.8,0.6,1.3,0.7c2.1-0.7,4.5,0.5,5.7,2.1c1.1,1.6,1.3,3.6,1.4,5.5c1.4,0.3,2.1-1.3,2.3-2.5c0.5-4.9,0.5-9.9,2.1-14.6
				c1.6-4.7,5.1-9.3,10.4-11.1c1.8-0.7,3.8-0.8,5.7-0.6c1.1,0.2,2.2,0.6,3.3,0.8c3.9,0.7,8.1-1.2,11.8,0.1c2.3,0.8,3.8,2.8,4.8,4.7
				c0.5,1,1.1,2,1.9,2.8c1.5,1.4,4,1.8,6.2,2.3c2.2,0.5,4.5,1.2,5.5,2.8C292.8,155.6,292.8,155.5,292.8,155.3z"/>
			<path class="st5" d="M230.2,152.9c0.1-1.4,0-2.9-0.2-4.3c-0.2,1.5-0.3,3-0.1,4.5c0,0.4,0.1,0.8,0.1,1.2
				C230,153.8,230.1,153.4,230.2,152.9z"/>
		</g>
		<path class="st9" d="M467.1,211.5h-46.3v33.1h46.3V211.5z"/>
		<path class="st2" d="M463,236.5c-0.7,1.1-1.7,2-2.9,2.5c0.1,0.4,0.1,0.9,0,1.3l-4.6-0.3l4.5,1c-0.3,1.4-1.1,2.7-2.2,3.5h-6.3v0.2
			h-6.4c0-0.1,0-0.1,0-0.2c0.1-0.5,0.3-1.1,0.6-1.5c0.7-1.1,1.7-2,2.9-2.5c-0.2-1.3,0.1-2.7,0.8-3.8c0.7-1.1,1.7-2,2.9-2.5
			c0-0.3-0.1-0.5,0-0.8l3,1.2l-2.9-1.8c0.1-0.8,0.3-1.6,0.7-2.3c0.4-0.7,0.9-1.3,1.5-1.8l2.7,4.5l-2-5c1.1-0.6,2.4-0.9,3.6-0.7
			c1.2,0.2,2.4,0.8,3.3,1.7s1.4,2.1,1.6,3.4C463.9,234,463.6,235.3,463,236.5L463,236.5z"/>
		<path class="st2" d="M459.3,242.8c-0.4,0.7-0.9,1.3-1.5,1.7h-6.3v0.2h-6.4c0-0.1,0-0.1,0-0.2c0.1-0.5,0.3-1.1,0.6-1.5
			c0.7-1.1,1.7-2,2.9-2.5c-0.1-0.4,1.2-0.4,2.8-0.1C454.7,241,459.5,242.4,459.3,242.8z"/>
		<path class="st2" d="M422.6,236.5c0.7,1.1,1.7,2,2.9,2.5c-0.1,0.4-0.1,0.9,0,1.3l4.6-0.3l-4.5,1c0.3,1.4,1.1,2.7,2.2,3.5h6.3v0.2
			h6.4c0-0.1,0-0.1,0-0.2c-0.1-0.5-0.4-1.1-0.6-1.5c-0.7-1.1-1.7-2-2.9-2.5c0.2-1.3-0.1-2.7-0.8-3.8s-1.7-2-2.9-2.5
			c0-0.3,0.1-0.5,0.1-0.8l-3,1.2l2.9-1.8c-0.1-0.8-0.3-1.6-0.7-2.3c-0.4-0.7-0.9-1.3-1.5-1.8l-2.7,4.5l2-5c-1.1-0.6-2.4-0.9-3.6-0.7
			c-1.2,0.2-2.4,0.8-3.3,1.7s-1.4,2.1-1.6,3.4C421.7,234,422,235.3,422.6,236.5L422.6,236.5z"/>
		<path class="st2" d="M426.3,242.8c0.4,0.7,0.9,1.3,1.5,1.7h6.3v0.2h6.4c0-0.1,0-0.1,0-0.2c-0.1-0.5-0.4-1.1-0.6-1.5
			c-0.7-1.1-1.7-2-2.9-2.5c0.1-0.4-1.2-0.4-2.8-0.1C430.8,241,426,242.4,426.3,242.8z"/>
		<path class="st13" d="M448.5,218.8h-10.3v11.9h10.3V218.8z"/>
		<path class="st5" d="M448.5,218.8h-10.3v11.9h10.3V218.8z"/>
		<path class="st14" d="M433.8,241.5l-0.2,3.1h3l0.2-4.1L433.8,241.5z"/>
		<path class="st14" d="M449.3,241.5l-0.4,3.1h2.7l0.2-4.1L449.3,241.5z"/>
		<path class="st14" d="M440.8,224.7c0,0-0.1,1.5-0.5,1.9c-0.4,0.4,3.2,4,6,0.4c0,0-1.2-1.1-0.9-2.2
			C445.7,223.7,440.8,224.7,440.8,224.7z"/>
		<path class="st5" d="M440.8,224.7c0,0-0.1,1.5-0.5,1.9c-0.4,0.4,3.2,4,6,0.4c0,0-1.2-1.1-0.9-2.2
			C445.7,223.7,440.8,224.7,440.8,224.7z"/>
		<path class="st14" d="M443.4,226.1c2.9,0,5.2-2.4,5.2-5.3s-2.3-5.3-5.2-5.3c-2.9,0-5.2,2.4-5.2,5.3S440.5,226.1,443.4,226.1z"/>
		<path class="st4" d="M443.1,228c0,0-2.2,0-2.5-2.1c-0.4,0.4-0.9,0.7-1.4,1.1c-0.2,0.1-2.3,1.3-2.7,1.4c-0.4,0.1-0.7,0.3-1,0.5
			c-0.5,0.4-0.9,0.9-1.2,1.5c-0.3,0.6-0.5,1.3-0.5,1.9c-0.1,2.4-0.4,7.1-0.4,7.1l0.1,1.7v1.1c0,0,1.9,0.5,3.1-0.5c0,0,0-0.4,0.2-0.5
			c0.2-0.1,0.2-0.7,0.2-0.9c0-0.3,0-0.7,0-1c0,0.2,0.1,0.3,0.3,0.4c0.1,0.3,0.1,0.6,0.1,0.9c-0.1,0.2-0.2,0.7-0.1,0.8
			c0.1,0.1,0.1,0.2,0.1,0.3c0,0.1-0.1,0.2-0.1,0.3c-0.2,0.3-0.4,0.6-0.5,0.9c0,0-0.1,0.7-0.2,0.7c-0.1,0.3-0.2,0.6-0.2,0.8h12.9
			c-0.2-0.7-0.4-1.4-0.5-2.1c0-0.3-0.3-1.7-0.1-2.1c0.4-0.5,0.6-1.1,0.6-1.7l0.1,1.4l-0.4,3.2c0,0,2.4,0.8,2.6,0.3
			c0.3-0.8,0.5-1.7,0.6-2.6c0,0,0.6-2.7,0.7-3c0.1-0.4,0.5-7.7-1.5-8.8c-1.9-1.1-5.6-2.9-5.7-2.8c-0.2,0.5-0.6,1-1.1,1.3
			S443.7,228.1,443.1,228z"/>
		<path class="st15" d="M436.9,235.2c-0.4,0.5-0.5,1.2-0.4,1.9c0.1,0.6,0.3,1.3,0.6,1.8"/>
		<path class="st15" d="M449.4,235.7c0.1,0.3,0.2,0.5,0.2,0.8c0.1,0.4,0.1,0.7,0.1,1.1c-0.1,0.4-0.2,0.7-0.4,1"/>
		<path class="st13" d="M441.1,217.1c0.4-0.1,0.8-0.1,1.2,0.1c0.4,0.2,0.8,0.4,1.2,0.5c0.3,0.1,0.5,0.1,0.8,0.1
			c0.5,0.1,1,0.3,1.3,0.7c0.4,0.4,0.6,0.8,0.7,1.3c0.2,1.3-0.5,2.6-0.5,3.9c0,0.8,0.3,1.5,0.7,2.1c0.4,0.4,0.7,0.8,1,1.3
			c0.1,0.3,0.2,0.7,0.3,1.1c0.3,0.6,0.8,1.1,1.5,1.3c0.6,0.2,1.2,0.5,1.8,0.8c1,0.7,1.6,2.1,2.8,2.3c0.1,0,0.1,0,0.2,0
			c0.1,0,0.1,0,0.2,0c0.1,0,0.1-0.1,0.1-0.2c0-0.1,0-0.1,0-0.2c0-0.3,0-0.5-0.1-0.8c-0.1-0.2-0.2-0.5-0.4-0.7
			c-0.3-0.3-0.7-0.5-0.8-0.9c-0.1-0.4,0.2-0.8,0.3-1.1c0.4-1.2-0.3-2.5-1.1-3.5c-0.8-1-1.8-1.9-2-3.2c0-0.4-0.1-0.8,0-1.3
			c0-0.9-0.2-1.7-0.4-2.6c-0.1-0.4-0.3-0.9-0.6-1.2c-0.3-0.3-0.6-0.6-0.9-0.9c-0.4-0.5-0.7-1-1-1.6c-0.4-0.7-1-1.2-1.6-1.6
			s-1.4-0.6-2.2-0.6c-1.4,0-2.8,0.7-4,1.4c-0.4,0.3-0.8,0.6-1.1,1c-0.5,0.8-0.4,2-0.7,2.9c-0.3,1-1,1.7-1.2,2.6
			c-0.1,0.3-0.1,0.6,0,0.8c0.1,0.3,0.2,0.6,0.4,0.8c0.3,0.7,0.4,1.4,0.5,2.1c0.1,0.9,0.1,1.9-0.3,2.6c-0.4,0.5-0.8,0.8-1.3,1.1
			c0.5,0.4,1.1,0.6,1.8,0.6c1,0,2.1,0,2.7-0.8c0.4-0.6,0.5-1.3,0.4-1.9c0-0.7-0.2-1.5-0.4-2.2c-0.3-1-0.8-1.9-1-2.9
			c-0.1-0.4,0-0.8,0-1.1c0.1-0.4,0.2-0.7,0.5-1c0.2-0.2,0.5-0.4,0.7-0.6C440.7,217.6,440.6,217.3,441.1,217.1z"/>
		<g class="st6">
			<path class="st5" d="M437,222c0.3,0.7,0.4,1.4,0.5,2.1c0,0.2,0,0.5,0,0.7c0.1-0.5,0.1-1,0-1.6c0-0.7-0.2-1.4-0.5-2.1
				c-0.1-0.3-0.3-0.5-0.4-0.8c-0.1,0.3-0.1,0.6,0,0.8C436.7,221.5,436.8,221.8,437,222z"/>
			<path class="st5" d="M440.3,226.9c-0.6,0.8-1.7,0.8-2.7,0.8c-0.4,0-0.8-0.1-1.2-0.2c-0.2,0.2-0.4,0.3-0.6,0.5
				c0.5,0.4,1.1,0.6,1.8,0.6c1,0,2.1,0,2.7-0.8c0.3-0.5,0.5-1.2,0.4-1.8C440.7,226.3,440.5,226.6,440.3,226.9z"/>
			<path class="st5" d="M453.2,229c0,0.1,0,0.1,0.1,0.2c0.1-0.1,0.1-0.3,0.2-0.5c0.1-0.3,0.2-0.7,0.1-1.1c0,0.1,0,0.2-0.1,0.2
				C453.3,228.3,453.1,228.6,453.2,229z"/>
			<path class="st5" d="M446.3,220.1c0.1-0.4,0.1-0.7,0-1.1c-0.1-0.5-0.3-1-0.7-1.3c-0.4-0.4-0.8-0.6-1.3-0.7c-0.3,0-0.5,0-0.8-0.1
				c-0.4-0.1-0.8-0.3-1.2-0.5c-0.4-0.2-0.8-0.2-1.2-0.1c-0.5,0.2-0.4,0.5-0.6,0.9c-0.1,0.3-0.5,0.4-0.7,0.6c-0.4,0.6-0.6,1.3-0.5,2
				c0.1-0.4,0.2-0.8,0.5-1.1c0.2-0.2,0.5-0.4,0.7-0.6c0.2-0.4,0.2-0.7,0.6-0.9c0.4-0.1,0.8-0.1,1.2,0.1c0.4,0.2,0.8,0.4,1.2,0.5
				c0.3,0.1,0.5,0.1,0.8,0.1c0.5,0.1,1,0.3,1.3,0.7c0.4,0.4,0.6,0.8,0.7,1.3C446.3,219.9,446.3,220,446.3,220.1z"/>
			<path class="st5" d="M454.3,231.8c-0.1,0-0.3,0-0.4,0c-1.2-0.3-1.8-1.6-2.8-2.3c-0.6-0.3-1.2-0.6-1.8-0.8
				c-0.6-0.2-1.1-0.7-1.5-1.3c-0.1-0.3-0.2-0.7-0.3-1.1c-0.3-0.5-0.6-0.9-1-1.3c-0.4-0.5-0.7-1.2-0.7-1.9c0,0.2,0,0.4,0,0.6
				c0,0.8,0.3,1.5,0.8,2.1c0.4,0.4,0.7,0.8,1,1.3c0.1,0.3,0.2,0.7,0.3,1.1c0.3,0.6,0.8,1.1,1.5,1.3c0.6,0.2,1.2,0.5,1.8,0.8
				c1,0.7,1.6,2.1,2.8,2.4c0.1,0,0.1,0,0.2,0c0.1,0,0.1,0,0.2,0c0.1,0,0.1-0.1,0.1-0.2c0-0.1,0-0.1,0-0.2c0-0.2,0-0.4,0-0.6
				C454.4,231.7,454.3,231.7,454.3,231.8z"/>
		</g>
		<path class="st2" d="M432.2,213.9h-6.6v9.7h6.6V213.9z"/>
		<path class="st2" d="M431.2,215.3h-4.7v7h4.7V215.3z"/>
		<path class="st2" d="M464.7,215.4h-10.9v5.8h10.9V215.4z"/>
		<path class="st2" d="M463.3,216.1h-8v4.3h8V216.1z"/>
	</g>
</g>
</svg>
