<svg width="600" height="577" viewBox="0 0 600 577" fill="none" xmlns="http://www.w3.org/2000/svg">
<path d="M492.38 327.103C491.957 381.722 476.241 431.62 440.445 466.713C402.258 504.15 351.609 535.954 292.476 523.081C235.074 510.585 195.482 453.336 156.034 404.798C119.576 359.94 82.7927 312.936 78.6364 259.969C74.2828 204.486 92.8466 151.093 133.818 121.677C172.814 93.6782 229.383 107.075 282.205 113.81C338.088 120.936 399.935 117.563 442.812 161.076C486.998 205.917 492.82 270.283 492.38 327.103Z" fill="#F7F6FE"/>
<g clip-path="url(#clip0)">
<path opacity="0.1" d="M560.007 448.161C557.807 454.191 555.103 459.976 551.93 465.44C550.44 468.047 548.806 470.548 547.038 472.929L546.984 473H440.572H393.443H156.587H0L0.0984363 472.923C0.590616 472.496 3.47971 469.892 7.97331 465.435C11.1971 462.233 15.2428 458.078 19.7856 453.079C56.9402 412.375 128.311 316.029 68.8707 227.77C13.6137 145.721 73.1083 130.826 112.355 129.094C127.435 128.442 142.478 131.181 156.587 137.147C174.714 144.822 207.852 156.592 251.026 161.981C252.444 162.16 253.874 162.331 255.318 162.496C278.176 165.086 301.188 165.55 324.115 163.883C324.789 163.844 325.468 163.79 326.153 163.735C348.833 161.956 371.341 158.076 393.443 152.135C394.876 151.746 396.288 151.378 397.696 151.039C471.341 132.06 539.232 196.742 522.261 269.844C515.981 296.875 517.576 325.7 538.503 349.009C572.734 387.076 568.566 424.55 560.007 448.161Z" fill="#48C95F"/>
<path d="M466.23 249.929C468.177 246.337 467.599 242.181 464.941 240.647C462.282 239.113 458.549 240.782 456.602 244.374C454.656 247.966 455.233 252.122 457.892 253.656C460.551 255.19 464.284 253.521 466.23 249.929Z" fill="#3F3D56"/>
<path d="M470.535 241.978C472.482 238.386 471.904 234.231 469.246 232.697C466.587 231.163 462.854 232.832 460.907 236.424C458.961 240.016 459.538 244.172 462.197 245.706C464.856 247.239 468.589 245.571 470.535 241.978Z" fill="#3F3D56"/>
<path d="M474.845 234.031C476.792 230.439 476.214 226.283 473.556 224.749C470.897 223.215 467.164 224.884 465.217 228.476C463.271 232.068 463.848 236.224 466.507 237.758C469.166 239.292 472.899 237.623 474.845 234.031Z" fill="#3F3D56"/>
<path d="M479.15 226.075C481.097 222.483 480.519 218.327 477.861 216.794C475.202 215.26 471.469 216.928 469.522 220.521C467.576 224.113 468.153 228.268 470.812 229.802C473.47 231.336 477.204 229.667 479.15 226.075Z" fill="#3F3D56"/>
<path d="M483.453 218.129C485.4 214.537 484.822 210.382 482.164 208.848C479.505 207.314 475.772 208.983 473.825 212.575C471.879 216.167 472.456 220.323 475.115 221.856C477.773 223.39 481.507 221.722 483.453 218.129Z" fill="#3F3D56"/>
<path d="M487.763 210.179C489.71 206.587 489.133 202.431 486.474 200.898C483.815 199.364 480.082 201.032 478.135 204.625C476.189 208.217 476.766 212.372 479.425 213.906C482.084 215.44 485.817 213.771 487.763 210.179Z" fill="#3F3D56"/>
<path d="M492.074 202.232C494.02 198.639 493.443 194.484 490.784 192.95C488.125 191.416 484.392 193.085 482.445 196.677C480.499 200.269 481.076 204.425 483.735 205.959C486.394 207.493 490.127 205.824 492.074 202.232Z" fill="#3F3D56"/>
<path d="M534.734 155.439C535.859 154.954 536.951 154.39 538.003 153.752L526.515 144.306L540.131 152.304C543.039 150.114 545.485 147.335 547.317 144.137C549.149 140.939 550.329 137.389 550.787 133.704L527.106 132.94L550.992 129.869C550.964 126.109 550.183 122.396 548.697 118.963C547.212 115.529 545.054 112.45 542.36 109.918C539.666 107.387 536.493 105.457 533.042 104.252C529.59 103.046 525.934 102.59 522.304 102.912C518.673 103.234 515.146 104.327 511.945 106.123C508.744 107.919 505.937 110.379 503.701 113.348C501.465 116.317 499.848 119.731 498.953 123.375C498.057 127.02 497.901 130.816 498.495 134.526C496.742 135.28 495.072 136.226 493.515 137.348L505.178 155.625L490.955 139.459C487.692 142.499 485.215 146.331 483.75 150.608C482.284 154.884 481.875 159.471 482.561 163.952C477.984 165.919 474.037 169.176 471.169 173.349C468.302 177.522 466.63 182.443 466.346 187.551C466.061 192.658 467.175 197.745 469.559 202.23C471.944 206.715 475.504 210.417 479.831 212.913C484.159 215.409 489.08 216.598 494.032 216.344C498.983 216.091 503.766 214.405 507.833 211.479C511.9 208.554 515.087 204.506 517.03 199.8C518.973 195.093 519.593 189.918 518.82 184.865C524.289 182.514 528.834 178.335 531.724 172.998C534.614 167.661 535.681 161.477 534.754 155.439H534.734Z" fill="#48C95F"/>
<path opacity="0.1" d="M485.573 146.39C482.684 151.728 481.623 157.915 482.561 163.951C477.984 165.919 474.037 169.175 471.169 173.349C468.302 177.522 466.63 182.443 466.346 187.55C466.061 192.658 467.175 197.744 469.559 202.229C471.944 206.714 475.504 210.416 479.831 212.912C484.159 215.408 489.08 216.598 494.032 216.344C498.983 216.091 503.766 214.405 507.833 211.479C511.9 208.553 515.087 204.506 517.03 199.799C518.973 195.093 519.593 189.917 518.82 184.864C524.078 182.6 487.023 143.739 485.573 146.39Z" fill="black"/>
<path d="M519.873 438.08H526.098C529.506 438.08 532.775 439.477 535.185 441.963C537.595 444.45 538.948 447.822 538.948 451.339V471.022H507.023V451.339C507.023 447.822 508.377 444.45 510.787 441.963C513.197 439.477 516.465 438.08 519.873 438.08Z" fill="#3F3D56"/>
<path opacity="0.1" d="M519.873 438.08H526.098C529.506 438.08 532.775 439.477 535.185 441.963C537.595 444.45 538.948 447.822 538.948 451.339V471.022H507.023V451.339C507.023 447.822 508.377 444.45 510.787 441.963C513.197 439.477 516.465 438.08 519.873 438.08Z" fill="black"/>
<path d="M521.713 445.33C523.124 445.33 524.268 444.15 524.268 442.694C524.268 441.238 523.124 440.058 521.713 440.058C520.302 440.058 519.159 441.238 519.159 442.694C519.159 444.15 520.302 445.33 521.713 445.33Z" fill="#3F3D56"/>
<path d="M521.713 442.036C523.124 442.036 524.268 440.856 524.268 439.4C524.268 437.944 523.124 436.764 521.713 436.764C520.302 436.764 519.159 437.944 519.159 439.4C519.159 440.856 520.302 442.036 521.713 442.036Z" fill="#3F3D56"/>
<path d="M521.713 438.737C523.124 438.737 524.268 437.557 524.268 436.101C524.268 434.645 523.124 433.465 521.713 433.465C520.302 433.465 519.159 434.645 519.159 436.101C519.159 437.557 520.302 438.737 521.713 438.737Z" fill="#3F3D56"/>
<path d="M521.713 435.444C523.124 435.444 524.268 434.263 524.268 432.808C524.268 431.352 523.124 430.172 521.713 430.172C520.302 430.172 519.159 431.352 519.159 432.808C519.159 434.263 520.302 435.444 521.713 435.444Z" fill="#3F3D56"/>
<path d="M521.713 432.15C523.124 432.15 524.268 430.97 524.268 429.514C524.268 428.058 523.124 426.878 521.713 426.878C520.302 426.878 519.159 428.058 519.159 429.514C519.159 430.97 520.302 432.15 521.713 432.15Z" fill="#3F3D56"/>
<path d="M521.713 428.856C523.124 428.856 524.268 427.676 524.268 426.22C524.268 424.764 523.124 423.584 521.713 423.584C520.302 423.584 519.159 424.764 519.159 426.22C519.159 427.676 520.302 428.856 521.713 428.856Z" fill="#3F3D56"/>
<path d="M521.713 425.563C523.124 425.563 524.268 424.382 524.268 422.927C524.268 421.471 523.124 420.291 521.713 420.291C520.302 420.291 519.159 421.471 519.159 422.927C519.159 424.382 520.302 425.563 521.713 425.563Z" fill="#3F3D56"/>
<path d="M525.543 426.878C526.954 426.878 528.098 425.698 528.098 424.242C528.098 422.786 526.954 421.606 525.543 421.606C524.132 421.606 522.989 422.786 522.989 424.242C522.989 425.698 524.132 426.878 525.543 426.878Z" fill="#3F3D56"/>
<path d="M528.098 425.563C529.509 425.563 530.652 424.382 530.652 422.927C530.652 421.471 529.509 420.291 528.098 420.291C526.687 420.291 525.543 421.471 525.543 422.927C525.543 424.382 526.687 425.563 528.098 425.563Z" fill="#3F3D56"/>
<path d="M530.652 424.242C532.063 424.242 533.207 423.062 533.207 421.606C533.207 420.15 532.063 418.97 530.652 418.97C529.241 418.97 528.098 420.15 528.098 421.606C528.098 423.062 529.241 424.242 530.652 424.242Z" fill="#3F3D56"/>
<path d="M521.713 422.269C523.124 422.269 524.268 421.089 524.268 419.633C524.268 418.177 523.124 416.997 521.713 416.997C520.302 416.997 519.159 418.177 519.159 419.633C519.159 421.089 520.302 422.269 521.713 422.269Z" fill="#3F3D56"/>
<path d="M521.713 418.975C523.124 418.975 524.268 417.795 524.268 416.339C524.268 414.883 523.124 413.703 521.713 413.703C520.302 413.703 519.159 414.883 519.159 416.339C519.159 417.795 520.302 418.975 521.713 418.975Z" fill="#3F3D56"/>
<path d="M521.713 415.676C523.124 415.676 524.268 414.496 524.268 413.04C524.268 411.584 523.124 410.404 521.713 410.404C520.302 410.404 519.159 411.584 519.159 413.04C519.159 414.496 520.302 415.676 521.713 415.676Z" fill="#3F3D56"/>
<path d="M521.713 412.383C523.124 412.383 524.268 411.202 524.268 409.747C524.268 408.291 523.124 407.111 521.713 407.111C520.302 407.111 519.159 408.291 519.159 409.747C519.159 411.202 520.302 412.383 521.713 412.383Z" fill="#3F3D56"/>
<path d="M532.302 401.25C531.668 401.345 531.031 401.414 530.39 401.457C530.983 400.923 531.533 400.341 532.035 399.717C531.681 398.609 531.161 397.566 530.493 396.625C529.859 396.992 529.16 397.221 528.437 397.298C527.805 397.394 527.167 397.463 526.53 397.505C527.388 396.666 528.203 395.78 528.971 394.853C527.129 393.13 524.768 392.113 522.285 391.971C519.802 391.83 517.347 392.574 515.332 394.077C513.317 395.581 511.864 397.754 511.216 400.231C510.569 402.709 510.766 405.341 511.775 407.686C512.784 410.032 514.544 411.948 516.759 413.114C518.974 414.28 521.511 414.625 523.943 414.092C526.376 413.558 528.557 412.178 530.121 410.183C531.684 408.188 532.536 405.699 532.534 403.133C532.534 402.487 532.479 401.843 532.369 401.207L532.302 401.25Z" fill="#48C95F"/>
<path d="M540.835 414.345C540.183 414.758 539.448 415.012 538.686 415.088C538.054 415.183 537.417 415.252 536.779 415.294C537.457 414.667 538.089 413.99 538.671 413.268C538.137 413.124 537.588 413.049 537.036 413.046C535.516 413.043 534.044 413.599 532.886 414.614C531.727 415.629 530.956 417.038 530.713 418.586C530.469 420.134 530.768 421.722 531.556 423.063C532.344 424.405 533.569 425.413 535.012 425.906C536.455 426.4 538.021 426.347 539.43 425.757C540.839 425.167 541.997 424.078 542.698 422.686C543.399 421.294 543.597 419.69 543.255 418.161C542.914 416.633 542.056 415.28 540.835 414.345Z" fill="#48C95F"/>
<path d="M517.879 426.878C519.29 426.878 520.434 425.698 520.434 424.242C520.434 422.786 519.29 421.606 517.879 421.606C516.468 421.606 515.325 422.786 515.325 424.242C515.325 425.698 516.468 426.878 517.879 426.878Z" fill="#3F3D56"/>
<path d="M515.324 425.563C516.735 425.563 517.879 424.382 517.879 422.927C517.879 421.471 516.735 420.291 515.324 420.291C513.913 420.291 512.769 421.471 512.769 422.927C512.769 424.382 513.913 425.563 515.324 425.563Z" fill="#3F3D56"/>
<path d="M512.775 424.242C514.186 424.242 515.33 423.062 515.33 421.606C515.33 420.15 514.186 418.97 512.775 418.97C511.364 418.97 510.22 420.15 510.22 421.606C510.22 423.062 511.364 424.242 512.775 424.242Z" fill="#3F3D56"/>
<path d="M502.608 414.345C503.26 414.758 503.995 415.012 504.756 415.088C505.389 415.183 506.026 415.252 506.663 415.294C505.986 414.667 505.354 413.99 504.772 413.268C505.305 413.124 505.855 413.049 506.406 413.046C507.927 413.043 509.398 413.599 510.557 414.614C511.716 415.629 512.486 417.038 512.73 418.586C512.974 420.134 512.675 421.722 511.887 423.063C511.099 424.405 509.873 425.413 508.43 425.906C506.987 426.4 505.421 426.347 504.013 425.757C502.604 425.167 501.445 424.078 500.744 422.686C500.043 421.294 499.846 419.69 500.187 418.161C500.529 416.633 501.387 415.28 502.608 414.345Z" fill="#48C95F"/>
<path d="M519.873 440.058H526.098C529.506 440.058 532.775 441.455 535.185 443.941C537.595 446.428 538.948 449.801 538.948 453.317V470.751C538.948 471.348 538.719 471.919 538.31 472.341C537.901 472.763 537.347 473 536.769 473H509.202C508.624 473 508.07 472.763 507.661 472.341C507.252 471.919 507.023 471.348 507.023 470.751V453.317C507.023 449.801 508.377 446.428 510.787 443.941C513.197 441.455 516.465 440.058 519.873 440.058Z" fill="#3F3D56"/>
<g opacity="0.1">
<path opacity="0.1" d="M532.498 401.971C532.24 402.259 531.964 402.528 531.67 402.777C531.963 402.777 532.256 402.73 532.544 402.698C532.534 402.454 532.523 402.21 532.498 401.971Z" fill="black"/>
<path opacity="0.1" d="M527.841 398.821C528.478 398.778 529.116 398.709 529.748 398.614C530.32 398.541 530.879 398.384 531.408 398.147C531.147 397.617 530.848 397.109 530.514 396.625C530.194 396.826 529.848 396.977 529.486 397.076C528.982 397.7 528.432 398.284 527.841 398.821Z" fill="black"/>
<path opacity="0.1" d="M512.132 404.48C512.129 402.469 512.65 400.494 513.643 398.764C514.635 397.033 516.062 395.611 517.772 394.647C519.482 393.683 521.412 393.212 523.36 393.285C525.307 393.358 527.2 393.971 528.838 395.06L529.002 394.88C527.933 393.898 526.687 393.145 525.334 392.663C523.982 392.181 522.55 391.98 521.122 392.071C519.694 392.162 518.297 392.544 517.013 393.195C515.728 393.846 514.581 394.753 513.638 395.863C512.694 396.973 511.973 398.265 511.516 399.664C511.059 401.063 510.874 402.542 510.973 404.015C511.072 405.487 511.453 406.926 512.093 408.246C512.733 409.567 513.62 410.744 514.702 411.709C513.04 409.691 512.129 407.128 512.132 404.48Z" fill="black"/>
</g>
<g opacity="0.1">
<path opacity="0.1" d="M536.78 416.615C537.417 416.567 538.054 416.498 538.687 416.403C539.448 416.329 540.183 416.077 540.835 415.666C541.558 416.213 542.16 416.912 542.603 417.716C543.046 418.521 543.32 419.412 543.405 420.333C543.43 420.101 543.442 419.867 543.441 419.633C543.446 418.603 543.216 417.586 542.769 416.665C542.323 415.744 541.673 414.943 540.871 414.329C540.219 414.742 539.484 414.996 538.723 415.072L538.209 415.135C537.771 415.667 537.294 416.162 536.78 416.615Z" fill="black"/>
<path opacity="0.1" d="M537.047 414.361C537.263 414.361 537.474 414.361 537.684 414.409C538.018 414.043 538.347 413.65 538.682 413.268C538.148 413.124 537.599 413.049 537.047 413.046C535.354 413.046 533.73 413.74 532.533 414.975C531.335 416.21 530.663 417.886 530.663 419.633C530.663 419.856 530.663 420.079 530.694 420.291C530.853 418.666 531.591 417.16 532.764 416.064C533.938 414.969 535.464 414.362 537.047 414.361Z" fill="black"/>
</g>
<g opacity="0.1">
<path opacity="0.1" d="M506.643 416.615C506.005 416.567 505.368 416.498 504.736 416.403C503.974 416.329 503.24 416.077 502.587 415.666C501.865 416.213 501.262 416.912 500.819 417.716C500.376 418.521 500.103 419.412 500.017 420.333C499.992 420.101 499.98 419.867 499.981 419.633C499.977 418.603 500.207 417.586 500.653 416.665C501.1 415.744 501.75 414.943 502.551 414.329C503.203 414.742 503.938 414.996 504.7 415.072L505.214 415.135C505.652 415.666 506.13 416.161 506.643 416.615Z" fill="black"/>
<path opacity="0.1" d="M506.386 414.361C506.17 414.361 505.959 414.361 505.748 414.409C505.414 414.043 505.085 413.65 504.751 413.268C505.285 413.124 505.834 413.049 506.386 413.046C508.079 413.046 509.703 413.74 510.9 414.975C512.097 416.21 512.77 417.886 512.77 419.633C512.77 419.856 512.77 420.079 512.739 420.291C512.58 418.666 511.842 417.16 510.668 416.064C509.494 414.969 507.968 414.362 506.386 414.361Z" fill="black"/>
</g>
<path d="M29.2989 388.876H78.4083C81.8164 388.876 85.085 390.273 87.4949 392.76C89.9048 395.246 91.2587 398.619 91.2587 402.136V466.041H16.4485V402.136C16.4485 398.619 17.8023 395.246 20.2123 392.76C22.6222 390.273 25.8908 388.876 29.2989 388.876Z" fill="#3F3D56"/>
<path opacity="0.1" d="M29.2989 388.876H78.4083C81.8164 388.876 85.085 390.273 87.4949 392.76C89.9048 395.246 91.2587 398.619 91.2587 402.136V466.041H16.4485V402.136C16.4485 398.619 17.8023 395.246 20.2123 392.76C22.6222 390.273 25.8908 388.876 29.2989 388.876Z" fill="black"/>
<path d="M50.8721 405.832C54.1765 405.832 56.8553 403.068 56.8553 399.659C56.8553 396.249 54.1765 393.485 50.8721 393.485C47.5677 393.485 44.8889 396.249 44.8889 399.659C44.8889 403.068 47.5677 405.832 50.8721 405.832Z" fill="#3F3D56"/>
<path d="M50.8721 398.115C54.1765 398.115 56.8553 395.351 56.8553 391.942C56.8553 388.532 54.1765 385.768 50.8721 385.768C47.5677 385.768 44.8889 388.532 44.8889 391.942C44.8889 395.351 47.5677 398.115 50.8721 398.115Z" fill="#3F3D56"/>
<path d="M50.8721 390.393C54.1765 390.393 56.8553 387.629 56.8553 384.219C56.8553 380.81 54.1765 378.046 50.8721 378.046C47.5677 378.046 44.8889 380.81 44.8889 384.219C44.8889 387.629 47.5677 390.393 50.8721 390.393Z" fill="#3F3D56"/>
<path d="M50.8721 382.676C54.1765 382.676 56.8553 379.912 56.8553 376.502C56.8553 373.093 54.1765 370.329 50.8721 370.329C47.5677 370.329 44.8889 373.093 44.8889 376.502C44.8889 379.912 47.5677 382.676 50.8721 382.676Z" fill="#3F3D56"/>
<path d="M50.8721 374.954C54.1765 374.954 56.8553 372.189 56.8553 368.78C56.8553 365.37 54.1765 362.606 50.8721 362.606C47.5677 362.606 44.8889 365.37 44.8889 368.78C44.8889 372.189 47.5677 374.954 50.8721 374.954Z" fill="#3F3D56"/>
<path d="M50.8721 367.236C54.1765 367.236 56.8553 364.472 56.8553 361.063C56.8553 357.653 54.1765 354.889 50.8721 354.889C47.5677 354.889 44.8889 357.653 44.8889 361.063C44.8889 364.472 47.5677 367.236 50.8721 367.236Z" fill="#3F3D56"/>
<path d="M50.8721 359.519C54.1765 359.519 56.8553 356.755 56.8553 353.346C56.8553 349.936 54.1765 347.172 50.8721 347.172C47.5677 347.172 44.8889 349.936 44.8889 353.346C44.8889 356.755 47.5677 359.519 50.8721 359.519Z" fill="#3F3D56"/>
<path d="M59.8472 362.606C63.1516 362.606 65.8304 359.842 65.8304 356.433C65.8304 353.023 63.1516 350.259 59.8472 350.259C56.5428 350.259 53.864 353.023 53.864 356.433C53.864 359.842 56.5428 362.606 59.8472 362.606Z" fill="#3F3D56"/>
<path d="M65.8299 359.519C69.1343 359.519 71.8131 356.755 71.8131 353.346C71.8131 349.936 69.1343 347.172 65.8299 347.172C62.5255 347.172 59.8467 349.936 59.8467 353.346C59.8467 356.755 62.5255 359.519 65.8299 359.519Z" fill="#3F3D56"/>
<path d="M71.8185 356.427C75.1229 356.427 77.8016 353.663 77.8016 350.254C77.8016 346.844 75.1229 344.08 71.8185 344.08C68.5141 344.08 65.8353 346.844 65.8353 350.254C65.8353 353.663 68.5141 356.427 71.8185 356.427Z" fill="#3F3D56"/>
<path d="M50.8721 351.797C54.1765 351.797 56.8553 349.033 56.8553 345.623C56.8553 342.214 54.1765 339.45 50.8721 339.45C47.5677 339.45 44.8889 342.214 44.8889 345.623C44.8889 349.033 47.5677 351.797 50.8721 351.797Z" fill="#3F3D56"/>
<path d="M50.8721 344.08C54.1765 344.08 56.8553 341.316 56.8553 337.906C56.8553 334.497 54.1765 331.733 50.8721 331.733C47.5677 331.733 44.8889 334.497 44.8889 337.906C44.8889 341.316 47.5677 344.08 50.8721 344.08Z" fill="#3F3D56"/>
<path d="M50.8721 336.358C54.1765 336.358 56.8553 333.594 56.8553 330.184C56.8553 326.774 54.1765 324.01 50.8721 324.01C47.5677 324.01 44.8889 326.774 44.8889 330.184C44.8889 333.594 47.5677 336.358 50.8721 336.358Z" fill="#3F3D56"/>
<path d="M50.8721 328.641C54.1765 328.641 56.8553 325.876 56.8553 322.467C56.8553 319.057 54.1765 316.293 50.8721 316.293C47.5677 316.293 44.8889 319.057 44.8889 322.467C44.8889 325.876 47.5677 328.641 50.8721 328.641Z" fill="#3F3D56"/>
<path d="M75.6844 302.551C74.2006 302.774 72.71 302.936 71.2125 303.039C72.5983 301.787 73.8857 300.423 75.0625 298.96C74.2462 296.368 73.0425 293.924 71.4952 291.715C70.0228 292.583 68.3912 293.125 66.7045 293.306C65.2241 293.529 63.7283 293.694 62.2325 293.8C64.2012 292.155 66.026 289.668 67.9536 287.647C63.4848 283.46 57.7208 281.044 51.6877 280.831C45.6546 280.618 39.7441 282.622 35.0085 286.484C30.2729 290.347 27.0196 295.819 25.8278 301.925C24.636 308.031 25.5832 314.376 28.5006 319.829C31.418 325.282 36.1163 329.49 41.7589 331.703C47.4016 333.916 53.6224 333.991 59.3137 331.915C65.005 329.838 69.7975 325.745 72.8377 320.364C75.878 314.983 76.9687 308.663 75.9157 302.53L75.6844 302.551Z" fill="#48C95F"/>
<path d="M95.6793 333.239C94.2709 334.263 92.3998 334.703 90.647 334.968C89.1615 335.196 87.6709 335.355 86.1751 335.461C87.7171 334.183 89.1358 332.401 90.6059 330.72C87.0042 329.733 83.1755 330.168 79.8679 331.939C76.5604 333.711 74.0118 336.691 72.7201 340.297C71.4284 343.904 71.4865 347.878 72.8831 351.443C74.2796 355.008 76.9142 357.907 80.272 359.574C83.6298 361.242 87.4695 361.557 91.0407 360.459C94.612 359.362 97.6582 356.929 99.584 353.637C101.51 350.346 102.177 346.431 101.455 342.659C100.733 338.887 98.6734 335.528 95.6793 333.239Z" fill="#48C95F"/>
<path d="M41.8927 362.606C45.1971 362.606 47.8759 359.842 47.8759 356.433C47.8759 353.023 45.1971 350.259 41.8927 350.259C38.5883 350.259 35.9096 353.023 35.9096 356.433C35.9096 359.842 38.5883 362.606 41.8927 362.606Z" fill="#3F3D56"/>
<path d="M35.9095 359.519C39.2139 359.519 41.8927 356.755 41.8927 353.346C41.8927 349.936 39.2139 347.172 35.9095 347.172C32.6051 347.172 29.9263 349.936 29.9263 353.346C29.9263 356.755 32.6051 359.519 35.9095 359.519Z" fill="#3F3D56"/>
<path d="M29.9263 356.427C33.2307 356.427 35.9095 353.663 35.9095 350.254C35.9095 346.844 33.2307 344.08 29.9263 344.08C26.6219 344.08 23.9431 346.844 23.9431 350.254C23.9431 353.663 26.6219 356.427 29.9263 356.427Z" fill="#3F3D56"/>
<path d="M6.06602 333.239C7.47443 334.263 9.34546 334.703 11.1034 334.968C12.5838 335.196 14.0744 335.355 15.5702 335.461C14.0282 334.183 12.6095 332.401 11.1394 330.72C14.7411 329.733 18.5698 330.168 21.8774 331.939C25.1849 333.711 27.7335 336.691 29.0252 340.297C30.3169 343.904 30.2588 347.878 28.8622 351.443C27.4657 355.008 24.8311 357.907 21.4733 359.574C18.1155 361.242 14.2758 361.557 10.7046 360.459C7.13331 359.362 4.08714 356.929 2.16133 353.637C0.23552 350.346 -0.431523 346.431 0.290549 342.659C1.01262 338.887 3.07192 335.528 6.06602 333.239Z" fill="#48C95F"/>
<path d="M29.2989 393.485H78.4083C81.8164 393.485 85.085 394.882 87.4949 397.369C89.9048 399.855 91.2587 403.228 91.2587 406.745V468.433C91.2587 469.03 91.0291 469.602 90.6204 470.024C90.2117 470.445 89.6573 470.682 89.0793 470.682H18.6382C18.3511 470.684 18.0666 470.627 17.801 470.514C17.5354 470.402 17.2939 470.236 17.0904 470.027C16.887 469.818 16.7255 469.57 16.6153 469.296C16.5052 469.023 16.4485 468.73 16.4485 468.433V406.745C16.4485 403.228 17.8023 399.855 20.2123 397.369C22.6222 394.882 25.8908 393.485 29.2989 393.485Z" fill="#3F3D56"/>
<g opacity="0.1">
<path opacity="0.1" d="M76.1369 304.238C75.5355 304.912 74.8897 305.543 74.2042 306.126C74.8878 306.078 75.5766 306.015 76.2603 305.946C76.2346 305.373 76.1986 304.8 76.1369 304.238Z" fill="black"/>
<path opacity="0.1" d="M65.2291 296.865C66.7249 296.759 68.2155 296.6 69.6959 296.372C71.0368 296.211 72.3487 295.854 73.5921 295.311C72.9843 294.065 72.2831 292.87 71.4949 291.737C70.7518 292.21 69.9445 292.568 69.0996 292.797C67.9136 294.255 66.6195 295.615 65.2291 296.865Z" fill="black"/>
<path opacity="0.1" d="M28.4256 310.12C28.4166 305.408 29.6392 300.781 31.9647 296.727C34.2903 292.672 37.6326 289.339 41.6395 287.08C45.6465 284.821 50.1699 283.719 54.733 283.889C59.2962 284.06 63.7303 285.498 67.5681 288.05C67.6966 287.913 67.8251 287.759 67.9537 287.626C65.4535 285.296 62.5291 283.501 59.3506 282.347C56.1721 281.194 52.8031 280.704 49.4394 280.906C46.0757 281.108 42.7845 281.999 39.7574 283.525C36.7303 285.052 34.0276 287.185 31.8067 289.799C29.5857 292.414 27.8908 295.458 26.8205 298.754C25.7503 302.051 25.326 305.534 25.5725 309.002C25.8189 312.469 26.7311 315.851 28.2561 318.951C29.781 322.052 31.8882 324.808 34.455 327.06C30.557 322.333 28.4193 316.327 28.4256 310.12Z" fill="black"/>
</g>
<g opacity="0.1">
<path opacity="0.1" d="M86.1755 338.548C87.6696 338.449 89.1602 338.285 90.6474 338.055C92.4002 337.795 94.2456 337.355 95.6797 336.326C97.3664 337.612 98.7718 339.25 99.8044 341.133C100.837 343.016 101.474 345.103 101.673 347.257C101.725 346.727 101.755 346.196 101.755 345.629C101.757 343.218 101.209 340.841 100.157 338.689C99.1038 336.536 97.5756 334.67 95.6951 333.239C94.2867 334.263 92.4157 334.703 90.6629 334.968C90.2671 335.026 89.8764 335.074 89.4858 335.122C88.4718 336.352 87.3649 337.498 86.1755 338.548Z" fill="black"/>
<path opacity="0.1" d="M86.7665 333.276C87.2682 333.285 87.7692 333.32 88.2674 333.382C89.0487 332.523 89.8095 331.611 90.5959 330.73C88.3818 330.114 86.0597 330.034 83.8104 330.495C81.5611 330.956 79.4452 331.946 77.6274 333.389C75.8096 334.831 74.3388 336.687 73.3296 338.812C72.3204 340.937 71.7998 343.273 71.8085 345.639C71.8085 346.17 71.8342 346.7 71.8805 347.183C72.2489 343.373 73.9762 339.84 76.7269 337.27C79.4777 334.701 83.0558 333.277 86.7665 333.276Z" fill="black"/>
</g>
<g opacity="0.1">
<path opacity="0.1" d="M15.5645 338.548C14.0704 338.449 12.5815 338.285 11.0977 338.055C9.33972 337.795 7.46869 337.355 6.06028 336.326C4.37643 337.613 2.97396 339.252 1.94403 341.135C0.914105 343.018 0.279766 345.104 0.082244 347.257C0.0308422 346.727 1.13922e-06 346.196 1.13922e-06 345.629C-0.000912365 343.218 0.547568 340.84 1.60118 338.688C2.65479 336.536 4.18401 334.669 6.06542 333.239C7.47383 334.263 9.34486 334.703 11.1028 334.968C11.4935 335.026 11.8841 335.074 12.2748 335.122C13.2835 336.35 14.3834 337.496 15.5645 338.548Z" fill="black"/>
<path opacity="0.1" d="M14.9632 333.276C14.4615 333.285 13.9605 333.32 13.4623 333.382C12.681 332.523 11.9202 331.611 11.1338 330.73C13.348 330.114 15.67 330.034 17.9193 330.495C20.1686 330.956 22.2845 331.946 24.1023 333.389C25.9201 334.831 27.3909 336.687 28.4001 338.812C29.4094 340.937 29.9299 343.273 29.9212 345.639C29.9212 346.17 29.9212 346.7 29.8492 347.183C29.4808 343.373 27.7536 339.84 25.0028 337.27C22.252 334.701 18.674 333.277 14.9632 333.276Z" fill="black"/>
</g>
<path d="M349.522 472.22L249.289 470.894L249.582 468.242L254.429 424.486H342.454L348.931 468.242L349.425 471.557L349.522 472.22Z" fill="#D0D2D5"/>
<path opacity="0.1" d="M349.425 471.557H299.405L249.289 470.894L249.582 468.242H348.931L349.425 471.557Z" fill="black"/>
<path d="M365.586 468.905H232.583V472.22H365.586V468.905Z" fill="#D0D2D5"/>
<path d="M492.481 161.671C492.492 159.382 491.622 157.182 490.061 155.555C488.5 153.928 486.378 153.007 484.159 152.994H112.724C111.625 152.999 110.538 153.228 109.525 153.667C108.512 154.106 107.592 154.747 106.819 155.553C106.046 156.359 105.434 157.314 105.018 158.363C104.603 159.413 104.392 160.537 104.397 161.671V393.978H492.481V161.671Z" fill="#444053"/>
<path d="M104.397 391.666V418.88C104.394 420.01 104.606 421.13 105.023 422.175C105.44 423.221 106.053 424.171 106.827 424.971C107.601 425.771 108.52 426.406 109.532 426.839C110.544 427.272 111.629 427.494 112.724 427.493H484.159C486.366 427.493 488.483 426.589 490.043 424.978C491.604 423.368 492.481 421.184 492.481 418.906V391.666H104.397Z" fill="#D0D2D5"/>
<path opacity="0.1" d="M478.346 167.579H120.46V376.417H478.346V167.579Z" fill="#48C95F"/>
<path d="M300.367 417.145C301.681 417.146 302.978 416.839 304.161 416.248C305.343 415.656 306.38 414.795 307.193 413.73C307.439 413.404 307.664 413.062 307.867 412.706L303.107 411.9L308.247 411.937C308.743 410.829 309.013 409.629 309.041 408.409C309.069 407.189 308.855 405.977 308.411 404.846L301.508 408.559L307.877 403.732C307.292 402.65 306.496 401.704 305.539 400.956C304.582 400.208 303.485 399.673 302.317 399.385C301.149 399.097 299.936 399.063 298.754 399.284C297.573 399.505 296.448 399.977 295.453 400.67C294.457 401.363 293.612 402.262 292.971 403.309C292.33 404.357 291.906 405.53 291.727 406.756C291.549 407.981 291.618 409.231 291.932 410.427C292.246 411.623 292.797 412.739 293.551 413.703C294.36 414.773 295.394 415.638 296.575 416.234C297.756 416.831 299.052 417.142 300.367 417.145Z" fill="#48C95F"/>
<path opacity="0.1" d="M309.044 427.467L349.029 468.906L342.897 427.467H309.044Z" fill="black"/>
<path d="M406.707 196.019H130.422V347.395H406.707V196.019Z" fill="white"/>
<path opacity="0.1" d="M222.894 235.479H145.833V239.6H222.894V235.479Z" fill="#48C95F"/>
<path opacity="0.1" d="M160.107 213.686H152.684V235.479H160.107V213.686Z" fill="#48C95F"/>
<path opacity="0.1" d="M170.952 213.686H163.53V235.479H170.952V213.686Z" fill="#48C95F"/>
<path opacity="0.1" d="M181.798 213.686H174.376V235.479H181.798V213.686Z" fill="#48C95F"/>
<path opacity="0.1" d="M192.644 213.686H185.221V235.479H192.644V213.686Z" fill="#48C95F"/>
<path opacity="0.1" d="M203.49 213.686H196.068V235.479H203.49V213.686Z" fill="#48C95F"/>
<path opacity="0.1" d="M214.336 213.686H206.913V235.479H214.336V213.686Z" fill="#48C95F"/>
<path opacity="0.1" d="M160.107 217.812H152.684V220.167H160.107V217.812Z" fill="#48C95F"/>
<path opacity="0.1" d="M170.952 217.812H163.53V220.167H170.952V217.812Z" fill="#48C95F"/>
<path opacity="0.1" d="M181.798 217.812H174.376V220.167H181.798V217.812Z" fill="#48C95F"/>
<path opacity="0.1" d="M192.644 217.812H185.221V220.167H192.644V217.812Z" fill="#48C95F"/>
<path opacity="0.1" d="M203.49 217.812H196.068V220.167H203.49V217.812Z" fill="#48C95F"/>
<path opacity="0.1" d="M214.336 217.812H206.913V220.167H214.336V217.812Z" fill="#48C95F"/>
<path opacity="0.1" d="M160.107 228.414H152.684V230.769H160.107V228.414Z" fill="#48C95F"/>
<path opacity="0.1" d="M170.952 228.414H163.53V230.769H170.952V228.414Z" fill="#48C95F"/>
<path opacity="0.1" d="M181.798 228.414H174.376V230.769H181.798V228.414Z" fill="#48C95F"/>
<path opacity="0.1" d="M192.644 228.414H185.221V230.769H192.644V228.414Z" fill="#48C95F"/>
<path opacity="0.1" d="M203.49 228.414H196.068V230.769H203.49V228.414Z" fill="#48C95F"/>
<path opacity="0.1" d="M214.336 228.414H206.913V230.769H214.336V228.414Z" fill="#48C95F"/>
<path opacity="0.1" d="M391.862 246.081H314.801V250.202H391.862V246.081Z" fill="#48C95F"/>
<path opacity="0.1" d="M329.075 224.288H321.652V246.081H329.075V224.288Z" fill="#48C95F"/>
<path opacity="0.1" d="M339.921 224.288H332.498V246.081H339.921V224.288Z" fill="#48C95F"/>
<path opacity="0.1" d="M350.766 224.288H343.344V246.081H350.766V224.288Z" fill="#48C95F"/>
<path opacity="0.1" d="M361.612 224.288H354.19V246.081H361.612V224.288Z" fill="#48C95F"/>
<path opacity="0.1" d="M372.458 224.288H365.036V246.081H372.458V224.288Z" fill="#48C95F"/>
<path opacity="0.1" d="M383.304 224.288H375.881V246.081H383.304V224.288Z" fill="#48C95F"/>
<path opacity="0.1" d="M329.075 228.414H321.652V230.769H329.075V228.414Z" fill="#48C95F"/>
<path opacity="0.1" d="M339.921 228.414H332.498V230.769H339.921V228.414Z" fill="#48C95F"/>
<path opacity="0.1" d="M350.766 228.414H343.344V230.769H350.766V228.414Z" fill="#48C95F"/>
<path opacity="0.1" d="M361.612 228.414H354.19V230.769H361.612V228.414Z" fill="#48C95F"/>
<path opacity="0.1" d="M372.458 228.414H365.036V230.769H372.458V228.414Z" fill="#48C95F"/>
<path opacity="0.1" d="M383.304 228.414H375.881V230.769H383.304V228.414Z" fill="#48C95F"/>
<path opacity="0.1" d="M329.075 239.017H321.652V241.371H329.075V239.017Z" fill="#48C95F"/>
<path opacity="0.1" d="M339.921 239.017H332.498V241.371H339.921V239.017Z" fill="#48C95F"/>
<path opacity="0.1" d="M350.766 239.017H343.344V241.371H350.766V239.017Z" fill="#48C95F"/>
<path opacity="0.1" d="M361.612 239.017H354.19V241.371H361.612V239.017Z" fill="#48C95F"/>
<path opacity="0.1" d="M372.458 239.017H365.036V241.371H372.458V239.017Z" fill="#48C95F"/>
<path opacity="0.1" d="M383.304 239.017H375.881V241.371H383.304V239.017Z" fill="#48C95F"/>
<path opacity="0.1" d="M391.862 276.122H314.801V280.243H391.862V276.122Z" fill="#48C95F"/>
<path opacity="0.1" d="M329.075 254.329H321.652V276.122H329.075V254.329Z" fill="#48C95F"/>
<path opacity="0.1" d="M339.921 254.329H332.498V276.122H339.921V254.329Z" fill="#48C95F"/>
<path opacity="0.1" d="M350.766 254.329H343.344V276.122H350.766V254.329Z" fill="#48C95F"/>
<path opacity="0.1" d="M361.612 254.329H354.19V276.122H361.612V254.329Z" fill="#48C95F"/>
<path opacity="0.1" d="M372.458 254.329H365.036V276.122H372.458V254.329Z" fill="#48C95F"/>
<path opacity="0.1" d="M383.304 254.329H375.881V276.122H383.304V254.329Z" fill="#48C95F"/>
<path opacity="0.1" d="M329.075 258.45H321.652V260.805H329.075V258.45Z" fill="#48C95F"/>
<path opacity="0.1" d="M339.921 258.45H332.498V260.805H339.921V258.45Z" fill="#48C95F"/>
<path opacity="0.1" d="M350.766 258.45H343.344V260.805H350.766V258.45Z" fill="#48C95F"/>
<path opacity="0.1" d="M361.612 258.45H354.19V260.805H361.612V258.45Z" fill="#48C95F"/>
<path opacity="0.1" d="M372.458 258.45H365.036V260.805H372.458V258.45Z" fill="#48C95F"/>
<path opacity="0.1" d="M383.304 258.45H375.881V260.805H383.304V258.45Z" fill="#48C95F"/>
<path opacity="0.1" d="M329.075 269.052H321.652V271.407H329.075V269.052Z" fill="#48C95F"/>
<path opacity="0.1" d="M339.921 269.052H332.498V271.407H339.921V269.052Z" fill="#48C95F"/>
<path opacity="0.1" d="M350.766 269.052H343.344V271.407H350.766V269.052Z" fill="#48C95F"/>
<path opacity="0.1" d="M361.612 269.052H354.19V271.407H361.612V269.052Z" fill="#48C95F"/>
<path opacity="0.1" d="M372.458 269.052H365.036V271.407H372.458V269.052Z" fill="#48C95F"/>
<path opacity="0.1" d="M383.304 269.052H375.881V271.407H383.304V269.052Z" fill="#48C95F"/>
<path opacity="0.1" d="M193.096 282.089C192.519 281.332 191.994 280.534 191.523 279.702L202.621 277.825L190.598 277.925C189.447 275.341 188.819 272.541 188.753 269.698C188.687 266.854 189.183 264.027 190.212 261.388L206.311 270.007L191.466 258.747C192.853 256.261 194.722 254.097 196.956 252.389C199.19 250.682 201.741 249.468 204.45 248.823C207.159 248.178 209.967 248.117 212.7 248.642C215.433 249.167 218.032 250.269 220.334 251.877C222.636 253.485 224.592 255.565 226.081 257.988C227.569 260.411 228.557 263.124 228.983 265.959C229.409 268.793 229.265 271.688 228.559 274.463C227.852 277.237 226.599 279.831 224.878 282.084C225.78 283.26 226.558 284.533 227.196 285.881L212.803 293.598L228.157 288.294C229.237 291.582 229.504 295.096 228.935 298.517C228.366 301.938 226.978 305.159 224.898 307.887C227.246 310.965 228.706 314.663 229.113 318.557C229.519 322.452 228.855 326.386 227.197 329.909C225.539 333.433 222.953 336.403 219.735 338.482C216.518 340.56 212.798 341.663 209.002 341.663C205.206 341.663 201.487 340.56 198.269 338.482C195.051 336.403 192.466 333.433 190.807 329.909C189.149 326.386 188.485 322.452 188.892 318.557C189.298 314.663 190.759 310.965 193.106 307.887C190.303 304.208 188.779 299.665 188.779 294.985C188.779 290.306 190.303 285.762 193.106 282.084L193.096 282.089Z" fill="#48C95F"/>
<path opacity="0.1" d="M229.216 294.993C229.222 299.673 227.697 304.218 224.888 307.892C227.236 310.97 228.696 314.668 229.103 318.563C229.509 322.457 228.845 326.391 227.187 329.914C225.529 333.438 222.943 336.409 219.725 338.487C216.508 340.566 212.788 341.668 208.992 341.668C205.196 341.668 201.477 340.566 198.259 338.487C195.041 336.409 192.456 333.438 190.797 329.914C189.139 326.391 188.475 322.457 188.882 318.563C189.288 314.668 190.749 310.97 193.096 307.892C190.387 304.344 229.216 292.649 229.216 294.993Z" fill="#48C95F"/>
<path opacity="0.2" d="M212.238 347.22C212.274 347.278 212.3 347.336 212.336 347.395H205.469C205.505 347.336 205.53 347.278 205.566 347.22C204.977 346.158 204.672 344.953 204.682 343.73C204.681 342.893 204.822 342.061 205.099 341.274C205.479 341.338 205.952 341.407 206.497 341.465C208.09 341.629 209.695 341.629 211.287 341.465C211.74 341.417 212.218 341.348 212.701 341.274C212.702 341.287 212.702 341.299 212.701 341.311C212.972 342.087 213.109 342.905 213.107 343.73C213.122 344.952 212.823 346.156 212.238 347.22Z" fill="#3F3D56"/>
<path opacity="0.1" d="M187.56 347.406H149.369C149.281 347.177 149.204 346.939 149.137 346.705C147.791 342.236 147.948 337.429 149.585 333.064C145.852 330.404 143.095 326.526 141.756 322.054C140.418 317.582 140.575 312.775 142.203 308.407C141.435 307.857 140.704 307.254 140.014 306.603L150.078 301.427L138.641 305.171C136.801 303.052 135.399 300.568 134.522 297.87C133.645 295.172 133.312 292.318 133.542 289.482L151.389 292.808L133.984 286.571C134.599 283.773 135.767 281.137 137.414 278.826C139.061 276.515 141.152 274.579 143.556 273.139C145.961 271.699 148.627 270.786 151.389 270.457C154.151 270.128 156.949 270.39 159.608 271.226C162.267 272.063 164.731 273.456 166.845 275.319C168.959 277.182 170.678 279.474 171.895 282.054C173.112 284.633 173.801 287.443 173.918 290.309C174.035 293.175 173.579 296.035 172.577 298.711C173.772 299.566 174.877 300.549 175.872 301.644L164.316 313.408L177.47 303.649C179.442 306.463 180.701 309.74 181.136 313.183C181.57 316.627 181.165 320.127 179.958 323.369C183.599 325.965 186.314 329.723 187.687 334.064C189.06 338.406 189.016 343.092 187.56 347.406Z" fill="#48C95F"/>
<path opacity="0.1" d="M187.56 347.406H149.369C149.281 347.177 149.204 346.939 149.137 346.705C147.791 342.236 147.948 337.429 149.584 333.064C145.986 330.492 179.737 307.494 180.426 309.727C181.767 314.199 181.609 319.006 179.978 323.374C183.614 325.973 186.325 329.731 187.694 334.071C189.063 338.412 189.016 343.095 187.56 347.406Z" fill="#48C95F"/>
<path opacity="0.1" d="M360.502 319.131C358.182 323.152 354.614 326.247 350.376 327.914C350.557 329.404 350.586 330.91 350.463 332.406L334.261 331.404L350.083 334.973C349.037 339.961 346.26 344.383 342.275 347.405H320.223V347.994H297.776C297.822 347.793 297.869 347.596 297.92 347.405C298.745 344.206 300.293 341.254 302.438 338.792C304.582 336.329 307.262 334.426 310.257 333.239C309.683 328.595 310.638 323.887 312.969 319.871C315.299 315.854 318.869 312.762 323.107 311.09C322.986 310.135 322.93 309.173 322.937 308.21L333.398 312.453L323.056 306.184C323.351 303.359 324.201 300.626 325.554 298.151C326.907 295.676 328.735 293.512 330.925 291.79L340.455 307.701L333.315 290.198C337.205 287.966 341.7 287.12 346.103 287.792C350.506 288.464 354.571 290.616 357.668 293.914C360.765 297.213 362.721 301.473 363.232 306.035C363.744 310.597 362.782 315.206 360.497 319.147L360.502 319.131Z" fill="#48C95F"/>
<path opacity="0.1" d="M347.667 341.279C346.29 343.677 344.456 345.761 342.275 347.405H320.223V347.994H297.776C297.822 347.793 297.869 347.596 297.92 347.405C298.745 344.206 300.293 341.254 302.438 338.792C304.582 336.329 307.262 334.426 310.257 333.239C310.066 331.717 314.425 331.924 320.229 332.931C331.573 334.894 348.438 339.948 347.667 341.279Z" fill="#48C95F"/>
<path d="M252.1 285.595C252.1 285.595 254.85 301.066 248.682 306.11C242.514 311.154 253.894 341.423 272.8 337.896C291.705 334.369 299.364 308.969 299.364 308.969C299.364 308.969 280.459 304.938 287.465 284.423L252.1 285.595Z" fill="#EFB7B9"/>
<path opacity="0.1" d="M252.1 285.595C252.1 285.595 254.85 301.066 248.682 306.11C242.514 311.154 253.894 341.423 272.8 337.896C291.705 334.369 299.364 308.969 299.364 308.969C299.364 308.969 280.459 304.938 287.465 284.423L252.1 285.595Z" fill="black"/>
<path d="M268.806 296.945C286.086 296.945 300.094 282.491 300.094 264.661C300.094 246.83 286.086 232.376 268.806 232.376C251.526 232.376 237.518 246.83 237.518 264.661C237.518 282.491 251.526 296.945 268.806 296.945Z" fill="#EFB7B9"/>
<path d="M320.223 326.036V347.984H216.905V327.039C216.906 324.382 217.665 321.784 219.088 319.57C220.51 317.355 222.533 315.622 224.903 314.585L227.869 313.286C235.364 309.992 244.467 305.903 247.443 304.201C247.769 304.033 248.076 303.828 248.358 303.591C249.987 301.909 249.664 304.094 249.664 304.094C249.664 304.094 249.617 304.508 249.587 305.229C249.412 310.167 250.101 329.59 272.152 327.972C293.669 326.381 294.615 311.403 294.419 306.996C294.407 306.587 294.373 306.18 294.316 305.776C294.316 305.659 296.167 306.306 298.675 307.24C303.183 308.953 309.809 311.711 311.593 313.01C312.148 313.408 312.821 313.832 313.551 314.251C315.583 315.421 317.274 317.132 318.449 319.204C319.624 321.276 320.24 323.635 320.233 326.036H320.223Z" fill="#48C95F"/>
<path opacity="0.1" d="M298.671 307.24C296.851 315.948 291.135 332.263 270.518 332.698C248.564 333.143 247.3 310.613 247.433 304.222C247.762 304.054 248.071 303.847 248.353 303.606C249.983 301.925 249.659 304.11 249.659 304.11C249.659 304.11 246.889 329.839 272.147 327.978C297.406 326.116 294.312 305.781 294.312 305.781C294.312 305.659 296.162 306.285 298.671 307.24Z" fill="black"/>
<path d="M231.771 266.257C233.827 265.567 236.279 266.734 237.425 268.378C238.571 270.023 238.731 272.012 238.87 273.916C240.232 274.213 240.998 272.621 241.121 271.428C241.635 266.543 241.661 261.568 243.249 256.859C244.837 252.149 248.307 247.587 253.643 245.774C255.457 245.124 257.396 244.933 259.297 245.217C260.422 245.413 261.486 245.816 262.612 246.007C266.503 246.67 270.744 244.766 274.399 246.092C276.686 246.924 278.161 248.85 279.21 250.78C279.677 251.817 280.31 252.765 281.081 253.586C282.623 255.018 285.07 255.395 287.29 255.845C289.511 256.296 291.947 257.071 292.898 258.842C293.757 260.433 293.124 262.29 292.836 264.029C292.397 266.77 292.843 269.584 294.106 272.038C294.517 272.844 295.35 273.757 296.332 273.497C296.779 273.341 297.156 273.025 297.396 272.606C299.966 268.893 299.884 264.077 303.086 260.762C304.16 259.654 305.543 258.784 306.586 257.654C307.376 256.831 307.955 255.819 308.272 254.708C308.589 253.597 308.633 252.422 308.401 251.29C307.825 248.738 305.831 246.612 304.253 244.395C302.178 241.554 300.668 238.318 299.807 234.874C299.655 234.475 299.655 234.032 299.807 233.633C300.109 233.227 300.497 232.899 300.942 232.673C301.815 232.076 302.446 231.171 302.718 230.129C302.989 229.086 302.883 227.976 302.418 227.009C301.523 225.083 299.514 223.657 297.308 222.797C295.103 221.938 292.682 221.572 290.287 221.206C288.714 221.445 286.869 220.517 286.38 219.217C286.164 218.639 286.164 218.013 285.943 217.435C285.517 216.327 284.288 215.542 282.967 215.271C281.624 215.044 280.247 215.144 278.948 215.563C277.467 215.993 275.75 216.624 274.46 215.892C273.782 215.494 273.401 214.773 272.671 214.449C271.191 213.797 269.628 215.112 268.559 216.199C267.522 217.332 266.252 218.211 264.843 218.772C263.357 219.302 261.528 219.302 260.248 218.459C259.22 217.785 258.706 216.703 257.888 215.844C256.547 214.428 254.424 213.659 252.306 213.484C250.182 213.369 248.054 213.609 246.004 214.195C242.091 215.173 238.352 216.784 234.927 218.968C233.215 220.077 231.576 221.371 230.681 223.041C230.046 224.344 229.718 225.784 229.725 227.242C229.566 231.809 231.036 236.624 234.865 239.823C232.532 240.83 231.74 243.297 231.195 245.487C230.321 248.977 229.442 252.531 229.771 256.095C229.936 257.935 230.424 259.776 230.162 261.605C230.039 262.491 229.741 263.361 229.813 264.257C229.908 264.754 230.146 265.211 230.495 265.567C230.844 265.923 231.288 266.164 231.771 266.257Z" fill="#454B69"/>
<g opacity="0.1">
<path opacity="0.1" d="M307.948 249.911C307.609 250.667 307.153 251.36 306.596 251.963C305.568 253.093 304.17 253.963 303.096 255.077C299.893 258.386 299.96 263.218 297.406 266.92C297.166 267.338 296.788 267.652 296.342 267.806C295.36 268.066 294.527 267.153 294.116 266.347C293.616 265.367 293.241 264.324 293 263.244C292.946 263.513 292.894 263.784 292.846 264.056C292.407 266.797 292.853 269.611 294.116 272.065C294.527 272.871 295.36 273.783 296.342 273.523C296.788 273.368 297.166 273.051 297.406 272.632C299.976 268.92 299.893 264.104 303.096 260.789C304.17 259.68 305.553 258.81 306.596 257.681C307.386 256.858 307.965 255.846 308.282 254.735C308.599 253.624 308.643 252.449 308.411 251.316C308.301 250.833 308.146 250.363 307.948 249.911Z" fill="black"/>
<path opacity="0.1" d="M300.963 227.009C300.517 227.231 300.128 227.558 299.827 227.964C299.675 228.362 299.675 228.806 299.827 229.205C300.123 230.407 300.503 231.586 300.963 232.732C301.846 232.13 302.482 231.213 302.751 230.157C303.019 229.101 302.9 227.98 302.418 227.009C302.273 226.693 302.101 226.391 301.904 226.107C301.636 226.455 301.319 226.759 300.963 227.009Z" fill="black"/>
<path opacity="0.1" d="M234.86 234.158C232.209 231.897 230.461 228.705 229.951 225.195C229.818 225.894 229.743 226.604 229.725 227.316C229.56 230.687 230.423 234.025 232.192 236.863C232.73 235.655 233.68 234.692 234.86 234.158Z" fill="black"/>
<path opacity="0.1" d="M292.846 258.338C293.134 256.599 293.766 254.748 292.907 253.151C291.956 251.38 289.525 250.6 287.299 250.154C285.074 249.709 282.642 249.327 281.09 247.895C280.319 247.074 279.686 246.126 279.219 245.089C278.191 243.159 276.695 241.233 274.408 240.401C270.753 239.075 266.513 240.979 262.621 240.316C261.496 240.125 260.432 239.722 259.306 239.526C257.407 239.233 255.468 239.415 253.652 240.056C248.316 241.87 244.847 246.421 243.258 251.141C241.67 255.861 241.634 260.826 241.13 265.711C241.007 266.904 240.241 268.495 238.879 268.198C238.74 266.294 238.571 264.305 237.435 262.661C236.299 261.017 233.872 259.845 231.78 260.539C231.147 260.392 230.586 260.016 230.197 259.479C230.269 260.185 230.258 260.897 230.166 261.6C230.043 262.486 229.745 263.356 229.817 264.252C229.911 264.749 230.147 265.206 230.496 265.564C230.844 265.921 231.288 266.162 231.77 266.257C233.826 265.567 236.278 266.734 237.424 268.378C238.571 270.023 238.73 272.012 238.869 273.916C240.231 274.213 240.997 272.621 241.12 271.428C241.634 266.543 241.66 261.568 243.248 256.859C244.836 252.149 248.306 247.587 253.642 245.774C255.456 245.124 257.395 244.933 259.296 245.217C260.421 245.413 261.485 245.816 262.611 246.007C266.502 246.67 270.743 244.766 274.398 246.092C276.685 246.924 278.16 248.85 279.209 250.78C279.676 251.817 280.309 252.765 281.08 253.586C282.622 255.018 285.069 255.395 287.289 255.845C289.51 256.296 291.766 257.018 292.784 258.662C292.81 258.572 292.825 258.455 292.846 258.338Z" fill="black"/>
<path opacity="0.1" d="M230.178 255.93C230.298 254.49 230.215 253.039 229.931 251.624C229.711 253.117 229.663 254.632 229.787 256.137C229.818 256.525 229.869 256.906 229.921 257.294C229.982 256.837 230.095 256.387 230.178 255.93Z" fill="black"/>
</g>
<path d="M467.104 314.458H420.842V347.581H467.104V314.458Z" fill="white"/>
<path opacity="0.1" d="M462.982 339.45C462.322 340.595 461.305 341.475 460.098 341.948C460.15 342.372 460.159 342.8 460.124 343.226L455.498 342.94L460 343.958C459.7 345.374 458.911 346.63 457.78 347.49H451.519V347.66H445.135C445.135 347.602 445.135 347.549 445.176 347.49C445.313 346.951 445.524 346.435 445.803 345.958C446.463 344.814 447.477 343.934 448.682 343.459C448.517 342.138 448.788 340.799 449.451 339.656C450.114 338.513 451.13 337.633 452.336 337.158C452.301 336.888 452.285 336.615 452.29 336.342L455.266 337.551L452.321 335.769C452.404 334.963 452.646 334.184 453.033 333.479C453.419 332.774 453.941 332.158 454.567 331.669L457.276 336.199L455.246 331.213C456.352 330.591 457.626 330.362 458.871 330.559C460.116 330.756 461.264 331.368 462.139 332.303C463.014 333.238 463.568 334.444 463.716 335.734C463.863 337.025 463.596 338.33 462.956 339.45H462.982Z" fill="#48C95F"/>
<path opacity="0.1" d="M459.327 345.767C458.933 346.449 458.408 347.041 457.785 347.506H451.519V347.676H445.135C445.135 347.618 445.135 347.565 445.176 347.506C445.313 346.967 445.524 346.451 445.803 345.973C446.463 344.83 447.477 343.95 448.682 343.475C448.63 343.046 449.869 343.104 451.519 343.39C454.747 343.953 459.548 345.39 459.327 345.767Z" fill="#48C95F"/>
<path opacity="0.1" d="M422.6 339.45C423.26 340.595 424.277 341.475 425.484 341.948C425.432 342.372 425.423 342.8 425.458 343.226L430.084 342.94L425.582 343.958C425.882 345.374 426.671 346.63 427.802 347.49H434.078V347.66H440.468C440.468 347.602 440.437 347.549 440.427 347.49C440.285 346.953 440.074 346.437 439.799 345.958C439.137 344.815 438.121 343.935 436.916 343.459C437.08 342.138 436.809 340.799 436.146 339.656C435.483 338.513 434.467 337.633 433.261 337.158C433.296 336.888 433.313 336.615 433.312 336.342L430.336 337.551L433.276 335.769C433.193 334.963 432.951 334.184 432.565 333.479C432.178 332.774 431.656 332.158 431.03 331.669L428.321 336.199L430.352 331.213C429.245 330.591 427.972 330.362 426.727 330.559C425.482 330.756 424.333 331.368 423.458 332.303C422.583 333.238 422.029 334.444 421.882 335.734C421.734 337.025 422.001 338.33 422.641 339.45H422.6Z" fill="#48C95F"/>
<path opacity="0.1" d="M426.255 345.767C426.649 346.449 427.174 347.041 427.797 347.506H434.073V347.676H440.462C440.462 347.618 440.432 347.565 440.421 347.506C440.28 346.969 440.069 346.453 439.794 345.973C439.132 344.831 438.116 343.951 436.911 343.475C436.962 343.046 435.723 343.104 434.073 343.39C430.835 343.953 426.019 345.39 426.255 345.767Z" fill="#48C95F"/>
<path d="M448.543 321.756H438.206V333.637H448.543V321.756Z" fill="#464353"/>
<path opacity="0.1" d="M448.543 321.756H438.206V333.637H448.543V321.756Z" fill="black"/>
<path d="M433.801 344.51L433.59 347.596H436.54L436.726 343.518L433.801 344.51Z" fill="#A1616A"/>
<path d="M449.345 344.51L448.898 347.596H451.602L451.771 343.518L449.345 344.51Z" fill="#A1616A"/>
<path d="M440.786 327.702C440.786 327.702 440.683 329.245 440.324 329.648C439.964 330.051 443.536 333.621 446.348 330.094C446.348 330.094 445.14 329.033 445.423 327.845C445.705 326.657 440.786 327.702 440.786 327.702Z" fill="#A1616A"/>
<path opacity="0.1" d="M440.786 327.702C440.786 327.702 440.683 329.245 440.324 329.648C439.964 330.051 443.536 333.621 446.348 330.094C446.348 330.094 445.14 329.033 445.423 327.845C445.705 326.657 440.786 327.702 440.786 327.702Z" fill="black"/>
<path d="M443.372 329.081C446.228 329.081 448.543 326.692 448.543 323.745C448.543 320.798 446.228 318.409 443.372 318.409C440.516 318.409 438.201 320.798 438.201 323.745C438.201 326.692 440.516 329.081 443.372 329.081Z" fill="#A1616A"/>
<path d="M443.104 331.011C443.104 331.011 440.935 330.974 440.611 328.932C440.182 329.315 439.728 329.67 439.254 329.993C439.044 330.067 436.972 331.276 436.582 331.351C436.199 331.431 435.845 331.614 435.554 331.881C435.043 332.295 434.625 332.819 434.329 333.416C434.034 334.013 433.867 334.669 433.842 335.339C433.77 337.731 433.487 342.404 433.487 342.404L433.595 344.096V345.199C433.595 345.199 435.518 345.729 436.679 344.669C436.679 344.669 436.679 344.266 436.895 344.138C437.111 344.011 437.142 343.475 437.106 343.252C437.087 342.922 437.087 342.591 437.106 342.261C437.143 342.44 437.246 342.598 437.394 342.701C437.479 343 437.504 343.314 437.466 343.624C437.358 343.841 437.25 344.356 437.358 344.467C437.412 344.566 437.435 344.68 437.422 344.792C437.409 344.905 437.361 345.01 437.286 345.093C437.09 345.376 436.934 345.687 436.823 346.016C436.823 346.016 436.715 346.673 436.607 346.748C436.486 347.017 436.402 347.303 436.361 347.596H449.211C448.984 346.925 448.812 346.234 448.697 345.533C448.733 345.204 448.378 343.841 448.625 343.475C448.988 342.99 449.188 342.396 449.196 341.783L449.339 343.215L448.949 346.398C448.949 346.398 451.334 347.172 451.586 346.689C451.852 345.849 452.055 344.989 452.192 344.117C452.192 344.117 452.763 341.465 452.907 341.099C453.051 340.733 453.369 333.377 451.442 332.311C449.514 331.245 445.88 329.409 445.788 329.5C445.582 330.035 445.201 330.48 444.711 330.756C444.221 331.032 443.652 331.122 443.104 331.011Z" fill="#48C95F"/>
<path opacity="0.1" d="M436.911 338.203C436.543 338.745 436.386 339.409 436.469 340.065C436.555 340.714 436.761 341.341 437.075 341.911" stroke="black" stroke-miterlimit="10"/>
<path opacity="0.1" d="M449.396 338.707C449.489 338.977 449.561 339.254 449.612 339.535C449.705 339.886 449.722 340.254 449.663 340.613C449.605 340.972 449.472 341.313 449.273 341.614" stroke="black" stroke-miterlimit="10"/>
<path d="M441.059 320.096C441.463 319.985 441.893 320.03 442.267 320.224C442.635 320.419 443.02 320.577 443.418 320.696C443.685 320.754 443.932 320.754 444.23 320.796C444.727 320.889 445.185 321.134 445.546 321.497C445.907 321.861 446.154 322.328 446.255 322.838C446.487 324.143 445.741 325.427 445.741 326.758C445.744 327.52 446.004 328.257 446.477 328.842C446.873 329.215 447.219 329.642 447.505 330.11C447.654 330.449 447.684 330.836 447.828 331.171C448.143 331.771 448.663 332.229 449.288 332.454C449.908 332.669 450.505 332.946 451.072 333.282C452.1 333.987 452.706 335.339 453.899 335.631C453.958 335.658 454.022 335.671 454.087 335.671C454.151 335.671 454.215 335.658 454.274 335.631C454.328 335.587 454.372 335.53 454.402 335.466C454.433 335.402 454.449 335.331 454.449 335.26C454.479 335 454.451 334.737 454.368 334.49C454.285 334.243 454.15 334.018 453.971 333.833C453.678 333.531 453.251 333.303 453.159 332.894C453.066 332.486 453.313 332.136 453.447 331.765C453.873 330.561 453.164 329.251 452.357 328.275C451.55 327.299 450.584 326.334 450.388 325.092C450.342 324.673 450.327 324.251 450.342 323.83C450.327 322.962 450.181 322.101 449.91 321.279C449.78 320.835 449.571 320.419 449.293 320.054C449.036 319.736 448.707 319.492 448.44 319.184C448.085 318.678 447.766 318.146 447.484 317.593C447.075 316.937 446.518 316.395 445.859 316.013C445.2 315.631 444.461 315.421 443.706 315.402C442.262 315.402 440.894 316.06 439.671 316.85C439.221 317.104 438.831 317.457 438.53 317.885C438.016 318.728 438.17 319.842 437.872 320.796C437.574 321.751 436.87 322.456 436.623 323.39C436.547 323.664 436.535 323.953 436.587 324.233C436.679 324.529 436.801 324.813 436.952 325.082C437.225 325.765 437.38 326.492 437.409 327.23C437.486 328.121 437.522 329.081 437.07 329.839C436.719 330.299 436.282 330.682 435.785 330.964C436.289 331.386 436.932 331.589 437.579 331.531C438.555 331.574 439.686 331.531 440.293 330.736C440.656 330.164 440.802 329.475 440.704 328.8C440.656 328.062 440.511 327.334 440.272 326.636C439.938 325.655 439.424 324.726 439.275 323.698C439.217 323.326 439.232 322.947 439.321 322.582C439.409 322.217 439.568 321.875 439.789 321.576C439.974 321.337 440.303 321.215 440.457 320.961C440.653 320.621 440.596 320.266 441.059 320.096Z" fill="#464353"/>
<g opacity="0.1">
<path opacity="0.1" d="M436.952 325.013C437.225 325.695 437.38 326.423 437.41 327.161C437.41 327.394 437.446 327.633 437.451 327.871C437.505 327.353 437.505 326.83 437.451 326.312C437.419 325.583 437.264 324.865 436.993 324.19C436.845 323.922 436.723 323.64 436.628 323.347C436.552 323.62 436.54 323.907 436.592 324.185C436.684 324.473 436.804 324.751 436.952 325.013Z" fill="black"/>
<path opacity="0.1" d="M440.339 329.903C439.733 330.693 438.602 330.741 437.625 330.704C437.212 330.705 436.801 330.64 436.407 330.513C436.212 330.677 436.001 330.831 435.796 330.979C436.3 331.401 436.943 331.605 437.589 331.547C438.566 331.589 439.697 331.547 440.303 330.751C440.651 330.221 440.801 329.578 440.725 328.943C440.679 329.292 440.546 329.623 440.339 329.903Z" fill="black"/>
<path opacity="0.1" d="M453.195 332.024C453.209 332.085 453.23 332.144 453.257 332.199C453.318 332.051 453.39 331.897 453.447 331.743C453.57 331.394 453.606 331.018 453.55 330.651C453.532 330.735 453.51 330.818 453.483 330.9C453.349 331.271 453.108 331.642 453.195 332.024Z" fill="black"/>
<path opacity="0.1" d="M446.287 323.093C446.346 322.729 446.346 322.358 446.287 321.995C446.186 321.484 445.939 321.017 445.578 320.653C445.217 320.289 444.758 320.045 444.262 319.953C443.989 319.905 443.717 319.905 443.449 319.852C443.052 319.732 442.667 319.574 442.298 319.38C441.925 319.185 441.495 319.138 441.09 319.247C440.628 319.417 440.684 319.778 440.478 320.128C440.329 320.382 439.995 320.51 439.81 320.743C439.403 321.304 439.219 322.004 439.296 322.7C439.361 322.294 439.525 321.913 439.774 321.592C439.959 321.353 440.288 321.231 440.442 320.976C440.648 320.621 440.592 320.266 441.054 320.096C441.458 319.985 441.888 320.03 442.262 320.223C442.63 320.419 443.016 320.577 443.414 320.695C443.681 320.754 443.928 320.754 444.226 320.796C444.722 320.889 445.18 321.133 445.541 321.497C445.902 321.861 446.149 322.328 446.251 322.838C446.268 322.922 446.28 323.007 446.287 323.093Z" fill="black"/>
<path opacity="0.1" d="M454.29 334.766C454.169 334.815 454.035 334.815 453.915 334.766C452.722 334.475 452.105 333.122 451.087 332.417C450.519 332.085 449.921 331.809 449.304 331.589C448.679 331.367 448.159 330.911 447.844 330.311C447.7 329.966 447.669 329.585 447.52 329.25C447.234 328.782 446.888 328.356 446.492 327.983C446.064 327.457 445.805 326.806 445.752 326.121C445.721 326.326 445.706 326.534 445.706 326.742C445.715 327.514 445.988 328.257 446.477 328.842C446.873 329.215 447.219 329.641 447.505 330.11C447.654 330.449 447.685 330.836 447.829 331.17C448.143 331.771 448.664 332.229 449.288 332.454C449.908 332.669 450.505 332.946 451.072 333.281C452.1 333.987 452.707 335.339 453.899 335.631C453.958 335.657 454.022 335.671 454.087 335.671C454.151 335.671 454.215 335.657 454.274 335.631C454.328 335.586 454.372 335.53 454.402 335.465C454.432 335.401 454.448 335.331 454.449 335.26C454.472 335.059 454.462 334.857 454.418 334.66C454.385 334.707 454.341 334.743 454.29 334.766Z" fill="black"/>
</g>
<path opacity="0.1" d="M432.171 316.893H425.561V326.636H432.171V316.893Z" fill="#48C95F"/>
<path opacity="0.1" d="M431.226 318.288H426.507V325.246H431.226V318.288Z" fill="#48C95F"/>
<path opacity="0.1" d="M464.74 318.356H453.884V324.201H464.74V318.356Z" fill="#48C95F"/>
<path opacity="0.1" d="M463.326 319.12H455.302V323.443H463.326V319.12Z" fill="#48C95F"/>
</g>
<defs>
<clipPath id="clip0">
<rect width="594" height="370" fill="white" transform="translate(0 103)"/>
</clipPath>
</defs>
</svg>
