<svg width="130" height="150" viewBox="0 0 130 150" fill="none" xmlns="http://www.w3.org/2000/svg">
<path d="M82.1614 4.97893C93.7715 10.5791 100.202 26.591 108.156 40.3816C116.869 55.4875 129.295 67.9233 129.942 87.8185C130.669 110.163 124.579 135.057 111.603 146.306C99.242 157.021 84.847 141.211 70.6072 139.255C55.2922 137.151 38.7669 148.083 26.3338 134.593C11.049 118.008 -2.49061 90.9114 0.389396 63.0658C3.24749 35.432 22.5652 19.2981 39.5028 7.26645C52.855 -2.21826 68.0886 -1.8091 82.1614 4.97893Z" fill="#FEEDED"/>
<g opacity="0.5">
<path opacity="0.5" d="M53.1154 25H9.59996C9.26753 25 8.99805 25.2702 8.99805 25.6035V92.1781C8.99805 92.5114 9.26753 92.7817 9.59996 92.7817H53.1154C53.4479 92.7817 53.7173 92.5114 53.7173 92.1781V25.6035C53.7173 25.2702 53.4479 25 53.1154 25Z" fill="url(#paint0_linear)"/>
</g>
<path d="M52.5419 25.4976H10.1727C9.84029 25.4976 9.5708 25.7678 9.5708 26.1011V91.305C9.5708 91.6383 9.84029 91.9085 10.1727 91.9085H52.5419C52.8743 91.9085 53.1438 91.6383 53.1438 91.305V26.1011C53.1438 25.7678 52.8743 25.4976 52.5419 25.4976Z" fill="#F2F2F2"/>
<g opacity="0.5">
<path opacity="0.5" d="M22.0411 37.7319H14.5306C14.1982 37.7319 13.9287 38.0021 13.9287 38.3355V44.9932C13.9287 45.3265 14.1982 45.5967 14.5306 45.5967H22.0411C22.3736 45.5967 22.643 45.3265 22.643 44.9932V38.3355C22.643 38.0021 22.3736 37.7319 22.0411 37.7319Z" fill="#6C63FF"/>
</g>
<path d="M48.41 37.7319H25.635C25.4267 37.7319 25.2578 37.9013 25.2578 38.1101V38.2282C25.2578 38.4371 25.4267 38.6064 25.635 38.6064H48.41C48.6183 38.6064 48.7872 38.4371 48.7872 38.2282V38.1101C48.7872 37.9013 48.6183 37.7319 48.41 37.7319Z" fill="#E0E0E0"/>
<path d="M44.44 40.3525H25.635C25.4267 40.3525 25.2578 40.5219 25.2578 40.7308V40.8488C25.2578 41.0577 25.4267 41.227 25.635 41.227H44.44C44.6484 41.227 44.8172 41.0577 44.8172 40.8488V40.7308C44.8172 40.5219 44.6484 40.3525 44.44 40.3525Z" fill="#E0E0E0"/>
<g opacity="0.5">
<path opacity="0.5" d="M22.0411 49.9653H14.5306C14.1982 49.9653 13.9287 50.2355 13.9287 50.5689V57.2266C13.9287 57.5599 14.1982 57.8301 14.5306 57.8301H22.0411C22.3736 57.8301 22.643 57.5599 22.643 57.2266V50.5689C22.643 50.2355 22.3736 49.9653 22.0411 49.9653Z" fill="#6C63FF"/>
</g>
<path d="M48.41 49.9653H25.635C25.4267 49.9653 25.2578 50.1347 25.2578 50.3436V50.4616C25.2578 50.6705 25.4267 50.8398 25.635 50.8398H48.41C48.6183 50.8398 48.7872 50.6705 48.7872 50.4616V50.3436C48.7872 50.1347 48.6183 49.9653 48.41 49.9653Z" fill="#E0E0E0"/>
<path d="M48.41 52.5859H25.635C25.4267 52.5859 25.2578 52.7553 25.2578 52.9642V53.0822C25.2578 53.2911 25.4267 53.4604 25.635 53.4604H48.41C48.6183 53.4604 48.7872 53.2911 48.7872 53.0822V52.9642C48.7872 52.7553 48.6183 52.5859 48.41 52.5859Z" fill="#E0E0E0"/>
<g opacity="0.5">
<path opacity="0.5" d="M22.0411 62.1982H14.5306C14.1982 62.1982 13.9287 62.4685 13.9287 62.8018V69.4595C13.9287 69.7928 14.1982 70.063 14.5306 70.063H22.0411C22.3736 70.063 22.643 69.7928 22.643 69.4595V62.8018C22.643 62.4685 22.3736 62.1982 22.0411 62.1982Z" fill="#6C63FF"/>
</g>
<path d="M48.41 62.1982H25.635C25.4267 62.1982 25.2578 62.3676 25.2578 62.5765V62.6945C25.2578 62.9034 25.4267 63.0727 25.635 63.0727H48.41C48.6183 63.0727 48.7872 62.9034 48.7872 62.6945V62.5765C48.7872 62.3676 48.6183 62.1982 48.41 62.1982Z" fill="#E0E0E0"/>
<path d="M27.4956 64.8203H25.635C25.4267 64.8203 25.2578 64.9896 25.2578 65.1985V65.3166C25.2578 65.5254 25.4267 65.6948 25.635 65.6948H27.4956C27.7039 65.6948 27.8728 65.5254 27.8728 65.3166V65.1985C27.8728 64.9896 27.7039 64.8203 27.4956 64.8203Z" fill="#E0E0E0"/>
<g opacity="0.5">
<path opacity="0.5" d="M80.2725 46.8242H37.4271C37.0947 46.8242 36.8252 47.0944 36.8252 47.4278V86.0624C36.8252 86.3958 37.0947 86.666 37.4271 86.666H80.2725C80.6049 86.666 80.8744 86.3958 80.8744 86.0624V47.4278C80.8744 47.0944 80.6049 46.8242 80.2725 46.8242Z" fill="url(#paint1_linear)"/>
</g>
<path d="M79.6664 47.2236H38.1078C37.7753 47.2236 37.5059 47.4938 37.5059 47.8272V85.2105C37.5059 85.5438 37.7753 85.814 38.1078 85.814H79.6664C79.9988 85.814 80.2683 85.5438 80.2683 85.2105V47.8272C80.2683 47.4938 79.9988 47.2236 79.6664 47.2236Z" fill="white"/>
<g opacity="0.5">
<path opacity="0.5" d="M50.2905 55.5151H42.3065C41.9741 55.5151 41.7046 55.7854 41.7046 56.1187V63.2029C41.7046 63.5362 41.9741 63.8064 42.3065 63.8064H50.2905C50.6229 63.8064 50.8924 63.5362 50.8924 63.2029V56.1187C50.8924 55.7854 50.6229 55.5151 50.2905 55.5151Z" fill="#6C63FF"/>
</g>
<path d="M78.0576 55.5151H54.048C53.8279 55.5151 53.6494 55.6941 53.6494 55.9148V56.0369C53.6494 56.2576 53.8279 56.4365 54.048 56.4365H78.0576C78.2777 56.4365 78.4562 56.2576 78.4562 56.0369V55.9148C78.4562 55.6941 78.2777 55.5151 78.0576 55.5151Z" fill="#E0E0E0"/>
<path d="M78.0576 58.2793H54.048C53.8279 58.2793 53.6494 58.4582 53.6494 58.679V58.801C53.6494 59.0217 53.8279 59.2007 54.048 59.2007H78.0576C78.2777 59.2007 78.4562 59.0217 78.4562 58.801V58.679C78.4562 58.4582 78.2777 58.2793 78.0576 58.2793Z" fill="#E0E0E0"/>
<path d="M78.0573 68.3101H41.1842C40.9641 68.3101 40.7856 68.489 40.7856 68.7097V68.8318C40.7856 69.0525 40.9641 69.2315 41.1842 69.2315H78.0573C78.2774 69.2315 78.4559 69.0525 78.4559 68.8318V68.7097C78.4559 68.489 78.2774 68.3101 78.0573 68.3101Z" fill="#E0E0E0"/>
<path d="M78.0573 71.0742H41.1842C40.9641 71.0742 40.7856 71.2532 40.7856 71.4739V71.596C40.7856 71.8167 40.9641 71.9956 41.1842 71.9956H78.0573C78.2774 71.9956 78.4559 71.8167 78.4559 71.596V71.4739C78.4559 71.2532 78.2774 71.0742 78.0573 71.0742Z" fill="#E0E0E0"/>
<path d="M78.0573 74.7588H41.1842C40.9641 74.7588 40.7856 74.9377 40.7856 75.1585V75.2805C40.7856 75.5013 40.9641 75.6802 41.1842 75.6802H78.0573C78.2774 75.6802 78.4559 75.5013 78.4559 75.2805V75.1585C78.4559 74.9377 78.2774 74.7588 78.0573 74.7588Z" fill="#E0E0E0"/>
<path d="M68.8695 77.5229H41.1842C40.9641 77.5229 40.7856 77.7019 40.7856 77.9226V78.0447C40.7856 78.2654 40.9641 78.4444 41.1842 78.4444H68.8695C69.0896 78.4444 69.2681 78.2654 69.2681 78.0447V77.9226C69.2681 77.7019 69.0896 77.5229 68.8695 77.5229Z" fill="#E0E0E0"/>
<g opacity="0.5">
<path opacity="0.5" d="M81.9391 61.7328L82.0956 61.0327L81.8762 61.7167C76.1712 60.1717 70.2901 59.3764 64.3807 59.3509C21.8029 59.0987 2 96.8307 2 96.8307L42.3494 118.177C42.3494 118.177 47.2985 102.788 64.8756 103.29C66.0847 103.323 67.2906 103.429 68.4871 103.606L63.1394 120.308C62.9109 120.635 62.75 121.003 62.6663 121.393C62.5825 121.783 62.5777 122.185 62.652 122.577C62.7264 122.969 62.8784 123.341 63.099 123.673C63.3196 124.004 63.6044 124.288 63.9365 124.507C64.2686 124.726 64.6411 124.877 65.0321 124.949C65.4231 125.021 65.8245 125.013 66.2126 124.927C66.6007 124.841 66.9675 124.677 67.2914 124.446C67.6152 124.215 67.8894 123.92 68.0978 123.581V123.573C68.3754 123.121 68.5265 122.602 68.5352 122.071C68.5352 121.981 68.5352 121.891 68.5259 121.803L72.3915 104.482C83.908 108.034 87.3978 118.176 87.3978 118.176L128 97.8232C128 97.8232 112.752 70.1234 81.9391 61.7328Z" fill="url(#paint2_linear)"/>
</g>
<path d="M64.3889 59.7693C22.3541 59.5238 2.80273 96.7717 2.80273 96.7717L42.6385 117.843C42.6385 117.843 47.526 102.65 64.8785 103.14C66.1007 103.173 67.3197 103.281 68.5287 103.464L81.7199 62.1217C76.0694 60.5857 70.2433 59.7948 64.3889 59.7693Z" fill="#6C63FF"/>
<path d="M81.7195 62.1216L68.5283 103.468C82.9233 105.661 87.1167 117.843 87.1167 117.843L127.197 97.7519C127.197 97.7519 112.137 70.4048 81.7195 62.1216Z" fill="#E0E0E0"/>
<path d="M68.4856 121.426L81.8774 61.4297L63.162 119.95C62.9327 120.272 62.7706 120.637 62.6852 121.023C62.5998 121.409 62.5931 121.809 62.6653 122.198C62.7375 122.586 62.8872 122.957 63.1054 123.286C63.3237 123.615 63.606 123.897 63.9354 124.115C64.2649 124.332 64.6347 124.481 65.0227 124.552C65.4108 124.623 65.8091 124.614 66.1939 124.527C66.5786 124.44 66.9418 124.276 67.2618 124.044C67.5818 123.813 67.852 123.52 68.0562 123.181V123.173C68.3301 122.727 68.4794 122.215 68.4883 121.691C68.4963 121.599 68.4923 121.513 68.4856 121.426Z" fill="#535461"/>
<g opacity="0.7">
<path opacity="0.7" d="M73.3265 59.6982L72.976 59.6325L73.6675 57.0842C74.7563 48.9029 70.6433 48.0727 69.101 48.0445C68.9237 47.9795 68.7428 47.9244 68.5593 47.8796V46.9139C69.5296 46.6738 70.4085 46.1538 71.0872 45.4182C71.766 44.6826 72.2147 43.7636 72.3781 42.775H72.3915C72.6363 42.775 72.8356 42.4008 72.8356 41.9394C72.8451 41.6948 72.7772 41.4535 72.6416 41.25C72.6594 41.0712 72.6684 40.8924 72.6684 40.7135C72.6688 39.9914 72.5228 39.2768 72.2393 38.613C71.9558 37.9492 71.5407 37.3501 71.0191 36.8522C70.9479 36.4954 70.8206 36.1523 70.6419 35.8356C70.2634 35.165 69.6334 34.4702 69.8902 33.7446L68.2276 33.9163L68.2115 32.8179C67.6926 32.9118 67.4745 33.514 67.1669 33.9431C66.4259 34.9759 64.9398 35.1194 63.9567 35.9241C63.6223 36.1923 62.8706 37.0292 63.0137 37.5751C62.3534 38.486 61.9984 39.5834 61.9998 40.7095C61.9998 40.8883 62.0087 41.0672 62.0266 41.246C61.8909 41.4495 61.823 41.6908 61.8326 41.9354C61.8326 42.3967 62.0319 42.7709 62.2767 42.7709H62.2901C62.4534 43.7596 62.9022 44.6786 63.5809 45.4142C64.2597 46.1498 65.1385 46.6698 66.1089 46.9099V47.8755C65.9254 47.9204 65.7445 47.9754 65.5671 48.0405C64.0249 48.0687 59.9118 48.8935 61.0006 57.0802L61.6922 59.6285L61.5276 59.6593C61.283 59.7051 61.0497 59.7988 60.8411 59.935C60.6325 60.0712 60.4527 60.2472 60.312 60.4531C60.1712 60.659 60.0723 60.8906 60.0209 61.1348C59.9695 61.379 59.9665 61.631 60.0122 61.8763L62.7448 76.5209C62.7728 76.6708 62.8589 76.8035 62.9843 76.8897C63.1097 76.976 63.2641 77.0088 63.4136 76.981L63.8938 76.8911V77.1754C63.6273 77.3075 63.403 77.5115 63.246 77.7646C63.0891 78.0177 63.0058 78.3098 63.0057 78.6078V78.7889H66.2266V78.6078C66.2265 78.3313 66.1548 78.0595 66.0186 77.819C65.8824 77.5785 65.6863 77.3776 65.4494 77.2358V76.5987L65.8882 76.5169C66.0376 76.4889 66.1699 76.4025 66.256 76.2768C66.342 76.1511 66.3747 75.9962 66.347 75.8463L63.7868 62.0883H70.8854L68.3279 75.8477C68.3002 75.9976 68.3329 76.1524 68.4189 76.2781C68.5049 76.4039 68.6372 76.4902 68.7867 76.5183L69.2254 76.6001V77.2371C68.9886 77.3789 68.7925 77.5798 68.6563 77.8203C68.5201 78.0608 68.4484 78.3326 68.4483 78.6092V78.7902H71.6692V78.6092C71.669 78.3111 71.5858 78.0191 71.4288 77.766C71.2719 77.5129 71.0475 77.3088 70.781 77.1768V76.8924L71.2612 76.9823C71.4107 77.0101 71.5652 76.9773 71.6906 76.8911C71.816 76.8048 71.9021 76.6722 71.93 76.5223L74.6908 61.6939C74.732 61.4731 74.7294 61.2462 74.6831 61.0263C74.6369 60.8065 74.5478 60.5979 74.4211 60.4126C74.2944 60.2272 74.1325 60.0687 73.9447 59.9462C73.7569 59.8236 73.5468 59.7393 73.3265 59.6982Z" fill="url(#paint3_linear)"/>
</g>
<path d="M65.5218 75.0269H64.0264V77.0628H65.5218V75.0269Z" fill="#FDB797"/>
<path d="M70.6497 75.0269H69.1543V77.0628H70.6497V75.0269Z" fill="#FDB797"/>
<path d="M72.2537 58.3154H62.4238V61.8508H72.2537V58.3154Z" fill="#4D8AF0"/>
<g opacity="0.05">
<path opacity="0.05" d="M72.2537 58.3154H62.4238V61.8508H72.2537V58.3154Z" fill="black"/>
</g>
<path opacity="0.1" d="M62.4238 58.9579C62.4238 58.9579 66.0915 59.8149 67.3381 59.8149C68.5847 59.8149 72.2524 58.9579 72.2524 58.9579V58.4214H62.4238V58.9579Z" fill="black"/>
<path d="M72.2524 58.8507C72.2524 58.8507 68.5847 59.7077 67.3381 59.7077C66.0915 59.7077 62.4238 58.8507 62.4238 58.8507V52.9588C62.4238 51.6519 62.9416 50.3986 63.8632 49.4745C64.7848 48.5504 66.0348 48.0312 67.3381 48.0312C68.6414 48.0313 69.8914 48.5504 70.813 49.4745C71.7346 50.3986 72.2524 51.6519 72.2524 52.9588V58.8507Z" fill="#F55F44"/>
<path d="M66.1636 45.5659H68.5137V48.4012C68.5137 48.6719 68.4065 48.9315 68.2156 49.1229C68.0247 49.3143 67.7658 49.4219 67.4958 49.4219H67.1828C66.9128 49.4219 66.6539 49.3143 66.463 49.1229C66.2722 48.9315 66.1649 48.6719 66.1649 48.4012V45.5659H66.1636Z" fill="#FDB797"/>
<path d="M65.8025 75.7592L63.6958 76.1535C63.5162 76.186 63.331 76.146 63.1807 76.0423C63.0304 75.9385 62.927 75.7794 62.8932 75.5996L60.3812 62.1017C60.3261 61.8062 60.3295 61.5027 60.3914 61.2086C60.4532 60.9145 60.5723 60.6354 60.7417 60.3875C60.9111 60.1395 61.1276 59.9274 61.3788 59.7633C61.63 59.5993 61.911 59.4865 62.2057 59.4313L62.7488 59.3294C62.9284 59.2969 63.1135 59.3368 63.2639 59.4406C63.4142 59.5444 63.5175 59.7035 63.5513 59.8833L66.3602 74.9491C66.377 75.039 66.3759 75.1314 66.3569 75.2209C66.3379 75.3104 66.3014 75.3953 66.2496 75.4706C66.1977 75.5459 66.1315 75.6101 66.0548 75.6597C65.9781 75.7092 65.8923 75.743 65.8025 75.7592Z" fill="#4D8AF0"/>
<path d="M68.8682 75.7593L70.9748 76.1536C71.1544 76.1861 71.3396 76.1462 71.4899 76.0424C71.6403 75.9387 71.7436 75.7795 71.7774 75.5997L74.3322 61.8765C74.4319 61.3396 74.3148 60.7849 74.0068 60.3345C73.6988 59.884 73.225 59.5747 72.6896 59.4744L71.9219 59.3309C71.7423 59.2983 71.5571 59.3383 71.4068 59.4421C71.2564 59.5458 71.1531 59.705 71.1193 59.8848L68.3104 74.9505C68.2938 75.0404 68.2951 75.1326 68.3142 75.222C68.3332 75.3113 68.3697 75.396 68.4216 75.4712C68.4734 75.5463 68.5396 75.6105 68.6162 75.6599C68.6928 75.7094 68.7785 75.7431 68.8682 75.7593Z" fill="#4D8AF0"/>
<path opacity="0.1" d="M66.1636 47.3525C66.9355 47.543 67.7419 47.543 68.5137 47.3525V45.6733H66.1636V47.3525Z" fill="black"/>
<path d="M67.3382 46.423C70.1705 46.423 72.4665 44.1208 72.4665 41.2808C72.4665 38.4409 70.1705 36.1387 67.3382 36.1387C64.506 36.1387 62.21 38.4409 62.21 41.2808C62.21 44.1208 64.506 46.423 67.3382 46.423Z" fill="#333333"/>
<path d="M67.3381 47.3874C70.0522 47.3874 72.2524 45.1812 72.2524 42.4598C72.2524 39.7384 70.0522 37.5322 67.3381 37.5322C64.624 37.5322 62.4238 39.7384 62.4238 42.4598C62.4238 45.1812 64.624 47.3874 67.3381 47.3874Z" fill="#FDB797"/>
<path d="M64.0932 36.6765C65.0389 35.9027 66.4688 35.7645 67.1803 34.7707C67.4759 34.3576 67.6859 33.7769 68.1849 33.687L68.1996 34.7439L69.8047 34.5789C69.5572 35.2763 70.1631 35.9469 70.5283 36.5907C70.7967 37.0664 70.9433 37.6014 70.955 38.1478C70.3999 38.4818 69.711 38.117 69.0931 37.9225C68.4751 37.728 67.8531 37.7133 67.2205 37.6959C66.8976 37.6733 66.5732 37.6914 66.2547 37.7495C65.9792 37.8237 65.7106 37.9219 65.4522 38.0432C65.0268 38.2216 63.6826 38.8962 63.288 38.4617C62.8439 37.9695 63.728 36.9756 64.0932 36.6765Z" fill="#333333"/>
<path opacity="0.1" d="M64.3605 39.9877C64.6291 40.1355 64.9249 40.2267 65.2299 40.256C66.4889 40.4286 67.7709 40.2844 68.9604 39.8362C69.1557 40.3311 69.6292 40.6717 70.1362 40.8327C70.6431 40.9936 71.1808 41.0017 71.7118 41.0097C71.8285 41.0229 71.9465 41.0005 72.0502 40.9453C72.287 40.7857 72.172 40.4183 72.0342 40.1688L71.3493 38.9242C71.1474 38.5567 70.9387 38.1811 70.6257 37.9035C70.2325 37.5548 69.7108 37.3912 69.1972 37.2879C67.9816 37.0452 66.7265 37.0869 65.5296 37.4099C64.2495 37.7493 62.6056 38.9228 64.3605 39.9877Z" fill="black"/>
<path d="M64.3605 39.8808C64.6291 40.0285 64.9249 40.1198 65.2299 40.149C66.4889 40.3217 67.7709 40.1774 68.9604 39.7292C69.1557 40.2241 69.6292 40.5648 70.1362 40.7257C70.6431 40.8867 71.1808 40.8947 71.7118 40.9028C71.8285 40.916 71.9465 40.8935 72.0502 40.8384C72.287 40.6788 72.172 40.3113 72.0342 40.0619L71.3493 38.8172C71.1474 38.4497 70.9387 38.0742 70.6257 37.7966C70.2325 37.4479 69.7108 37.2842 69.1972 37.181C67.9816 36.9382 66.7265 36.98 65.5296 37.303C64.2495 37.6396 62.6056 38.8172 64.3605 39.8808Z" fill="#333333"/>
<path d="M72.2 43.263C72.4364 43.263 72.628 42.9033 72.628 42.4596C72.628 42.0159 72.4364 41.6562 72.2 41.6562C71.9636 41.6562 71.772 42.0159 71.772 42.4596C71.772 42.9033 71.9636 43.263 72.2 43.263Z" fill="#FDB797"/>
<path d="M62.4773 43.263C62.7137 43.263 62.9054 42.9033 62.9054 42.4596C62.9054 42.0159 62.7137 41.6562 62.4773 41.6562C62.241 41.6562 62.0493 42.0159 62.0493 42.4596C62.0493 42.9033 62.241 43.263 62.4773 43.263Z" fill="#FDB797"/>
<path d="M66.1824 48.3583C66.1824 48.3583 59.9653 47.3873 61.2481 57.0292L61.9958 59.7934L64.1359 59.7076C64.1359 59.7076 62.7475 56.4887 63.6008 54.3508C64.4542 52.213 66.1824 48.3583 66.1824 48.3583Z" fill="#F55F44"/>
<path d="M68.4937 48.3583C68.4937 48.3583 74.7108 47.3873 73.428 57.0292L72.6803 59.7934L70.5402 59.7076C70.5402 59.7076 71.9286 56.4887 71.0752 54.3508C70.2218 52.213 68.4937 48.3583 68.4937 48.3583Z" fill="#F55F44"/>
<path d="M63.1713 61.3144C63.8207 61.3144 64.3471 60.7866 64.3471 60.1355C64.3471 59.4844 63.8207 58.9565 63.1713 58.9565C62.522 58.9565 61.9956 59.4844 61.9956 60.1355C61.9956 60.7866 62.522 61.3144 63.1713 61.3144Z" fill="#FDB797"/>
<path d="M71.7187 61.3144C72.368 61.3144 72.8944 60.7866 72.8944 60.1355C72.8944 59.4844 72.368 58.9565 71.7187 58.9565C71.0694 58.9565 70.543 59.4844 70.543 60.1355C70.543 60.7866 71.0694 61.3144 71.7187 61.3144Z" fill="#FDB797"/>
<path d="M64.5143 76.2056H64.9276C65.2824 76.2056 65.6226 76.3469 65.8734 76.5984C66.1243 76.8499 66.2652 77.1911 66.2652 77.5468V77.9143H63.1714V77.5468C63.1714 77.3702 63.2062 77.1954 63.2737 77.0323C63.3413 76.8692 63.4403 76.7211 63.565 76.5965C63.6898 76.4719 63.8379 76.3732 64.0008 76.3061C64.1637 76.239 64.3382 76.2049 64.5143 76.2056Z" fill="#333333"/>
<path d="M69.7497 76.2056H70.163C70.5177 76.2056 70.8579 76.3469 71.1088 76.5984C71.3596 76.8499 71.5006 77.1911 71.5006 77.5468V77.9143H68.4067V77.5468C68.4067 77.3702 68.4415 77.1954 68.5091 77.0323C68.5766 76.8692 68.6756 76.7211 68.8004 76.5965C68.9252 76.4719 69.0733 76.3732 69.2362 76.3061C69.3991 76.239 69.5736 76.2049 69.7497 76.2056Z" fill="#333333"/>
<path opacity="0.1" d="M63.4924 53.4937C63.4924 53.4937 63.0643 55.7429 63.8134 56.7126L63.4924 53.4937Z" fill="black"/>
<path opacity="0.1" d="M71.1848 53.4937C71.1848 53.4937 71.6128 55.7429 70.8638 56.7126L71.1848 53.4937Z" fill="black"/>
<defs>
<linearGradient id="paint0_linear" x1="31.357" y1="92.7817" x2="31.357" y2="25" gradientUnits="userSpaceOnUse">
<stop stop-color="#808080" stop-opacity="0.25"/>
<stop offset="0.54" stop-color="#808080" stop-opacity="0.12"/>
<stop offset="1" stop-color="#808080" stop-opacity="0.1"/>
</linearGradient>
<linearGradient id="paint1_linear" x1="18758.6" y1="18365.3" x2="18758.6" y2="6529.88" gradientUnits="userSpaceOnUse">
<stop stop-color="#808080" stop-opacity="0.25"/>
<stop offset="0.54" stop-color="#808080" stop-opacity="0.12"/>
<stop offset="1" stop-color="#808080" stop-opacity="0.1"/>
</linearGradient>
<linearGradient id="paint2_linear" x1="75602" y1="54177" x2="75602" y2="22042.9" gradientUnits="userSpaceOnUse">
<stop stop-color="#808080" stop-opacity="0.25"/>
<stop offset="0.54" stop-color="#808080" stop-opacity="0.12"/>
<stop offset="1" stop-color="#808080" stop-opacity="0.1"/>
</linearGradient>
<linearGradient id="paint3_linear" x1="9163.2" y1="22091.3" x2="9163.2" y2="6333.33" gradientUnits="userSpaceOnUse">
<stop stop-color="#808080" stop-opacity="0.25"/>
<stop offset="0.54" stop-color="#808080" stop-opacity="0.12"/>
<stop offset="1" stop-color="#808080" stop-opacity="0.1"/>
</linearGradient>
</defs>
</svg>
