<svg width="50" height="50" viewBox="0 0 50 50" fill="none" xmlns="http://www.w3.org/2000/svg">
<path d="M14.8438 1.99986C14.4062 2.06236 14.0625 2.40611 14 2.84361L13 9.84361C12.9844 9.98033 12.9922 10.117 13.0312 10.2499C8.73828 13.7342 6 19.0467 6 24.9999C6 30.9374 8.72656 36.2342 13 39.7186C12.9688 39.8631 12.9688 40.0116 13 40.1561L14 47.1561C14.0859 47.7069 14.6055 48.0858 15.1562 47.9999C15.707 47.9139 16.0859 47.3944 16 46.8436L15.1875 41.2499C18.0547 42.9842 21.4102 43.9999 25 43.9999C28.5898 43.9999 31.9453 42.9842 34.8125 41.2499L34 46.8436C33.9141 47.3944 34.293 47.9139 34.8438 47.9999C35.3945 48.0858 35.9141 47.7069 36 47.1561L37 40.1561C37.0312 40.0116 37.0312 39.8631 37 39.7186C40.5352 36.8358 43 32.6991 43.75 27.9999H45C45.5508 27.9999 46 27.5506 46 26.9999V22.9999C46 22.4491 45.5508 21.9999 45 21.9999H43.75C42.9961 17.285 40.5234 13.1327 36.9688 10.2499C37.0078 10.117 37.0156 9.98033 37 9.84361L36 2.84361C35.9609 2.57798 35.8164 2.33579 35.6016 2.17954C35.3828 2.01939 35.1094 1.95689 34.8438 1.99986C34.5781 2.03892 34.3359 2.18345 34.1797 2.39829C34.0195 2.61704 33.957 2.89048 34 3.15611L34.8125 8.74986C31.9453 7.01548 28.5898 5.99986 25 5.99986C21.4102 5.99986 18.0547 7.01548 15.1875 8.74986L16 3.15611C16.0547 2.83579 15.9531 2.50767 15.7227 2.2772C15.4922 2.04673 15.1641 1.94517 14.8438 1.99986ZM25 7.99986C34.4023 7.99986 42 15.5975 42 24.9999C42 34.4022 34.4023 41.9999 25 41.9999C15.5977 41.9999 8 34.4022 8 24.9999C8 15.5975 15.5977 7.99986 25 7.99986ZM25 9.99986C16.7266 9.99986 10 16.7264 10 24.9999C10 33.2733 16.7266 39.9999 25 39.9999C33.2734 39.9999 40 33.2733 40 24.9999C40 16.7264 33.2734 9.99986 25 9.99986ZM24 12.0311C24.0156 12.5702 24.457 12.9999 25 12.9999C25.543 12.9999 25.9844 12.5702 26 12.0311C32.3984 12.5116 37.4883 17.6014 37.9688 23.9999C37.4297 24.0155 37 24.4569 37 24.9999C37 25.5428 37.4297 25.9842 37.9688 25.9999C37.4883 32.3983 32.3984 37.4881 26 37.9686C25.9844 37.4295 25.543 36.9999 25 36.9999C24.457 36.9999 24.0156 37.4295 24 37.9686C17.6016 37.4881 12.5117 32.3983 12.0312 25.9999C12.5703 25.9842 13 25.5428 13 24.9999C13 24.4569 12.5703 24.0155 12.0312 23.9999C12.5117 17.6014 17.6016 12.5116 24 12.0311ZM31.375 17.4999C31.1523 17.5233 30.9414 17.6249 30.7812 17.7811L25.5 23.0624C25.3398 23.0194 25.1719 22.9999 25 22.9999C23.8945 22.9999 23 23.8944 23 24.9999C23 26.1053 23.8945 26.9999 25 26.9999C25.1719 26.9999 25.3398 26.9803 25.5 26.9374L28.2812 29.7186C28.6797 30.117 29.3203 30.117 29.7188 29.7186C30.1172 29.3202 30.1172 28.6795 29.7188 28.2811L26.9375 25.4999C26.9805 25.3397 27 25.1717 27 24.9999C27 24.828 26.9805 24.66 26.9375 24.4999L32.2188 19.2186C32.543 18.9178 32.6289 18.4413 32.4336 18.0467C32.2422 17.6483 31.8086 17.4295 31.375 17.4999Z" fill="#644BEC"/>
</svg>
