<svg width="50" height="50" viewBox="0 0 50 50" fill="none" xmlns="http://www.w3.org/2000/svg">
<path d="M10 9C6.13281 9 3 12.1328 3 16V34C3 37.8672 6.13281 41 10 41H40C43.8672 41 47 37.8672 47 34V16C47 12.1328 43.8672 9 40 9H10ZM10 11H40C42.7578 11 45 13.2422 45 16V34C45 36.7578 42.7578 39 40 39H10C7.24219 39 5 36.7578 5 34V16C5 13.2422 7.24219 11 10 11ZM22.7812 17C17.8164 17 17.5625 21.6953 17.5625 25.0312C17.5625 27.5117 17.3906 33 22.7812 33C27.6602 33 28 28.1953 28 25.0312C28 21.6953 27.6602 17 22.7812 17ZM35.2188 17C30.2539 17 30 21.6641 30 25C30 27.4805 30.0195 33 35.2188 33C40.0977 33 40.4375 28.1953 40.4375 25.0312C40.4375 21.6953 40.0977 17 35.2188 17ZM13.5312 17.0625C13.1016 19.4609 11.3984 19.9766 9 20.0625V21.625H13.125V32.8438H15V17.0625H13.5312ZM22.7812 18.7188C26.6328 18.7188 26.0312 24.6016 26.0312 25.0312C26.0312 28.3672 25.5195 31.375 22.7812 31.375C19.1016 31.375 19.5312 25.6328 19.5312 25.0312C19.5312 24.6875 18.9297 18.7188 22.7812 18.7188ZM35.2188 18.7188C39.0703 18.7188 38.4688 24.6016 38.4688 25.0312C38.4688 28.3672 37.957 31.375 35.2188 31.375C31.5391 31.375 31.9688 25.6328 31.9688 25.0312C31.9688 24.6875 31.3672 18.7188 35.2188 18.7188Z" fill="#644BEC"/>
</svg>
