<svg width="1440" height="262" viewBox="0 0 1440 262" fill="none" xmlns="http://www.w3.org/2000/svg">
<path opacity="0.1" fill-rule="evenodd" clip-rule="evenodd" d="M0 0L57 39.3382C116 74.4752 240 136.051 360 145.481C480 155.584 600 107.09 720 107.09C840 107.09 960 155.584 1080 189.26C1200 222.936 1320 242.468 1380 252.571L1440 262H1380C1320 262 1200 262 1080 262C960 262 840 262 720 262C600 262 480 262 360 262C240 262 120 262 60 262H0V0Z" fill="#B0C1FF"/>
<path opacity="0.1" fill-rule="evenodd" clip-rule="evenodd" d="M0 74L57 115.465C116 152.501 240 217.406 360 227.345C480 237.994 600 186.879 720 186.879C840 186.879 960 226.504 1080 262C1213.5 262 1313.5 262 1380 262C1320 262 1200 262 1080 262C960 262 840 262 720 262C600 262 480 262 360 262C240 262 120 262 60 262H0V74Z" fill="#B0C1FF"/>
</svg>
