<svg width="1440" height="646" viewBox="0 0 1440 646" fill="none" xmlns="http://www.w3.org/2000/svg">
<mask id="mask0" mask-type="alpha" maskUnits="userSpaceOnUse" x="0" y="0" width="1440" height="646">
<rect width="1440" height="646" fill="#644BEC"/>
</mask>
<g mask="url(#mask0)">
<rect width="1440" height="646" fill="#E4F6FE"/>
</g>
<path d="M128.5 143.5C128.5 224.962 63.9899 340.5 6 340.5C-51.9899 340.5 -67 257.962 -67 176.5C-67 95.038 -19.9899 29 38 29C95.9899 29 128.5 62.038 128.5 143.5Z" fill="#FFF3E5"/>
<circle cx="79" cy="232" r="8" fill="#B0C1FF"/>
<circle cx="742" cy="72" r="8" fill="#B0C1FF"/>
<circle cx="480" cy="466" r="8" fill="#B0C1FF"/>
<path d="M706.969 425.973C706.439 425.981 705.934 426.199 705.565 426.579C705.196 426.959 704.993 427.47 705 428V502.766L646.105 532.211C645.87 532.329 645.661 532.491 645.489 532.69C645.317 532.888 645.185 533.119 645.102 533.368C645.019 533.617 644.986 533.88 645.005 534.142C645.023 534.404 645.093 534.66 645.211 534.895C645.328 535.13 645.491 535.339 645.689 535.511C645.888 535.684 646.118 535.815 646.367 535.898C646.617 535.981 646.88 536.014 647.142 535.996C647.404 535.977 647.659 535.907 647.894 535.789L707 506.235L766.105 535.789C766.34 535.907 766.596 535.977 766.858 535.996C767.12 536.014 767.383 535.981 767.633 535.898C767.882 535.815 768.112 535.684 768.311 535.512C768.509 535.339 768.672 535.13 768.789 534.895C768.907 534.66 768.977 534.404 768.995 534.142C769.014 533.88 768.981 533.617 768.898 533.368C768.815 533.118 768.683 532.888 768.511 532.69C768.339 532.491 768.129 532.329 767.894 532.211L709 502.766V428C709.004 427.733 708.953 427.467 708.853 427.219C708.752 426.971 708.602 426.746 708.413 426.557C708.223 426.368 707.998 426.219 707.75 426.119C707.502 426.018 707.236 425.969 706.969 425.973ZM717 426L723 437.664V444H727V437.664L733 426H728.586L725.117 433.41H724.891L721.414 426H717ZM667 482C666.469 482 665.961 482.211 665.586 482.586C665.211 482.961 665 483.47 665 484C665 484.531 665.211 485.039 665.586 485.414C665.961 485.79 666.469 486 667 486C667.53 486 668.039 485.79 668.414 485.414C668.789 485.039 669 484.531 669 484C669 483.47 668.789 482.961 668.414 482.586C668.039 482.211 667.53 482 667 482ZM747 482C746.469 482 745.961 482.211 745.586 482.586C745.211 482.961 745 483.47 745 484C745 484.531 745.211 485.039 745.586 485.414C745.961 485.79 746.469 486 747 486C747.53 486 748.039 485.79 748.414 485.414C748.789 485.039 749 484.531 749 484C749 483.47 748.789 482.961 748.414 482.586C748.039 482.211 747.53 482 747 482ZM675 486C674.469 486 673.961 486.211 673.586 486.586C673.211 486.961 673 487.47 673 488C673 488.531 673.211 489.039 673.586 489.414C673.961 489.79 674.469 490 675 490C675.53 490 676.039 489.79 676.414 489.414C676.789 489.039 677 488.531 677 488C677 487.47 676.789 486.961 676.414 486.586C676.039 486.211 675.53 486 675 486ZM739 486C738.469 486 737.961 486.211 737.586 486.586C737.211 486.961 737 487.47 737 488C737 488.531 737.211 489.039 737.586 489.414C737.961 489.79 738.469 490 739 490C739.53 490 740.039 489.79 740.414 489.414C740.789 489.039 741 488.531 741 488C741 487.47 740.789 486.961 740.414 486.586C740.039 486.211 739.53 486 739 486ZM683 490C682.469 490 681.961 490.211 681.586 490.586C681.211 490.961 681 491.47 681 492C681 492.531 681.211 493.039 681.586 493.414C681.961 493.79 682.469 494 683 494C683.53 494 684.039 493.79 684.414 493.414C684.789 493.039 685 492.531 685 492C685 491.47 684.789 490.961 684.414 490.586C684.039 490.211 683.53 490 683 490ZM731 490C730.469 490 729.961 490.211 729.586 490.586C729.211 490.961 729 491.47 729 492C729 492.531 729.211 493.039 729.586 493.414C729.961 493.79 730.469 494 731 494C731.53 494 732.039 493.79 732.414 493.414C732.789 493.039 733 492.531 733 492C733 491.47 732.789 490.961 732.414 490.586C732.039 490.211 731.53 490 731 490ZM691 494C690.469 494 689.961 494.211 689.586 494.586C689.211 494.961 689 495.47 689 496C689 496.531 689.211 497.039 689.586 497.414C689.961 497.79 690.469 498 691 498C691.53 498 692.039 497.79 692.414 497.414C692.789 497.039 693 496.531 693 496C693 495.47 692.789 494.961 692.414 494.586C692.039 494.211 691.53 494 691 494ZM723 494C722.469 494 721.961 494.211 721.586 494.586C721.211 494.961 721 495.47 721 496C721 496.531 721.211 497.039 721.586 497.414C721.961 497.79 722.469 498 723 498C723.53 498 724.039 497.79 724.414 497.414C724.789 497.039 725 496.531 725 496C725 495.47 724.789 494.961 724.414 494.586C724.039 494.211 723.53 494 723 494ZM699 498C698.469 498 697.961 498.211 697.586 498.586C697.211 498.961 697 499.47 697 500C697 500.531 697.211 501.039 697.586 501.414C697.961 501.79 698.469 502 699 502C699.53 502 700.039 501.79 700.414 501.414C700.789 501.039 701 500.531 701 500C701 499.47 700.789 498.961 700.414 498.586C700.039 498.211 699.53 498 699 498ZM715 498C714.469 498 713.961 498.211 713.586 498.586C713.211 498.961 713 499.47 713 500C713 500.531 713.211 501.039 713.586 501.414C713.961 501.79 714.469 502 715 502C715.53 502 716.039 501.79 716.414 501.414C716.789 501.039 717 500.531 717 500C717 499.47 716.789 498.961 716.414 498.586C716.039 498.211 715.53 498 715 498ZM645 500V504H653.18L645 515.172V518H659V514H650.812L659 502.817V500H645ZM753.023 500L758.289 508.934L753 518H757.359L760.887 511.836H761.113L764.625 518H768.941L763.523 508.969L769 500H764.707L761.211 506.293H761L757.457 500H753.023ZM707 512C706.469 512 705.961 512.211 705.586 512.586C705.211 512.961 705 513.47 705 514C705 514.531 705.211 515.039 705.586 515.414C705.961 515.79 706.469 516 707 516C707.53 516 708.039 515.79 708.414 515.414C708.789 515.039 709 514.531 709 514C709 513.47 708.789 512.961 708.414 512.586C708.039 512.211 707.53 512 707 512ZM707 520C706.469 520 705.961 520.211 705.586 520.586C705.211 520.961 705 521.47 705 522C705 522.531 705.211 523.039 705.586 523.414C705.961 523.79 706.469 524 707 524C707.53 524 708.039 523.79 708.414 523.414C708.789 523.039 709 522.531 709 522C709 521.47 708.789 520.961 708.414 520.586C708.039 520.211 707.53 520 707 520ZM707 528C706.469 528 705.961 528.211 705.586 528.586C705.211 528.961 705 529.47 705 530C705 530.531 705.211 531.039 705.586 531.414C705.961 531.79 706.469 532 707 532C707.53 532 708.039 531.79 708.414 531.414C708.789 531.039 709 530.531 709 530C709 529.47 708.789 528.961 708.414 528.586C708.039 528.211 707.53 528 707 528ZM707 536C706.469 536 705.961 536.211 705.586 536.586C705.211 536.961 705 537.47 705 538C705 538.531 705.211 539.039 705.586 539.414C705.961 539.79 706.469 540 707 540C707.53 540 708.039 539.79 708.414 539.414C708.789 539.039 709 538.531 709 538C709 537.47 708.789 536.961 708.414 536.586C708.039 536.211 707.53 536 707 536ZM707 544C706.469 544 705.961 544.211 705.586 544.586C705.211 544.961 705 545.47 705 546C705 546.531 705.211 547.039 705.586 547.414C705.961 547.79 706.469 548 707 548C707.53 548 708.039 547.79 708.414 547.414C708.789 547.039 709 546.531 709 546C709 545.47 708.789 544.961 708.414 544.586C708.039 544.211 707.53 544 707 544Z" fill="#C5EAF9"/>
<path d="M1298.72 356.738C1336.22 425.709 1422.93 490.312 1484.39 456.904C1545.84 423.496 1523.76 344.967 1486.27 275.997C1448.78 207.026 1399.24 162.152 1337.78 195.561C1276.32 228.969 1261.23 287.768 1298.72 356.738Z" fill="#FFF6E5"/>
<circle r="8" transform="matrix(-1 0 0 1 1379 405)" fill="#B0C1FF"/>
<circle r="8" transform="matrix(-1 0 0 1 1343 269)" fill="#B0C1FF"/>
<path d="M1281.33 46.6403C1282.79 44.3642 1286.16 44.5281 1287.39 46.9345L1306.63 84.5777C1307.16 85.5974 1307.14 86.8077 1306.61 87.8181L1287.37 123.872C1286.13 126.205 1282.84 126.368 1281.37 124.169L1257.28 88.1079C1256.5 86.9516 1256.49 85.4476 1257.24 84.2763L1281.33 46.6403Z" stroke="#C5EAF9"/>
<path d="M1252.99 46.3708C1254.66 43.7695 1258.52 43.9567 1259.92 46.7069L1279.16 84.3501C1279.76 85.5156 1279.75 86.8987 1279.13 88.0534L1259.89 124.107C1258.47 126.774 1254.72 126.96 1253.04 124.447L1228.94 88.3857C1228.06 87.0642 1228.04 85.3453 1228.9 84.0067L1252.99 46.3708Z" fill="#C5EAF9"/>
</svg>
