<svg width="40" height="40" viewBox="0 0 40 40" fill="none" xmlns="http://www.w3.org/2000/svg">
<g clip-path="url(#clip0)">
<path d="M2.3998 0C2.10918 0.034375 1.8623 0.225 1.75293 0.49375C1.64356 0.765625 1.69043 1.075 1.8748 1.3C1.8748 1.3 11.8029 13.3594 17.1998 19.975C11.9936 26.1156 7.01543 32.0469 1.8748 38.2C1.74668 38.3438 1.6748 38.5313 1.6748 38.725C1.6748 39.0531 1.81856 39.275 1.9498 39.425C2.08106 39.575 2.2373 39.6719 2.3748 39.75C2.6498 39.9063 2.91543 40 3.2748 40H33.7498C34.1404 40.0063 34.4779 39.7313 34.5498 39.35L36.7748 27.6C36.8186 27.3906 36.7779 27.1719 36.6592 26.9938C36.5436 26.8156 36.3592 26.6906 36.1498 26.65C36.1498 26.65 35.5436 26.525 34.8498 26.75C34.1686 26.9719 33.3779 27.6344 33.0248 28.775H32.9998C32.9717 28.8563 32.8248 29.1063 32.6998 29.45C32.6904 29.475 32.6842 29.4719 32.6748 29.5C31.6561 31.8563 29.9967 32.8719 27.2998 32.8C27.2904 32.8 27.2842 32.8 27.2748 32.8H13.4498L25.0248 18.75C25.2592 18.4563 25.2592 18.0438 25.0248 17.75C21.5811 13.2563 18.4873 9.175 15.1498 4.8C16.7154 4.8 22.2154 4.8 25.5248 4.725C25.5342 4.725 25.5404 4.725 25.5498 4.725C27.7967 4.72813 28.8279 5.1 29.4498 5.7C30.0748 6.30313 30.4436 7.35 30.9248 8.95C30.9248 8.95938 30.9248 8.96563 30.9248 8.975C30.9498 9.05 30.9654 9.3 31.0498 9.6C31.0623 9.65 31.0561 9.64688 31.0748 9.7H31.0998C31.1623 9.9625 31.2686 10.2719 31.5498 10.5C31.8654 10.7563 32.2217 10.8 32.5498 10.8H33.5998C34.0404 10.8 34.3998 10.4406 34.3998 10V0.8C34.3998 0.359375 34.0404 0 33.5998 0H2.4748C2.4498 0 2.4248 0 2.3998 0ZM4.1748 1.6H32.7998V9.2H32.5998C32.5998 9.19063 32.5998 9.18438 32.5998 9.175C32.5717 9.09063 32.5686 8.86875 32.4498 8.5C32.4467 8.49063 32.4529 8.48438 32.4498 8.475C31.9748 6.88438 31.6029 5.54063 30.5748 4.55C29.5404 3.55313 27.9748 3.125 25.5248 3.125C25.5154 3.125 25.5092 3.125 25.4998 3.125C22.0029 3.20312 15.3592 3.2 14.3998 3.2C13.9186 3.2 13.8061 3.36875 13.6248 3.5C13.4436 3.63125 13.2842 3.73125 13.1248 4.05C12.9936 4.31875 13.0248 4.63438 13.1998 4.875C16.6623 9.41563 19.8623 13.6125 23.3748 18.2L11.1498 33.1C10.9592 33.3375 10.9217 33.6594 11.0467 33.9344C11.1748 34.2094 11.4467 34.3906 11.7498 34.4H27.2498C27.2592 34.4 27.2654 34.4 27.2748 34.4C30.4623 34.4781 32.9561 32.95 34.1748 30.075C34.1842 30.0594 34.1936 30.0406 34.1998 30.025C34.2279 29.9375 34.3936 29.6906 34.5248 29.3C34.5248 29.2906 34.5248 29.2844 34.5248 29.275C34.6561 28.825 34.8248 28.6094 34.9998 28.475L33.0998 38.4H3.7998C8.83106 32.3813 13.7279 26.5625 18.8498 20.525C19.0967 20.2281 19.0967 19.7969 18.8498 19.5C13.9248 13.4563 5.43418 3.12813 4.1748 1.6Z" fill="#644BEC"/>
</g>
<defs>
<clipPath id="clip0">
<rect width="40" height="40" fill="white"/>
</clipPath>
</defs>
</svg>
