<svg width="50" height="50" viewBox="0 0 50 50" fill="none" xmlns="http://www.w3.org/2000/svg">
<g clip-path="url(#clip0)">
<path d="M25.0312 5.99993C24.7617 5.99212 24.5 6.09368 24.3047 6.28118C24.1094 6.46868 24 6.7304 24 6.99993V14.5273C23.9844 14.6327 23.9844 14.7421 24 14.8476V23.5859L15 32.5859L10.707 28.2929C10.5156 28.1015 10.2539 27.996 9.98435 27.9999C9.72264 28.0038 9.47654 28.1093 9.29295 28.2929L0.292948 37.2929C0.031229 37.5429 -0.0742398 37.9179 0.0195103 38.2656C0.109354 38.6171 0.382792 38.8906 0.734354 38.9804C1.08201 39.0742 1.45701 38.9687 1.70701 38.707L9.99998 30.414L13.5859 33.9999L0.292948 47.2929C0.031229 47.5429 -0.0742398 47.9179 0.0195103 48.2656C0.109354 48.6171 0.382792 48.8906 0.734354 48.9804C1.08201 49.0742 1.45701 48.9687 1.70701 48.707L12.5859 37.8281L12.5508 37.8945L17.1054 40.1718L21 37.2499L25 40.2499L29 37.2499L32.8945 40.1718L37.4492 37.8945L37.414 37.8281L48.2929 48.707C48.5429 48.9687 48.9179 49.0742 49.2656 48.9804C49.6172 48.8906 49.8906 48.6171 49.9804 48.2656C50.0742 47.9179 49.9687 47.5429 49.707 47.2929L36.414 33.9999L40 30.414L48.2929 38.707C48.5429 38.9687 48.9179 39.0742 49.2656 38.9804C49.6172 38.8906 49.8906 38.6171 49.9804 38.2656C50.0742 37.9179 49.9687 37.5429 49.707 37.2929L40.707 28.2929C40.5156 28.1015 40.2539 27.996 39.9844 27.9999C39.7226 28.0038 39.4765 28.1093 39.2929 28.2929L35 32.5859L26 23.5859V15.3632L34.3672 12.0663C34.7422 11.9179 34.9883 11.5624 35 11.164C35.0117 10.7617 34.7812 10.3945 34.4179 10.2265L25.4179 6.09368C25.2969 6.03509 25.164 6.00384 25.0312 5.99993ZM26 8.56243L31.4531 11.0624L26 13.2148V8.56243ZM25 25.414L34.1523 34.5624C34.2265 34.6796 34.3242 34.7773 34.4375 34.8554L35.9804 36.3906L33.1054 37.8281L29 34.7499L25 37.7499L21 34.7499L16.8945 37.8281L14.0195 36.3906L15.5625 34.8476C15.6797 34.7734 15.7773 34.6757 15.8554 34.5624L25 25.414Z" fill="#644BEC"/>
</g>
<defs>
<clipPath id="clip0">
<rect width="50" height="50" fill="white"/>
</clipPath>
</defs>
</svg>
