<svg width="730" height="764" viewBox="0 0 730 764" fill="none" xmlns="http://www.w3.org/2000/svg">
<rect width="730" height="764" fill="#FFF6E5"/>
<path opacity="0.2" d="M729.138 465.14C727.681 462.864 724.304 463.028 723.074 465.434L682.717 544.395C682.196 545.415 682.206 546.625 682.745 547.635L723.098 623.27C724.343 625.603 727.627 625.766 729.096 623.567L779.643 547.925C780.415 546.769 780.43 545.265 779.68 544.093L729.138 465.14Z" stroke="#FC8E2D"/>
<path opacity="0.2" d="M706.536 465.14C705.079 462.864 701.702 463.028 700.472 465.434L660.115 544.395C659.594 545.415 659.605 546.625 660.144 547.635L700.496 623.27C701.741 625.603 705.025 625.766 706.494 623.567L757.041 547.925C757.814 546.769 757.828 545.265 757.079 544.093L706.536 465.14Z" stroke="#FC8E2D"/>
<g opacity="0.2">
<path d="M70 667C66.1328 667 63 670.133 63 674V692C63 695.867 66.1328 699 70 699H100C103.867 699 107 695.867 107 692V674C107 670.133 103.867 667 100 667H70ZM70 669H100C102.758 669 105 671.242 105 674V692C105 694.758 102.758 697 100 697H70C67.2422 697 65 694.758 65 692V674C65 671.242 67.2422 669 70 669ZM82.7812 675C77.8164 675 77.5625 679.695 77.5625 683.031C77.5625 685.512 77.3906 691 82.7812 691C87.6602 691 88 686.195 88 683.031C88 679.695 87.6602 675 82.7812 675ZM95.2188 675C90.2539 675 90 679.664 90 683C90 685.48 90.0195 691 95.2188 691C100.098 691 100.438 686.195 100.438 683.031C100.438 679.695 100.098 675 95.2188 675ZM73.5312 675.062C73.1016 677.461 71.3984 677.977 69 678.062V679.625H73.125V690.844H75V675.062H73.5312ZM82.7812 676.719C86.6328 676.719 86.0312 682.602 86.0312 683.031C86.0312 686.367 85.5195 689.375 82.7812 689.375C79.1016 689.375 79.5312 683.633 79.5312 683.031C79.5312 682.688 78.9297 676.719 82.7812 676.719ZM95.2188 676.719C99.0703 676.719 98.4688 682.602 98.4688 683.031C98.4688 686.367 97.957 689.375 95.2188 689.375C91.5391 689.375 91.9688 683.633 91.9688 683.031C91.9688 682.688 91.3672 676.719 95.2188 676.719Z" fill="#FC8E2D"/>
</g>
<g opacity="0.2" clip-path="url(#clip0)">
<path d="M542.938 69.9686C542.895 69.9764 542.852 69.9881 542.812 69.9998C542.652 70.035 542.5 70.1092 542.375 70.2186C542.363 70.2225 542.355 70.242 542.344 70.2498C542.309 70.2772 542.277 70.3084 542.25 70.3436L521.25 94.3436C521.227 94.3748 521.207 94.4061 521.188 94.4373C521.18 94.449 521.164 94.4569 521.156 94.4686C521.133 94.5076 521.113 94.5506 521.094 94.5936C521.066 94.6522 521.047 94.7186 521.031 94.7811C521.004 94.9139 521.004 95.0545 521.031 95.1873C521.047 95.285 521.078 95.3787 521.125 95.4686C521.137 95.4881 521.145 95.5115 521.156 95.5311C521.184 95.574 521.215 95.617 521.25 95.6561C521.301 95.7108 521.344 95.7694 521.406 95.8123L542.25 119.656C542.27 119.68 542.289 119.699 542.312 119.719C542.32 119.73 542.332 119.738 542.344 119.75C542.355 119.762 542.363 119.769 542.375 119.781C542.621 120.012 542.969 120.101 543.297 120.019C543.625 119.937 543.891 119.695 544 119.375L564.562 95.8748L555.875 99.2811L549.125 101.937C549.066 101.961 549 101.957 548.938 101.969L543.375 117.906L524.75 96.6248L548.531 101.969C548.602 101.984 548.676 102 548.75 102C548.812 102 548.875 101.98 548.938 101.969L548.531 99.9373L523.844 94.4061L543.25 72.2498L548.531 99.9373L548.656 99.9686L563.625 94.0623C563.672 94.0428 563.734 94.0428 563.781 94.0311L564.312 93.8436L543.906 70.5311C543.727 70.1639 543.344 69.9412 542.938 69.9686Z" fill="#FC8E2D"/>
</g>
<defs>
<clipPath id="clip0">
<rect width="50" height="50" fill="white" transform="translate(518 70)"/>
</clipPath>
</defs>
</svg>
