<svg width="107" height="32" viewBox="0 0 107 32" fill="none" xmlns="http://www.w3.org/2000/svg">
<path d="M49.1531 15.6372L49.5386 13.7674H48.6024C45.1328 13.7674 43.811 11.8442 43.811 9.92098C43.811 7.0896 46.1792 3.77741 50.8604 3.77741H51.6314L52.072 1.80078H57.1387L56.7532 3.77741H57.5793C59.4518 3.77741 62.4257 4.20479 62.4257 7.62382C62.4257 10.6689 60.2228 13.7674 55.6518 13.7674H54.6604L54.2749 15.6372H49.1531ZM55.3764 10.8292C56.7532 10.8292 57.5793 9.33334 57.5793 8.21147C57.5793 7.35671 57.0837 6.71564 56.2025 6.71564H55.9271L55.0459 10.8292H55.3764ZM50.9705 6.71564C49.5937 6.71564 48.7125 8.10462 48.7125 9.33334C48.7125 10.0812 49.1531 10.8292 50.0894 10.8292H50.3647L51.2459 6.71564H50.9705Z" fill="#1F2D48"/>
<path d="M84.3452 2.70898L82.8032 10.0813L87.7598 2.70898H93.7627L91.0641 15.6372H85.9424L87.4293 8.37175L82.4728 15.6372H76.5249L79.2235 2.70898H84.3452Z" fill="#1F2D48"/>
<path d="M77.9558 2.70898L77.1848 6.50197H72.6689L70.7413 15.6372H65.6747L67.5472 6.50197H63.0312L63.8573 2.70898H77.9558Z" fill="#1F2D48"/>
<path d="M32.9069 2.70898L33.1272 9.76073H33.2373L36.3765 2.70898H43.9214L41.2228 15.6372H36.6518L38.7996 5.48694L33.8982 15.6372H29.6576L29.1069 5.48694L26.9591 15.6372H22.6084L25.3069 2.70898H32.9069Z" fill="#1F2D48"/>
<path d="M0.385508 25.2554C0.826088 25.2554 1.32174 25.2554 1.76232 25.2554C2.14783 25.202 2.53334 25.1486 2.8087 25.0952C3.8 24.7746 4.07537 24.3472 4.29566 23.3856C5.45218 18.2037 6.44348 12.9683 7.60001 7.73289C8.15073 5.3823 8.53624 3.56594 9.03189 2.28381C9.30725 1.58932 9.63769 1.05509 9.96812 0.681135C10.7942 -0.227045 12.116 -0.227045 12.942 0.681135C13.8232 1.58932 14.3189 3.35225 14.8696 5.54257C16.4116 12.6477 17.9536 19.8063 19.4957 26.9649C19.6609 27.6594 19.8261 28.2471 19.9913 28.7813C20.2116 29.4224 20.3218 29.6895 20.6522 29.6895C20.7073 29.6895 20.7623 29.6361 20.8174 29.5826C21.0377 29.3689 21.3131 28.5676 21.5884 27.7663C21.7536 27.2855 21.8638 26.8047 21.9739 26.591C22.6348 25.202 24.1768 25.2554 25.6087 25.2554H97.3131L96.9276 27.1252H26.2696C24.1768 27.1252 24.0116 27.2321 23.3507 29.1553C23.0754 29.8497 22.8 30.5977 22.3044 31.1853C21.9189 31.6127 21.4232 31.9866 20.6522 31.9866C18.2841 31.9332 17.7884 29.0484 17.4029 27.3923C15.916 20.6077 14.4841 13.8765 13.0522 7.09182C12.7768 6.07679 12.5565 5.11519 12.2812 4.15359C12.0058 3.08514 11.7855 2.55092 11.4 2.55092C11.0145 2.55092 10.7942 3.03172 10.5739 4.15359L6.55363 22.5843C6.33334 23.7062 6.11305 24.8815 5.34203 25.8431C4.51595 26.7513 3.30435 27.3923 1.15652 27.3389C1.04638 27.3389 0.110145 27.3389 0 27.3389L0.385508 25.2554Z" fill="#1F2D48"/>
<path d="M98.7451 28.1941L99.406 24.3477L106.951 26.2174L98.7451 28.1941Z" fill="#1F2D48"/>
</svg>
