<svg width="25" height="25" viewBox="0 0 25 25" fill="none" xmlns="http://www.w3.org/2000/svg">
<path d="M19.1774 2.40138C19.0975 2.34111 19.0151 2.28231 18.9298 2.22488C18.7033 2.07134 18.3937 2.12933 18.2388 2.3543C18.0833 2.57876 18.1397 2.8869 18.3647 3.04285C18.4325 3.08991 18.4994 3.13747 18.5654 3.18553C21.2922 5.23306 20.4347 9.24289 20.099 10.4455C19.0883 14.0664 16.6655 14.0162 16.5792 14.0179C16.5451 14.0147 16.5105 14.0187 16.4793 14.0228C16.4456 14.026 15.6832 14.1262 15.0408 13.5675C14.4067 13.0162 14.0782 11.9635 14.0902 10.5237C14.1202 6.92796 16.7413 5.58746 16.8529 5.53219C16.9807 5.46929 17.0758 5.35432 17.113 5.21748C17.1502 5.08069 17.1275 4.93415 17.0496 4.81579L16.0636 3.31916C15.9259 3.11015 15.6515 3.03617 15.4263 3.14522C14.9 3.40149 14.2631 3.8918 13.746 4.32984C13.8919 3.44295 14.1263 2.75258 14.1298 2.74243C14.1823 2.5888 14.1564 2.41852 14.059 2.28786L12.5779 0.29095C12.3918 0.0393702 11.9696 0.0358425 11.7793 0.284278L10.2651 2.25616C10.1655 2.38517 10.1368 2.55499 10.1867 2.70948C10.19 2.71969 10.4129 3.41388 10.5439 4.30308C10.0343 3.85647 9.40559 3.35558 8.88368 3.09055C8.65986 2.97771 8.38528 3.04715 8.2436 3.25382L7.23274 4.73377C7.15228 4.85132 7.12667 4.99792 7.16207 5.13578C7.19799 5.27369 7.2911 5.38977 7.41881 5.45429C7.44598 5.4681 10.1266 6.86986 10.0963 10.4903C10.0843 11.9301 9.73816 12.9771 9.09494 13.5178C8.4429 14.0661 7.68129 13.9522 7.65304 13.9495C7.62187 13.9444 7.58582 13.9398 7.55317 13.9424C7.46579 13.9538 5.03974 13.9505 4.08967 10.3117C3.77409 9.10369 2.98373 5.08153 5.74345 3.07938C5.81115 3.0315 5.87979 2.98461 5.94893 2.93818C6.17642 2.78602 6.23748 2.47936 6.08534 2.25229C5.93413 2.02671 5.62752 1.96357 5.39614 2.11185C5.31081 2.16734 5.22796 2.2243 5.148 2.28225C2.01306 4.49541 0.131451 8.06692 0.0994643 11.8952C0.0446112 18.4602 5.37494 23.8464 11.9814 23.9016C18.5878 23.9568 24.0074 18.6604 24.0622 12.0954C24.0942 8.26858 22.2735 4.66711 19.1774 2.40138Z" fill="#644BEC"/>
</svg>
