<svg width="24" height="24" viewBox="0 0 24 24" fill="none" xmlns="http://www.w3.org/2000/svg">
<path d="M9.44368 11.4089L4.48332 4.35571L1.99646 11.4089H9.44368Z" fill="#F4900C"/>
<path d="M11.9585 2.82324L7.57339 12.0398H16.3429L11.9585 2.82324Z" fill="#F4900C"/>
<path d="M14.5563 11.4089L19.5167 4.35571L22.0035 11.4089H14.5563Z" fill="#F4900C"/>
<path d="M19.1284 10.0066L15.9333 1.32716L12.0046 10.0074L11.9999 10.0096L11.9952 10.0066L8.06648 1.32642L4.87138 10.0066C2.7774 6.7653 0.8284 4.68899 0.8284 4.68899C0.8284 4.68899 1.97762 14.1429 1.97762 23.2561H22.0222C22.0222 14.1429 23.1714 4.68899 23.1714 4.68899C23.1714 4.68899 21.2224 6.7653 19.1284 10.0066Z" fill="#FFCC4D"/>
<path d="M11.9713 17.8165C13.3322 17.8165 14.4355 16.5881 14.4355 15.0728C14.4355 13.5576 13.3322 12.3292 11.9713 12.3292C10.6104 12.3292 9.50717 13.5576 9.50717 15.0728C9.50717 16.5881 10.6104 17.8165 11.9713 17.8165Z" fill="#5C913B"/>
<path d="M17.6545 16.8672C18.5446 16.8672 19.2661 16.0638 19.2661 15.0728C19.2661 14.0818 18.5446 13.2784 17.6545 13.2784C16.7645 13.2784 16.043 14.0818 16.043 15.0728C16.043 16.0638 16.7645 16.8672 17.6545 16.8672Z" fill="#981CEB"/>
<path d="M21.9233 16.5502C22.6562 16.5502 23.2503 15.8888 23.2503 15.0728C23.2503 14.2568 22.6562 13.5953 21.9233 13.5953C21.1905 13.5953 20.5964 14.2568 20.5964 15.0728C20.5964 15.8888 21.1905 16.5502 21.9233 16.5502Z" fill="#DD2E44"/>
<path d="M6.28733 16.8672C7.17738 16.8672 7.89891 16.0638 7.89891 15.0728C7.89891 14.0818 7.17738 13.2784 6.28733 13.2784C5.39728 13.2784 4.67575 14.0818 4.67575 15.0728C4.67575 16.0638 5.39728 16.8672 6.28733 16.8672Z" fill="#981CEB"/>
<path d="M2.01854 16.5502C2.75139 16.5502 3.34549 15.8888 3.34549 15.0728C3.34549 14.2568 2.75139 13.5953 2.01854 13.5953C1.28568 13.5953 0.691589 14.2568 0.691589 15.0728C0.691589 15.8888 1.28568 16.5502 2.01854 16.5502Z" fill="#DD2E44"/>
<path d="M22.0222 24H1.97763C1.60881 24 1.30948 23.6675 1.30948 23.2561C1.30948 22.8447 1.60881 22.5122 1.97763 22.5122H22.0222C22.3917 22.5122 22.6903 22.8447 22.6903 23.2561C22.6903 23.6675 22.3917 24 22.0222 24ZM22.0222 21.4067H1.97763C1.60881 21.4067 1.30948 21.0742 1.30948 20.6628C1.30948 20.2514 1.60881 19.9188 1.97763 19.9188H22.0222C22.3917 19.9188 22.6903 20.2514 22.6903 20.6628C22.6903 21.0742 22.3917 21.4067 22.0222 21.4067Z" fill="#FFAC33"/>
<path d="M0.940089 5.73576C1.45929 5.73576 1.88018 5.26713 1.88018 4.68905C1.88018 4.11096 1.45929 3.64233 0.940089 3.64233C0.420892 3.64233 0 4.11096 0 4.68905C0 5.26713 0.420892 5.73576 0.940089 5.73576Z" fill="#FFCC4D"/>
<path d="M4.48327 5.24253C4.92312 5.24253 5.2797 4.84551 5.2797 4.35576C5.2797 3.86601 4.92312 3.46899 4.48327 3.46899C4.04341 3.46899 3.68683 3.86601 3.68683 4.35576C3.68683 4.84551 4.04341 5.24253 4.48327 5.24253Z" fill="#F4900C"/>
<path d="M8.06659 2.65435C8.7249 2.65435 9.25857 2.06015 9.25857 1.32718C9.25857 0.594197 8.7249 0 8.06659 0C7.40827 0 6.8746 0.594197 6.8746 1.32718C6.8746 2.06015 7.40827 2.65435 8.06659 2.65435Z" fill="#FFCC4D"/>
<path d="M23.06 5.73576C23.5792 5.73576 24.0001 5.26713 24.0001 4.68905C24.0001 4.11096 23.5792 3.64233 23.06 3.64233C22.5408 3.64233 22.1199 4.11096 22.1199 4.68905C22.1199 5.26713 22.5408 5.73576 23.06 5.73576Z" fill="#FFCC4D"/>
<path d="M19.5167 5.24253C19.9566 5.24253 20.3131 4.84551 20.3131 4.35576C20.3131 3.86601 19.9566 3.46899 19.5167 3.46899C19.0769 3.46899 18.7203 3.86601 18.7203 4.35576C18.7203 4.84551 19.0769 5.24253 19.5167 5.24253Z" fill="#F4900C"/>
<path d="M15.9334 2.65435C16.5917 2.65435 17.1254 2.06015 17.1254 1.32718C17.1254 0.594197 16.5917 0 15.9334 0C15.2751 0 14.7414 0.594197 14.7414 1.32718C14.7414 2.06015 15.2751 2.65435 15.9334 2.65435Z" fill="#FFCC4D"/>
<path d="M11.9586 4.15044C12.617 4.15044 13.1506 3.55625 13.1506 2.82327C13.1506 2.09029 12.617 1.49609 11.9586 1.49609C11.3003 1.49609 10.7667 2.09029 10.7667 2.82327C10.7667 3.55625 11.3003 4.15044 11.9586 4.15044Z" fill="#F4900C"/>
</svg>
