<?xml version="1.0" encoding="utf-8"?>
<!-- Generator: Adobe Illustrator 23.0.2, SVG Export Plug-In . SVG Version: 6.00 Build 0)  -->
<svg version="1.1" id="Слой_1" xmlns="http://www.w3.org/2000/svg" xmlns:xlink="http://www.w3.org/1999/xlink" x="0px" y="0px"
	 viewBox="0 0 1440 665" style="enable-background:new 0 0 1440 665;" xml:space="preserve">
<style type="text/css">
	.st0{fill:#644BEC;filter:url(#Adobe_OpacityMaskFilter);}
	.st1{mask:url(#mask0_1_);}
	.st2{fill:#F0EDFE;}
	.st3{opacity:0.2;fill:none;stroke:#644BEC;stroke-width:5;enable-background:new    ;}
</style>
<defs>
	<filter id="Adobe_OpacityMaskFilter" filterUnits="userSpaceOnUse" x="-411" y="0" width="2256.2" height="916.6">
		<feColorMatrix  type="matrix" values="1 0 0 0 0  0 1 0 0 0  0 0 1 0 0  0 0 0 1 0"/>
	</filter>
</defs>
<mask maskUnits="userSpaceOnUse" x="-411" y="0" width="2256.2" height="916.6" id="mask0_1_">
	<rect class="st0" width="1440" height="665"/>
</mask>
<g class="st1">
	<rect class="st2" width="1440" height="665"/>
	<path class="st3" d="M324.2,699.4c-105.4-218.4-370.9-360-359.9-90.6c11,269.4,139.1,174.3,173.1,206.9
		c-151.6-41.1-424.8-173.7-305-375.1c119.7-201.4-48.5-122-147.6-57.1l299-309.6"/>
	<path class="st3" d="M183.4,827.1c209-482-330.7-668.6-319.9-399.1S9.5,881.6,43.5,914.2c-151.7-41.1-521-24.4-401-225.9
		s47.4-271.2-51.8-206.2l341.7-302"/>
	<path class="st3" d="M1073.4,648l247.5,183.7 M1073.4,648l91.8-3.3 M1073.4,648l136.5-186.9 M1320.9,831.7l29.1-94.1 M1320.9,831.7
		l-155.7-187 M1350,737.6l33.9-98.4 M1350,737.6l-184.8-92.9 M1383.9,639.2l58.1,167l159.8-237.9 M1383.9,639.2l-218.7,5.5
		 M1383.9,639.2l217.9-71 M1383.9,639.2l132.6-197.7 M1383.9,639.2l-174-178.1 M1601.7,568.3l-39-275.9 M1601.7,568.3l237.9-53.2
		l-277-222.7 M1601.7,568.3l-85.2-126.7 M1562.7,292.3l-46.2,149.2 M1562.7,292.3L1379.5,347l-169.7,114.1 M1165.2,644.7l44.7-183.6
		 M1516.5,441.5l-306.6,19.6"/>
</g>
</svg>
