<svg width="11" height="8" viewBox="0 0 11 8" fill="none" xmlns="http://www.w3.org/2000/svg">
<path d="M4.24995 7.74999C4.0187 7.75098 3.79443 7.67083 3.6162 7.52349L0.209449 4.59399C0.135757 4.52987 0.0898097 4.43966 0.0812769 4.34235C0.072744 4.24504 0.102291 4.14821 0.163699 4.07224L0.9547 3.10399C0.98643 3.0651 1.02565 3.03297 1.07002 3.00952C1.1144 2.98606 1.16303 2.97175 1.21304 2.96744C1.26305 2.96312 1.31342 2.96889 1.36115 2.98441C1.40889 2.99992 1.45303 3.02486 1.49095 3.05774L4.14995 5.36624L8.42495 0.673491C8.49146 0.600321 8.58417 0.55638 8.68292 0.55123C8.78166 0.546079 8.87844 0.580137 8.9522 0.645991L9.8842 1.48249C9.92099 1.51548 9.95089 1.55541 9.97219 1.59999C9.99349 1.64458 10.0058 1.69293 10.0083 1.74227C10.0109 1.79162 10.0037 1.84098 9.98708 1.88753C9.9705 1.93407 9.94488 1.97688 9.9117 2.01349L4.99495 7.41824C4.90067 7.52231 4.78572 7.60557 4.65744 7.66269C4.52916 7.71982 4.39037 7.74955 4.24995 7.74999Z" fill="white"/>
</svg>
