<svg width="1440" height="744" viewBox="0 0 1440 744" fill="none" xmlns="http://www.w3.org/2000/svg">
<rect width="1440" height="744" fill="#141D30"/>
<mask id="mask0" mask-type="alpha" maskUnits="userSpaceOnUse" x="0" y="0" width="1440" height="744">
<rect width="1440" height="744" fill="#141D30"/>
</mask>
<g mask="url(#mask0)">
<g opacity="0.7">
<path opacity="0.2" d="M165.51 1308.52C-97.6005 1137.06 -235.747 772.64 108.521 831.218C452.79 889.797 309.423 1038.71 345.71 1087.76C317.913 886.264 192.705 513.408 -85.7544 633.949C-364.213 754.49 -234.408 551.464 -134.698 434.884L-581.829 767.789" stroke="#A29CC3" stroke-width="5"/>
<path opacity="0.2" d="M292.149 1149.06C-225.425 1078.13 -328.327 628.098 15.96 686.532C360.247 744.965 436.211 879.097 472.479 928.145C444.774 726.596 319.726 353.677 41.1717 474.39C-237.383 595.104 210.999 300.928 4.5104 341.561L-470.306 397.626" stroke="#A29CC3" stroke-width="5"/>
</g>
</g>
</svg>
